<svg width="40" height="40" viewBox="0 0 40 40" fill="none" xmlns="http://www.w3.org/2000/svg">
<path d="M10.1562 29.375C9.72504 29.375 9.375 29.725 9.375 30.1562C9.375 30.5875 9.72504 30.9375 10.1562 30.9375C10.5875 30.9375 10.9375 30.5875 10.9375 30.1562C10.9375 29.725 10.5875 29.375 10.1562 29.375Z" fill="url(#paint0_linear)"/>
<path d="M39.2188 4.375H0.78125C0.349731 4.375 0 4.72473 0 5.15625V34.8438C0 35.2753 0.349731 35.625 0.78125 35.625H39.2188C39.6503 35.625 40 35.2753 40 34.8438C40 33.9865 40 6.01166 40 5.15625C40 4.72473 39.6503 4.375 39.2188 4.375ZM7.75604 24.6875C7.79297 24.4299 7.8125 24.1693 7.8125 23.9062C7.8125 20.8908 5.35919 18.4375 2.34375 18.4375C2.08069 18.4375 1.82007 18.457 1.5625 18.494V12.131C1.82007 12.168 2.08069 12.1875 2.34375 12.1875C5.35919 12.1875 7.8125 9.73419 7.8125 6.71875C7.8125 6.45569 7.79297 6.18713 7.75604 5.92957H32.244C32.207 6.18713 32.1875 6.44806 32.1875 6.71082C32.1875 9.72626 34.6408 12.1875 37.6562 12.1875C37.9193 12.1875 38.1799 12.168 38.4375 12.131V18.494C38.1799 18.457 37.9193 18.4375 37.6562 18.4375C34.6408 18.4375 32.1875 20.8908 32.1875 23.9062C32.1875 24.1693 32.207 24.4299 32.244 24.6875C31.2216 24.6875 8.70117 24.6875 7.75604 24.6875ZM1.5625 24.6875V20.0784C1.81824 20.0269 2.07916 20 2.34375 20C4.49768 20 6.25 21.7523 6.25 23.9062C6.25 24.1708 6.22314 24.4318 6.17157 24.6875H1.5625ZM33.8284 24.6875C33.7769 24.4318 33.75 24.1708 33.75 23.9062C33.75 21.7523 35.5023 20 37.6562 20C37.9208 20 38.1818 20.0269 38.4375 20.0784V24.6875H33.8284ZM23.9062 26.25H38.4375V29.375H23.9062V26.25ZM38.4375 10.5466C38.1818 10.5981 37.9208 10.625 37.6562 10.625C35.5023 10.625 33.75 8.87268 33.75 6.71875C33.75 6.45416 33.7769 6.19324 33.8284 5.9375H38.4375V10.5466ZM6.17157 5.9375C6.22314 6.19324 6.25 6.45416 6.25 6.71875C6.25 8.87268 4.49768 10.625 2.34375 10.625C2.07916 10.625 1.81824 10.5981 1.5625 10.5466V5.9375H6.17157ZM1.5625 30.9375H7.03125C7.46277 30.9375 7.8125 30.5878 7.8125 30.1562C7.8125 29.7247 7.46277 29.375 7.03125 29.375H1.5625V26.25H16.0938V29.375H13.2812C12.8497 29.375 12.5 29.7247 12.5 30.1562C12.5 30.5878 12.8497 30.9375 13.2812 30.9375H16.0938V34.0625H1.5625V30.9375ZM17.6562 26.25H22.3438V34.0625H17.6562V26.25ZM38.4375 34.0625H23.9062V30.9375H38.4375V34.0625Z" fill="url(#paint1_linear)"/>
<path d="M27.8125 15.3125C27.8125 11.0046 24.3079 7.5 20 7.5C15.6921 7.5 12.1875 11.0046 12.1875 15.3125C12.1875 19.6606 15.7187 23.125 20 23.125C24.2798 23.125 27.8125 19.6622 27.8125 15.3125ZM13.75 15.3125C13.75 11.8661 16.5536 9.0625 20 9.0625C23.4464 9.0625 26.25 11.8661 26.25 15.3125C26.25 16.7233 25.7742 18.078 24.9173 19.1699C24.3677 18.0438 23.4454 17.1445 22.3254 16.6162C22.8223 16.0626 23.125 15.3317 23.125 14.5312C23.125 12.8082 21.723 11.4062 20 11.4062C18.277 11.4062 16.875 12.8082 16.875 14.5312C16.875 15.3317 17.1777 16.0626 17.6746 16.6159C16.5546 17.1445 15.6323 18.0438 15.0827 19.1699C14.2261 18.078 13.75 16.7236 13.75 15.3125ZM18.4375 14.5312C18.4375 13.6697 19.1385 12.9688 20 12.9688C20.8615 12.9688 21.5625 13.6697 21.5625 14.5312C21.5625 15.3928 20.8615 16.0938 20 16.0938C19.1385 16.0938 18.4375 15.3928 18.4375 14.5312ZM16.2894 20.3406C16.8088 18.761 18.3017 17.6562 20 17.6562C21.6983 17.6562 23.1912 18.761 23.7106 20.3406C22.641 21.131 21.3409 21.5625 20 21.5625C18.6591 21.5625 17.359 21.131 16.2894 20.3406Z" fill="url(#paint2_linear)"/>
<path d="M31.4062 16.0938H34.5312C34.9628 16.0938 35.3125 15.744 35.3125 15.3125C35.3125 14.881 34.9628 14.5312 34.5312 14.5312H31.4062C30.9747 14.5312 30.625 14.881 30.625 15.3125C30.625 15.744 30.9747 16.0938 31.4062 16.0938Z" fill="url(#paint3_linear)"/>
<path d="M8.59375 14.5312H5.46875C5.03723 14.5312 4.6875 14.881 4.6875 15.3125C4.6875 15.744 5.03723 16.0938 5.46875 16.0938H8.59375C9.02527 16.0938 9.375 15.744 9.375 15.3125C9.375 14.881 9.02527 14.5312 8.59375 14.5312Z" fill="url(#paint4_linear)"/>
<defs>
<linearGradient id="paint0_linear" x1="10.1562" y1="29.375" x2="10.1562" y2="30.9375" gradientUnits="userSpaceOnUse">
<stop stop-color="#12968B"/>
<stop offset="1" stop-color="#21AE95"/>
</linearGradient>
<linearGradient id="paint1_linear" x1="20" y1="4.375" x2="20" y2="35.625" gradientUnits="userSpaceOnUse">
<stop stop-color="#12968B"/>
<stop offset="1" stop-color="#21AE95"/>
</linearGradient>
<linearGradient id="paint2_linear" x1="20" y1="7.5" x2="20" y2="23.125" gradientUnits="userSpaceOnUse">
<stop stop-color="#12968B"/>
<stop offset="1" stop-color="#21AE95"/>
</linearGradient>
<linearGradient id="paint3_linear" x1="32.9688" y1="14.5312" x2="32.9688" y2="16.0938" gradientUnits="userSpaceOnUse">
<stop stop-color="#12968B"/>
<stop offset="1" stop-color="#21AE95"/>
</linearGradient>
<linearGradient id="paint4_linear" x1="7.03125" y1="14.5312" x2="7.03125" y2="16.0938" gradientUnits="userSpaceOnUse">
<stop stop-color="#12968B"/>
<stop offset="1" stop-color="#21AE95"/>
</linearGradient>
</defs>
</svg>
