<svg width="40" height="40" viewBox="0 0 40 40" fill="none" xmlns="http://www.w3.org/2000/svg">
<path d="M10.8257 37.8791C10.6805 37.733 10.4789 37.6501 10.2734 37.6501C10.068 37.6501 9.86641 37.733 9.72109 37.8791C9.5757 38.0244 9.49219 38.2251 9.49219 38.4314C9.49219 38.6369 9.57578 38.8384 9.72109 38.9837C9.86641 39.1291 10.068 39.2126 10.2734 39.2126C10.4789 39.2126 10.6805 39.1291 10.8257 38.9837C10.9711 38.8376 11.0547 38.6369 11.0547 38.4314C11.0547 38.2251 10.971 38.0244 10.8257 37.8791Z" fill="url(#paint0_linear)"/>
<path d="M3.88047 28.6803C3.58727 28.3636 3.09289 28.345 2.77641 28.6379L2.76969 28.6442C2.45313 28.9374 2.43414 29.4317 2.72735 29.7482C2.88133 29.9145 3.09071 29.9986 3.30071 29.9986C3.49071 29.9986 3.6811 29.9298 3.83141 29.7906L3.83813 29.7843C4.15469 29.4911 4.17368 28.9968 3.88047 28.6803Z" fill="url(#paint1_linear)"/>
<path d="M37.2958 27.4149C36.3768 25.9722 34.5307 25.4622 33.0014 26.2285L25.0889 30.1936C24.7031 30.3869 24.5471 30.8563 24.7405 31.242C24.9338 31.6277 25.4029 31.7837 25.789 31.5904L33.7015 27.6254C34.512 27.219 35.4906 27.4895 35.9779 28.2543C36.243 28.6705 36.3213 29.1629 36.1981 29.6407C36.0751 30.1186 35.7688 30.512 35.3356 30.7484L24.6987 36.5541C23.3854 37.2709 21.9005 37.6497 20.4044 37.6497H13.4737C13.0423 37.6497 12.6924 37.9995 12.6924 38.431C12.6924 38.8625 13.0423 39.2122 13.4737 39.2122H20.4044C22.1613 39.2122 23.9051 38.7673 25.4473 37.9257L36.0842 32.12C36.8895 31.6804 37.4824 30.9188 37.7113 30.0304C37.94 29.142 37.7885 28.1887 37.2958 27.4149Z" fill="url(#paint2_linear)"/>
<path d="M22.0588 30.2898L18.7938 27.7032C17.102 26.363 14.9818 25.625 12.8236 25.625H7.22656C7.22656 25.1935 6.87672 24.8438 6.44531 24.8438H0.78125C0.349844 24.8438 0 25.1935 0 25.625C0 26.0565 0.349844 26.4062 0.78125 26.4062H5.66406V38.4375H0.78125C0.349844 38.4375 0 38.7873 0 39.2188C0 39.6502 0.349844 40 0.78125 40H6.44531C6.87672 40 7.22656 39.6502 7.22656 39.2188V27.1875H12.8236C14.6311 27.1875 16.4067 27.8056 17.8234 28.928L21.0884 31.5147C21.4729 31.8192 21.6611 32.2909 21.592 32.7765C21.5229 33.262 21.2105 33.6624 20.7565 33.8477C20.3379 34.0184 19.8629 33.9711 19.4862 33.7209L15.315 30.9507C14.9557 30.712 14.4706 30.8099 14.232 31.1693C13.9933 31.5288 14.0912 32.0136 14.4506 32.2523L18.6218 35.0224C19.1091 35.3461 19.6729 35.5115 20.2409 35.5115C20.6146 35.5115 20.9902 35.4398 21.3467 35.2944C22.3208 34.897 22.9908 34.038 23.139 32.9965C23.2871 31.9549 22.8834 30.9431 22.0588 30.2898Z" fill="url(#paint3_linear)"/>
<path d="M39.2188 13.5938H34.3359V1.5625H39.2188C39.6502 1.5625 40 1.21273 40 0.78125C40 0.349766 39.6502 0 39.2188 0H33.5547C33.1233 0 32.7734 0.349766 32.7734 0.78125V12.8125H27.1764C25.3689 12.8125 23.5933 12.1944 22.1766 11.072L18.9116 8.48531C18.5271 8.18078 18.3389 7.70906 18.408 7.22352C18.4771 6.73797 18.7895 6.33758 19.2435 6.15234C19.6621 5.98156 20.1371 6.02898 20.5138 6.27914L24.685 9.0493C25.0443 9.28805 25.5295 9.19008 25.768 8.8307C26.0067 8.47125 25.9088 7.98641 25.5494 7.74773L21.3782 4.97758C20.5701 4.44094 19.5516 4.33922 18.6533 4.70563C17.6792 5.10297 17.0092 5.96195 16.861 7.00352C16.7129 8.04508 17.1166 9.05688 17.9412 9.71016L21.2062 12.2968C22.898 13.637 25.0182 14.375 27.1764 14.375H32.7734C32.7734 14.8065 33.1233 15.1562 33.5547 15.1562H39.2188C39.6502 15.1562 40 14.8065 40 14.375C40 13.9435 39.6502 13.5938 39.2188 13.5938Z" fill="url(#paint4_linear)"/>
<path d="M30.5523 1.01626C30.407 0.870947 30.2055 0.787354 30 0.787354C29.7945 0.787354 29.593 0.870947 29.4477 1.01626C29.3023 1.16157 29.2188 1.36313 29.2188 1.5686C29.2188 1.77485 29.3023 1.97563 29.4477 2.12173C29.593 2.26704 29.7945 2.34985 30 2.34985C30.2055 2.34985 30.407 2.26704 30.5523 2.12173C30.6976 1.97563 30.7812 1.77407 30.7812 1.5686C30.7812 1.36313 30.6977 1.16157 30.5523 1.01626Z" fill="url(#paint5_linear)"/>
<path d="M26.6406 0.788086H19.5956C17.8387 0.788086 16.0948 1.23301 14.5527 2.07465L3.91578 7.88027C3.11054 8.31981 2.51758 9.08145 2.28875 9.96981C2.06 10.8582 2.21148 11.8115 2.70422 12.5854C3.33515 13.5759 4.4032 14.1268 5.50562 14.1268C6.00883 14.1268 6.51937 14.012 6.99859 13.7718L14.9111 9.80676C15.2969 9.6134 15.4529 9.14402 15.2595 8.75832C15.0662 8.37254 14.5969 8.21652 14.211 8.40988L6.29851 12.375C5.48789 12.7811 4.50929 12.5108 4.02211 11.7461C3.75695 11.3298 3.67875 10.8375 3.80187 10.3596C3.92492 9.88168 4.23125 9.48832 4.66437 9.25191L15.3013 3.44621C16.6146 2.72941 18.0995 2.35059 19.5956 2.35059H26.6406C27.072 2.35059 27.4219 2.00082 27.4219 1.56934C27.4219 1.13785 27.072 0.788086 26.6406 0.788086Z" fill="url(#paint6_linear)"/>
<path d="M37.6152 9.91385C37.3237 9.59556 36.8296 9.57385 36.5113 9.86525L36.5045 9.8715C36.1864 10.1629 36.1646 10.657 36.456 10.9753C36.6102 11.1435 36.8209 11.2289 37.0324 11.2289C37.2209 11.2289 37.4098 11.1611 37.5598 11.0238L37.5666 11.0176C37.8848 10.7262 37.9066 10.232 37.6152 9.91385Z" fill="url(#paint7_linear)"/>
<g clip-path="url(#clip0)">
<path d="M20.7371 19.1167C20.256 18.8508 19.7446 18.6483 19.2383 18.4382C18.9446 18.3166 18.6636 18.1749 18.4155 17.9774C17.9269 17.5875 18.0205 16.9546 18.5927 16.704C18.7547 16.6331 18.9244 16.6103 19.0965 16.6002C19.7598 16.5647 20.3902 16.6862 20.9902 16.9748C21.289 17.1192 21.3877 17.0736 21.489 16.7622C21.5953 16.4331 21.6839 16.0989 21.7826 15.7672C21.8485 15.5444 21.7675 15.3976 21.5573 15.3039C21.1725 15.1343 20.7776 15.0128 20.3624 14.947C19.8206 14.8634 19.8206 14.8609 19.8181 14.3166C19.8155 13.5495 19.8155 13.5495 19.0459 13.5495C18.9345 13.5495 18.8231 13.5469 18.7117 13.5495C18.3522 13.5596 18.2914 13.6229 18.2813 13.9849C18.2762 14.1469 18.2813 14.309 18.2788 14.4735C18.2762 14.9546 18.2737 14.947 17.8129 15.1141C16.699 15.5191 16.0104 16.2786 15.937 17.4938C15.8711 18.5698 16.4332 19.2964 17.3167 19.8255C17.8611 20.1521 18.4636 20.3445 19.0408 20.6002C19.2661 20.699 19.4813 20.8129 19.6687 20.9699C20.2231 21.4281 20.1219 22.1901 19.4636 22.4788C19.1117 22.6332 18.7395 22.6712 18.3573 22.6231C17.7674 22.5496 17.2028 22.3952 16.6712 22.1193C16.3598 21.9572 16.2686 22.0003 16.1623 22.337C16.0711 22.6281 15.9901 22.9218 15.9091 23.2155C15.8003 23.6104 15.8408 23.7041 16.218 23.8889C16.699 24.1218 17.2129 24.2408 17.737 24.3244C18.1471 24.3902 18.1598 24.4079 18.1649 24.8332C18.1674 25.0256 18.1674 25.2206 18.1699 25.413C18.1724 25.656 18.2889 25.7978 18.5395 25.8029C18.8231 25.8079 19.1092 25.8079 19.3927 25.8003C19.6256 25.7953 19.7446 25.6687 19.7446 25.4332C19.7446 25.1699 19.7573 24.9041 19.7472 24.6408C19.7345 24.3725 19.851 24.2358 20.1092 24.1649C20.7041 24.0028 21.2105 23.6838 21.6004 23.2079C22.6839 21.8914 22.2713 19.9648 20.7371 19.1167Z" fill="url(#paint8_linear)"/>
</g>
<defs>
<linearGradient id="paint0_linear" x1="10.2734" y1="37.6501" x2="10.2734" y2="39.2126" gradientUnits="userSpaceOnUse">
<stop stop-color="#11958B"/>
<stop offset="1" stop-color="#22B096"/>
</linearGradient>
<linearGradient id="paint1_linear" x1="3.30391" y1="28.4299" x2="3.30391" y2="29.9986" gradientUnits="userSpaceOnUse">
<stop stop-color="#11958B"/>
<stop offset="1" stop-color="#22B096"/>
</linearGradient>
<linearGradient id="paint2_linear" x1="25.254" y1="25.8735" x2="25.254" y2="39.2122" gradientUnits="userSpaceOnUse">
<stop stop-color="#11958B"/>
<stop offset="1" stop-color="#22B096"/>
</linearGradient>
<linearGradient id="paint3_linear" x1="11.5846" y1="24.8438" x2="11.5846" y2="40" gradientUnits="userSpaceOnUse">
<stop stop-color="#11958B"/>
<stop offset="1" stop-color="#22B096"/>
</linearGradient>
<linearGradient id="paint4_linear" x1="28.4154" y1="0" x2="28.4154" y2="15.1562" gradientUnits="userSpaceOnUse">
<stop stop-color="#11958B"/>
<stop offset="1" stop-color="#22B096"/>
</linearGradient>
<linearGradient id="paint5_linear" x1="30" y1="0.787354" x2="30" y2="2.34985" gradientUnits="userSpaceOnUse">
<stop stop-color="#11958B"/>
<stop offset="1" stop-color="#22B096"/>
</linearGradient>
<linearGradient id="paint6_linear" x1="14.8032" y1="0.788086" x2="14.8032" y2="14.1268" gradientUnits="userSpaceOnUse">
<stop stop-color="#11958B"/>
<stop offset="1" stop-color="#22B096"/>
</linearGradient>
<linearGradient id="paint7_linear" x1="37.0356" y1="9.66016" x2="37.0356" y2="11.2289" gradientUnits="userSpaceOnUse">
<stop stop-color="#11958B"/>
<stop offset="1" stop-color="#22B096"/>
</linearGradient>
<linearGradient id="paint8_linear" x1="19.0323" y1="13.5483" x2="19.0323" y2="25.8064" gradientUnits="userSpaceOnUse">
<stop stop-color="#11958B"/>
<stop offset="1" stop-color="#22B096"/>
</linearGradient>
<clipPath id="clip0">
<rect x="12.9032" y="13.5483" width="12.2581" height="12.2581" fill="white"/>
</clipPath>
</defs>
</svg>
