<svg width="41" height="41" viewBox="0 0 41 41" fill="none" xmlns="http://www.w3.org/2000/svg">
<path d="M11.2969 37.176C11.148 37.0271 10.9414 36.9414 10.7308 36.9414C10.5202 36.9414 10.3136 37.0271 10.1646 37.176C10.0157 37.325 9.93001 37.5316 9.93001 37.7422C9.93001 37.9528 10.0156 38.1594 10.1646 38.3083C10.3137 38.4573 10.5202 38.543 10.7308 38.543C10.9414 38.543 11.148 38.4573 11.2969 38.3083C11.4458 38.1594 11.5316 37.9528 11.5316 37.7422C11.5317 37.5316 11.4459 37.325 11.2969 37.176Z" fill="url(#paint0_linear)"/>
<path d="M40.4426 25.7962C39.4572 24.2492 37.4778 23.7022 35.8378 24.5239L27.2389 28.8331C26.8435 29.0313 26.6836 29.5124 26.8817 29.9077C27.0799 30.3031 27.5607 30.463 27.9565 30.2649L36.5554 25.9557C37.4585 25.5031 38.5491 25.8044 39.0917 26.6564C39.387 27.1201 39.4741 27.6687 39.337 28.2012C39.1999 28.7336 38.8586 29.1718 38.3761 29.4353L26.8162 35.7446C25.382 36.5274 23.7603 36.9412 22.1263 36.9412H13.7738C13.3317 36.9412 12.9731 37.2997 12.9731 37.742C12.9731 38.1843 13.3317 38.5428 13.7738 38.5428H22.1264C24.0277 38.5428 25.9149 38.0614 27.5836 37.1504L39.1435 30.841C40.0069 30.3698 40.6429 29.5531 40.8881 28.6004C41.1334 27.6482 40.971 26.626 40.4426 25.7962Z" fill="url(#paint1_linear)"/>
<path d="M23.8944 28.9327L20.3461 26.1216C18.5161 24.6718 16.2225 23.8734 13.8879 23.8734H7.75717V23.8252C7.75717 23.3829 7.39858 23.0244 6.95639 23.0244H0.800781C0.35859 23.0244 0 23.3829 0 23.8252C0 24.2675 0.35859 24.626 0.800781 24.626H6.15545V37.7975H0.800781C0.35859 37.7975 0 38.156 0 38.5982C0 39.0405 0.35859 39.399 0.800781 39.399H6.95623C7.39842 39.399 7.75701 39.0405 7.75701 38.5982V25.475H13.8878C15.8629 25.475 17.8034 26.1504 19.3514 27.3769L22.8997 30.188C23.3311 30.5297 23.5422 31.0589 23.4648 31.6038C23.3872 32.1487 23.0367 32.598 22.5273 32.8059C22.0574 32.9974 21.5246 32.9443 21.1018 32.6637L16.5687 29.6531C16.2004 29.4084 15.7032 29.5087 15.4587 29.8772C15.214 30.2456 15.3143 30.7426 15.6827 30.9872L20.2158 33.9978C20.7374 34.3441 21.3407 34.5211 21.9486 34.5211C22.3486 34.5211 22.7507 34.4444 23.1321 34.2888C24.1747 33.8635 24.8919 32.9441 25.0505 31.8294C25.2092 30.7147 24.7771 29.6318 23.8944 28.9327Z" fill="url(#paint2_linear)"/>
<path d="M4.09351 27.185C3.7941 26.8597 3.2876 26.8385 2.96201 27.138L2.95464 27.1448C2.62928 27.4442 2.60814 27.9508 2.90763 28.2763C3.06555 28.4479 3.28096 28.5348 3.49709 28.5348C3.69096 28.5347 3.88531 28.4648 4.03914 28.3233L4.0465 28.3165C4.37186 28.017 4.393 27.5105 4.09351 27.185Z" fill="url(#paint3_linear)"/>
<path d="M35.9214 7.67316C36.2804 7.14112 36.4901 6.50065 36.4901 5.81198V4.93777C36.4901 3.09789 34.9933 1.60107 33.1534 1.60107C31.3134 1.60107 29.8167 3.09789 29.8167 4.93777V5.8119C29.8167 6.50049 30.0264 7.14112 30.3853 7.67308C29.21 7.94943 28.2024 8.66525 27.5478 9.63844C26.8931 8.66533 25.8855 7.94943 24.7102 7.67308C25.0691 7.14104 25.2788 6.50057 25.2788 5.8119V4.93777C25.2788 3.09789 23.782 1.60107 21.9421 1.60107C20.1022 1.60107 18.6054 3.09789 18.6054 4.93777V5.8119C18.6054 6.50049 18.8152 7.14112 19.1741 7.67308C17.9988 7.94943 16.9911 8.66525 16.3365 9.63844C15.6819 8.66533 14.6742 7.94943 13.4989 7.67308C13.8578 7.14104 14.0676 6.50057 14.0676 5.8119V4.93777C14.0676 3.09789 12.5707 1.60107 10.7309 1.60107C8.89099 1.60107 7.39409 3.09797 7.39409 4.93777V5.8119C7.39409 6.50049 7.60381 7.14112 7.96272 7.67308C5.87997 8.16276 4.32438 10.0351 4.32438 12.2651V18.8985C4.32438 19.3409 4.68297 19.6994 5.12516 19.6994H38.759C39.2012 19.6994 39.5598 19.3409 39.5598 18.8986V12.2652C39.5598 10.0351 38.0042 8.16292 35.9214 7.67316ZM8.99565 4.93777C8.99565 3.98108 9.77401 3.20264 10.7308 3.20264C11.6875 3.20264 12.4659 3.981 12.4659 4.93777V5.8119C12.4659 6.7686 11.6876 7.54704 10.7308 7.54704C9.77409 7.54704 8.99565 6.76868 8.99565 5.8119V4.93777ZM15.5356 18.0976H5.92594V12.2651C5.92594 10.5466 7.32402 9.1486 9.04242 9.1486H9.92992V12.1062C9.92992 12.5485 10.2885 12.907 10.7307 12.907C11.1729 12.907 11.5315 12.5485 11.5315 12.1062V9.1486H12.419C14.1375 9.1486 15.5355 10.5466 15.5355 12.2651V18.0976H15.5356ZM20.207 4.93777C20.207 3.98108 20.9854 3.20264 21.9421 3.20264C22.8989 3.20264 23.6773 3.981 23.6773 4.93777V5.8119C23.6773 6.7686 22.8989 7.54704 21.9421 7.54704C20.9854 7.54704 20.207 6.76868 20.207 5.8119V4.93777ZM26.7469 18.0976H17.1373V12.2651C17.1373 10.5466 18.5353 9.1486 20.2538 9.1486H21.1413V12.1062C21.1413 12.5485 21.4999 12.907 21.942 12.907C22.3842 12.907 22.7428 12.5485 22.7428 12.1062V9.1486H23.6303C25.3488 9.1486 26.7468 10.5466 26.7468 12.2651V18.0976H26.7469ZM31.4183 4.93777C31.4183 3.98108 32.1966 3.20264 33.1534 3.20264C34.1101 3.20264 34.8885 3.981 34.8885 4.93777V5.8119C34.8885 6.7686 34.1102 7.54704 33.1534 7.54704C32.1967 7.54704 31.4183 6.76868 31.4183 5.8119V4.93777ZM37.9582 18.0976H28.3485V12.2651C28.3485 10.5466 29.7466 9.1486 31.465 9.1486H32.3525V12.1062C32.3525 12.5485 32.7111 12.907 33.1533 12.907C33.5955 12.907 33.9541 12.5485 33.9541 12.1062V9.1486H34.8416C36.5601 9.1486 37.9581 10.5466 37.9581 12.2651V18.0976H37.9582Z" fill="url(#paint4_linear)"/>
<defs>
<linearGradient id="paint0_linear" x1="10.7308" y1="36.9414" x2="10.7308" y2="38.543" gradientUnits="userSpaceOnUse">
<stop stop-color="#10938A"/>
<stop offset="1" stop-color="#23B297"/>
</linearGradient>
<linearGradient id="paint1_linear" x1="26.9865" y1="24.1433" x2="26.9865" y2="38.5428" gradientUnits="userSpaceOnUse">
<stop stop-color="#10938A"/>
<stop offset="1" stop-color="#23B297"/>
</linearGradient>
<linearGradient id="paint2_linear" x1="12.5414" y1="23.0244" x2="12.5414" y2="39.399" gradientUnits="userSpaceOnUse">
<stop stop-color="#10938A"/>
<stop offset="1" stop-color="#23B297"/>
</linearGradient>
<linearGradient id="paint3_linear" x1="3.50057" y1="26.9265" x2="3.50057" y2="28.5348" gradientUnits="userSpaceOnUse">
<stop stop-color="#10938A"/>
<stop offset="1" stop-color="#23B297"/>
</linearGradient>
<linearGradient id="paint4_linear" x1="21.9421" y1="1.60107" x2="21.9421" y2="19.6994" gradientUnits="userSpaceOnUse">
<stop stop-color="#10938A"/>
<stop offset="1" stop-color="#23B297"/>
</linearGradient>
</defs>
</svg>
