<svg width="41" height="41" viewBox="0 0 41 41" fill="none" xmlns="http://www.w3.org/2000/svg">
<path d="M36.9961 1.604H4.00391C1.79615 1.604 0 3.40016 0 5.60791V26.4282C0 28.636 1.79615 30.4321 4.00391 30.4321H6.0459C6.48809 30.4321 6.84668 30.0735 6.84668 29.6314C6.84668 29.1892 6.48809 28.8306 6.0459 28.8306H4.00391C2.67925 28.8306 1.60156 27.7529 1.60156 26.4282V5.60791C1.60156 4.28326 2.67925 3.20557 4.00391 3.20557H36.9961C38.3207 3.20557 39.3984 4.28326 39.3984 5.60791V26.4282C39.3984 27.7529 38.3207 28.8306 36.9961 28.8306H12.5684C12.1262 28.8306 11.7676 29.1892 11.7676 29.6314C11.7676 30.0735 12.1262 30.4321 12.5684 30.4321H16.0557V34.6538C14.8438 34.9186 13.9336 35.9996 13.9336 37.2896V38.5951C13.9336 39.0373 14.2922 39.3958 14.7344 39.3958H26.2656C26.7078 39.3958 27.0664 39.0373 27.0664 38.5951V37.2896C27.0664 35.9996 26.1562 34.9186 24.9443 34.6538V30.4321H36.9961C39.2038 30.4321 41 28.636 41 26.4282V5.60791C41 3.40016 39.2038 1.604 36.9961 1.604ZM17.6572 30.4321H23.3428V34.5912H17.6572V30.4321ZM25.4648 37.2897V37.7944H15.5352V37.2897C15.5352 36.6848 16.0272 36.1928 16.6321 36.1928H24.3679C24.9728 36.1928 25.4648 36.6848 25.4648 37.2897Z" fill="url(#paint0_linear)"/>
<path d="M9.93521 29.0652C9.78635 28.9162 9.57975 28.8306 9.36914 28.8306C9.15854 28.8306 8.95193 28.9162 8.80299 29.0652C8.65404 29.2141 8.56836 29.4207 8.56836 29.6313C8.56836 29.842 8.65396 30.0486 8.80299 30.1974C8.95193 30.3464 9.15854 30.4321 9.36914 30.4321C9.57975 30.4321 9.78635 30.3464 9.93521 30.1974C10.0842 30.0486 10.1699 29.842 10.1699 29.6313C10.1699 29.4207 10.0842 29.2141 9.93521 29.0652Z" fill="url(#paint1_linear)"/>
<path d="M12.8909 15.504C13.1934 15.0235 13.3692 14.4556 13.3692 13.8471V13.048C13.3692 11.328 11.9699 9.92871 10.25 9.92871C8.53008 9.92871 7.1308 11.328 7.1308 13.048V13.8471C7.1308 14.4556 7.30657 15.0235 7.6091 15.504C5.72206 15.9924 4.32422 17.7095 4.32422 19.7471V22.1143C4.32422 22.5565 4.68281 22.9151 5.125 22.9151H15.375C15.8172 22.9151 16.1758 22.5565 16.1758 22.1143V19.7471C16.1758 17.7095 14.7779 15.9924 12.8909 15.504ZM10.25 11.5302C11.0868 11.5302 11.7676 12.211 11.7676 13.0479V13.847C11.7676 14.6839 11.0868 15.3647 10.25 15.3647C9.41318 15.3647 8.73236 14.6839 8.73236 13.847V13.0479C8.73236 12.211 9.41318 11.5302 10.25 11.5302ZM14.5743 21.3134H5.92578V19.747C5.92578 18.2138 7.17316 16.9664 8.70649 16.9664H11.7936C13.3268 16.9664 14.5743 18.2138 14.5743 19.747V21.3134Z" fill="url(#paint2_linear)"/>
<path d="M33.3909 15.504C33.6934 15.0235 33.8692 14.4556 33.8692 13.8471V13.048C33.8692 11.328 32.4699 9.92871 30.75 9.92871C29.0301 9.92871 27.6308 11.328 27.6308 13.048V13.8471C27.6308 14.4556 27.8066 15.0235 28.1091 15.504C26.2221 15.9924 24.8242 17.7095 24.8242 19.7471V22.1143C24.8242 22.5565 25.1828 22.9151 25.625 22.9151H35.875C36.3172 22.9151 36.6758 22.5565 36.6758 22.1143V19.7471C36.6758 17.7095 35.2779 15.9924 33.3909 15.504ZM29.2324 13.0479C29.2324 12.211 29.9132 11.5302 30.75 11.5302C31.5868 11.5302 32.2676 12.211 32.2676 13.0479V13.847C32.2676 14.6839 31.5868 15.3647 30.75 15.3647C29.9132 15.3647 29.2324 14.6839 29.2324 13.847V13.0479ZM35.0743 21.3134H26.4258V19.747C26.4258 18.2138 27.6732 16.9664 29.2065 16.9664H32.2936C33.8268 16.9664 35.0743 18.2138 35.0743 19.747V21.3134Z" fill="url(#paint3_linear)"/>
<path d="M24.8227 8.56521L23.6338 7.37637C23.321 7.06367 22.8141 7.06367 22.5012 7.37637C22.2427 7.63495 22.1985 8.02613 22.3676 8.33067H19.5123C19.0702 8.33067 18.7116 8.68918 18.7116 9.13145C18.7116 9.57372 19.0702 9.93223 19.5124 9.93223H22.3677C22.1986 10.2368 22.2427 10.6279 22.5013 10.8865C22.6577 11.0429 22.8626 11.1211 23.0675 11.1211C23.2725 11.1211 23.4774 11.0428 23.6338 10.8865L24.8227 9.69768C24.9728 9.54753 25.0572 9.34381 25.0572 9.13145C25.0572 8.919 24.9728 8.71536 24.8227 8.56521Z" fill="url(#paint4_linear)"/>
<path d="M16.6354 8.5652C16.4857 8.41625 16.2799 8.33057 16.0693 8.33057C15.8587 8.33057 15.6521 8.41625 15.5031 8.5652C15.3534 8.71414 15.2685 8.92074 15.2685 9.13135C15.2685 9.34195 15.3534 9.54855 15.5031 9.6975C15.6521 9.84645 15.8579 9.93213 16.0693 9.93213C16.2799 9.93213 16.4865 9.84645 16.6354 9.6975C16.7843 9.54855 16.8701 9.34195 16.8701 9.13135C16.8701 8.92074 16.7844 8.71414 16.6354 8.5652Z" fill="url(#paint5_linear)"/>
<path d="M24.2564 13.4156H17.9577C18.1268 13.111 18.0827 12.7199 17.8241 12.4613C17.5113 12.1486 17.0044 12.1486 16.6915 12.4613L15.5027 13.6502C15.19 13.963 15.19 14.4699 15.5028 14.7826L16.6916 15.9715C16.848 16.1279 17.0529 16.206 17.2579 16.206C17.4628 16.206 17.6677 16.1278 17.8241 15.9715C18.0827 15.7129 18.1268 15.3217 17.9577 15.0172H24.2564C24.6986 15.0172 25.0572 14.6587 25.0572 14.2164C25.0572 13.7741 24.6986 13.4156 24.2564 13.4156Z" fill="url(#paint6_linear)"/>
<defs>
<linearGradient id="paint0_linear" x1="20.5" y1="1.604" x2="20.5" y2="39.3958" gradientUnits="userSpaceOnUse">
<stop stop-color="#10938B"/>
<stop offset="1" stop-color="#42C0A6"/>
</linearGradient>
<linearGradient id="paint1_linear" x1="9.36914" y1="28.8306" x2="9.36914" y2="30.4321" gradientUnits="userSpaceOnUse">
<stop stop-color="#10938B"/>
<stop offset="1" stop-color="#42C0A6"/>
</linearGradient>
<linearGradient id="paint2_linear" x1="10.25" y1="9.92871" x2="10.25" y2="22.9151" gradientUnits="userSpaceOnUse">
<stop stop-color="#10938B"/>
<stop offset="1" stop-color="#42C0A6"/>
</linearGradient>
<linearGradient id="paint3_linear" x1="30.75" y1="9.92871" x2="30.75" y2="22.9151" gradientUnits="userSpaceOnUse">
<stop stop-color="#10938B"/>
<stop offset="1" stop-color="#42C0A6"/>
</linearGradient>
<linearGradient id="paint4_linear" x1="21.8844" y1="7.14185" x2="21.8844" y2="11.1211" gradientUnits="userSpaceOnUse">
<stop stop-color="#10938B"/>
<stop offset="1" stop-color="#42C0A6"/>
</linearGradient>
<linearGradient id="paint5_linear" x1="16.0693" y1="8.33057" x2="16.0693" y2="9.93213" gradientUnits="userSpaceOnUse">
<stop stop-color="#10938B"/>
<stop offset="1" stop-color="#42C0A6"/>
</linearGradient>
<linearGradient id="paint6_linear" x1="20.1627" y1="12.2268" x2="20.1627" y2="16.206" gradientUnits="userSpaceOnUse">
<stop stop-color="#10938B"/>
<stop offset="1" stop-color="#42C0A6"/>
</linearGradient>
</defs>
</svg>
