<svg width="45" height="38" viewBox="0 0 45 38" fill="none" xmlns="http://www.w3.org/2000/svg">
<path d="M43.2408 6.86005C43.0008 6.438 42.464 6.29052 42.0422 6.53046C41.6202 6.7704 41.4727 7.30706 41.7127 7.72903C44.3236 12.3203 43.5354 18.1386 39.7958 21.8781L39.1293 22.5446C38.9683 22.1221 38.7189 21.7258 38.379 21.386L29.3477 12.3548C29.9383 12.0642 30.484 11.6766 30.9631 11.1975L32.6953 9.46522C33.0385 9.12201 33.0385 8.5654 32.6953 8.22218C32.352 7.87897 31.7955 7.87897 31.4521 8.22218L29.72 9.95442C28.9062 10.7681 27.8244 11.2163 26.6736 11.2163H23.211C22.9779 11.2163 22.7544 11.3089 22.5894 11.4737L19.9386 14.1245C19.1515 14.9117 17.8707 14.9117 17.0835 14.1245C16.2963 13.3373 16.2963 12.0565 17.0835 11.2694L23.1353 5.21764C26.8337 1.51919 32.6075 0.705851 37.1756 3.23974C37.6001 3.47503 38.1352 3.32201 38.3706 2.89741C38.6061 2.47289 38.4528 1.93782 38.0283 1.70236C35.5087 0.304981 32.5401 -0.254268 29.6688 0.128145C26.9818 0.485948 24.5224 1.61104 22.5064 3.39627C20.0297 1.20068 16.8768 0 13.5387 0C9.92234 0 6.52255 1.40827 3.96537 3.96537C1.40819 6.52246 0 9.92252 0 13.5388C0 17.1551 1.40827 20.5549 3.96537 23.1121L4.29663 23.4434C4.35428 23.5009 4.41827 23.548 4.48586 23.5863C4.54466 24.3467 4.86326 25.0906 5.4436 25.6709C6.08951 26.3167 6.93748 26.6394 7.78572 26.6394C7.82975 26.6394 7.87387 26.638 7.9179 26.6363C7.91614 26.6807 7.91465 26.7252 7.91465 26.7699C7.91465 27.6547 8.25918 28.4865 8.88479 29.1121C9.5307 29.7579 10.3787 30.0807 11.2269 30.0806C11.2709 30.0806 11.3151 30.0792 11.3591 30.0774C11.3573 30.1219 11.3558 30.1664 11.3558 30.2111C11.3558 31.0958 11.7004 31.9276 12.3261 32.5532C12.9719 33.199 13.82 33.5218 14.6682 33.5218C14.7127 33.5218 14.7573 33.5204 14.8019 33.5186C14.7662 34.4108 15.0876 35.3149 15.7673 35.9946C16.3929 36.6202 17.2247 36.9647 18.1094 36.9647C18.9942 36.9647 19.826 36.6202 20.4515 35.9946L21.6799 34.7661L23.3392 36.4252C23.9648 37.0509 24.7966 37.3954 25.6813 37.3954C26.566 37.3954 27.3978 37.0509 28.0234 36.4253C28.7113 35.7374 29.0326 34.8198 28.9878 33.9171C29.043 33.9199 29.0983 33.9214 29.1536 33.9214C30.0019 33.9214 30.8502 33.5986 31.4959 32.9528C32.1752 32.2735 32.4966 31.3701 32.4613 30.4784C32.5058 30.4802 32.5503 30.4817 32.595 30.4817C33.4797 30.4817 34.3115 30.1371 34.9371 29.5115C35.6164 28.8322 35.9378 27.9289 35.9025 27.0371C35.947 27.0389 35.9914 27.0404 36.0362 27.0404C36.9209 27.0404 37.7527 26.6959 38.3783 26.0702C38.696 25.7525 38.9353 25.3855 39.0966 24.9938C39.1821 24.9521 39.2626 24.8966 39.3337 24.8256L41.0382 23.1211C45.3362 18.824 46.2416 12.1371 43.2408 6.86005ZM7.7858 24.883C7.37061 24.883 6.98028 24.7214 6.68664 24.4277C6.39309 24.1342 6.23137 23.7439 6.23137 23.3287C6.23137 22.9136 6.393 22.5232 6.68664 22.2296L8.20135 20.7149C8.49491 20.4212 8.88532 20.2596 9.30051 20.2596C9.71562 20.2596 10.106 20.4212 10.3996 20.7149C11.0057 21.321 11.0057 22.307 10.3996 22.913L8.88488 24.4278C8.59132 24.7213 8.20109 24.883 7.7858 24.883ZM10.1281 27.8691C9.83445 27.5756 9.67282 27.1851 9.67282 26.77C9.67282 26.3548 9.83445 25.9645 10.1281 25.671L11.6429 24.1562C11.6429 24.1562 11.6429 24.1562 11.6429 24.1561C11.9364 23.8625 12.3268 23.7008 12.742 23.7008C13.1571 23.7008 13.5475 23.8624 13.841 24.1561C14.4471 24.7622 14.4471 25.7482 13.841 26.3542L12.3263 27.869C11.7201 28.475 10.7338 28.475 10.1281 27.8691ZM13.5693 31.3103C13.2756 31.0167 13.114 30.6263 13.114 30.2112C13.114 29.796 13.2756 29.4057 13.5693 29.1121L15.0841 27.5973C15.0841 27.5973 15.0841 27.5973 15.0841 27.5973C15.3776 27.3037 15.768 27.142 16.1831 27.142C16.5983 27.142 16.9887 27.3036 17.2822 27.5973C17.8883 28.2034 17.8883 29.1895 17.2822 29.7955L15.7674 31.3103C15.1614 31.9164 14.1754 31.9164 13.5693 31.3103ZM20.7235 33.2369L19.2087 34.7517C18.9151 35.0453 18.5248 35.207 18.1096 35.207C17.6945 35.207 17.3041 35.0454 17.0106 34.7517C16.4045 34.1456 16.4045 33.1595 17.0106 32.5535L18.5254 31.0387C18.5254 31.0387 18.5254 31.0387 18.5254 31.0386C18.8189 30.7451 19.2092 30.5833 19.6244 30.5833C20.0395 30.5833 20.4299 30.745 20.7235 31.0386C21.0171 31.3322 21.1788 31.7226 21.1788 32.1377C21.1789 32.5531 21.0171 32.9433 20.7235 33.2369ZM37.1359 24.8272C36.8423 25.1209 36.4519 25.2825 36.0368 25.2825C35.6216 25.2825 35.2313 25.1209 34.9377 24.8272L31.2791 21.1686C31.2789 21.1684 31.2788 21.1683 31.2787 21.1681L27.8377 17.7272C27.4944 17.384 26.938 17.384 26.5946 17.7272C26.2514 18.0704 26.2514 18.627 26.5946 18.9703L33.6946 26.0701C34.3007 26.6763 34.3007 27.6623 33.6946 28.2683C33.401 28.562 33.0106 28.7236 32.5955 28.7236C32.1803 28.7236 31.79 28.562 31.4964 28.2683L24.3965 21.1684C24.0532 20.8253 23.4967 20.8253 23.1533 21.1684C22.8101 21.5116 22.8101 22.0682 23.1533 22.4115L26.5939 25.852C26.5942 25.8523 26.5944 25.8526 26.5947 25.8529L30.2534 29.5114C30.8595 30.1176 30.8595 31.1038 30.2535 31.7098C29.6473 32.3159 28.6611 32.3159 28.0553 31.7098L24.3965 28.051C24.3289 27.9835 24.2528 27.9297 24.1719 27.8887L23.1284 26.8452C22.7851 26.5021 22.2286 26.5021 21.8852 26.8452C21.542 27.1884 21.542 27.745 21.8852 28.0883L26.7809 32.9838C27.387 33.59 27.387 34.576 26.7809 35.1821C26.4874 35.4757 26.097 35.6373 25.6819 35.6373C25.2667 35.6373 24.8763 35.4757 24.5828 35.1821L22.7199 33.3192C22.8618 32.9468 22.9369 32.5481 22.9369 32.1376C22.9369 31.2529 22.5923 30.4211 21.9667 29.7955C21.341 29.1699 20.5092 28.8254 19.6246 28.8254C19.5799 28.8254 19.5354 28.8269 19.4909 28.8286C19.5262 27.9369 19.2048 27.0335 18.5255 26.3542C17.8998 25.7286 17.068 25.3841 16.1834 25.3841C16.1387 25.3841 16.0942 25.3856 16.0497 25.3873C16.0851 24.4956 15.7636 23.5923 15.0843 22.9129C14.4586 22.2873 13.6268 21.9428 12.7422 21.9428C12.6975 21.9428 12.653 21.9443 12.6085 21.9461C12.6439 21.0543 12.3225 20.151 11.6432 19.4717C10.3517 18.1802 8.25013 18.1803 6.95866 19.4717L5.44395 20.9864C5.25288 21.1775 5.0909 21.3865 4.95625 21.6079C2.89161 19.4149 1.75834 16.564 1.75834 13.5386C1.75834 10.3919 2.98372 7.43336 5.20893 5.20832C7.43398 2.98328 10.3926 1.75782 13.5392 1.75782C16.3988 1.75782 19.1029 2.76997 21.2423 4.62464L15.8408 10.0261C15.1275 10.7395 14.7346 11.688 14.7346 12.6968C14.7346 13.7057 15.1275 14.6541 15.8408 15.3675C16.5772 16.1038 17.5444 16.472 18.5116 16.472C19.4787 16.472 20.4459 16.1039 21.1823 15.3675L23.5757 12.9741H26.6741C26.93 12.9741 27.183 12.9566 27.433 12.9256L37.1364 22.6288C37.7419 23.2352 37.7419 24.2213 37.1359 24.8272Z" fill="url(#paint0_linear)"/>
<defs>
<linearGradient id="paint0_linear" x1="22.5" y1="0" x2="22.5" y2="37.3954" gradientUnits="userSpaceOnUse">
<stop stop-color="#0F928A"/>
<stop offset="1" stop-color="#27B799"/>
</linearGradient>
</defs>
</svg>
