<svg width="41" height="41" viewBox="0 0 41 41" fill="none" xmlns="http://www.w3.org/2000/svg">
<g clip-path="url(#clip0)">
<path d="M29.1973 20.99L24.9342 13.606C26.8078 12.2355 28.0273 10.0213 28.0273 7.52734C28.0273 3.37673 24.6506 0 20.5 0C16.3494 0 12.9727 3.37673 12.9727 7.52734C12.9727 11.678 16.3494 15.0547 20.5 15.0547C21.5846 15.0547 22.6161 14.8237 23.5485 14.409L27.8103 21.7908C27.9587 22.0477 28.2278 22.1912 28.5046 22.1912C28.6404 22.1912 28.7782 22.1567 28.9042 22.0839C29.2872 21.8628 29.4185 21.373 29.1973 20.99ZM15.2908 10.3502C14.8339 9.51048 14.5742 8.54866 14.5742 7.52734C14.5742 4.25984 17.2325 1.60156 20.5 1.60156C23.7675 1.60156 26.4258 4.25984 26.4258 7.52734C26.4258 8.54882 26.1659 9.51072 25.709 10.3506C25.2984 9.63364 24.5875 9.10312 23.7288 8.94296L23.48 8.8966C23.5462 8.64579 23.5817 8.38274 23.5817 8.11151V7.39786C23.5817 5.69844 22.1992 4.31597 20.4998 4.31597C18.8005 4.31597 17.418 5.69852 17.418 7.39786V8.11151C17.418 8.38282 17.4535 8.64579 17.5197 8.8966L17.2709 8.94296C16.4123 9.10312 15.7016 9.63348 15.2908 10.3502ZM21.9801 7.39778V8.11143C21.9801 8.92767 21.316 9.59176 20.4998 9.59176C19.6835 9.59176 19.0194 8.92767 19.0194 8.11143V7.39778C19.0194 6.58154 19.6835 5.91745 20.4998 5.91745C21.316 5.91745 21.9801 6.58154 21.9801 7.39778ZM24.4893 11.9051C23.4357 12.8662 22.0351 13.4531 20.5 13.4531C18.9647 13.4531 17.5639 12.866 16.5102 11.9047V11.7865C16.5102 11.1651 16.9536 10.6313 17.5645 10.5174L18.3975 10.362C18.9485 10.8772 19.6878 11.1934 20.4998 11.1934C21.3118 11.1934 22.051 10.8772 22.6021 10.362L23.435 10.5174C24.0459 10.6313 24.4893 11.1651 24.4893 11.7865V11.9051Z" fill="url(#paint0_linear)"/>
<path d="M33.4727 25.9453C29.5926 25.9453 26.3891 28.8964 25.9879 32.6719H20.9538C20.5116 32.6719 20.153 33.0304 20.153 33.4727C20.153 33.9149 20.5116 34.2734 20.9538 34.2734H25.9879C26.3891 38.0489 29.5926 41 33.4727 41C37.6233 41 41 37.6233 41 33.4727C41 29.322 37.6233 25.9453 33.4727 25.9453ZM37.462 37.8504C36.4083 38.8115 35.0078 39.3984 33.4727 39.3984C31.9373 39.3984 30.5366 38.8113 29.4829 37.85V37.7319C29.4829 37.1104 29.9263 36.5766 30.5372 36.4627L31.3701 36.3073C31.9212 36.8225 32.6604 37.1387 33.4724 37.1387C34.2845 37.1387 35.0237 36.8225 35.5748 36.3073L36.4077 36.4627C37.0186 36.5766 37.462 37.1104 37.462 37.7319V37.8504ZM31.9921 34.0567V33.3431C31.9921 32.5269 32.6562 31.8628 33.4724 31.8628C34.2887 31.8628 34.9528 32.5269 34.9528 33.3431V34.0567C34.9528 34.873 34.2887 35.5371 33.4724 35.5371C32.6562 35.5371 31.9921 34.8731 31.9921 34.0567ZM38.6817 36.2959C38.271 35.579 37.5602 35.0484 36.7014 34.8883L36.4527 34.8419C36.5189 34.5911 36.5544 34.3281 36.5544 34.0568V33.3432C36.5544 31.6438 35.1719 30.2613 33.4725 30.2613C31.7732 30.2613 30.3906 31.6438 30.3906 33.3432V34.0568C30.3906 34.3281 30.4262 34.5911 30.4923 34.8419L30.2436 34.8883C29.385 35.0484 28.6742 35.5788 28.2635 36.2955C27.8066 35.4558 27.5469 34.494 27.5469 33.4727C27.5469 30.2051 30.2052 27.5469 33.4727 27.5469C36.7402 27.5469 39.3985 30.2051 39.3985 33.4727C39.3985 34.4941 39.1386 35.456 38.6817 36.2959Z" fill="url(#paint1_linear)"/>
<path d="M10.45 26.5359L14.4669 19.5785C14.6881 19.1954 14.5568 18.7057 14.1738 18.4846C13.7907 18.2635 13.3011 18.3947 13.08 18.7777L8.87218 26.0657C8.43567 25.9867 7.98627 25.9452 7.52734 25.9452C3.37673 25.9452 0 29.322 0 33.4726C0 37.6232 3.37673 40.9999 7.52734 40.9999C11.678 40.9999 15.0547 37.6232 15.0547 33.4726C15.0547 30.3579 13.1532 27.6791 10.45 26.5359ZM11.5167 37.8504C10.463 38.8114 9.06244 39.3984 7.52734 39.3984C5.99201 39.3984 4.59128 38.8112 3.53753 37.8499V37.7318C3.53753 37.1103 3.98092 36.5766 4.59184 36.4626L5.42481 36.3073C5.97583 36.8224 6.71511 37.1386 7.5271 37.1386C8.33918 37.1386 9.07838 36.8224 9.62947 36.3073L10.4624 36.4626C11.0733 36.5766 11.5167 37.1103 11.5167 37.7318V37.8504ZM6.04678 34.0567V33.343C6.04678 32.5268 6.71087 31.8627 7.5271 31.8627C8.34334 31.8627 9.00743 32.5268 9.00743 33.343V34.0567C9.00743 34.8729 8.34334 35.537 7.5271 35.537C6.71087 35.537 6.04678 34.8729 6.04678 34.0567ZM12.7363 36.2958C12.3257 35.5789 11.6149 35.0484 10.7561 34.8882L10.5074 34.8418C10.5735 34.591 10.6091 34.328 10.6091 34.0568V33.3431C10.6091 31.6437 9.22652 30.2612 7.52718 30.2612C5.82785 30.2612 4.4453 31.6438 4.4453 33.3431V34.0568C4.4453 34.3281 4.48085 34.591 4.547 34.8418L4.29827 34.8882C3.43968 35.0484 2.7289 35.5787 2.31818 36.2954C1.86126 35.4557 1.60156 34.4939 1.60156 33.4726C1.60156 30.2051 4.25984 27.5468 7.52734 27.5468C10.7949 27.5468 13.4531 30.2051 13.4531 33.4726C13.4531 34.4941 13.1933 35.456 12.7363 36.2958Z" fill="url(#paint2_linear)"/>
<path d="M18.4772 32.9065C18.3283 32.7576 18.1217 32.6719 17.9111 32.6719C17.7005 32.6719 17.4939 32.7576 17.3449 32.9065C17.1952 33.0554 17.1103 33.2621 17.1103 33.4727C17.1103 33.6833 17.1952 33.8899 17.3449 34.0388C17.4939 34.1878 17.7005 34.2734 17.9111 34.2734C18.1217 34.2734 18.3283 34.1878 18.4772 34.0388C18.6261 33.8899 18.7119 33.6833 18.7119 33.4727C18.7119 33.2621 18.6262 33.0554 18.4772 32.9065Z" fill="url(#paint3_linear)"/>
<path d="M30.4089 23.3635C30.2599 23.2146 30.054 23.1289 29.8427 23.1289C29.6321 23.1289 29.4255 23.2146 29.2766 23.3635C29.1276 23.5125 29.0419 23.7183 29.0419 23.9297C29.0419 24.1403 29.1276 24.3469 29.2766 24.4958C29.4255 24.6448 29.6321 24.7305 29.8427 24.7305C30.0541 24.7305 30.2599 24.6448 30.4089 24.4958C30.5585 24.3461 30.6435 24.1403 30.6435 23.9297C30.6435 23.7191 30.5585 23.5125 30.4089 23.3635Z" fill="url(#paint4_linear)"/>
<path d="M15.8794 15.9443C15.7304 15.7954 15.5238 15.7097 15.3132 15.7097C15.1026 15.7097 14.896 15.7954 14.7472 15.9443C14.5982 16.0941 14.5125 16.2999 14.5125 16.5113C14.5125 16.7219 14.5981 16.9277 14.7472 17.0767C14.896 17.2264 15.1026 17.3121 15.3132 17.3121C15.5238 17.3121 15.7304 17.2264 15.8794 17.0767C16.0283 16.9277 16.114 16.7219 16.114 16.5113C16.114 16.2999 16.0284 16.0941 15.8794 15.9443Z" fill="url(#paint5_linear)"/>
</g>
<defs>
<linearGradient id="paint0_linear" x1="21.1387" y1="0" x2="21.1387" y2="22.1912" gradientUnits="userSpaceOnUse">
<stop stop-color="#0F928A"/>
<stop offset="1" stop-color="#26B698"/>
</linearGradient>
<linearGradient id="paint1_linear" x1="30.5765" y1="25.9453" x2="30.5765" y2="41" gradientUnits="userSpaceOnUse">
<stop stop-color="#0F928A"/>
<stop offset="1" stop-color="#26B698"/>
</linearGradient>
<linearGradient id="paint2_linear" x1="7.52734" y1="18.3772" x2="7.52734" y2="40.9999" gradientUnits="userSpaceOnUse">
<stop stop-color="#0F928A"/>
<stop offset="1" stop-color="#26B698"/>
</linearGradient>
<linearGradient id="paint3_linear" x1="17.9111" y1="32.6719" x2="17.9111" y2="34.2734" gradientUnits="userSpaceOnUse">
<stop stop-color="#0F928A"/>
<stop offset="1" stop-color="#26B698"/>
</linearGradient>
<linearGradient id="paint4_linear" x1="29.8427" y1="23.1289" x2="29.8427" y2="24.7305" gradientUnits="userSpaceOnUse">
<stop stop-color="#0F928A"/>
<stop offset="1" stop-color="#26B698"/>
</linearGradient>
<linearGradient id="paint5_linear" x1="15.3132" y1="15.7097" x2="15.3132" y2="17.3121" gradientUnits="userSpaceOnUse">
<stop stop-color="#0F928A"/>
<stop offset="1" stop-color="#26B698"/>
</linearGradient>
<clipPath id="clip0">
<rect width="41" height="41" fill="white"/>
</clipPath>
</defs>
</svg>
