<svg viewBox="0 0 15 20" fill="none" xmlns="http://www.w3.org/2000/svg">
<path d="M12.4202 3.1802H10.5609V3.0144C10.5608 2.28307 9.97362 1.68883 9.24578 1.68315H8.90548C8.85772 0.740097 8.08281 0 7.14288 0C6.20313 0 5.42821 0.740097 5.38046 1.68315H5.04016C4.31232 1.68883 3.72519 2.28307 3.72484 3.0144V3.1802H1.86553C0.825981 3.1802 5.79351e-05 4.03811 5.79351e-05 5.08264V18.1056C-0.00798732 19.1436 0.8229 19.9917 1.85595 20H12.4202C13.4533 19.9971 14.2884 19.1534 14.2857 18.1154C14.2857 18.1122 14.2857 18.1091 14.2857 18.1058V5.08264C14.2857 4.03811 13.4598 3.1802 12.4202 3.1802ZM7.14288 0.880274C7.59735 0.884402 7.97685 1.22925 8.02666 1.68315H6.2591C6.30891 1.22925 6.68858 0.884402 7.14288 0.880274ZM4.60126 3.0144C4.60109 2.7693 4.79606 2.56893 5.04016 2.56377H9.24578C9.4897 2.56893 9.68484 2.7693 9.6845 3.0144V4.76531H4.60126V3.0144ZM13.4093 18.1056C13.418 18.6567 12.9803 19.1106 12.4319 19.1194C12.4279 19.1194 12.4242 19.1194 12.4202 19.1194H1.86553C1.31708 19.117 0.874253 18.6684 0.876478 18.1172V5.08264C0.876478 4.52366 1.30921 4.06082 1.86553 4.06082H3.72484V5.2223C3.72673 5.45811 3.91844 5.64799 4.15313 5.6461H4.16374H10.1222C10.2348 5.64989 10.3446 5.60843 10.4269 5.53086C10.5091 5.45329 10.5573 5.34614 10.5609 5.2328C10.5609 5.22936 10.5609 5.22574 10.5609 5.2223V4.06082H12.4202C12.9766 4.06082 13.4093 4.52366 13.4093 5.08264V18.1056Z"/>
<path d="M2.89957 14.6937H7.1009C7.34966 14.6937 7.55126 14.4654 7.55126 14.1835C7.55126 13.9017 7.34966 13.6733 7.1009 13.6733H2.89957C2.65082 13.6733 2.44922 13.9017 2.44922 14.1835C2.44922 14.4654 2.65082 14.6937 2.89957 14.6937Z"/>
<path d="M11.3916 15.9185H2.89461C2.6486 15.9185 2.44922 16.1012 2.44922 16.3266C2.44922 16.5521 2.6486 16.7348 2.89461 16.7348H11.3916C11.6376 16.7348 11.837 16.5521 11.837 16.3266C11.837 16.1012 11.6376 15.9185 11.3916 15.9185Z"/>
<path d="M11.7656 10.2344H9.23438V12.7656C9.23438 12.8951 9.12945 13 9 13C8.87055 13 8.76562 12.8951 8.76562 12.7656V10.2344H6.23438C6.10493 10.2344 6 10.1294 6 10C6 9.87055 6.10493 9.76562 6.23438 9.76562H8.76562V7.23438C8.76562 7.10493 8.87055 7 9 7C9.12945 7 9.23438 7.10493 9.23438 7.23438V9.76562H11.7656C11.8951 9.76562 12 9.87055 12 10C12 10.1294 11.8951 10.2344 11.7656 10.2344Z"/>
<path d="M11.7656 10.2344H9.23438V12.7656C9.23438 12.8951 9.12945 13 9 13C8.87055 13 8.76562 12.8951 8.76562 12.7656V10.2344H6.23438C6.10493 10.2344 6 10.1294 6 10C6 9.87055 6.10493 9.76562 6.23438 9.76562H8.76562V7.23438C8.76562 7.10493 8.87055 7 9 7C9.12945 7 9.23438 7.10493 9.23438 7.23438V9.76562H11.7656C11.8951 9.76562 12 9.87055 12 10C12 10.1294 11.8951 10.2344 11.7656 10.2344Z"/>
</svg>
