<svg width="15" height="20" viewBox="0 0 15 20" fill="none" xmlns="http://www.w3.org/2000/svg">
<path d="M12.4202 3.1802H10.5609V3.0144C10.5608 2.28307 9.97362 1.68883 9.24578 1.68315H8.90548C8.85772 0.740097 8.08281 0 7.14288 0C6.20313 0 5.42821 0.740097 5.38046 1.68315H5.04016C4.31232 1.68883 3.72519 2.28307 3.72484 3.0144V3.1802H1.86553C0.825981 3.1802 5.79351e-05 4.03811 5.79351e-05 5.08264V18.1056C-0.00798732 19.1436 0.8229 19.9917 1.85595 20H12.4202C13.4533 19.9971 14.2884 19.1534 14.2857 18.1154C14.2857 18.1122 14.2857 18.1091 14.2857 18.1058V5.08264C14.2857 4.03811 13.4598 3.1802 12.4202 3.1802ZM7.14288 0.880274C7.59735 0.884402 7.97685 1.22925 8.02666 1.68315H6.2591C6.30891 1.22925 6.68858 0.884402 7.14288 0.880274ZM4.60126 3.0144C4.60109 2.7693 4.79606 2.56893 5.04016 2.56377H9.24578C9.4897 2.56893 9.68484 2.7693 9.6845 3.0144V4.76531H4.60126V3.0144ZM13.4093 18.1056C13.418 18.6567 12.9803 19.1106 12.4319 19.1194C12.4279 19.1194 12.4242 19.1194 12.4202 19.1194H1.86553C1.31708 19.117 0.874253 18.6684 0.876478 18.1172V5.08264C0.876478 4.52366 1.30921 4.06082 1.86553 4.06082H3.72484V5.2223C3.72673 5.45811 3.91844 5.64799 4.15313 5.6461H4.16374H10.1222C10.2348 5.64989 10.3446 5.60843 10.4269 5.53086C10.5091 5.45329 10.5573 5.34614 10.5609 5.2328C10.5609 5.22936 10.5609 5.22574 10.5609 5.2223V4.06082H12.4202C12.9766 4.06082 13.4093 4.52366 13.4093 5.08264V18.1056Z" fill="white"/>
<path d="M2.89933 14.6939H7.10066C7.34941 14.6939 7.55102 14.4655 7.55102 14.1837C7.55102 13.9019 7.34941 13.6735 7.10066 13.6735H2.89933C2.65058 13.6735 2.44897 13.9019 2.44897 14.1837C2.44897 14.4655 2.65058 14.6939 2.89933 14.6939Z" fill="white"/>
<path d="M11.3913 15.9184H2.89437C2.64836 15.9184 2.44897 16.1011 2.44897 16.3265C2.44897 16.552 2.64836 16.7347 2.89437 16.7347H11.3913C11.6373 16.7347 11.8367 16.552 11.8367 16.3265C11.8367 16.1011 11.6373 15.9184 11.3913 15.9184Z" fill="white"/>
<path d="M5.94926 11.2915C6.11105 11.4616 6.37834 11.4752 6.55665 11.3222L10.0497 8.32388C10.2346 8.16627 10.2564 7.88911 10.0983 7.70474C9.9401 7.52054 9.66179 7.49875 9.47694 7.65637L9.47453 7.6586L6.29969 10.3837L4.84204 8.85144C4.67457 8.6753 4.39557 8.66793 4.21898 8.8348C4.04239 9.00168 4.03499 9.27953 4.20246 9.45549L5.94926 11.2915Z" fill="white"/>
</svg>
