<svg width="22" height="16" viewBox="0 0 22 16" fill="none" xmlns="http://www.w3.org/2000/svg">
<path d="M14.5833 7.67532L22 12.3641V2.78857L14.5833 7.67532Z" fill="white"/>
<path d="M0 2.78857V12.3641L7.41675 7.67532L0 2.78857Z" fill="white"/>
<path d="M20.6247 0H1.37467C0.688549 0 0.144049 0.5115 0.0409241 1.17013L10.9997 8.39025L21.9584 1.17013C21.8553 0.5115 21.3108 0 20.6247 0Z" fill="white"/>
<path d="M13.3237 8.50528L11.3781 9.78678C11.2626 9.86241 11.132 9.89953 11 9.89953C10.868 9.89953 10.7374 9.86241 10.6219 9.78678L8.67624 8.50391L0.0439911 13.964C0.149866 14.6172 0.691616 15.1245 1.37499 15.1245H20.625C21.3084 15.1245 21.8501 14.6172 21.956 13.964L13.3237 8.50528Z" fill="white"/>
</svg>
