<svg width="14" height="14" viewBox="0 0 14 14" fill="none" xmlns="http://www.w3.org/2000/svg">
<path d="M6.97677 12.7908H1.74418C1.42325 12.7908 1.1628 12.5303 1.1628 12.2094V1.74421C1.1628 1.42327 1.42327 1.16282 1.74418 1.16282H6.97677C7.29828 1.16282 7.55816 0.902947 7.55816 0.581439C7.55816 0.25993 7.29828 0 6.97677 0H1.74418C0.782552 0 0 0.78258 0 1.74421V12.2093C0 13.171 0.782552 13.9535 1.74418 13.9535H6.97677C7.29828 13.9535 7.55816 13.6936 7.55816 13.3721C7.55816 13.0506 7.29828 12.7908 6.97677 12.7908Z" fill="#4BBEA9"/>
<path d="M13.8267 6.56281L10.2918 3.07442C10.0639 2.84884 9.69532 2.85176 9.46973 3.08025C9.24414 3.30873 9.24647 3.67675 9.47556 3.90234L12.0017 6.39536H5.23251C4.911 6.39536 4.65112 6.65523 4.65112 6.97674C4.65112 7.29825 4.911 7.55815 5.23251 7.55815H12.0017L9.47556 10.0512C9.2465 10.2768 9.24475 10.6448 9.46973 10.8733C9.58367 10.9884 9.73368 11.0465 9.88369 11.0465C10.0314 11.0465 10.179 10.9907 10.2918 10.8791L13.8267 7.39067C13.9372 7.28138 14 7.13252 14 6.97671C14 6.82096 13.9378 6.6727 13.8267 6.56281Z" fill="#4BBEA9"/>
</svg>
