<svg width="29" height="25" viewBox="0 0 29 25" fill="none" xmlns="http://www.w3.org/2000/svg">
<path d="M13.8762 7.70335L17.9104 11.7375L17.9296 11.5262C17.9296 9.40664 16.2071 7.68414 14.0875 7.68414L13.8762 7.70335Z" fill="#C4C4C4" fill-opacity="0.99"/>
<path d="M14.0876 5.12277C17.6223 5.12277 20.491 7.99152 20.491 11.5262C20.491 12.3523 20.3245 13.1399 20.0364 13.8634L23.7824 17.6094C25.7162 15.9958 27.2402 13.9083 28.1815 11.5262C25.9596 5.90403 20.4974 1.92108 14.0876 1.92108C12.2947 1.92108 10.5786 2.24123 8.98413 2.81754L11.7504 5.57739C12.4739 5.29566 13.2615 5.12277 14.0876 5.12277Z" fill="#C4C4C4" fill-opacity="0.99"/>
<path d="M1.28066 1.63287L4.20062 4.55283L4.78336 5.13556C2.67023 6.78765 0.998934 8.98404 0 11.5262C2.2156 17.1483 7.68411 21.1313 14.0875 21.1313C16.0726 21.1313 17.968 20.7471 19.7034 20.0491L20.2477 20.5934L23.9809 24.333L25.6138 22.7065L2.91354 0L1.28066 1.63287ZM8.36289 8.70867L10.3415 10.6873C10.2839 10.9627 10.2455 11.238 10.2455 11.5262C10.2455 13.6457 11.968 15.3682 14.0875 15.3682C14.3757 15.3682 14.6511 15.3298 14.92 15.2722L16.8987 17.2508C16.047 17.6734 15.0993 17.9296 14.0875 17.9296C10.5529 17.9296 7.6841 15.0608 7.6841 11.5262C7.6841 10.5144 7.94026 9.56671 8.36289 8.70867Z" fill="#C4C4C4" fill-opacity="0.99"/>
</svg>
