<svg width="29" height="20" viewBox="0 0 29 20" fill="none" xmlns="http://www.w3.org/2000/svg">
<path d="M14.1333 5.78174C12.0069 5.78174 10.2788 7.50984 10.2788 9.63628C10.2788 11.7627 12.0069 13.4908 14.1333 13.4908C16.2598 13.4908 17.9879 11.7627 17.9879 9.63628C17.9879 7.50984 16.2597 5.78174 14.1333 5.78174Z" fill="#C4C4C4"/>
<path d="M14.1333 0C7.70908 0 2.2228 3.99583 0 9.63634C2.2228 15.2768 7.70908 19.2727 14.1333 19.2727C20.564 19.2727 26.0438 15.2768 28.2667 9.63634C26.0438 3.99583 20.564 0 14.1333 0ZM14.1333 16.0605C10.5872 16.0605 7.70908 13.1825 7.70908 9.63628C7.70908 6.09011 10.5872 3.21209 14.1333 3.21209C17.6795 3.21209 20.5576 6.09017 20.5576 9.63634C20.5576 13.1825 17.6795 16.0605 14.1333 16.0605Z" fill="#C4C4C4"/>
</svg>
