<svg width="69" height="66" viewBox="0 0 69 66" fill="none" xmlns="http://www.w3.org/2000/svg">
<g clip-path="url(#clip0)">
<path d="M67.3002 40.5H0.900195C0.500195 40.5 0.200195 40.2 0.200195 39.7999V0.899951C0.200195 0.499951 0.500195 0.199951 0.900195 0.199951H67.3002C67.7002 0.199951 68.0002 0.499951 68.0002 0.899951V39.7999C68.0002 40.2 67.7002 40.5 67.3002 40.5ZM1.6002 39.2H66.7002V1.59995H1.6002V39.2Z" fill="white" stroke="white" stroke-width="0.5" stroke-miterlimit="10"/>
<path d="M51.6998 34.4999H46.9998C46.5998 34.4999 46.2998 34.1999 46.2998 33.7999V10.0999C46.2998 9.6999 46.5998 9.3999 46.9998 9.3999H51.6998C52.0998 9.3999 52.3998 9.6999 52.3998 10.0999V33.7999C52.3998 34.1999 52.0998 34.4999 51.6998 34.4999ZM47.6998 33.1999H51.0998V10.7999H47.6998V33.1999Z" fill="white" stroke="white" stroke-width="0.5" stroke-miterlimit="10"/>
<path d="M44.1002 34.4999H39.4002C39.0002 34.4999 38.7002 34.1999 38.7002 33.7999V13.0999C38.7002 12.6999 39.0002 12.3999 39.4002 12.3999H44.1002C44.5002 12.3999 44.8002 12.6999 44.8002 13.0999V33.8999C44.7002 34.1999 44.4002 34.4999 44.1002 34.4999ZM40.1002 33.1999H43.5002V13.6999H40.1002V33.1999Z" fill="white" stroke="white" stroke-width="0.5" stroke-miterlimit="10"/>
<path d="M36.5006 34.5H31.8006C31.4006 34.5 31.1006 34.1999 31.1006 33.7999V15.9C31.1006 15.5 31.4006 15.2 31.8006 15.2H36.5006C36.9006 15.2 37.2006 15.5 37.2006 15.9V33.7999C37.1006 34.1999 36.8006 34.5 36.5006 34.5ZM32.4006 33.2H35.8006V16.6H32.4006V33.2Z" fill="white" stroke="white" stroke-width="0.5" stroke-miterlimit="10"/>
<path d="M28.8004 34.5H24.1004C23.7004 34.5 23.4004 34.1999 23.4004 33.7999V19.9C23.4004 19.5 23.7004 19.2 24.1004 19.2H28.8004C29.2004 19.2 29.5004 19.5 29.5004 19.9V33.7999C29.5004 34.1999 29.2004 34.5 28.8004 34.5ZM24.8004 33.2H28.2004V20.6H24.8004V33.2Z" fill="white" stroke="white" stroke-width="0.5" stroke-miterlimit="10"/>
<path d="M21.1998 34.4999H16.4998C16.0998 34.4999 15.7998 34.1999 15.7998 33.7999V23.9999C15.7998 23.5999 16.0998 23.2999 16.4998 23.2999H21.1998C21.5998 23.2999 21.8998 23.5999 21.8998 23.9999V33.7999C21.7998 34.1999 21.4998 34.4999 21.1998 34.4999ZM17.1998 33.1999H20.5998V24.6999H17.1998V33.1999Z" fill="white" stroke="white" stroke-width="0.5" stroke-miterlimit="10"/>
<path d="M16.5 20.6C16.2 20.6 16 20.4 15.9 20.2C15.8 19.9 16 19.5 16.3 19.4C16.5 19.3 33.9 13 41.5 4.09998C41.7 3.79998 42.1 3.79998 42.4 3.99998C42.7 4.19998 42.7 4.59998 42.5 4.89998C34.7 14 17.5 20.3 16.8 20.5C16.7 20.6 16.6 20.6 16.5 20.6Z" fill="white" stroke="white" stroke-width="0.5" stroke-miterlimit="10"/>
<path d="M41.9 9.0999C41.5 9.0999 41.2 8.7999 41.2 8.3999V5.1999H38.2C37.8 5.1999 37.6 4.8999 37.5 4.5999C37.5 4.1999 37.8 3.8999 38.1 3.8999H41.8C42 3.8999 42.1 3.9999 42.3 4.0999C42.4 4.1999 42.5 4.3999 42.5 4.5999V8.4999C42.5 8.7999 42.2 9.0999 41.9 9.0999Z" fill="white" stroke="white" stroke-width="0.5" stroke-miterlimit="10"/>
<path d="M64.8002 65.1C64.4002 65.1 64.1002 64.8 64.1002 64.4V61.4C64.1002 59.1 62.2002 57.2 59.9002 57.2H52.9002C50.6002 57.2 48.7002 59.1 48.7002 61.4V64.4C48.7002 64.8 48.4002 65.1 48.0002 65.1C47.6002 65.1 47.3002 64.8 47.3002 64.4V61.4C47.3002 58.3 49.8002 55.9 52.8002 55.9H59.8002C62.9002 55.9 65.3002 58.4 65.3002 61.4V64.4C65.4002 64.8 65.1002 65.1 64.8002 65.1ZM41.7002 65.1C41.3002 65.1 41.0002 64.8 41.0002 64.4V61.4C41.0002 59.1 39.1002 57.2 36.8002 57.2H29.8002C27.5002 57.2 25.6002 59.1 25.6002 61.4V64.4C25.6002 64.8 25.3002 65.1 24.9002 65.1C24.5002 65.1 24.2002 64.8 24.2002 64.4V61.4C24.2002 58.3 26.7002 55.9 29.7002 55.9H36.7002C39.8002 55.9 42.2002 58.4 42.2002 61.4V64.4C42.3002 64.8 42.0002 65.1 41.7002 65.1ZM20.3002 65.1C19.9002 65.1 19.6002 64.8 19.6002 64.4V61.4C19.6002 59.1 17.7002 57.2 15.4002 57.2H8.3002C6.0002 57.2 4.1002 59.1 4.1002 61.4V64.4C4.1002 64.8 3.8002 65.1 3.4002 65.1C3.0002 65.1 2.7002 64.8 2.7002 64.4V61.4C2.7002 58.3 5.2002 55.9 8.2002 55.9H15.3002C18.4002 55.9 20.8002 58.4 20.8002 61.4V64.4C20.9002 64.8 20.6002 65.1 20.3002 65.1ZM56.3002 55C53.4002 55 51.1002 52.7 51.1002 49.8C51.1002 46.9 53.4002 44.6 56.3002 44.6C59.2002 44.6 61.5002 46.9 61.5002 49.8C61.5002 52.7 59.1002 55 56.3002 55ZM52.3002 50.2C52.5002 52.2 54.2002 53.8 56.2002 53.8C58.4002 53.8 60.1002 52 60.1002 49.9C60.1002 49.8 60.1002 49.6 60.1002 49.5C58.9002 49.6 57.8002 49.3 56.9002 48.7C55.8002 49.8 54.1002 50.4 52.3002 50.2ZM52.4002 48.9C53.9002 49.2 55.4002 48.6 56.3002 47.4C56.4002 47.3 56.6002 47.2 56.7002 47.1C56.9002 47.1 57.1002 47.1 57.2002 47.2C57.9002 47.8 58.9002 48.1 59.7002 48.1C59.1002 46.8 57.7002 45.9 56.2002 45.9C54.4002 45.9 52.9002 47.2 52.4002 48.9ZM33.1002 55C30.2002 55 27.9002 52.7 27.9002 49.8C27.9002 46.9 30.2002 44.6 33.1002 44.6C35.5002 44.6 37.5002 46.2 38.1002 48.4V48.5C38.2002 48.9 38.3002 49.3 38.3002 49.8C38.4002 52.7 36.0002 55 33.1002 55ZM29.2002 50.2C29.4002 52.2 31.1002 53.8 33.1002 53.8C35.3002 53.8 37.0002 52 37.0002 49.9C37.0002 49.8 37.0002 49.6 37.0002 49.5C35.9002 49.6 34.7002 49.3 33.8002 48.7C32.7002 49.8 30.9002 50.4 29.2002 50.2ZM29.3002 48.9C30.8002 49.2 32.3002 48.6 33.2002 47.4C33.3002 47.3 33.5002 47.2 33.6002 47.1C33.8002 47.1 34.0002 47.1 34.1002 47.2C34.8002 47.8 35.7002 48.1 36.6002 48.1C36.0002 46.8 34.6002 45.9 33.1002 45.9C31.3002 45.9 29.8002 47.2 29.3002 48.9ZM11.7002 55C8.8002 55 6.5002 52.7 6.5002 49.8C6.5002 46.9 8.8002 44.6 11.7002 44.6C14.6002 44.6 16.9002 46.9 16.9002 49.8C17.0002 52.7 14.6002 55 11.7002 55ZM7.8002 50.2C8.0002 52.2 9.7002 53.8 11.7002 53.8C13.9002 53.8 15.6002 52 15.6002 49.9C15.6002 49.8 15.6002 49.6 15.6002 49.5C14.4002 49.6 13.3002 49.3 12.4002 48.7C11.3002 49.8 9.6002 50.4 7.8002 50.2ZM7.9002 48.9C9.4002 49.2 10.9002 48.6 11.8002 47.4C11.9002 47.3 12.1002 47.2 12.2002 47.1C12.4002 47.1 12.6002 47.1 12.7002 47.2C13.4002 47.8 14.4002 48.1 15.2002 48.1C14.6002 46.8 13.2002 45.9 11.7002 45.9C9.9002 45.9 8.4002 47.2 7.9002 48.9Z" fill="white" stroke="white" stroke-width="0.5" stroke-miterlimit="10"/>
</g>
<defs>
<clipPath id="clip0">
<rect width="68.2" height="65.3" fill="white"/>
</clipPath>
</defs>
</svg>
