<svg width="65" height="63" viewBox="0 0 65 63" fill="none" xmlns="http://www.w3.org/2000/svg">
<path d="M57.8122 41.4C53.9574 41.4 50.1817 40.7981 46.6032 39.6173C44.8567 39.0154 42.8734 39.4791 41.7256 40.6501L34.6312 46.0079C26.4908 41.6632 21.281 36.4566 16.9954 28.3754L22.2085 21.4487C23.5208 20.1364 23.9912 18.2155 23.4288 16.4165C22.2381 12.815 21.6329 9.03588 21.6329 5.1877C21.6329 2.46762 19.4195 0.25415 16.6994 0.25415H5.1877C2.46762 0.25415 0.25415 2.46762 0.25415 5.1877C0.25415 36.9236 26.0764 62.7458 57.8122 62.7458C60.5323 62.7458 62.7458 60.5323 62.7458 57.8122V46.3335C62.7458 43.6135 60.5323 41.4 57.8122 41.4Z" fill="white"/>
<path d="M37.9173 2.2466C36.3733 2.3732 36.5647 4.7072 38.1103 4.60004C50.0966 3.70725 60.6262 10.9972 61.9526 25.8442C62.0812 27.4119 64.4457 27.1984 64.2971 25.6324L64.2931 25.6327C62.8522 9.63595 51.3193 1.23772 37.9173 2.2466Z" fill="white"/>
<path d="M55.2073 24.1591C55.2973 25.6844 57.5827 25.5702 57.4757 24.027C56.9536 15.3317 50.9531 8.62614 40.7168 8.70685C39.2181 8.72191 39.253 11.0489 40.7479 11.0342C49.626 10.9724 54.762 16.5435 55.2073 24.1591Z" fill="white"/>
<path d="M43.4931 17.3334C47.1502 17.2346 49.0625 18.8798 49.5534 22.5405C49.7394 23.9719 51.9475 23.6904 51.7615 22.259C51.1254 17.4794 48.2466 15.0232 43.4374 15.1662C41.9721 15.2038 42.0126 17.3723 43.4931 17.3334Z" fill="white"/>
</svg>
