<svg width="67" height="67" viewBox="0 0 67 67" fill="none" xmlns="http://www.w3.org/2000/svg">
<path d="M63.6095 6.61721H54.512C55.3817 5.93979 55.9429 4.88384 55.9429 3.69858C55.9429 1.65931 54.2837 0 52.2443 0C50.2049 0 48.5457 1.65918 48.5457 3.69858C48.5457 4.32168 48.7011 4.90866 48.9744 5.42429L47.6709 6.61708H29.787C29.2228 5.29473 27.9097 4.36534 26.3834 4.36534C24.8572 4.36534 23.5442 5.2946 22.9799 6.61708H2.92575C1.31297 6.61721 0.00088501 7.9293 0.00088501 9.54195V16.7422C0.00088501 17.2806 0.43738 17.7172 0.975885 17.7172C1.51426 17.7172 1.95088 17.2807 1.95088 16.7422V9.54195C1.95088 9.00436 2.38816 8.56695 2.92588 8.56695H22.7206C22.7719 8.94042 22.8778 9.29661 23.0322 9.62629L14.8096 17.0754C14.2286 16.6951 13.535 16.4729 12.7901 16.4729C10.7508 16.4729 9.09153 18.132 9.09153 20.1714C9.09153 22.2108 10.7507 23.87 12.7901 23.87C14.8295 23.87 16.4887 22.2108 16.4887 20.1714C16.4887 19.5834 16.3502 19.0274 16.105 18.5333L24.2947 11.1139C24.8896 11.5226 25.609 11.7625 26.3836 11.7625C27.4304 11.7625 28.3762 11.3247 29.0497 10.6234L35.6892 14.5668C35.6409 14.8048 35.6155 15.0508 35.6155 15.3028C35.6155 17.3421 37.2747 19.0014 39.3141 19.0014C41.3535 19.0014 43.0126 17.3422 43.0126 15.3028C43.0126 14.7722 42.8996 14.2679 42.6974 13.8113L48.4285 8.56695H63.6095C64.1471 8.56695 64.5845 9.00423 64.5845 9.54195V33.6329C64.5845 34.1714 65.021 34.6079 65.5595 34.6079C66.0979 34.6079 66.5345 34.1715 66.5345 33.6329V9.54195C66.5343 7.9293 65.2222 6.61721 63.6095 6.61721ZM12.79 21.9204C11.8258 21.9204 11.0413 21.136 11.0413 20.1718C11.0413 19.2075 11.8258 18.4231 12.79 18.4231C13.7542 18.4231 14.5387 19.2075 14.5387 20.1718C14.5386 21.136 13.7542 21.9204 12.79 21.9204ZM26.3834 9.81264C25.4192 9.81264 24.6347 9.02827 24.6347 8.06392C24.6347 7.09971 25.4192 6.31521 26.3834 6.31521C27.3477 6.31521 28.1322 7.09958 28.1322 8.06392C28.1322 9.02827 27.3477 9.81264 26.3834 9.81264ZM39.3139 17.0514C38.3498 17.0514 37.5652 16.267 37.5652 15.3027C37.5652 14.3385 38.3497 13.554 39.3139 13.554C40.2781 13.554 41.0626 14.3383 41.0626 15.3027C41.0625 16.267 40.278 17.0514 39.3139 17.0514ZM41.4642 12.2965C40.8577 11.8614 40.1154 11.6042 39.3138 11.6042C38.2274 11.6042 37.2493 12.075 36.572 12.8233L29.9833 8.91002C30.0096 8.79761 30.0311 8.68313 30.0469 8.56708H45.5399L41.4642 12.2965ZM52.2441 5.44729C51.2801 5.44729 50.4954 4.66292 50.4954 3.69858C50.4954 2.73424 51.2799 1.94987 52.2441 1.94987C53.2084 1.94987 53.9929 2.73424 53.9929 3.69858C53.993 4.66292 53.2085 5.44729 52.2441 5.44729Z" fill="white"/>
<path d="M66.5335 37.5328C66.5335 36.9943 66.097 36.5578 65.5585 36.5578C65.0201 36.5578 64.5835 36.9942 64.5835 37.5328V44.8672H57.4053V21.7719V17.7929V13.7588C57.4053 13.2203 56.9688 12.7838 56.4303 12.7838H49.0961C48.5577 12.7838 48.1211 13.2202 48.1211 13.7588V17.7929V21.7719V44.8672H44.4747V39.9036V35.9246V31.8905C44.4747 31.352 44.0382 30.9155 43.4997 30.9155H36.1654C35.6271 30.9155 35.1904 31.3518 35.1904 31.8905V35.9246V39.9036V44.8672H31.5442V27.3188V23.3397V19.3058C31.5442 18.7673 31.1077 18.3308 30.5692 18.3308H23.235C22.6966 18.3308 22.26 18.7671 22.26 19.3058V23.3397V27.3188V32.7745C22.26 33.313 22.6965 33.7495 23.235 33.7495C23.7735 33.7495 24.21 33.3131 24.21 32.7745V28.2936H29.5944V44.8672H24.21V36.6742C24.21 36.1357 23.7735 35.6992 23.235 35.6992C22.6965 35.6992 22.26 36.1356 22.26 36.6742V44.8672H18.6138V39.9036V35.9246V31.8905C18.6138 31.352 18.1773 30.9155 17.6388 30.9155H10.3051C9.76676 30.9155 9.33014 31.3518 9.33014 31.8905V35.9246V39.9036V44.8672H1.95V20.642C1.95 20.1035 1.5135 19.667 0.975 19.667C0.436625 19.667 0 20.1034 0 20.642V52.9105C0 54.5231 1.31196 55.8353 2.92487 55.8353H24.2783L23.7223 60.6797H19.0934C18.555 60.6797 18.1184 61.116 18.1184 61.6547V65.0759C18.1184 65.6144 18.5549 66.0509 19.0934 66.0509H47.4406C47.979 66.0509 48.4156 65.6146 48.4156 65.0759V61.6547C48.4156 61.1162 47.9791 60.6797 47.4406 60.6797H42.8118L42.2557 55.8353H63.609C65.2218 55.8353 66.5339 54.5232 66.5339 52.9105C66.5339 52.9041 66.5331 45.8671 66.533 45.8609C66.5331 45.8547 66.5339 45.8486 66.5339 45.8422V37.5328H66.5335ZM50.0713 14.7337H55.4557V16.8178H50.0713V14.7337ZM50.0713 18.7678H55.4557V20.7969H50.0713V18.7678ZM50.0713 22.7469H55.4557V44.8673H50.0713V22.7469ZM37.1408 32.8655H42.5252V34.9496H37.1408V32.8655ZM37.1408 36.8996H42.5252V38.9287H37.1408V36.8996ZM37.1408 40.8786H42.5252V44.8672H37.1408V40.8786ZM24.2104 22.3646V20.2805H29.5948V22.3646H24.2104ZM24.2105 26.3438V24.3146H29.5949V26.3438H24.2105ZM11.2801 32.8655H16.6644V34.9496H11.2801V32.8655ZM11.2801 36.8996H16.6644V38.9287H11.2801V36.8996ZM11.2801 40.8786H16.6644V44.8672H11.2801V40.8786ZM46.4655 62.6294V64.1008H20.0683V62.6294H46.4655ZM25.6849 60.6795L26.2409 55.8352H40.2926L40.8486 60.6795H25.6849ZM63.6088 53.8855H2.925C2.38753 53.8855 1.95 53.4482 1.95 52.9105V46.8545H64.5835V52.9105H64.5836C64.5836 53.4482 64.1462 53.8855 63.6088 53.8855Z" fill="white"/>
</svg>
