<svg width="22" height="24" viewBox="0 0 22 24" fill="none" xmlns="http://www.w3.org/2000/svg">
<path d="M19.2505 18.9999H7.75037C6.23334 18.9999 5.00049 17.7671 5.00049 16.2501V2.75006C5.00049 1.23303 6.23334 0 7.75037 0H16.2584C17.2455 0 18.2125 0.400086 18.9094 1.099L20.9014 3.091C21.6104 3.79999 22.0004 4.74207 22.0004 5.74292V16.2501C22.0004 17.7671 20.7675 18.9999 19.2505 18.9999ZM7.75037 1.5C7.06134 1.5 6.50049 2.06104 6.50049 2.75006V16.2501C6.50049 16.9391 7.06134 17.4999 7.75037 17.4999H19.2505C19.9395 17.4999 20.5004 16.9391 20.5004 16.2501V5.74292C20.5004 5.14197 20.2664 4.57709 19.8414 4.15192L17.8494 2.15991C17.4304 1.74005 16.8514 1.5 16.2584 1.5H7.75037Z" fill="white"/>
<path d="M14.7501 24H2.75006C1.23303 24 0 22.767 0 21.2499V5.25C0 3.73297 1.23303 2.49994 2.75006 2.49994H3.24994C3.66394 2.49994 3.99994 2.83594 3.99994 3.24994C3.99994 3.66394 3.66394 3.99994 3.24994 3.99994H2.75006C2.06104 3.99994 1.5 4.56097 1.5 5.25V21.2499C1.5 21.939 2.06104 22.5 2.75006 22.5H14.7501C15.4391 22.5 15.9999 21.939 15.9999 21.2499V20.7501C15.9999 20.3361 16.3359 20.0001 16.7499 20.0001C17.1639 20.0001 17.4999 20.3361 17.4999 20.7501V21.2499C17.4999 22.767 16.2671 24 14.7501 24Z" fill="white"/>
<path d="M17.25 8.49994H9.75C9.336 8.49994 9 8.16394 9 7.74994C9 7.33594 9.336 6.99994 9.75 6.99994H17.25C17.664 6.99994 18 7.33594 18 7.74994C18 8.16394 17.664 8.49994 17.25 8.49994Z" fill="white"/>
<path d="M17.25 11.4999H9.75C9.336 11.4999 9 11.1639 9 10.7499C9 10.3359 9.336 9.99994 9.75 9.99994H17.25C17.664 9.99994 18 10.3359 18 10.7499C18 11.1639 17.664 11.4999 17.25 11.4999Z" fill="white"/>
<path d="M17.25 14.4999H9.75C9.336 14.4999 9 14.1639 9 13.7499C9 13.3359 9.336 12.9999 9.75 12.9999H17.25C17.664 12.9999 18 13.3359 18 13.7499C18 14.1639 17.664 14.4999 17.25 14.4999Z" fill="white"/>
</svg>
