<svg width="52" height="65" viewBox="0 0 52 65" fill="none" xmlns="http://www.w3.org/2000/svg">
<path d="M16.0952 18.9524C16.7786 18.9524 17.3333 18.3977 17.3333 17.7143C17.3333 17.0309 16.7786 16.4762 16.0952 16.4762C15.4119 16.4762 14.8571 17.0309 14.8571 17.7143C14.8571 18.3977 15.4119 18.9524 16.0952 18.9524Z" fill="white"/>
<path d="M16.0952 26.381C16.7786 26.381 17.3333 25.8263 17.3333 25.1429C17.3333 24.4595 16.7786 23.9048 16.0952 23.9048C15.4119 23.9048 14.8571 24.4595 14.8571 25.1429C14.8571 25.8263 15.4119 26.381 16.0952 26.381Z" fill="white"/>
<path d="M13.619 64.2667H43.3333C48.1121 64.2667 52 60.3788 52 55.6C52 54.9162 51.4458 54.3619 50.7619 54.3619H47.0476V7.0667C47.0476 3.65323 44.2706 0.876221 40.8571 0.876221C40.8571 0.876221 5.23192 0.876221 4.95238 0.876221C2.2218 0.876221 0 3.09802 0 5.8286V12.0191C0 12.7029 0.554241 13.2572 1.2381 13.2572H7.42857V57.8112C7.42857 61.1758 9.98988 64.2667 13.619 64.2667ZM43.3333 61.7905H18.5685C19.3472 60.7551 19.8095 59.456 19.8095 58.0636V56.8256H49.3995C48.8245 59.648 46.3227 61.7905 43.3333 61.7905ZM44.5714 7.0667V54.3619H18.5714C17.8876 54.3619 17.3333 54.9162 17.3333 55.6V58.0762C17.3333 60.1244 15.6672 61.7905 13.619 61.7905C11.3992 61.7905 9.90476 59.8695 9.90476 57.8112V5.8286C9.90476 4.93582 9.66682 4.08753 9.24267 3.35241H40.8571C42.9053 3.35241 44.5714 5.01852 44.5714 7.0667ZM2.47619 10.781V5.8286C2.47619 4.46331 3.58709 3.35241 4.95238 3.35241C6.30606 3.35241 7.42857 4.44397 7.42857 5.8286V10.781H2.47619Z" fill="white"/>
<path d="M27.2381 36.2857C27.2381 38.4292 28.1348 40.4111 29.7143 41.8185V49.9048C29.7143 50.3613 29.9658 50.7811 30.3682 50.9964C30.7705 51.2121 31.2595 51.1884 31.6391 50.9349L34.6667 48.9167L37.6942 50.9349C38.0748 51.1888 38.5633 51.2116 38.9652 50.9964C39.3676 50.7811 39.6191 50.3613 39.6191 49.9048V41.8185C41.1991 40.4106 42.0952 38.4287 42.0952 36.2857C42.0952 32.1899 38.763 28.8572 34.6667 28.8572C30.5703 28.8572 27.2381 32.1894 27.2381 36.2857ZM35.3534 46.3985C34.9375 46.1214 34.3958 46.1214 33.9799 46.3985L32.1905 47.5916V43.2916C32.9773 43.5697 33.8106 43.7143 34.6667 43.7143C35.5227 43.7143 36.356 43.5697 37.1429 43.2916V47.5916L35.3534 46.3985ZM39.6191 36.2857C39.6191 39.0807 37.3431 41.2381 34.6667 41.2381C31.9893 41.2381 29.7143 39.0821 29.7143 36.2857C29.7143 33.5552 31.9361 31.3334 34.6667 31.3334C37.3973 31.3334 39.6191 33.5552 39.6191 36.2857Z" fill="white"/>
<path d="M16.0952 11.5238H38.381C39.0648 11.5238 39.6191 10.9696 39.6191 10.2857C39.6191 9.60185 39.0648 9.04761 38.381 9.04761H16.0952C15.4114 9.04761 14.8571 9.60185 14.8571 10.2857C14.8571 10.9696 15.4114 11.5238 16.0952 11.5238Z" fill="white"/>
<path d="M21.0476 18.9524H38.381C39.0648 18.9524 39.619 18.3981 39.619 17.7143C39.619 17.0304 39.0648 16.4762 38.381 16.4762H21.0476C20.3638 16.4762 19.8095 17.0304 19.8095 17.7143C19.8095 18.3981 20.3638 18.9524 21.0476 18.9524Z" fill="white"/>
<path d="M21.0476 26.381H38.381C39.0648 26.381 39.619 25.8267 39.619 25.1429C39.619 24.459 39.0648 23.9048 38.381 23.9048H21.0476C20.3638 23.9048 19.8095 24.459 19.8095 25.1429C19.8095 25.8267 20.3638 26.381 21.0476 26.381Z" fill="white"/>
<path d="M16.0952 41.2381H23.5238C24.2077 41.2381 24.7619 40.6839 24.7619 40C24.7619 39.3161 24.2077 38.7619 23.5238 38.7619H16.0952C15.4114 38.7619 14.8571 39.3161 14.8571 40C14.8571 40.6839 15.4114 41.2381 16.0952 41.2381Z" fill="white"/>
<path d="M16.0952 33.8096H23.5238C24.2077 33.8096 24.7619 33.2553 24.7619 32.5715C24.7619 31.8876 24.2077 31.3334 23.5238 31.3334H16.0952C15.4114 31.3334 14.8571 31.8876 14.8571 32.5715C14.8571 33.2553 15.4114 33.8096 16.0952 33.8096Z" fill="white"/>
<path d="M16.0952 48.6667H23.5238C24.2077 48.6667 24.7619 48.1124 24.7619 47.4286C24.7619 46.7447 24.2077 46.1905 23.5238 46.1905H16.0952C15.4114 46.1905 14.8571 46.7447 14.8571 47.4286C14.8571 48.1124 15.4114 48.6667 16.0952 48.6667Z" fill="white"/>
</svg>
