<svg width="31" height="31" viewBox="0 0 31 31" fill="none" xmlns="http://www.w3.org/2000/svg">
<path d="M28.6118 19.3565C28.1854 19.3565 27.8398 19.7021 27.8398 20.1286V26.9836C27.8383 28.2624 26.8023 29.2986 25.5236 29.2998H3.86031C2.58158 29.2986 1.54563 28.2624 1.54412 26.9836V6.86449C1.54563 5.58606 2.58158 4.54981 3.86031 4.5483H10.7154C11.1418 4.5483 11.4874 4.20269 11.4874 3.77624C11.4874 3.3501 11.1418 3.00418 10.7154 3.00418H3.86031C1.7293 3.00659 0.00241269 4.73348 0 6.86449V26.9839C0.00241269 29.1149 1.7293 30.8418 3.86031 30.8442H25.5236C27.6546 30.8418 29.3815 29.1149 29.3839 26.9839V20.1286C29.3839 19.7021 29.0383 19.3565 28.6118 19.3565Z" fill="#22AF96"/>
<path d="M29.0782 1.01763C27.7213 -0.33921 25.5216 -0.33921 24.1647 1.01763L10.3907 14.7917C10.2963 14.8861 10.2281 15.0031 10.1925 15.1316L8.3812 21.6709C8.30671 21.939 8.38241 22.2261 8.57904 22.423C8.77598 22.6197 9.06309 22.6954 9.3312 22.6212L15.8705 20.8096C15.999 20.774 16.116 20.7058 16.2104 20.6114L29.9841 6.83705C31.3389 5.4793 31.3389 3.28134 29.9841 1.9236L29.0782 1.01763ZM12.0729 15.2935L23.3459 4.02023L26.9816 7.65585L15.7082 18.9292L12.0729 15.2935ZM11.3467 16.7508L14.2513 19.6557L10.2335 20.7688L11.3467 16.7508ZM28.8924 5.7453L28.0736 6.56411L24.4377 2.92818L25.2568 2.10937C26.0104 1.35571 27.2325 1.35571 27.9861 2.10937L28.8924 3.01534C29.6449 3.76991 29.6449 4.99103 28.8924 5.7453Z" fill="#22AF96"/>
</svg>
