<svg width="62" height="62" viewBox="0 0 62 62" fill="none" xmlns="http://www.w3.org/2000/svg">
<path d="M28.5013 41.9827C28.974 41.5099 28.974 40.7449 28.5013 40.2722C28.0281 39.8009 27.2616 39.8009 26.7879 40.2722C26.3157 40.7449 26.3157 41.5099 26.7879 41.9827C27.2616 42.454 28.0281 42.454 28.5013 41.9827Z" fill="white"/>
<path d="M22.7665 13.2947C22.7665 20.6254 28.7421 26.5898 36.0871 26.5898C43.4322 26.5898 49.4078 20.6254 49.4078 13.2947C49.4078 5.964 43.4322 0 36.0871 0C28.7421 0 22.7665 5.964 22.7665 13.2947ZM46.9861 13.2947C46.9861 19.2927 42.0969 24.1724 36.0871 24.1724C30.0774 24.1724 25.1881 19.2927 25.1881 13.2947C25.1881 7.29715 30.0774 2.41743 36.0871 2.41743C42.0969 2.41743 46.9861 7.29715 46.9861 13.2947Z" fill="white"/>
<path d="M13.9485 61.5407C14.4178 62.013 15.182 62.0182 15.6576 61.5507L21.5287 55.7779C22.5261 54.7824 22.8294 53.3086 22.3908 52.0274L23.6537 50.8118C24.3336 50.1563 25.2288 49.795 26.1752 49.795H42.2738C45.1299 49.795 47.8293 48.7004 49.8758 46.7127C49.96 46.631 49.2365 47.4815 60.8586 33.6183C62.5823 31.5829 62.3244 28.5265 60.2832 26.8042C58.2547 25.098 55.216 25.3431 53.4875 27.3435L46.3417 34.6737C45.4394 33.5654 44.0634 32.8745 42.5767 32.8745H29.0729C27.1513 32.0721 25.1124 31.666 23.0087 31.666C17.1774 31.666 12.0856 34.354 9.35304 39.3938C8.20181 39.1761 6.98766 39.5237 6.11419 40.3955L0.353341 46.1621C-0.116991 46.6329 -0.117937 47.3946 0.351448 47.8669L13.9485 61.5407ZM23.0083 34.0829C24.8631 34.0829 26.6564 34.4555 28.3395 35.1904C28.4928 35.2574 28.6579 35.2919 28.8249 35.2919H42.5767C43.8897 35.2919 44.9988 36.3606 44.9988 37.7088C44.9988 39.042 43.9124 40.1263 42.5767 40.1263H32.6964C32.0278 40.1263 31.4856 40.6675 31.4856 41.3348C31.4856 42.0025 32.0278 42.5432 32.6964 42.5432H42.5767C45.2477 42.5432 47.4205 40.3747 47.4205 37.7088C47.4205 37.4963 47.4054 37.2857 47.3779 37.077C54.2905 29.9853 55.2652 28.9888 55.3068 28.9392C56.1699 27.9225 57.702 27.7936 58.7212 28.6512C59.7414 29.5121 59.8706 31.0403 59.0051 32.0627L48.1435 45.0221C46.5575 46.5417 44.475 47.3781 42.2738 47.3781H26.1752C24.5976 47.3781 23.1043 47.9802 21.9715 49.0725L20.9424 50.0638L11.4553 40.5957C13.6726 36.4442 17.8332 34.0829 23.0083 34.0829ZM7.82801 42.1036C8.22736 41.705 8.84059 41.6332 9.32749 41.9336C9.5371 42.0611 8.93523 41.5142 19.8162 52.3589C20.3003 52.842 20.2743 53.6117 19.8229 54.0623L14.8177 58.9835L2.91887 47.0173L7.82801 42.1036Z" fill="white"/>
<path d="M34.634 6.04336V7.45963C33.2245 7.95832 32.2119 9.30186 32.2119 10.8777C32.2119 12.8768 33.8415 14.5037 35.8449 14.5037C36.5125 14.5037 37.0557 15.0458 37.0557 15.7121C37.0557 16.3785 36.5125 16.9206 35.8449 16.9206C35.3277 16.9206 34.7689 16.5962 34.2725 16.0063C33.8419 15.4954 33.0782 15.4297 32.5663 15.859C32.0543 16.2887 31.9881 17.0509 32.4186 17.5619C33.0659 18.3303 33.8273 18.8658 34.634 19.1359V20.5465C34.634 21.2143 35.1763 21.755 35.8449 21.755C36.5135 21.755 37.0557 21.2143 37.0557 20.5465V19.1302C38.4653 18.6311 39.4779 17.2875 39.4779 15.7121C39.4779 13.7126 37.8483 12.0862 35.8449 12.0862C35.1772 12.0862 34.634 11.5441 34.634 10.8777C34.634 10.2114 35.1772 9.6688 35.8449 9.6688C36.274 9.6688 36.7269 9.88745 37.1546 10.3007C37.6353 10.7649 38.4019 10.7521 38.867 10.2728C39.3321 9.793 39.3194 9.02796 38.8391 8.56374C38.2244 7.97013 37.6093 7.63436 37.0557 7.45113V6.04336C37.0557 5.37561 36.5135 4.83441 35.8449 4.83441C35.1763 4.83441 34.634 5.37561 34.634 6.04336Z" fill="white"/>
</svg>
