<svg width="60" height="61" viewBox="0 0 60 61" fill="none" xmlns="http://www.w3.org/2000/svg">
<path d="M45.393 6.651L30.3895 0.0835039C30.1344 -0.0278346 29.8445 -0.0278346 29.5893 0.0835039L14.5859 6.651C14.2216 6.81001 13.986 7.16969 13.9858 7.56721V23.2708C13.9912 26.7999 15.6871 30.1128 18.5468 32.1808L28.9162 39.6595C29.5566 40.1231 30.4223 40.1231 31.0627 39.6595L41.432 32.1818C44.2918 30.1138 45.9877 26.8009 45.9931 23.2718V7.56721C45.9929 7.16969 45.7573 6.81001 45.393 6.651ZM43.9926 23.2718C43.9881 26.1584 42.6009 28.868 40.2618 30.5595L29.9894 37.9682L19.7171 30.5595C17.378 28.868 15.9908 26.1584 15.9862 23.2718V8.22136L29.9894 2.09196L43.9926 8.22136V23.2718Z" fill="white"/>
<path d="M29.5893 4.45051L18.5868 9.26761C18.2225 9.42662 17.9869 9.78629 17.9867 10.1838V23.2718C17.9898 25.516 19.0684 27.6227 20.8874 28.9371L29.4043 35.0805C29.7537 35.3325 30.2252 35.3325 30.5746 35.0805L39.0915 28.9371C40.9104 27.6227 41.9891 25.516 41.9922 23.2718V10.1838C41.992 9.78629 41.7564 9.42662 41.392 9.26761L30.3895 4.45051C30.1344 4.33917 29.8445 4.33917 29.5893 4.45051ZM39.9917 10.837V23.2718C39.9887 24.8732 39.2189 26.3763 37.9212 27.3147L29.9894 33.036L22.0576 27.3147C20.76 26.3763 19.9902 24.8732 19.9872 23.2718V10.837L29.9894 6.45897L39.9917 10.837Z" fill="white"/>
<path d="M8.26945 33.2071L6.10596 28.1519C5.64587 27.1097 4.66473 26.3922 3.53211 26.2695C2.3995 26.1468 1.28748 26.6377 0.614948 27.5573C-0.0575844 28.4768 -0.188457 29.6853 0.271627 30.7275L4.19152 39.3505C4.72036 40.5178 5.45604 41.5798 6.36302 42.4852L12.5274 48.6506C12.1803 49.0186 11.9864 49.505 11.9853 50.0109V58.0128C11.9853 59.1176 12.8809 60.0132 13.9858 60.0132H24.9883C26.0931 60.0132 26.9887 59.1176 26.9887 58.0128V50.0109C26.9887 48.9061 26.0931 48.0105 24.9883 48.0105V46.149C25.0189 43.7802 24.2461 41.4708 22.7958 39.5976C21.9455 38.4792 20.7866 37.634 19.462 37.166C17.3554 36.2809 15.418 35.0376 13.7357 33.4912C12.1742 32.2051 9.95586 32.0898 8.26945 33.2071ZM24.9883 58.0128H13.9858V50.0109H24.9883V58.0128ZM21.2344 40.8468C22.4003 42.3658 23.0182 44.2344 22.9878 46.149V48.0105H14.7169L7.77734 41.0709C7.04031 40.3349 6.44224 39.4719 6.01194 38.5233L2.09204 29.9003C1.92476 29.5323 1.95589 29.1045 2.1747 28.7645C2.39351 28.4246 2.77002 28.2191 3.17429 28.219C3.65004 28.2186 4.08001 28.5025 4.26654 28.9401L6.50405 34.1583C7.09821 35.5505 7.95463 36.8155 9.02663 37.8842L13.5957 42.4542C13.8468 42.7142 14.2187 42.8185 14.5684 42.727C14.9181 42.6354 15.1912 42.3623 15.2828 42.0126C15.3743 41.6629 15.27 41.291 15.01 41.0399L10.4409 36.4698C9.98151 36.0115 9.56841 35.509 9.20767 34.9695C10.1682 34.2303 11.512 34.2527 12.4474 35.0235C14.3172 36.7395 16.4782 38.1079 18.8289 39.0644C19.7866 39.4127 20.6224 40.032 21.2344 40.8468Z" fill="white"/>
<path d="M21.9876 53.0116H20.9873C20.4349 53.0116 19.9871 53.4594 19.9871 54.0118C19.9871 54.5642 20.4349 55.0121 20.9873 55.0121H21.9876C22.54 55.0121 22.9878 54.5642 22.9878 54.0118C22.9878 53.4594 22.54 53.0116 21.9876 53.0116Z" fill="white"/>
<path d="M55.7873 39.3505L59.7072 30.7275C60.1892 29.6818 60.07 28.4574 59.3953 27.5243C58.7206 26.5913 57.5952 26.0944 56.4512 26.2244C55.3071 26.3545 54.322 27.0912 53.8739 28.1519L51.7154 33.1881C50.0231 32.0763 47.8037 32.198 46.2431 33.4881C44.5609 35.0345 42.6235 36.2779 40.5168 37.163C39.1922 37.631 38.0334 38.4762 37.1831 39.5945C35.7321 41.4686 34.9592 43.7791 34.9906 46.149V48.0104C33.8857 48.0104 32.9901 48.9061 32.9901 50.0109V58.0127C32.9901 59.1175 33.8857 60.0132 34.9906 60.0132H45.9931C47.0979 60.0132 47.9935 59.1175 47.9935 58.0127V50.0109C47.9925 49.505 47.7986 49.0186 47.4514 48.6506L53.6158 42.4852C54.5228 41.5798 55.2585 40.5178 55.7873 39.3505ZM45.9931 58.0127H34.9906V50.0109H45.9931V58.0127ZM45.2619 48.0104H36.991V46.149C36.9608 44.2348 37.5788 42.3665 38.7444 40.8478C39.3551 40.0335 40.189 39.4139 41.145 39.0644C43.4961 38.1081 45.6575 36.7397 47.5274 35.0235C48.4618 34.2469 49.8094 34.2207 50.7732 34.9605C50.4114 35.5039 49.9962 36.0099 49.5339 36.4708L44.9648 41.0408C44.5858 41.4333 44.5912 42.0572 44.977 42.443C45.3629 42.8288 45.9867 42.8342 46.3792 42.4552L50.9482 37.8851C52.0202 36.8164 52.8766 35.5515 53.4708 34.1593L55.7083 28.9401C55.8954 28.503 56.3251 28.2196 56.8006 28.2199C57.2048 28.2201 57.5813 28.4256 57.8001 28.7655C58.0189 29.1055 58.0501 29.5333 57.8828 29.9013L53.9629 38.5243C53.5326 39.4728 52.9345 40.3359 52.1975 41.0719L45.2619 48.0104Z" fill="white"/>
<path d="M38.9915 53.0116H37.9913C37.4388 53.0116 36.991 53.4594 36.991 54.0118C36.991 54.5642 37.4388 55.0121 37.9913 55.0121H38.9915C39.5439 55.0121 39.9917 54.5642 39.9917 54.0118C39.9917 53.4594 39.5439 53.0116 38.9915 53.0116Z" fill="white"/>
<path d="M24.5882 21.2044C24.1462 20.8729 23.5193 20.9625 23.1878 21.4044C22.8564 21.8463 22.946 22.4733 23.3879 22.8047L27.3888 25.8054C27.5619 25.9353 27.7725 26.0055 27.9889 26.0055C28.0456 26.0053 28.1021 26.0006 28.158 25.9915C28.4289 25.945 28.6687 25.7891 28.8211 25.5604L36.823 13.5576C37.0213 13.2603 37.0459 12.8798 36.8876 12.5594C36.7293 12.2389 36.4121 12.0273 36.0554 12.0042C35.6988 11.9811 35.3569 12.1501 35.1586 12.4474L27.7429 23.5709L24.5882 21.2044Z" fill="white"/>
</svg>
