<svg width="70" height="57" viewBox="0 0 70 57" fill="none" xmlns="http://www.w3.org/2000/svg">
<mask id="path-1-inside-1" fill="white">
<path d="M69.218 31.0834C68.8679 30.642 68.2271 30.5683 67.7858 30.9179L65.7866 32.5033L49.6282 11.288L58.8655 5.3593C59.3393 5.05523 59.4768 4.42486 59.1727 3.95114C58.8688 3.47741 58.2384 3.33989 57.7647 3.64395L47.5979 10.1694C47.1048 10.4859 46.982 11.1777 47.3376 11.6446L49.1878 14.0739L47.8722 15.0811L42.6487 13.3553C42.5466 13.3219 42.4366 13.3039 42.3289 13.3039H30.3709C29.9032 13.3039 29.4956 13.6222 29.3822 14.0758L28.7092 16.7674L27.0107 16.0523C26.8485 15.9839 26.6711 15.959 26.4968 15.9793L21.772 16.5326L20.1667 15.6006L21.6937 12.956C21.9711 12.4751 21.8011 11.8412 21.3207 11.5639L1.52887 0.136777C1.04104 -0.144774 0.41786 0.0223117 0.136717 0.509736C-0.144699 0.997161 0.0222518 1.62048 0.509676 1.90189L16.0206 10.8571L2.63392 34.0437L1.52887 33.4057C1.04104 33.1241 0.41786 33.2913 0.136717 33.7787C-0.144699 34.2661 0.0222518 34.8894 0.509676 35.1709L5.89535 38.2804C6.37667 38.5581 7.0103 38.3878 7.28751 37.9074L8.06679 36.5577L10.2654 37.7303C9.54819 39.1206 9.61885 40.856 10.5968 42.2076C11.4329 43.3629 12.7428 43.9772 14.0705 43.9772C14.5136 43.9772 14.9585 43.9079 15.3887 43.7682C15.3915 44.6782 15.6807 45.553 16.2308 46.2836C17.0661 47.3931 18.357 47.981 19.6615 47.981C20.0974 47.981 20.5349 47.9152 20.9574 47.7814C20.9688 48.632 21.2315 49.4872 21.7669 50.2272C22.4371 51.1535 23.428 51.7634 24.5568 51.9444C24.7862 51.9813 25.0158 51.9995 25.2438 51.9995C25.6864 51.9995 26.1227 51.9304 26.5401 51.7964C26.5522 52.6692 26.8298 53.5156 27.3521 54.2372C28.0223 55.1634 29.0132 55.7734 30.1419 55.9545C30.3714 55.9912 30.601 56.0095 30.829 56.0094C31.7226 56.0094 32.5911 55.7299 33.3291 55.1958L35.7068 53.4753C36.2212 53.1032 36.6363 52.633 36.9359 52.096L41.1189 54.376C41.7563 54.7234 42.4553 54.9 43.1616 54.9C43.5675 54.9 43.9762 54.8416 44.3764 54.7237C45.4732 54.4007 46.3786 53.6701 46.9257 52.6661C47.3522 51.8835 47.5202 51.0079 47.421 50.1405C47.6769 50.1876 47.9344 50.2109 48.1909 50.2109C49.7082 50.2108 51.1807 49.4031 51.9566 47.9796C52.3931 47.1785 52.5452 46.2981 52.4491 45.4538C52.7057 45.5012 52.9641 45.5245 53.2214 45.5245C54.7388 45.5243 56.2113 44.7167 56.987 43.2932C57.4133 42.5112 57.5813 41.6362 57.4825 40.7693C57.7368 40.8165 57.9944 40.8408 58.2535 40.8408C58.6595 40.8408 59.068 40.7823 59.4682 40.6645C60.565 40.3414 61.4704 39.6108 62.0177 38.6068C62.5649 37.603 62.6886 36.4461 62.3655 35.3492C62.288 35.0855 62.1861 34.8334 62.0634 34.5942L63.851 33.3253L64.7953 34.5652C65.136 35.0124 65.7981 35.096 66.2394 34.7462L69.0528 32.5151C69.4937 32.1653 69.5677 31.5244 69.218 31.0834ZM6.03206 36.0057L4.39917 35.0629L17.7859 11.8763L19.4187 12.8192L6.03206 36.0057ZM15.3788 41.5147C14.3775 42.2396 12.9729 42.0145 12.2481 41.0128C11.5235 40.0112 11.7488 38.6066 12.7504 37.8818L19.9599 32.6654C20.3604 32.3757 20.8211 32.2355 21.277 32.2355C21.9482 32.2355 22.6092 32.5391 23.0525 33.1162C23.8122 34.1057 23.5982 35.5671 22.589 36.298L15.3788 41.5147ZM20.9639 45.5248C19.9812 46.2358 18.5882 46.0263 17.8591 45.0577C17.1037 44.0545 17.3946 42.5723 18.3945 41.8487L23.7833 37.9497C23.9794 37.819 24.1608 37.6813 24.3805 37.5882C24.6931 37.4554 25.0354 37.3952 25.3746 37.414C26.0237 37.4501 26.6314 37.7766 27.0268 38.2914C27.7866 39.2807 27.5727 40.7423 26.5634 41.4732L20.9639 45.5248ZM26.5489 49.5346C26.0638 49.8858 25.471 50.027 24.8795 49.9319C24.2882 49.8371 23.7692 49.5176 23.4181 49.0323C22.6937 48.0312 22.9185 46.6276 23.9188 45.9026C23.9188 45.9026 27.7585 43.1243 27.7589 43.124L27.9087 43.0156C28.8986 42.2995 30.257 42.4975 31.0012 43.4664C31.7611 44.4562 31.5468 45.9181 30.5371 46.6487L26.5489 49.5346ZM35.416 50.3309C35.328 50.9357 35.0067 51.4658 34.5117 51.824L32.134 53.5445C31.1434 54.2614 29.7189 54.0319 29.0031 53.0424C28.2841 52.0487 28.5184 50.6312 29.5052 49.9116L31.7321 48.3004L31.8831 48.1911C32.8587 47.4853 34.2427 47.6877 34.9755 48.6419C35.3478 49.1265 35.5042 49.7263 35.416 50.3309ZM60.2279 37.6312C59.6435 38.7034 58.2601 39.1123 57.186 38.5268L45.403 32.1043C44.9086 31.8351 44.2897 32.0172 44.0204 32.5114C43.751 33.0057 43.9332 33.6246 44.4274 33.8941L54.3015 39.276C55.3871 39.8677 55.7887 41.2322 55.1972 42.3177C54.6055 43.4031 53.241 43.8052 52.1554 43.2134L42.1367 37.7525C41.6425 37.4832 41.0235 37.6655 40.7542 38.1597C40.4849 38.6539 40.667 39.2729 41.1613 39.5424L49.2725 43.9635C50.3568 44.5557 50.7578 45.9193 50.1666 47.0043C49.5824 48.0763 48.199 48.4855 47.1248 47.8999L38.6329 43.2713C38.1383 43.0021 37.5196 43.1842 37.2503 43.6784C36.9809 44.1726 37.1631 44.7916 37.6573 45.0611L44.2401 48.6491C45.3125 49.2335 45.7212 50.6168 45.1357 51.6909C44.5515 52.7633 43.1681 53.1718 42.0941 52.5864L37.4768 50.0697C37.493 49.1082 37.1883 48.1768 36.5921 47.4005C35.7914 46.3579 34.6184 45.7828 33.4087 45.7241C33.4278 45.6337 33.4453 45.5424 33.4587 45.45C33.6269 44.2958 33.3284 43.1506 32.6179 42.2254C31.817 41.1828 30.644 40.6078 29.4343 40.5491C29.4534 40.4586 29.4709 40.3673 29.4843 40.2748C29.6525 39.1204 29.354 37.9754 28.6435 37.0502C27.8426 36.0075 26.6696 35.4326 25.4599 35.3739C25.479 35.2834 25.4965 35.1921 25.5099 35.0998C25.6781 33.9454 25.3796 32.8002 24.6691 31.8751C23.2483 30.025 20.6545 29.6471 18.765 31.0146L11.6526 36.1601L9.0864 34.7914L19.1474 17.3655L21.0417 18.4654C21.2323 18.576 21.4537 18.6216 21.672 18.5963L26.467 18.0346L28.2088 18.7681L27.2078 22.7725C27.1877 22.8533 27.1774 22.9363 27.1774 23.0197V31.7164C27.1774 34.6761 29.5854 37.0839 32.5449 37.0839C35.5046 37.0839 37.9124 34.676 37.9124 31.7164V23.312L38.0976 23.0156L59.3319 34.5894C60.4042 35.1738 60.8133 36.5568 60.2279 37.6312ZM60.7141 33.052C60.584 32.9614 60.4489 32.8765 60.3077 32.7996L39.1802 21.2837L39.9641 20.0296C40.2623 19.5522 40.1172 18.9235 39.6398 18.6253C39.163 18.3272 38.5337 18.472 38.2354 18.9494L36.0291 22.4795C35.9281 22.6414 35.8743 22.8286 35.8743 23.0197V31.7164C35.8743 33.5521 34.3809 35.0457 32.545 35.0457C30.7091 35.0457 29.2158 33.5522 29.2158 31.7164V23.1451L31.1664 15.3421H42.1648L47.7442 17.1854C48.0612 17.2902 48.4182 17.2299 48.6832 17.027L50.4227 15.6954L62.6148 31.703L60.7141 33.052Z"/>
</mask>
<path d="M69.218 31.0834C68.8679 30.642 68.2271 30.5683 67.7858 30.9179L65.7866 32.5033L49.6282 11.288L58.8655 5.3593C59.3393 5.05523 59.4768 4.42486 59.1727 3.95114C58.8688 3.47741 58.2384 3.33989 57.7647 3.64395L47.5979 10.1694C47.1048 10.4859 46.982 11.1777 47.3376 11.6446L49.1878 14.0739L47.8722 15.0811L42.6487 13.3553C42.5466 13.3219 42.4366 13.3039 42.3289 13.3039H30.3709C29.9032 13.3039 29.4956 13.6222 29.3822 14.0758L28.7092 16.7674L27.0107 16.0523C26.8485 15.9839 26.6711 15.959 26.4968 15.9793L21.772 16.5326L20.1667 15.6006L21.6937 12.956C21.9711 12.4751 21.8011 11.8412 21.3207 11.5639L1.52887 0.136777C1.04104 -0.144774 0.41786 0.0223117 0.136717 0.509736C-0.144699 0.997161 0.0222518 1.62048 0.509676 1.90189L16.0206 10.8571L2.63392 34.0437L1.52887 33.4057C1.04104 33.1241 0.41786 33.2913 0.136717 33.7787C-0.144699 34.2661 0.0222518 34.8894 0.509676 35.1709L5.89535 38.2804C6.37667 38.5581 7.0103 38.3878 7.28751 37.9074L8.06679 36.5577L10.2654 37.7303C9.54819 39.1206 9.61885 40.856 10.5968 42.2076C11.4329 43.3629 12.7428 43.9772 14.0705 43.9772C14.5136 43.9772 14.9585 43.9079 15.3887 43.7682C15.3915 44.6782 15.6807 45.553 16.2308 46.2836C17.0661 47.3931 18.357 47.981 19.6615 47.981C20.0974 47.981 20.5349 47.9152 20.9574 47.7814C20.9688 48.632 21.2315 49.4872 21.7669 50.2272C22.4371 51.1535 23.428 51.7634 24.5568 51.9444C24.7862 51.9813 25.0158 51.9995 25.2438 51.9995C25.6864 51.9995 26.1227 51.9304 26.5401 51.7964C26.5522 52.6692 26.8298 53.5156 27.3521 54.2372C28.0223 55.1634 29.0132 55.7734 30.1419 55.9545C30.3714 55.9912 30.601 56.0095 30.829 56.0094C31.7226 56.0094 32.5911 55.7299 33.3291 55.1958L35.7068 53.4753C36.2212 53.1032 36.6363 52.633 36.9359 52.096L41.1189 54.376C41.7563 54.7234 42.4553 54.9 43.1616 54.9C43.5675 54.9 43.9762 54.8416 44.3764 54.7237C45.4732 54.4007 46.3786 53.6701 46.9257 52.6661C47.3522 51.8835 47.5202 51.0079 47.421 50.1405C47.6769 50.1876 47.9344 50.2109 48.1909 50.2109C49.7082 50.2108 51.1807 49.4031 51.9566 47.9796C52.3931 47.1785 52.5452 46.2981 52.4491 45.4538C52.7057 45.5012 52.9641 45.5245 53.2214 45.5245C54.7388 45.5243 56.2113 44.7167 56.987 43.2932C57.4133 42.5112 57.5813 41.6362 57.4825 40.7693C57.7368 40.8165 57.9944 40.8408 58.2535 40.8408C58.6595 40.8408 59.068 40.7823 59.4682 40.6645C60.565 40.3414 61.4704 39.6108 62.0177 38.6068C62.5649 37.603 62.6886 36.4461 62.3655 35.3492C62.288 35.0855 62.1861 34.8334 62.0634 34.5942L63.851 33.3253L64.7953 34.5652C65.136 35.0124 65.7981 35.096 66.2394 34.7462L69.0528 32.5151C69.4937 32.1653 69.5677 31.5244 69.218 31.0834ZM6.03206 36.0057L4.39917 35.0629L17.7859 11.8763L19.4187 12.8192L6.03206 36.0057ZM15.3788 41.5147C14.3775 42.2396 12.9729 42.0145 12.2481 41.0128C11.5235 40.0112 11.7488 38.6066 12.7504 37.8818L19.9599 32.6654C20.3604 32.3757 20.8211 32.2355 21.277 32.2355C21.9482 32.2355 22.6092 32.5391 23.0525 33.1162C23.8122 34.1057 23.5982 35.5671 22.589 36.298L15.3788 41.5147ZM20.9639 45.5248C19.9812 46.2358 18.5882 46.0263 17.8591 45.0577C17.1037 44.0545 17.3946 42.5723 18.3945 41.8487L23.7833 37.9497C23.9794 37.819 24.1608 37.6813 24.3805 37.5882C24.6931 37.4554 25.0354 37.3952 25.3746 37.414C26.0237 37.4501 26.6314 37.7766 27.0268 38.2914C27.7866 39.2807 27.5727 40.7423 26.5634 41.4732L20.9639 45.5248ZM26.5489 49.5346C26.0638 49.8858 25.471 50.027 24.8795 49.9319C24.2882 49.8371 23.7692 49.5176 23.4181 49.0323C22.6937 48.0312 22.9185 46.6276 23.9188 45.9026C23.9188 45.9026 27.7585 43.1243 27.7589 43.124L27.9087 43.0156C28.8986 42.2995 30.257 42.4975 31.0012 43.4664C31.7611 44.4562 31.5468 45.9181 30.5371 46.6487L26.5489 49.5346ZM35.416 50.3309C35.328 50.9357 35.0067 51.4658 34.5117 51.824L32.134 53.5445C31.1434 54.2614 29.7189 54.0319 29.0031 53.0424C28.2841 52.0487 28.5184 50.6312 29.5052 49.9116L31.7321 48.3004L31.8831 48.1911C32.8587 47.4853 34.2427 47.6877 34.9755 48.6419C35.3478 49.1265 35.5042 49.7263 35.416 50.3309ZM60.2279 37.6312C59.6435 38.7034 58.2601 39.1123 57.186 38.5268L45.403 32.1043C44.9086 31.8351 44.2897 32.0172 44.0204 32.5114C43.751 33.0057 43.9332 33.6246 44.4274 33.8941L54.3015 39.276C55.3871 39.8677 55.7887 41.2322 55.1972 42.3177C54.6055 43.4031 53.241 43.8052 52.1554 43.2134L42.1367 37.7525C41.6425 37.4832 41.0235 37.6655 40.7542 38.1597C40.4849 38.6539 40.667 39.2729 41.1613 39.5424L49.2725 43.9635C50.3568 44.5557 50.7578 45.9193 50.1666 47.0043C49.5824 48.0763 48.199 48.4855 47.1248 47.8999L38.6329 43.2713C38.1383 43.0021 37.5196 43.1842 37.2503 43.6784C36.9809 44.1726 37.1631 44.7916 37.6573 45.0611L44.2401 48.6491C45.3125 49.2335 45.7212 50.6168 45.1357 51.6909C44.5515 52.7633 43.1681 53.1718 42.0941 52.5864L37.4768 50.0697C37.493 49.1082 37.1883 48.1768 36.5921 47.4005C35.7914 46.3579 34.6184 45.7828 33.4087 45.7241C33.4278 45.6337 33.4453 45.5424 33.4587 45.45C33.6269 44.2958 33.3284 43.1506 32.6179 42.2254C31.817 41.1828 30.644 40.6078 29.4343 40.5491C29.4534 40.4586 29.4709 40.3673 29.4843 40.2748C29.6525 39.1204 29.354 37.9754 28.6435 37.0502C27.8426 36.0075 26.6696 35.4326 25.4599 35.3739C25.479 35.2834 25.4965 35.1921 25.5099 35.0998C25.6781 33.9454 25.3796 32.8002 24.6691 31.8751C23.2483 30.025 20.6545 29.6471 18.765 31.0146L11.6526 36.1601L9.0864 34.7914L19.1474 17.3655L21.0417 18.4654C21.2323 18.576 21.4537 18.6216 21.672 18.5963L26.467 18.0346L28.2088 18.7681L27.2078 22.7725C27.1877 22.8533 27.1774 22.9363 27.1774 23.0197V31.7164C27.1774 34.6761 29.5854 37.0839 32.5449 37.0839C35.5046 37.0839 37.9124 34.676 37.9124 31.7164V23.312L38.0976 23.0156L59.3319 34.5894C60.4042 35.1738 60.8133 36.5568 60.2279 37.6312ZM60.7141 33.052C60.584 32.9614 60.4489 32.8765 60.3077 32.7996L39.1802 21.2837L39.9641 20.0296C40.2623 19.5522 40.1172 18.9235 39.6398 18.6253C39.163 18.3272 38.5337 18.472 38.2354 18.9494L36.0291 22.4795C35.9281 22.6414 35.8743 22.8286 35.8743 23.0197V31.7164C35.8743 33.5521 34.3809 35.0457 32.545 35.0457C30.7091 35.0457 29.2158 33.5522 29.2158 31.7164V23.1451L31.1664 15.3421H42.1648L47.7442 17.1854C48.0612 17.2902 48.4182 17.2299 48.6832 17.027L50.4227 15.6954L62.6148 31.703L60.7141 33.052Z" fill="white" stroke="white" stroke-width="2" mask="url(#path-1-inside-1)"/>
</svg>
