<svg width="177" height="33" viewBox="0 0 177 33" fill="none" xmlns="http://www.w3.org/2000/svg">
<path d="M52.4232 8.09195C50.9543 5.6092 49.0263 3.67816 46.5474 2.2069C45.9965 1.83908 45.3539 1.56322 44.803 1.28736C42.875 0.45977 40.7634 0 38.5599 0C36.2647 0 34.0612 0.45977 31.9496 1.47126C31.4905 1.65517 31.0315 1.93103 30.5724 2.2069C28.0936 3.67816 26.1655 5.6092 24.7884 8.09195C23.4112 10.5747 22.6768 13.2414 22.6768 16.092C22.6768 19.1264 23.4112 21.7931 24.7884 24.2759C26.2574 26.7586 28.1854 28.5977 30.5724 29.977C33.0513 31.3563 35.7138 32.092 38.5599 32.092C41.406 32.092 44.0685 31.3563 46.5474 29.977C49.0263 28.5977 50.9543 26.5747 52.4232 24.1839C53.8922 21.7012 54.5349 19.0345 54.5349 16.1839C54.6267 13.1494 53.8922 10.4828 52.4232 8.09195ZM39.9371 29.8851V30.069H39.019V15.908C39.478 15.6322 39.8453 15.1724 39.8453 14.5287C39.8453 13.7012 39.2026 12.9655 38.2845 12.9655C37.4582 12.9655 36.7237 13.7012 36.7237 14.5287C36.7237 15.1724 37.0909 15.6322 37.6418 15.908V30.069H36.8155C36.8155 29.977 36.8155 29.977 36.8155 29.8851C36.8155 25.0115 34.2448 20.7816 30.4806 18.2989L31.6741 3.86207C33.694 2.66667 35.9892 2.02299 38.4681 2.02299C40.7634 2.02299 42.9668 2.57471 44.8948 3.67816L46.0883 18.3908C42.5077 20.8736 40.0289 25.1035 39.9371 29.8851Z" fill="black"/>
<path d="M17.5357 0.36792V2.48286H12.0271C6.51852 2.39091 2.20344 6.8047 2.20344 12.3219V15.4484H15.7913V17.4714H2.20344V31.8162H0V11.9541C0 5.51735 5.23318 0.36792 11.5681 0.36792H17.5357Z" fill="black"/>
<path d="M36.9072 29.885C36.9072 29.977 36.9072 29.977 36.9072 30.0689H37.7335V29.977C37.4581 29.977 37.1827 29.885 36.9072 29.885ZM39.1107 29.977L40.0288 30.0689V29.885C39.6615 29.885 39.3861 29.977 39.1107 29.977Z" fill="black"/>
<path d="M167.92 14.2528C166.635 14.9885 165.258 15.5402 163.881 15.908C165.258 16.2758 166.635 16.8275 167.92 17.5632C170.399 19.0344 172.327 20.9655 173.796 23.4482C175.265 25.931 176 28.5976 176 31.4482H173.796C173.796 28.8735 173.154 26.5747 171.96 24.4597C170.767 22.3448 169.022 20.5976 166.911 19.4022C164.799 18.1149 162.504 17.4712 160.025 17.4712C157.454 17.4712 155.159 18.1149 153.047 19.4022C150.936 20.6896 149.283 22.4367 148.089 24.5517C146.896 26.6666 146.253 28.9655 146.253 31.4482H144.05C144.05 28.5976 144.784 25.931 146.253 23.4482C147.722 20.9655 149.65 19.0344 152.037 17.5632C153.323 16.8275 154.608 16.2758 155.985 15.908C154.608 15.5402 153.231 15.0804 152.037 14.3448C149.65 12.9655 147.63 11.0344 146.253 8.64362C144.876 6.16087 144.142 3.4942 144.142 0.459717H146.345V0.551671C146.345 3.03443 146.988 5.33328 148.181 7.44822C149.375 9.56317 151.027 11.2183 153.139 12.5057C155.251 13.7931 157.546 14.3448 160.025 14.3448C162.595 14.3448 164.891 13.7011 167.002 12.5057C169.114 11.3103 170.858 9.56317 172.052 7.44822C173.245 5.33328 173.888 2.94248 173.888 0.459717H176.092C176.092 3.31029 175.357 5.97696 173.888 8.45972C172.419 10.9425 170.399 12.8735 167.92 14.2528Z" fill="black"/>
<path d="M110.631 29.6091V31.7241H91.3506V0.459717H93.554V29.6091H110.631Z" fill="black"/>
<path d="M134.502 0.36792V2.48286H117.333V14.8967H132.757V17.0116H117.333V19.9541C117.333 25.2875 121.648 29.6093 126.973 29.6093H135.053V31.7242H126.882C120.363 31.7242 115.13 26.4829 115.13 19.9541V0.36792H134.502Z" fill="black"/>
<path d="M83.7306 31.8162H81.2517L72.1625 17.0116H72.438C73.9987 17.0116 75.4677 16.4599 76.5694 15.5403C78.1302 14.253 79.1401 12.3219 79.1401 10.207V10.0231C79.1401 6.98861 77.2121 4.32194 74.5496 3.21849C74.4578 3.21849 74.366 3.12654 74.366 3.12654C73.4479 2.66677 72.3461 2.48286 71.1526 2.48286H64.9095V31.6323H62.7061H62.5225V0.36792H71.7953C77.1203 0.36792 81.3435 4.68976 81.3435 9.93114V10.115C81.3435 13.9771 78.9565 17.1955 75.6513 18.5748L83.7306 31.8162Z" fill="black"/>
</svg>
