<svg width="51" height="63" viewBox="0 0 51 63" fill="none" xmlns="http://www.w3.org/2000/svg">
<path d="M38.2185 29.3464H12.7611C12.4516 29.3464 12.2969 29.1143 12.2969 28.8822V19.4421C12.2969 19.2099 12.4516 19.0552 12.6064 18.9778L21.3501 15.5732C21.5049 15.4958 21.737 15.5732 21.8917 15.6505L25.3738 18.9778L29.1653 15.5732C29.32 15.4184 29.4748 15.4184 29.7069 15.4958L38.4506 18.9004C38.6054 18.9778 38.7602 19.1325 38.7602 19.3647V28.7274C38.6828 29.1143 38.4506 29.3464 38.2185 29.3464ZM13.3028 28.3405H37.7542V19.8289L29.6296 16.6564L25.7606 20.1385C25.5285 20.2932 25.2964 20.2932 25.0642 20.1385L21.4275 16.6564L13.3028 19.8289V28.3405Z" fill="white" stroke="white" stroke-width="0.5" stroke-miterlimit="10"/>
<path d="M33.8854 29.3465H17.0944C16.7849 29.3465 16.5527 29.1144 16.5527 28.8822V23.0015C16.5527 22.692 16.7849 22.5372 17.0944 22.5372C17.4039 22.5372 17.636 22.7694 17.636 23.0015V28.3406H33.4985V23.0015C33.4985 22.692 33.7307 22.5372 34.0402 22.5372C34.3497 22.5372 34.5818 22.7694 34.5818 23.0015V28.8822C34.4271 29.1144 34.1949 29.3465 33.8854 29.3465Z" fill="white" stroke="white" stroke-width="0.5" stroke-miterlimit="10"/>
<path d="M29.7073 21.067H21.2731C20.9636 21.067 20.7314 20.8348 20.7314 20.6027V16.0374C20.7314 15.7279 20.9636 15.5731 21.2731 15.5731C21.5826 15.5731 21.8147 15.8053 21.8147 16.0374V19.9837H29.243V16.0374C29.243 15.7279 29.4752 15.5731 29.7847 15.5731C30.0942 15.5731 30.3263 15.8053 30.3263 16.0374V20.5253C30.1716 20.8348 29.9394 21.067 29.7073 21.067Z" fill="white" stroke="white" stroke-width="0.5" stroke-miterlimit="10"/>
<path d="M26.767 23.9301H24.2135C23.904 23.9301 23.6719 23.6979 23.6719 23.4658V20.5254C23.6719 20.2159 23.904 20.0612 24.2135 20.0612H26.767C27.0765 20.0612 27.3086 20.2933 27.3086 20.5254V23.4658C27.2313 23.7753 26.9991 23.9301 26.767 23.9301ZM24.7552 22.9241H26.3027V20.9897H24.7552V22.9241Z" fill="white" stroke="white" stroke-width="0.5" stroke-miterlimit="10"/>
<path d="M27.7725 29.3466H22.8977C22.7429 29.3466 22.5882 29.2692 22.5108 29.1918C22.4334 29.0371 22.356 28.8823 22.4334 28.7276L23.7488 23.3885C23.8262 23.1563 23.981 23.0016 24.2131 23.0016H26.7666C26.9987 23.0016 27.2309 23.1563 27.2309 23.3885L28.2368 28.7276C28.2368 28.8823 28.2368 29.0371 28.1594 29.1145C28.082 29.2692 27.9273 29.3466 27.7725 29.3466ZM23.5941 28.3407H27.2309L26.3797 24.0075H24.6774L23.5941 28.3407Z" fill="white" stroke="white" stroke-width="0.5" stroke-miterlimit="10"/>
<path d="M25.6061 14.3351C21.892 14.3351 18.7969 11.3173 18.7969 7.52582C18.7969 3.81167 21.8146 0.716553 25.6061 0.716553C29.3203 0.793931 32.4154 3.81167 32.4154 7.52582C32.4154 11.3173 29.3203 14.3351 25.6061 14.3351ZM25.6061 1.72247C22.4336 1.72247 19.8028 4.35332 19.8028 7.52582C19.8028 10.6983 22.4336 13.3292 25.6061 13.3292C28.7786 13.3292 31.4095 10.6983 31.4095 7.52582C31.4095 4.35332 28.7786 1.72247 25.6061 1.72247Z" fill="white" stroke="white" stroke-width="0.5" stroke-miterlimit="10"/>
<path d="M30.4034 6.59732C28.7011 6.59732 27.1535 6.13305 25.9929 5.20451C25.7607 5.04976 25.7607 4.74024 25.9155 4.50811C26.0702 4.27598 26.3797 4.27598 26.6119 4.43073C27.8499 5.43665 29.8618 5.82354 31.7188 5.51402C32.0283 5.43665 32.2605 5.66878 32.3378 5.90091C32.4152 6.21043 32.1831 6.44256 31.951 6.51994C31.3319 6.59732 30.8677 6.59732 30.4034 6.59732Z" fill="white" stroke="white" stroke-width="0.5" stroke-miterlimit="10"/>
<path d="M22.2795 6.52006C21.2736 6.52006 20.3451 6.36531 19.4166 5.97842C19.1844 5.90104 19.0297 5.59153 19.107 5.35939C19.1844 5.12726 19.4939 4.9725 19.7261 5.04988C20.4998 5.35939 21.2736 5.51415 22.2022 5.51415C25.0651 5.51415 27.3091 3.96659 27.3091 2.03214C27.3091 1.72263 27.5412 1.56787 27.8508 1.56787C28.1603 1.56787 28.3924 1.80001 28.3924 2.03214C28.3924 4.43086 25.6842 6.52006 22.2795 6.52006Z" fill="white" stroke="white" stroke-width="0.5" stroke-miterlimit="10"/>
<path d="M49.5934 62C49.2839 62 49.0517 61.7679 49.0517 61.5358V59.2144C49.0517 57.3573 47.5816 55.8872 45.7245 55.8872H40.1533C38.2962 55.8872 36.826 57.3573 36.826 59.2144V61.5358C36.826 61.8453 36.5939 62 36.2844 62C35.9749 62 35.7427 61.7679 35.7427 61.5358V59.2144C35.7427 56.8157 37.6772 54.8812 40.0759 54.8812H45.6471C48.0458 54.8812 49.9803 56.8157 49.9803 59.2144V61.5358C50.0577 61.7679 49.9029 62 49.5934 62ZM31.4096 62C31.1 62 30.8679 61.7679 30.8679 61.5358V59.2144C30.8679 57.3573 29.3977 55.8872 27.5407 55.8872H21.9694C20.1124 55.8872 18.6422 57.3573 18.6422 59.2144V61.5358C18.6422 61.8453 18.4101 62 18.1005 62C17.791 62 17.5589 61.7679 17.5589 61.5358V59.2144C17.5589 56.8157 19.4933 54.8812 21.8921 54.8812H27.4633C29.862 54.8812 31.7964 56.8157 31.7964 59.2144V61.5358C31.9512 61.7679 31.7191 62 31.4096 62ZM14.6185 62C14.309 62 14.1543 61.7679 14.1543 61.5358V59.2144C14.1543 57.3573 12.6841 55.8872 10.827 55.8872H5.25579C3.39872 55.8872 1.92854 57.3573 1.92854 59.2144V61.5358C1.92854 61.8453 1.6964 62 1.46427 62C1.15476 62 1 61.7679 1 61.5358V59.2144C1 56.8157 2.93445 54.8812 5.33317 54.8812H10.7496C13.1483 54.8812 15.0828 56.8157 15.0828 59.2144V61.5358C15.0828 61.7679 14.8507 62 14.6185 62ZM42.8615 54.1075C40.6175 54.1075 38.7605 52.2504 38.7605 50.0064C38.7605 47.7625 40.6175 45.9054 42.8615 45.9054C45.1055 45.9054 46.9625 47.7625 46.9625 50.0064C46.9625 52.2504 45.1055 54.1075 42.8615 54.1075ZM39.7664 50.2386C39.9211 51.8635 41.2366 53.1016 42.8615 53.1016C44.5638 53.1016 45.9566 51.7087 45.9566 50.0064C45.9566 49.8517 45.9566 49.7743 45.9566 49.6969C45.1055 49.7743 44.1769 49.5422 43.4031 49.0779C42.4746 50.0064 41.0818 50.4707 39.7664 50.2386ZM39.8438 49.2327C39.9985 49.2327 40.2307 49.31 40.4628 49.31C41.4687 49.31 42.3199 48.8458 42.9389 48.072C43.0163 47.9946 43.171 47.9172 43.2484 47.8398C43.4031 47.8398 43.5579 47.8398 43.6353 47.9172C44.1769 48.3815 44.9507 48.6136 45.6471 48.6136C45.1828 47.6077 44.0996 46.8339 42.8615 46.8339C41.3913 46.9113 40.2306 47.9172 39.8438 49.2327ZM24.6777 54.1075C22.4337 54.1075 20.5766 52.2504 20.5766 50.0064C20.5766 47.7625 22.4337 45.9054 24.6777 45.9054C26.9216 45.9054 28.7787 47.7625 28.7787 50.0064C28.8561 52.2504 26.999 54.1075 24.6777 54.1075ZM21.6599 50.2386C21.8147 51.8635 23.1301 53.1016 24.7551 53.1016C26.4574 53.1016 27.8502 51.7087 27.8502 50.0064C27.8502 49.8517 27.8502 49.7743 27.8502 49.6969C26.999 49.7743 26.0705 49.5422 25.2967 49.0779C24.3682 50.0064 22.898 50.4707 21.6599 50.2386ZM21.7373 49.2327C21.8921 49.2327 22.1242 49.31 22.3563 49.31C23.3622 49.31 24.2908 48.8458 24.8324 48.072C24.9098 47.9946 25.0646 47.9172 25.1419 47.8398C25.2967 47.8398 25.4515 47.8398 25.5288 47.9172C26.0705 48.3815 26.8443 48.6136 27.5407 48.6136C27.0764 47.6077 25.9931 46.8339 24.7551 46.8339C23.2849 46.9113 22.0468 47.9172 21.7373 49.2327ZM7.88664 54.1075C5.64268 54.1075 3.78561 52.2504 3.78561 50.0064C3.78561 47.7625 5.64268 45.9054 7.88664 45.9054C10.1306 45.9054 11.9877 47.7625 11.9877 50.0064C11.9877 52.2504 10.1306 54.1075 7.88664 54.1075ZM4.79152 50.2386C4.94628 51.8635 6.26171 53.1016 7.88664 53.1016C9.58896 53.1016 10.9818 51.7087 10.9818 50.0064C10.9818 49.8517 10.9818 49.7743 10.9818 49.6969C10.1306 49.7743 9.20207 49.5422 8.42829 49.0779C7.65451 49.8517 6.57122 50.3159 5.48792 50.3159C5.25579 50.3159 5.02366 50.3159 4.79152 50.2386ZM4.8689 49.2327C5.10103 49.31 5.25579 49.31 5.48792 49.31C6.49384 49.31 7.345 48.8458 7.96402 48.072C8.0414 47.9946 8.19616 47.9172 8.27353 47.8398C8.42829 47.8398 8.58305 47.8398 8.66042 47.9172C9.20207 48.3815 9.97585 48.6136 10.6723 48.6136C10.208 47.6077 9.12469 46.8339 7.88664 46.8339C6.41646 46.9113 5.25579 47.9172 4.8689 49.2327Z" fill="white" stroke="white" stroke-width="0.5" stroke-miterlimit="10"/>
<path d="M43.0941 44.8995C42.7846 44.8995 42.5525 44.6673 42.5525 44.4352V37.5486L8.35139 37.1617V44.2805C8.35139 44.59 8.11925 44.7447 7.88712 44.7447C7.57761 44.7447 7.42285 44.5126 7.42285 44.2805V36.62C7.42285 36.4653 7.50023 36.3879 7.57761 36.2331C7.57761 36.1558 7.73236 36.1558 7.88712 36.1558L43.0941 36.5427C43.4036 36.5427 43.5584 36.7748 43.5584 37.0069V44.4352C43.6358 44.6673 43.4036 44.8995 43.0941 44.8995Z" fill="white" stroke="white" stroke-width="0.5" stroke-miterlimit="10"/>
<path d="M25.3737 41.0306C25.0642 41.0306 24.832 40.7984 24.832 40.5663V28.8048C24.832 28.4953 25.0642 28.3406 25.3737 28.3406C25.6832 28.3406 25.9153 28.5727 25.9153 28.8048V40.4889C25.8379 40.7984 25.6058 41.0306 25.3737 41.0306Z" fill="white" stroke="white" stroke-width="0.5" stroke-miterlimit="10"/>
</svg>
