<svg width="69" height="59" viewBox="0 0 69 59" fill="none" xmlns="http://www.w3.org/2000/svg">
<path d="M23.7279 0.0771484H7.9093C5.71202 0.0771484 3.84471 0.846176 2.30651 2.3838C0.769028 3.92171 0 5.78902 0 7.98645V23.8045C0 26.0018 0.768595 27.8688 2.30651 29.4064C3.84456 30.9439 5.71245 31.7132 7.9093 31.7132H17.1366C18.2348 31.7132 19.1687 32.0979 19.9377 32.8666C20.7068 33.6349 21.0911 34.5691 21.0911 35.6681V36.9856C21.0911 39.8968 20.0611 42.3813 18.0016 44.4414C15.942 46.5005 13.4568 47.5304 10.5454 47.5304H7.9093C7.19481 47.5304 6.57714 47.7919 6.05512 48.3134C5.53354 48.8348 5.27253 49.4529 5.27253 50.167V55.4404C5.27253 56.1533 5.53354 56.7725 6.05512 57.2941C6.57757 57.8154 7.19467 58.0771 7.9093 58.0771H10.5455C13.4019 58.0771 16.1275 57.5202 18.7229 56.4084C21.3181 55.2964 23.563 53.7924 25.458 51.8974C27.3526 50.0022 28.8563 47.7577 29.9684 45.1624C31.0804 42.5672 31.6366 39.8417 31.6366 36.9857V7.98587C31.6366 5.78844 30.8676 3.92128 29.33 2.38366C27.7924 0.846032 25.9246 0.0771484 23.7279 0.0771484Z" fill="#22AF96" fill-opacity="0.13"/>
<path d="M66.2387 2.3838C64.7012 0.846176 62.8338 0.0771484 60.6365 0.0771484H44.8185C42.6212 0.0771484 40.7539 0.846176 39.2163 2.3838C37.6788 3.92185 36.91 5.78902 36.91 7.98645V23.8045C36.91 26.0018 37.6788 27.8688 39.2163 29.4064C40.7539 30.9439 42.6213 31.7132 44.8185 31.7132H54.0458C55.1439 31.7132 56.0786 32.0979 56.8475 32.8666C57.6156 33.6353 58.0009 34.5691 58.0009 35.6681V36.9856C58.0009 39.8968 56.9708 42.3813 54.9109 44.4414C52.8514 46.5005 50.3669 47.5304 47.4551 47.5304H44.8185C44.1046 47.5304 43.4863 47.7919 42.9649 48.3134C42.443 48.8348 42.1817 49.4529 42.1817 50.167V55.4404C42.1817 56.1533 42.443 56.7725 42.9649 57.2941C43.4862 57.8154 44.1044 58.0771 44.8185 58.0771H47.4551C50.311 58.0771 53.0365 57.5202 55.6322 56.4084C58.227 55.2964 60.4716 53.7924 62.3667 51.8974C64.2617 50.0022 65.7663 47.7572 66.8777 45.1624C67.9896 42.5677 68.5461 39.8417 68.5461 36.9857V7.98587C68.5456 5.78844 67.7773 3.92128 66.2387 2.3838Z" fill="#22AF96" fill-opacity="0.13"/>
</svg>
