<svg width="31" height="37" viewBox="0 0 31 37" fill="none" xmlns="http://www.w3.org/2000/svg">
<path d="M15.3677 19.6376C15.4055 19.6376 15.4432 19.6376 15.4885 19.6376C15.5036 19.6376 15.5187 19.6376 15.5338 19.6376C15.5564 19.6376 15.5866 19.6376 15.6092 19.6376C17.8205 19.5998 19.6092 18.8225 20.9299 17.3357C23.8355 14.0603 23.3525 8.44524 23.2997 7.9094C23.111 3.8868 21.2092 1.9623 19.6394 1.0642C18.4696 0.392509 17.1036 0.0302493 15.579 6.10352e-05H15.5262C15.5187 6.10352e-05 15.5036 6.10352e-05 15.496 6.10352e-05H15.4507C14.613 6.10352e-05 12.9678 0.135908 11.3904 1.03401C9.80554 1.93211 7.87349 3.85662 7.68481 7.9094C7.63198 8.44524 7.14897 14.0603 10.0546 17.3357C11.3678 18.8225 13.1564 19.5998 15.3677 19.6376ZM9.69988 8.09807C9.69988 8.07543 9.70743 8.05279 9.70743 8.0377C9.95648 2.62644 13.7979 2.04532 15.4432 2.04532H15.4734C15.4885 2.04532 15.5111 2.04532 15.5338 2.04532C17.5715 2.0906 21.0356 2.92078 21.2695 8.0377C21.2695 8.06034 21.2695 8.08298 21.2771 8.09807C21.2846 8.1509 21.8129 13.2829 19.413 15.9848C18.462 17.0564 17.1941 17.5847 15.5262 17.5998C15.5111 17.5998 15.5036 17.5998 15.4885 17.5998C15.4734 17.5998 15.4658 17.5998 15.4507 17.5998C13.7904 17.5847 12.5149 17.0564 11.5716 15.9848C9.17913 13.298 9.69233 8.14335 9.69988 8.09807Z" fill="white"/>
<path d="M30.9979 28.9506C30.9979 28.9431 30.9979 28.9355 30.9979 28.928C30.9979 28.8676 30.9903 28.8072 30.9903 28.7393C30.9451 27.245 30.8469 23.7507 27.5715 22.6337C27.5489 22.6262 27.5187 22.6186 27.496 22.6111C24.0923 21.7431 21.2622 19.7809 21.232 19.7583C20.7716 19.4337 20.1376 19.5469 19.8131 20.0073C19.4886 20.4677 19.6018 21.1016 20.0622 21.4262C20.1905 21.5167 23.1942 23.6073 26.9527 24.5733C28.7111 25.1997 28.9073 27.0789 28.9602 28.7997C28.9602 28.8676 28.9602 28.928 28.9677 28.9883C28.9753 29.6676 28.93 30.7166 28.8092 31.3204C27.5866 32.0147 22.7942 34.4147 15.5037 34.4147C8.24346 34.4147 3.42088 32.0072 2.19071 31.3128C2.06995 30.7091 2.01712 29.66 2.03222 28.9808C2.03222 28.9204 2.03976 28.86 2.03976 28.7921C2.09259 27.0714 2.28882 25.1922 4.04729 24.5658C7.80573 23.5997 10.8095 21.5016 10.9378 21.4186C11.3981 21.0941 11.5113 20.4601 11.1868 19.9998C10.8623 19.5394 10.2283 19.4262 9.76797 19.7507C9.73778 19.7734 6.92272 21.7356 3.5039 22.6035C3.47371 22.6111 3.45107 22.6186 3.42843 22.6262C0.152996 23.7507 0.0548837 27.245 0.00960129 28.7317C0.00960129 28.7997 0.00960112 28.86 0.00205405 28.9204C0.00205405 28.928 0.00205405 28.9355 0.00205405 28.9431C-0.00549303 29.3355 -0.0130399 31.3506 0.386955 32.3619C0.462426 32.5581 0.598273 32.7241 0.779403 32.8373C1.00582 32.9883 6.43216 36.4448 15.5113 36.4448C24.5904 36.4448 30.0168 32.9807 30.2432 32.8373C30.4168 32.7241 30.5602 32.5581 30.6356 32.3619C31.013 31.3581 31.0054 29.343 30.9979 28.9506Z" fill="white"/>
</svg>
