<svg width="26" height="15" viewBox="0 0 26 15" fill="none" xmlns="http://www.w3.org/2000/svg">
<path d="M25.7683 13.2319C25.6984 13.1149 25.2661 12.1755 23.1859 10.2449C21.0083 8.22324 21.3008 8.55152 23.9237 5.05588C25.5212 2.92698 26.1599 1.62688 25.96 1.07109C25.7699 0.541303 24.5949 0.681063 24.5949 0.681063L20.6881 0.703814C20.6881 0.703814 20.3989 0.664812 20.1827 0.793196C19.9731 0.919955 19.8382 1.21248 19.8382 1.21248C19.8382 1.21248 19.219 2.86035 18.3935 4.2612C16.653 7.21729 15.9558 7.3733 15.6714 7.18967C15.01 6.76226 15.1757 5.47029 15.1757 4.55372C15.1757 1.68864 15.6096 0.494174 14.329 0.185401C13.9033 0.0830187 13.5912 0.0147637 12.504 0.00338791C11.1097 -0.0112382 9.92822 0.00826326 9.26029 0.334912C8.81501 0.552678 8.47211 1.03859 8.68175 1.06622C8.94014 1.10034 9.52519 1.22385 9.83558 1.64638C10.237 2.1908 10.2224 3.41614 10.2224 3.41614C10.2224 3.41614 10.4531 6.78826 9.68445 7.20754C9.15629 7.49519 8.43311 6.90852 6.88112 4.22545C6.08643 2.85222 5.48514 1.33274 5.48514 1.33274C5.48514 1.33274 5.36976 1.04997 5.16337 0.898829C4.9131 0.71519 4.56207 0.656686 4.56207 0.656686L0.84705 0.679438C0.84705 0.679438 0.289634 0.695689 0.084869 0.937832C-0.0971444 1.15397 0.0702429 1.59926 0.0702429 1.59926C0.0702429 1.59926 2.97921 8.40363 6.2717 11.8343C9.2928 14.9789 12.7218 14.7725 12.7218 14.7725H14.2754C14.2754 14.7725 14.7451 14.7205 14.984 14.4621C15.205 14.2248 15.1969 13.7795 15.1969 13.7795C15.1969 13.7795 15.166 11.6945 16.1345 11.3874C17.0885 11.0851 18.3138 13.4025 19.6123 14.2947C20.5939 14.9691 21.3398 14.8212 21.3398 14.8212L24.8127 14.7725C24.8127 14.7725 26.6296 14.6603 25.7683 13.2319Z" fill="#22AF96"/>
</svg>
