<svg width="505" height="541" viewBox="0 0 505 541" fill="none" xmlns="http://www.w3.org/2000/svg">
<path d="M46.5086 417.869L325.642 256.71C328.699 254.947 333.32 254.756 335.966 256.281L502.536 352.453C503.469 352.991 504.011 353.671 504.214 354.404C504.511 353.218 503.987 352.039 502.536 351.202L335.966 255.032C333.32 253.503 328.699 253.695 325.642 255.46L46.5086 416.619C44.5283 417.763 43.7133 419.282 44.089 420.629C44.3348 419.648 45.1264 418.665 46.5086 417.869Z" fill="#22AF96"/>
<path d="M326.477 223.036L44.4717 385.849C42.2959 387.109 40.4314 386.381 40.049 384.128L4.48315 173.12C4.07663 170.722 5.82996 167.294 8.14243 165.957L290.15 3.14048C292.326 1.88345 294.19 2.60873 294.573 4.86295L330.136 215.873C330.545 218.271 328.792 221.699 326.477 223.036Z" fill="#054844"/>
<path d="M326.183 219.015L326.694 218.719L291.095 7.06934L7.76669 170.573L12.8631 200.696L77.0514 163.636C77.5356 162.349 78.6012 161.156 80.2694 160.194L88.5857 155.391V123.934L101.672 116.383C101.31 118.351 101.116 120.289 101.116 122.152V148.157L152.76 118.342C153.071 118.162 153.396 117.994 153.731 117.841V86.3407L165.891 79.3235C166.137 80.9777 166.262 82.7189 166.262 84.5405V116.74C168.719 117.198 171.093 118.016 173.118 119.185C176.51 121.144 178.2 123.667 178.098 126.037V133.33L288.711 197.192L301.502 192.243V204.577L325.184 218.249C325.586 218.481 325.917 218.739 326.183 219.015Z" fill="#125652"/>
<path fill-rule="evenodd" clip-rule="evenodd" d="M217.78 494.68C219.76 494.68 221.848 494.198 223.479 493.256L463.377 354.753L478.783 345.856L495.841 336.008C497.065 335.302 497.813 334.447 498.126 333.579L498.147 333.594L503.274 323.834C502.865 324.397 502.26 324.935 501.459 325.412C501.454 325.414 501.452 325.414 501.449 325.417C501.44 325.422 501.433 325.427 501.424 325.431C501.416 325.436 501.412 325.439 501.404 325.443C501.402 325.445 501.398 325.448 501.393 325.45C501.384 325.455 501.374 325.462 501.364 325.467L222.231 486.626C220.558 487.59 218.418 488.087 216.39 488.087C214.748 488.087 213.178 487.76 211.989 487.101C211.961 487.085 211.932 487.068 211.907 487.055L45.3364 390.884C45.3243 390.877 45.3129 390.872 45.3009 390.865C44.9513 390.659 44.6539 390.433 44.4082 390.191L49.2796 398.109L49.301 398.089C49.5347 398.744 50.0357 399.354 50.8768 399.838L70.0417 410.901L79.3954 416.302L213.404 493.674C214.574 494.35 216.14 494.68 217.78 494.68Z" fill="url(#paint0_linear)"/>
<path fill-rule="evenodd" clip-rule="evenodd" d="M216.39 488.088C218.418 488.088 220.558 487.591 222.231 486.627L501.364 325.468L222.231 486.627C220.558 487.591 218.418 488.088 216.39 488.088C214.746 488.088 213.178 487.761 211.989 487.102C213.178 487.761 214.748 488.088 216.39 488.088ZM216.388 486.836C218.418 486.836 220.558 486.342 222.231 485.377L501.364 324.218C502.746 323.422 503.538 322.439 503.784 321.458C504.155 322.783 503.37 324.277 501.459 325.413C502.26 324.936 502.865 324.397 503.274 323.835C504.375 322.311 504.018 320.612 502.106 319.507L335.537 223.339C334.337 222.647 332.732 222.307 331.05 222.307C329.078 222.307 326.996 222.774 325.347 223.691C325.302 223.714 325.257 223.74 325.212 223.767L301.502 237.455V262.328L305.894 259.793C306.218 259.606 306.65 259.515 307.101 259.515C307.647 259.515 308.223 259.649 308.672 259.906L311.573 261.584C312.396 262.056 312.483 262.775 311.772 263.186L302.91 268.3C302.589 268.487 302.157 268.58 301.702 268.58C301.637 268.58 301.571 268.577 301.502 268.572V272.069C301.537 272.067 301.573 272.067 301.608 272.067C302.154 272.067 302.728 272.201 303.177 272.459L311.958 277.529C312.781 278.004 312.868 278.722 312.157 279.131L303.295 284.248C302.974 284.435 302.542 284.525 302.09 284.525C301.544 284.525 300.97 284.392 300.519 284.132L299.44 283.509C299.019 283.872 298.535 284.215 297.984 284.534L297.422 284.858L298.341 285.389C299.163 285.864 299.253 286.582 298.539 286.993L289.679 292.108C289.359 292.295 288.926 292.387 288.473 292.387C287.929 292.387 287.353 292.254 286.903 291.995L285.983 291.463L283.804 292.72L284.726 293.252C285.545 293.726 285.637 294.442 284.926 294.854L276.064 299.971C275.741 300.158 275.308 300.247 274.857 300.247C274.311 300.247 273.737 300.115 273.288 299.855L272.367 299.324L270.12 300.62L271.041 301.152C271.861 301.627 271.954 302.345 271.24 302.754L262.38 307.871C262.057 308.058 261.627 308.148 261.175 308.148C260.63 308.148 260.053 308.015 259.602 307.755L258.683 307.224L256.436 308.521L257.357 309.053C258.177 309.527 258.267 310.245 257.556 310.656L248.694 315.772C248.373 315.958 247.94 316.048 247.489 316.048C246.944 316.048 246.367 315.916 245.918 315.656L244.997 315.124L242.75 316.421L243.671 316.953C244.493 317.428 244.583 318.146 243.872 318.557L235.01 323.674C234.689 323.859 234.256 323.951 233.805 323.951C233.26 323.951 232.683 323.816 232.234 323.559L231.313 323.027L229.066 324.324L229.987 324.855C230.809 325.328 230.899 326.046 230.188 326.457L221.326 331.573C221.003 331.759 220.57 331.851 220.119 331.851C219.573 331.851 218.999 331.719 218.55 331.459L212.767 328.121C210.161 327.716 207.619 326.911 205.447 325.718C205.445 325.715 205.445 325.715 205.443 325.713C205.419 325.701 205.395 325.69 205.374 325.675C205.369 325.673 205.364 325.671 205.362 325.671C205.341 325.659 205.32 325.647 205.298 325.633C205.293 325.63 205.287 325.628 205.282 325.626C205.261 325.614 205.239 325.602 205.218 325.59C205.216 325.588 205.211 325.585 205.208 325.583C205.183 325.569 205.159 325.555 205.135 325.541C201.837 323.637 200.15 321.198 200.153 318.886C200.153 318.829 200.155 318.775 200.157 318.718V295.967L46.0757 384.926C46.0288 384.952 45.9839 384.981 45.9391 385.006C43.423 386.523 42.8604 388.663 44.4081 390.192C44.6539 390.433 44.9513 390.66 45.3008 390.865C43.8784 390.03 43.3633 388.86 43.6587 387.683C43.8623 388.416 44.4034 389.096 45.3364 389.634L211.907 485.806C213.104 486.498 214.709 486.836 216.388 486.836ZM189.965 405.863C190.414 405.863 190.884 405.972 191.253 406.184L195.532 408.656C196.205 409.043 196.278 409.632 195.695 409.967L185.826 415.665C185.559 415.819 185.207 415.895 184.836 415.895C184.39 415.895 183.917 415.786 183.551 415.573L179.27 413.102C178.596 412.712 178.526 412.124 179.107 411.788L188.977 406.09C189.243 405.936 189.597 405.863 189.965 405.863ZM203.762 397.897C204.212 397.897 204.682 398.005 205.05 398.218L209.331 400.689C210.005 401.076 210.076 401.665 209.494 402.003L199.621 407.701C199.359 407.852 199.004 407.928 198.636 407.928C198.187 407.928 197.714 407.82 197.346 407.607L193.07 405.135C192.396 404.748 192.321 404.16 192.907 403.822L202.775 398.124C203.04 397.972 203.394 397.897 203.762 397.897ZM188.045 383.778C188.59 383.778 189.167 383.911 189.616 384.17L198.398 389.238C199.217 389.715 199.304 390.431 198.596 390.842L172.499 405.91C172.175 406.094 171.745 406.187 171.294 406.187C170.748 406.187 170.172 406.054 169.723 405.794L160.941 400.725C160.121 400.252 160.032 399.534 160.743 399.123L186.84 384.055C187.161 383.868 187.593 383.778 188.045 383.778ZM196.207 393.533C196.654 393.533 197.126 393.644 197.495 393.857L201.773 396.325C202.447 396.713 202.52 397.304 201.936 397.639L192.065 403.338C191.801 403.491 191.447 403.564 191.078 403.564C190.632 403.564 190.159 403.456 189.79 403.243L185.512 400.774C184.839 400.385 184.765 399.796 185.349 399.46L195.22 393.76C195.482 393.608 195.837 393.533 196.207 393.533ZM217.449 389.996C217.895 389.996 218.368 390.105 218.736 390.318L223.015 392.786C223.689 393.177 223.762 393.765 223.178 394.102L213.308 399.801C213.043 399.952 212.691 400.028 212.32 400.028C211.871 400.028 211.398 399.919 211.03 399.706L206.753 397.235C206.08 396.848 206.005 396.259 206.591 395.922L216.459 390.223C216.724 390.07 217.078 389.996 217.449 389.996ZM167.805 380.083C168.348 380.083 168.925 380.215 169.373 380.475L178.152 385.545C178.975 386.02 179.065 386.736 178.351 387.147L159.018 398.31C158.694 398.497 158.264 398.586 157.811 398.586C157.268 398.586 156.691 398.454 156.242 398.195L147.461 393.124C146.641 392.651 146.551 391.934 147.262 391.522L166.597 380.362C166.921 380.175 167.351 380.083 167.805 380.083ZM223.856 378.616C224.402 378.616 224.976 378.748 225.427 379.008L235.887 385.046C236.709 385.522 236.798 386.237 236.085 386.648L227.226 391.765C226.901 391.95 226.471 392.042 226.021 392.042C225.475 392.042 224.898 391.91 224.447 391.65L213.988 385.612C213.168 385.137 213.078 384.418 213.789 384.01L222.649 378.892C222.973 378.706 223.403 378.616 223.856 378.616ZM144.006 378.438C144.552 378.438 145.129 378.571 145.577 378.831L154.359 383.9C155.182 384.376 155.271 385.094 154.557 385.502L145.696 390.62C145.374 390.806 144.942 390.896 144.49 390.896C143.945 390.896 143.371 390.764 142.919 390.504L134.14 385.437C133.32 384.959 133.231 384.243 133.942 383.832L142.801 378.715C143.125 378.531 143.555 378.438 144.006 378.438ZM201.82 375.826C202.366 375.826 202.943 375.958 203.391 376.218L212.171 381.285C212.993 381.76 213.083 382.479 212.372 382.887L203.51 388.004C203.187 388.191 202.754 388.284 202.303 388.284C201.757 388.284 201.183 388.148 200.734 387.891L191.952 382.821C191.133 382.346 191.043 381.628 191.754 381.217L200.616 376.102C200.937 375.916 201.37 375.826 201.82 375.826ZM181.658 372.084C182.204 372.084 182.779 372.218 183.227 372.475L192.009 377.546C192.829 378.02 192.919 378.738 192.207 379.148L183.348 384.265C183.024 384.451 182.594 384.541 182.14 384.541C181.595 384.541 181.021 384.409 180.569 384.149L171.79 379.081C170.968 378.606 170.878 377.888 171.592 377.477L180.452 372.362C180.775 372.175 181.208 372.084 181.658 372.084ZM242.353 367.937C242.899 367.937 243.473 368.069 243.921 368.329L254.381 374.368C255.205 374.843 255.293 375.559 254.582 375.97L240.409 384.154C240.087 384.338 239.655 384.43 239.204 384.43C238.658 384.43 238.081 384.298 237.633 384.038L227.173 377.999C226.354 377.524 226.264 376.806 226.975 376.395L241.148 368.213C241.469 368.029 241.899 367.937 242.353 367.937ZM138.145 366.441C138.691 366.441 139.267 366.576 139.716 366.834L148.495 371.903C149.318 372.379 149.405 373.094 148.696 373.505L132.376 382.93C132.054 383.114 131.622 383.206 131.171 383.206C130.625 383.206 130.051 383.074 129.602 382.814L120.821 377.744C119.998 377.272 119.908 376.553 120.622 376.14L136.94 366.72C137.261 366.534 137.694 366.441 138.145 366.441ZM157.695 370.538C158.239 370.538 158.813 370.671 159.261 370.93L168.043 376.001C168.866 376.476 168.955 377.191 168.241 377.602L159.382 382.72C159.059 382.904 158.629 382.996 158.177 382.996C157.631 382.996 157.055 382.864 156.606 382.604L147.824 377.534C147.005 377.061 146.915 376.343 147.626 375.932L156.486 370.817C156.809 370.63 157.242 370.538 157.695 370.538ZM215.504 367.923C216.05 367.923 216.627 368.057 217.076 368.315L225.855 373.385C226.677 373.86 226.767 374.578 226.056 374.989L217.194 380.104C216.873 380.291 216.44 380.381 215.987 380.381C215.443 380.381 214.867 380.249 214.418 379.988L205.636 374.918C204.817 374.446 204.727 373.728 205.438 373.317L214.3 368.201C214.621 368.015 215.054 367.923 215.504 367.923ZM195.342 364.183C195.888 364.183 196.465 364.315 196.913 364.575L205.693 369.645C206.513 370.12 206.603 370.836 205.893 371.247L197.032 376.364C196.708 376.548 196.278 376.641 195.825 376.641C195.279 376.641 194.705 376.508 194.256 376.248L185.474 371.178C184.652 370.706 184.562 369.987 185.275 369.577L194.138 364.462C194.459 364.275 194.892 364.183 195.342 364.183ZM171.379 362.637C171.925 362.637 172.499 362.77 172.948 363.03L181.727 368.1C182.549 368.572 182.639 369.291 181.928 369.702L173.066 374.817C172.745 375.003 172.313 375.095 171.861 375.095C171.315 375.095 170.739 374.961 170.29 374.703L161.508 369.633C160.689 369.158 160.601 368.442 161.31 368.031L170.174 362.914C170.496 362.73 170.926 362.637 171.379 362.637ZM306.839 345.8L259.318 373.236C258.936 373.456 258.435 373.567 257.934 373.567C257.433 373.567 256.932 373.456 256.549 373.236L245.883 367.077C245.119 366.635 245.119 365.92 245.883 365.478L293.389 338.053C293.401 338.046 293.41 338.039 293.422 338.032L307.593 329.85C307.916 329.663 308.349 329.574 308.8 329.574C309.346 329.574 309.922 329.706 310.371 329.966L320.83 336.005C321.652 336.477 321.742 337.195 321.029 337.607L320.934 337.661L309.612 344.198L306.858 345.788C306.85 345.792 306.844 345.797 306.839 345.8ZM229.191 360.022C229.734 360.022 230.311 360.157 230.76 360.415L239.541 365.484C240.361 365.96 240.451 366.678 239.74 367.086L230.878 372.203C230.557 372.39 230.124 372.48 229.673 372.48C229.127 372.48 228.551 372.348 228.102 372.088L219.322 367.021C218.503 366.545 218.411 365.827 219.121 365.416L227.984 360.302C228.307 360.115 228.737 360.022 229.191 360.022ZM151.214 358.898C151.758 358.898 152.335 359.03 152.783 359.29L161.565 364.358C162.387 364.833 162.477 365.551 161.763 365.962L152.904 371.077C152.58 371.263 152.148 371.356 151.697 371.356C151.151 371.356 150.577 371.221 150.125 370.963L141.346 365.894C140.527 365.419 140.437 364.7 141.148 364.289L150.007 359.174C150.331 358.988 150.761 358.898 151.214 358.898ZM132.272 360.452C132.818 360.452 133.392 360.587 133.843 360.845L136.744 362.522C137.566 362.997 137.653 363.713 136.942 364.124L128.08 369.241C127.759 369.426 127.327 369.517 126.875 369.517C126.329 369.517 125.754 369.385 125.304 369.126L122.403 367.448C121.581 366.975 121.492 366.257 122.205 365.846L131.067 360.731C131.388 360.545 131.818 360.452 132.272 360.452ZM220.046 362.534C220.1 362.836 219.947 363.134 219.578 363.347L210.716 368.461C210.392 368.648 209.962 368.74 209.509 368.74C208.963 368.74 208.389 368.608 207.939 368.348L199.158 363.278C198.336 362.803 198.248 362.088 198.959 361.676L203.677 358.952C203.207 358.605 202.785 358.246 202.409 357.875L200.434 359.016C200.113 359.203 199.68 359.292 199.227 359.292C198.683 359.292 198.107 359.16 197.658 358.903L188.878 353.832C188.059 353.357 187.969 352.639 188.677 352.228L197.542 347.113C197.863 346.927 198.294 346.837 198.744 346.837C199.29 346.837 199.867 346.969 200.316 347.229L202.841 348.687C203.102 348.5 203.377 348.323 203.675 348.15L205.041 347.362L202.565 345.932C201.743 345.457 201.653 344.739 202.364 344.328L211.226 339.213C211.547 339.026 211.98 338.934 212.431 338.934C212.977 338.934 213.551 339.069 214 339.326L216.48 340.758L218.727 339.461L216.246 338.032C215.427 337.557 215.339 336.838 216.048 336.427L224.91 331.313C225.234 331.126 225.664 331.034 226.117 331.034C226.663 331.034 227.237 331.166 227.686 331.426L230.164 332.858L232.411 331.561L229.933 330.129C229.111 329.657 229.023 328.938 229.732 328.527L238.594 323.412C238.918 323.225 239.35 323.134 239.801 323.134C240.347 323.134 240.921 323.266 241.37 323.525L243.848 324.957L246.095 323.66L243.616 322.228C242.797 321.756 242.707 321.038 243.416 320.627L252.278 315.509C252.602 315.325 253.032 315.233 253.483 315.233C254.028 315.233 254.605 315.365 255.054 315.625L257.532 317.057L259.781 315.76L257.301 314.328C256.481 313.853 256.391 313.137 257.102 312.727L265.962 307.609C266.285 307.422 266.718 307.333 267.169 307.333C267.715 307.333 268.289 307.465 268.738 307.725L271.216 309.156L273.805 307.661L271.327 306.232C270.505 305.757 270.415 305.038 271.127 304.627L279.989 299.513C280.312 299.326 280.742 299.236 281.194 299.236C281.739 299.236 282.315 299.369 282.765 299.628L291.544 304.696C291.848 304.871 292.051 305.079 292.151 305.291C293.091 305.573 294.006 305.908 294.875 306.3L303.614 301.254C303.935 301.07 304.368 300.977 304.819 300.977C305.364 300.977 305.941 301.11 306.39 301.37L315.169 306.439C315.989 306.914 316.079 307.63 315.37 308.041L306.508 313.156C306.185 313.343 305.752 313.435 305.301 313.435C304.755 313.435 304.181 313.302 303.732 313.043L300.93 311.425C301.402 312.393 301.587 313.381 301.476 314.335L301.485 314.34C302.305 314.815 302.395 315.531 301.682 315.942L300.632 316.549C300.046 317.414 299.166 318.212 297.984 318.895L225.491 360.748C223.955 361.636 222.08 362.229 220.046 362.534ZM185.06 354.738C185.606 354.738 186.183 354.87 186.631 355.129L195.413 360.197C196.236 360.672 196.323 361.39 195.612 361.802L186.75 366.916C186.429 367.103 185.996 367.195 185.545 367.195C184.999 367.195 184.423 367.061 183.974 366.8L175.197 361.733C174.373 361.258 174.285 360.54 174.994 360.131L183.858 355.014C184.18 354.827 184.61 354.738 185.06 354.738ZM242.875 352.122C243.421 352.122 243.995 352.254 244.444 352.514L253.225 357.585C254.045 358.059 254.138 358.775 253.424 359.186L244.564 364.304C244.241 364.488 243.811 364.58 243.359 364.58C242.814 364.58 242.237 364.448 241.788 364.188L233.006 359.117C232.184 358.645 232.094 357.927 232.808 357.516L241.668 352.401C241.991 352.214 242.424 352.122 242.875 352.122ZM164.901 350.995C165.444 350.995 166.021 351.13 166.469 351.387L175.249 356.457C176.071 356.932 176.161 357.65 175.449 358.061L166.588 363.177C166.264 363.363 165.834 363.453 165.383 363.453C164.837 363.453 164.261 363.321 163.812 363.061L155.03 357.993C154.211 357.518 154.121 356.8 154.832 356.389L163.694 351.274C164.018 351.087 164.448 350.995 164.901 350.995ZM145.831 352.625C146.376 352.625 146.952 352.757 147.402 353.017L150.303 354.693C151.125 355.165 151.214 355.883 150.501 356.294L141.642 361.412C141.318 361.596 140.885 361.688 140.434 361.688C139.888 361.688 139.314 361.556 138.863 361.296L135.962 359.621C135.139 359.146 135.052 358.428 135.764 358.019L144.626 352.902C144.947 352.715 145.379 352.625 145.831 352.625ZM256.559 344.221C257.104 344.221 257.681 344.354 258.13 344.614L266.909 349.684C267.729 350.156 267.821 350.875 267.11 351.286L258.248 356.403C257.925 356.587 257.495 356.679 257.041 356.679C256.498 356.679 255.921 356.544 255.472 356.287L246.69 351.217C245.868 350.745 245.778 350.026 246.492 349.615L255.354 344.498C255.675 344.314 256.108 344.221 256.559 344.221ZM178.585 343.095C179.131 343.095 179.705 343.227 180.153 343.487L188.933 348.557C189.755 349.032 189.845 349.75 189.134 350.159L180.272 355.276C179.951 355.463 179.518 355.553 179.067 355.553C178.521 355.553 177.945 355.42 177.495 355.16L168.714 350.093C167.895 349.618 167.807 348.899 168.515 348.489L177.378 343.373C177.701 343.187 178.134 343.095 178.585 343.095ZM159.391 344.796C159.935 344.796 160.511 344.928 160.96 345.188L163.864 346.863C164.683 347.338 164.773 348.056 164.062 348.467L155.202 353.582C154.879 353.769 154.446 353.858 153.996 353.858C153.45 353.858 152.876 353.726 152.426 353.467L149.523 351.791C148.701 351.316 148.611 350.6 149.322 350.19L158.184 345.074C158.508 344.888 158.938 344.796 159.391 344.796ZM270.243 336.321C270.788 336.321 271.365 336.453 271.814 336.713L280.593 341.784C281.415 342.256 281.503 342.974 280.794 343.385L271.932 348.5C271.609 348.687 271.178 348.779 270.725 348.779C270.182 348.779 269.605 348.644 269.156 348.384L260.374 343.317C259.552 342.842 259.465 342.126 260.176 341.715L269.038 336.597C269.359 336.411 269.792 336.321 270.243 336.321ZM192.269 335.194C192.812 335.194 193.389 335.326 193.837 335.586L202.619 340.656C203.442 341.131 203.529 341.847 202.818 342.258L193.956 347.376C193.635 347.56 193.202 347.652 192.751 347.652C192.205 347.652 191.629 347.52 191.179 347.26L182.4 342.19C181.581 341.717 181.491 340.999 182.199 340.588L191.062 335.473C191.385 335.286 191.815 335.194 192.269 335.194ZM172.948 336.966C173.493 336.966 174.07 337.101 174.519 337.358L177.422 339.036C178.242 339.511 178.335 340.227 177.623 340.638L168.761 345.755C168.438 345.939 168.008 346.032 167.556 346.032C167.011 346.032 166.434 345.899 165.985 345.639L163.082 343.961C162.262 343.489 162.172 342.771 162.883 342.36L171.743 337.245C172.067 337.058 172.497 336.966 172.948 336.966ZM283.927 328.421C284.472 328.421 285.049 328.553 285.498 328.813L294.279 333.88C295.099 334.355 295.187 335.074 294.478 335.485L285.616 340.6C285.292 340.786 284.862 340.879 284.409 340.879C283.863 340.879 283.289 340.744 282.84 340.486L274.06 335.416C273.241 334.941 273.149 334.223 273.86 333.812L282.722 328.697C283.043 328.511 283.476 328.421 283.927 328.421ZM205.953 327.294C206.496 327.294 207.073 327.426 207.522 327.686L216.303 332.756C217.125 333.229 217.215 333.947 216.502 334.358L207.642 339.473C207.319 339.659 206.886 339.752 206.435 339.752C205.889 339.752 205.315 339.619 204.863 339.359L196.084 334.29C195.265 333.815 195.175 333.099 195.886 332.688L204.746 327.57C205.069 327.386 205.499 327.294 205.953 327.294ZM328.543 318.175C329.089 318.175 329.664 318.306 330.115 318.566L340.571 324.605C341.396 325.08 341.483 325.796 340.772 326.207L326.599 334.391C326.278 334.576 325.848 334.667 325.397 334.667C324.851 334.667 324.275 334.535 323.825 334.276L313.367 328.237C312.544 327.761 312.455 327.043 313.168 326.632L327.339 318.45C327.66 318.264 328.093 318.175 328.543 318.175ZM297.611 320.518C298.156 320.518 298.733 320.652 299.182 320.91L307.964 325.98C308.783 326.455 308.876 327.173 308.162 327.585L299.302 332.699C298.979 332.886 298.549 332.978 298.095 332.978C297.552 332.978 296.975 332.844 296.526 332.584L287.745 327.516C286.925 327.041 286.833 326.323 287.546 325.912L296.406 320.797C296.729 320.61 297.159 320.518 297.611 320.518ZM311.299 312.62C311.843 312.62 312.419 312.752 312.868 313.01L321.648 318.08C322.467 318.555 322.56 319.273 321.848 319.681L312.986 324.799C312.663 324.985 312.233 325.075 311.781 325.075C311.236 325.075 310.659 324.943 310.21 324.683L301.429 319.616C300.609 319.141 300.516 318.422 301.23 318.011L310.092 312.897C310.416 312.71 310.846 312.62 311.299 312.62ZM342.228 310.274C342.773 310.274 343.347 310.406 343.799 310.666L354.26 316.705C355.08 317.177 355.168 317.895 354.456 318.306L345.594 323.422C345.273 323.608 344.843 323.7 344.392 323.7C343.846 323.7 343.27 323.566 342.821 323.308L332.361 317.27C331.54 316.794 331.45 316.076 332.161 315.665L341.023 310.551C341.346 310.364 341.777 310.274 342.228 310.274ZM324.981 304.717C325.526 304.717 326.103 304.852 326.552 305.112L335.332 310.18C336.153 310.654 336.243 311.37 335.532 311.782L326.67 316.899C326.349 317.085 325.917 317.175 325.466 317.175C324.92 317.175 324.343 317.043 323.894 316.783L315.113 311.715C314.293 311.24 314.203 310.522 314.914 310.111L323.776 304.996C324.097 304.809 324.53 304.717 324.981 304.717ZM355.914 302.371C356.46 302.371 357.034 302.506 357.485 302.763L367.942 308.805C368.764 309.277 368.854 309.995 368.14 310.406L359.281 315.521C358.959 315.708 358.527 315.8 358.076 315.8C357.53 315.8 356.954 315.665 356.505 315.408L346.045 309.369C345.224 308.894 345.133 308.176 345.847 307.765L354.707 302.65C355.03 302.463 355.46 302.371 355.914 302.371ZM356.162 286.715C356.708 286.715 357.284 286.849 357.733 287.106L366.512 292.177C367.337 292.652 367.424 293.367 366.713 293.779L340.614 308.847C340.293 309.034 339.86 309.124 339.409 309.124C338.864 309.124 338.287 308.991 337.838 308.731L329.058 303.663C328.239 303.189 328.149 302.471 328.86 302.059L354.957 286.993C355.281 286.806 355.711 286.715 356.162 286.715ZM369.6 294.471C370.144 294.471 370.72 294.603 371.169 294.863L381.626 300.902C382.448 301.376 382.538 302.095 381.826 302.506L372.965 307.621C372.641 307.808 372.211 307.899 371.757 307.899C371.214 307.899 370.64 307.765 370.191 307.508L359.73 301.469C358.907 300.994 358.82 300.275 359.531 299.864L368.393 294.75C368.714 294.563 369.147 294.471 369.6 294.471ZM318.706 292.959C319.252 292.959 319.826 293.091 320.277 293.351L329.058 298.421C329.879 298.894 329.969 299.612 329.255 300.023L320.395 305.137C320.074 305.324 319.642 305.417 319.19 305.417C318.645 305.417 318.068 305.284 317.619 305.024L308.84 299.954C308.018 299.479 307.928 298.763 308.641 298.353L317.501 293.236C317.822 293.049 318.255 292.959 318.706 292.959ZM295.22 291.137C295.766 291.137 296.339 291.269 296.789 291.529L305.57 296.599C306.392 297.074 306.48 297.79 305.769 298.201L296.907 303.319C296.585 303.503 296.153 303.595 295.702 303.595C295.156 303.595 294.579 303.463 294.131 303.203L285.352 298.133C284.531 297.66 284.442 296.942 285.151 296.531L294.012 291.416C294.336 291.229 294.768 291.137 295.22 291.137ZM342.842 279.024C343.387 279.024 343.962 279.156 344.413 279.417L353.193 284.486C354.014 284.959 354.104 285.677 353.391 286.088L334.306 297.108C333.985 297.294 333.552 297.384 333.101 297.384C332.556 297.384 331.981 297.252 331.53 296.992L322.753 291.922C321.929 291.449 321.841 290.731 322.552 290.32L341.637 279.301C341.958 279.117 342.388 279.024 342.842 279.024ZM309.244 283.041C309.79 283.041 310.366 283.173 310.815 283.433L319.594 288.503C320.414 288.976 320.504 289.693 319.795 290.105L310.933 295.22C310.61 295.407 310.18 295.498 309.728 295.498C309.182 295.498 308.606 295.364 308.157 295.106L299.375 290.036C298.554 289.562 298.466 288.846 299.177 288.432L308.039 283.317C308.361 283.13 308.793 283.041 309.244 283.041ZM329.519 271.334C330.065 271.334 330.642 271.467 331.093 271.727L339.872 276.794C340.692 277.269 340.782 277.987 340.07 278.396L324.584 287.341C324.261 287.525 323.831 287.617 323.379 287.617C322.831 287.617 322.257 287.485 321.806 287.225L313.026 282.155C312.207 281.682 312.117 280.964 312.828 280.553L328.314 271.611C328.639 271.424 329.069 271.334 329.519 271.334ZM315.226 264.207C315.77 264.207 316.346 264.339 316.795 264.598L325.574 269.669C326.396 270.141 326.486 270.859 325.775 271.271L316.913 276.385C316.591 276.572 316.159 276.664 315.708 276.664C315.162 276.664 314.586 276.53 314.137 276.27L305.355 271.202C304.535 270.727 304.446 270.011 305.157 269.6L314.019 264.483C314.342 264.296 314.772 264.207 315.226 264.207ZM45.3364 390.885C45.3243 390.88 45.3129 390.873 45.3008 390.865C45.3129 390.873 45.3243 390.877 45.3364 390.885ZM501.393 325.451C501.398 325.449 501.402 325.446 501.404 325.444C501.402 325.446 501.398 325.449 501.393 325.451ZM501.424 325.432C501.433 325.427 501.44 325.423 501.449 325.418C501.44 325.423 501.433 325.427 501.424 325.432Z" fill="url(#paint1_linear)"/>
<path d="M501.364 324.217L222.231 485.376C219.174 487.139 214.553 487.33 211.907 485.805L45.3363 389.633C44.4034 389.095 43.8623 388.415 43.6587 387.682C43.3613 388.868 43.8858 390.047 45.3363 390.884L211.907 487.054C214.553 488.583 219.174 488.391 222.231 486.626L501.364 325.467C503.344 324.323 504.159 322.804 503.784 321.457C503.538 322.437 502.746 323.421 501.364 324.217Z" fill="#FEFEFE"/>
<path d="M501.491 355.902L222.358 517.062C219.301 518.824 214.68 519.016 212.034 517.49L45.4635 421.319C44.5306 420.781 43.9895 420.1 43.7859 419.367C43.4885 420.553 44.013 421.733 45.4635 422.569L212.034 518.74C214.68 520.268 219.301 520.077 222.358 518.311L501.491 357.152C503.472 356.009 504.287 354.489 503.911 353.143C503.665 354.123 502.874 355.106 501.491 355.902Z" fill="#22AF96"/>
<path fill-rule="evenodd" clip-rule="evenodd" d="M88.8429 355.982V355.98H88.8456L94.9854 352.436H94.9861L148.616 321.487L200.157 291.742V264.582L197.71 263.152C196.93 262.696 196.878 261.99 197.597 261.574L200.157 260.095V257.614L199.539 257.971C199.203 258.167 198.756 258.262 198.298 258.262C197.776 258.262 197.24 258.139 196.826 257.898L188.477 253.019C187.695 252.563 187.645 251.857 188.363 251.444L191.85 249.43V249.428H191.854L197.311 246.276C197.646 246.083 198.093 245.986 198.554 245.986C199.073 245.986 199.612 246.109 200.025 246.352L200.157 246.428V242.903L194.471 246.187C194.133 246.381 193.686 246.477 193.228 246.477C192.708 246.477 192.172 246.355 191.756 246.111L183.407 241.235C182.627 240.779 182.575 240.072 183.294 239.657L192.24 234.492C192.578 234.299 193.025 234.202 193.485 234.202C194.006 234.202 194.541 234.324 194.957 234.568L200.157 237.604V234.57L197.568 233.058C196.788 232.602 196.739 231.896 197.455 231.482L206.402 226.315C206.739 226.122 207.186 226.024 207.647 226.024C208.166 226.024 208.703 226.148 209.119 226.391L210.761 227.35L213.433 226.315L211.352 225.101C210.571 224.645 210.522 223.938 211.238 223.522L226.878 214.496C227.216 214.299 227.66 214.205 228.121 214.205C228.641 214.205 229.177 214.327 229.593 214.569L235.249 217.873L269.107 204.775L288.711 197.192L252.332 176.189L178.098 133.33V196.552C178.138 196.521 178.183 196.493 178.231 196.466L187.18 191.3C187.516 191.106 187.962 191.009 188.42 191.009C188.94 191.009 189.478 191.132 189.892 191.375L199.836 197.185C200.618 197.641 200.67 198.347 199.952 198.763L191.005 203.928C190.667 204.124 190.22 204.218 189.762 204.218C189.24 204.218 188.704 204.095 188.288 203.855L178.344 198.045C178.251 197.991 178.169 197.934 178.098 197.872V200.535L186.02 205.163C186.802 205.619 186.851 206.326 186.133 206.739L178.098 211.381V213.137L178.091 213.139C178.091 213.172 178.091 213.206 178.089 213.238L193.977 204.068V204.067H193.977L201.549 199.696C201.885 199.502 202.331 199.406 202.789 199.406C203.312 199.406 203.848 199.528 204.261 199.772L212.611 204.648C213.393 205.104 213.442 205.811 212.724 206.226L186.372 221.439C186.034 221.633 185.59 221.73 185.129 221.73C184.61 221.73 184.073 221.606 183.659 221.363L176.204 217.009C175.745 217.427 175.206 217.822 174.58 218.184L173.874 218.589L181.125 222.826C181.907 223.282 181.958 223.988 181.238 224.402L172.291 229.569C171.956 229.765 171.509 229.859 171.051 229.859C170.529 229.859 169.99 229.736 169.576 229.493L162.326 225.257L160.058 226.568L162.791 228.165H162.791V228.165L167.309 230.804C168.09 231.26 168.14 231.967 167.42 232.38L158.473 237.547C158.137 237.741 157.69 237.837 157.232 237.837C156.713 237.837 156.173 237.715 155.758 237.471L153.578 236.198H153.577V236.197L148.507 233.235L146.239 234.544L153.49 238.78C153.754 238.936 153.936 239.12 154.033 239.311C155.997 238.464 158.347 238.005 160.811 237.927L162 237.24C162.337 237.046 162.784 236.949 163.242 236.949C163.764 236.949 164.301 237.072 164.717 237.316L166.588 238.409C168.929 238.877 171.183 239.673 173.118 240.791C174.571 241.629 175.709 242.572 176.532 243.562L178.079 242.667C178.417 242.473 178.864 242.376 179.322 242.376C179.844 242.376 180.38 242.501 180.796 242.742L189.143 247.621C189.925 248.077 189.975 248.783 189.259 249.197L180.307 254.364C179.972 254.557 179.525 254.654 179.067 254.654C178.547 254.654 178.008 254.531 177.595 254.288L174.594 252.535C174.59 252.537 174.585 252.542 174.58 252.545L171.982 254.045L174.982 255.795C175.764 256.251 175.814 256.957 175.095 257.373L166.146 262.538C165.81 262.734 165.364 262.829 164.906 262.829C164.386 262.829 163.848 262.706 163.434 262.465L160.433 260.712L158.165 262.02L161.163 263.774C161.946 264.23 161.997 264.936 161.279 265.349L152.33 270.516C151.992 270.71 151.545 270.807 151.087 270.807C150.567 270.807 150.031 270.684 149.615 270.44L146.617 268.688L144.346 269.999L147.345 271.75C148.127 272.208 148.179 272.914 147.461 273.328L138.511 278.495C138.176 278.689 137.729 278.786 137.268 278.786C136.749 278.786 136.212 278.662 135.799 278.419L132.798 276.666L130.528 277.977L133.023 279.433H133.023V279.433L133.529 279.728C134.31 280.184 134.36 280.893 133.644 281.306L124.695 286.47C124.359 286.667 123.911 286.761 123.452 286.761C122.932 286.761 122.394 286.639 121.98 286.397L118.979 284.644L116.712 285.953L119.71 287.706C120.492 288.162 120.544 288.869 119.825 289.285L110.879 294.449C110.541 294.646 110.095 294.74 109.636 294.74C109.113 294.74 108.578 294.617 108.162 294.376L105.162 292.623L102.893 293.932L105.892 295.685C106.676 296.141 106.725 296.847 106.007 297.261L97.0601 302.427C96.7219 302.621 96.2759 302.718 95.8171 302.718C95.2954 302.718 94.759 302.596 94.3452 302.352L91.9148 300.932H91.9142V300.931L85.9987 297.476C85.2165 297.02 85.1642 296.313 85.8828 295.897L86.5277 295.524C85.8754 295.345 85.2352 295.136 84.6117 294.903L81.3228 296.8C80.9873 296.996 80.5413 297.091 80.0825 297.091C79.5608 297.091 79.0217 296.967 78.6085 296.727L70.2593 291.848C69.4791 291.392 69.4295 290.686 70.1481 290.272L76.7682 286.45C76.8412 285.698 77.0963 284.966 77.5383 284.274L75.5681 285.412C75.2299 285.606 74.7831 285.703 74.325 285.703C73.8054 285.703 73.267 285.58 72.8531 285.337L64.5039 280.461C63.7244 280.004 63.6721 279.298 64.3907 278.882L73.3372 273.718C73.6754 273.522 74.1221 273.427 74.5822 273.427C75.1026 273.427 75.6384 273.55 76.0542 273.793L84.4014 278.67C84.6331 278.804 84.8006 278.96 84.9024 279.126L86.008 278.488V278.488H86.0087L87.4539 277.654C87.1699 277.592 86.9007 277.495 86.6717 277.359L78.3225 272.482C77.5403 272.026 77.4907 271.32 78.2093 270.906L85.5352 266.675V266.675H85.5359L87.1559 265.739C87.4941 265.546 87.9408 265.448 88.3989 265.448C88.9212 265.448 89.457 265.572 89.8708 265.815L98.2174 270.691C98.4491 270.826 98.6172 270.984 98.7183 271.147L101.27 269.675C100.987 269.614 100.717 269.517 100.486 269.382L92.1385 264.504C91.3589 264.047 91.3094 263.342 92.0253 262.928L93.5161 262.068C93.4263 262.068 93.3366 262.071 93.2468 262.071C92.3534 262.071 91.4514 262.02 90.5513 261.924L76.2531 270.181C75.8533 270.41 75.3363 270.526 74.8307 270.526C74.3532 270.526 73.8878 270.424 73.5362 270.219L63.3955 264.296C62.6702 263.871 62.7057 263.164 63.4759 262.72L65.2171 261.715V261.714H65.2191L77.257 254.763C76.9188 254.021 76.7487 253.272 76.7487 252.535C76.7487 252.478 76.7514 252.424 76.7541 252.367L76.7487 252.37V165.479C76.744 165.359 76.7467 165.238 76.7487 165.118V165.101H76.7514C76.7514 165.066 76.754 165.031 76.7561 164.995L13.0453 201.779L26.9229 283.822L26.9838 283.789C27.2604 283.629 27.6267 283.551 28.0044 283.551C28.4297 283.551 28.8717 283.652 29.2099 283.851L33.2776 286.225C33.9206 286.6 33.9608 287.18 33.3721 287.52L28.0667 290.582L29.4952 299.03L31.7943 297.703C32.1318 297.508 32.5765 297.412 33.0345 297.412C33.5569 297.412 34.0927 297.537 34.5085 297.778L41.1192 301.641L42.8577 302.657C43.6379 303.111 43.6875 303.819 42.9716 304.232L31.4963 310.857L31.7635 312.433L37.4713 309.137C37.8069 308.944 38.2509 308.847 38.7117 308.847C39.2314 308.847 39.7704 308.969 40.1863 309.213L48.5328 314.089C49.3123 314.548 49.3646 315.252 48.6467 315.667L33.7632 324.26L34.0298 325.836L39.5602 322.642C39.8977 322.448 40.3417 322.351 40.8004 322.351C41.3221 322.351 41.8586 322.476 42.2744 322.717L50.6236 327.596C51.4031 328.052 51.4534 328.758 50.7375 329.172L41.7903 334.339C41.4521 334.532 41.006 334.629 40.5473 334.629C40.0256 334.629 39.4891 334.504 39.0733 334.263L35.0591 331.917L35.2131 332.827V332.828L43.5503 382.119L88.8429 355.982ZM326.183 219.014L309.506 228.638L301.502 233.257V204.577L314.94 212.335V212.336H314.941L325.184 218.249C325.415 218.382 325.623 218.524 325.808 218.672V218.715H325.859C325.976 218.812 326.084 218.912 326.183 219.014ZM60.998 325.404C61.5177 325.404 62.0562 325.526 62.472 325.77L70.8192 330.646C71.5987 331.102 71.6482 331.809 70.9323 332.224L54.4536 341.736C54.1181 341.932 53.6715 342.029 53.2107 342.029C52.691 342.029 52.1526 341.904 51.7387 341.663L43.3895 336.784C42.61 336.328 42.5604 335.624 43.2763 335.208L59.755 325.694C60.0932 325.5 60.5372 325.404 60.998 325.404ZM76.5813 331.87C77.101 331.87 77.6394 331.993 78.0533 332.236L80.8125 333.847C81.5947 334.303 81.6469 335.01 80.9263 335.426L71.9791 340.592C71.6436 340.786 71.1969 340.88 70.7388 340.88C70.2164 340.88 69.68 340.758 69.2642 340.514L66.505 338.903C65.7227 338.447 65.6732 337.741 66.3918 337.325L75.3383 332.16C75.6765 331.967 76.1232 331.87 76.5813 331.87ZM90.272 323.964C90.7924 323.964 91.3308 324.088 91.7467 324.331L94.5058 325.942C95.2854 326.398 95.3376 327.107 94.6197 327.521L85.6725 332.685C85.3343 332.881 84.8883 332.975 84.4295 332.975C83.9078 332.975 83.3714 332.853 82.9575 332.612L80.1983 330.998C79.4141 330.542 79.3646 329.836 80.0852 329.422L89.0318 324.255C89.3673 324.062 89.8139 323.964 90.272 323.964ZM74.1952 317.784C74.7149 317.784 75.2513 317.907 75.6671 318.15L84.0136 323.029C84.7958 323.483 84.8454 324.189 84.1295 324.605L75.1803 329.769C74.8448 329.966 74.398 330.06 73.9373 330.06C73.4176 330.06 72.8792 329.938 72.466 329.696L64.1188 324.818C63.3366 324.364 63.285 323.655 64.0029 323.242L72.9502 318.075C73.2877 317.881 73.7344 317.784 74.1952 317.784ZM54.619 314.375C55.1387 314.375 55.6772 314.497 56.0911 314.741L62.3816 318.415H62.3822L64.4403 319.617C65.2218 320.073 65.272 320.78 64.5534 321.196L55.6062 326.36C55.2687 326.554 54.8247 326.651 54.3639 326.651C53.8442 326.651 53.3051 326.528 52.8919 326.285L44.5447 321.408C43.7632 320.952 43.7109 320.246 44.4289 319.83L53.3788 314.663C53.7143 314.469 54.1603 314.375 54.619 314.375ZM103.963 316.059C104.486 316.059 105.022 316.182 105.437 316.426L108.197 318.037C108.977 318.495 109.031 319.2 108.31 319.615L99.3632 324.782C99.0257 324.976 98.5817 325.07 98.1209 325.07C97.6012 325.07 97.0621 324.948 96.6462 324.706L93.8871 323.093C93.1076 322.637 93.058 321.931 93.7759 321.517L101.601 316.998V316.997H101.602L102.723 316.35C103.059 316.156 103.505 316.059 103.963 316.059ZM88.0111 309.808C88.5308 309.808 89.0699 309.931 89.4831 310.175L97.8303 315.051C98.6125 315.507 98.664 316.213 97.9461 316.629L88.9962 321.793C88.6614 321.987 88.2147 322.084 87.7559 322.084C87.2362 322.084 86.6978 321.961 86.2846 321.718L77.9348 316.841C77.1532 316.383 77.1036 315.679 77.8216 315.263L83.4089 312.036L86.7688 310.096C87.1043 309.903 87.5504 309.808 88.0111 309.808ZM68.4377 306.397C68.9574 306.397 69.4958 306.519 69.9097 306.763L78.2589 311.639C79.0384 312.095 79.09 312.802 78.3721 313.217L69.4248 318.382C69.0873 318.578 68.6406 318.672 68.1799 318.672C67.6602 318.672 67.1237 318.55 66.7105 318.306L58.3613 313.43C57.5791 312.974 57.5296 312.267 58.2476 311.854L67.1974 306.687C67.533 306.493 67.9789 306.397 68.4377 306.397ZM117.657 308.154C118.177 308.154 118.715 308.277 119.129 308.52L121.888 310.134C122.67 310.59 122.722 311.296 122.002 311.71L113.055 316.877C112.716 317.071 112.27 317.168 111.812 317.168C111.292 317.168 110.756 317.042 110.34 316.801L107.58 315.19C106.798 314.732 106.749 314.027 107.465 313.612L116.414 308.445C116.749 308.251 117.196 308.154 117.657 308.154ZM101.828 301.83C102.349 301.83 102.886 301.953 103.302 302.196L111.649 307.073C112.43 307.529 112.483 308.234 111.765 308.65L102.815 313.815C102.477 314.009 102.033 314.106 101.575 314.106C101.053 314.106 100.516 313.982 100.101 313.739L91.7534 308.863C90.9719 308.407 90.9223 307.701 91.6382 307.285L100.585 302.12C100.923 301.927 101.369 301.83 101.828 301.83ZM52.7031 300.771C53.2228 300.771 53.7612 300.895 54.175 301.135L62.5215 306.012C63.3037 306.47 63.3553 307.176 62.6354 307.59L53.6882 312.757C53.35 312.951 52.9059 313.047 52.4452 313.047C51.9255 313.047 51.3871 312.924 50.9712 312.681L42.6241 307.804C41.8445 307.346 41.7949 306.64 42.5108 306.227L51.458 301.062C51.7956 300.866 52.2423 300.771 52.7031 300.771ZM82.2537 298.418C82.7761 298.418 83.3125 298.543 83.7283 298.784L92.0748 303.661C92.8571 304.119 92.9066 304.823 92.1907 305.239L83.2435 310.406C82.9059 310.6 82.4593 310.694 81.9985 310.694C81.4788 310.694 80.9424 310.571 80.5265 310.33L72.18 305.454C71.3978 304.996 71.3456 304.289 72.0641 303.876L81.0134 298.709C81.3489 298.515 81.7956 298.418 82.2537 298.418ZM115.646 293.851C116.168 293.851 116.704 293.974 117.118 294.218L125.468 299.094C126.249 299.552 126.299 300.256 125.583 300.672L116.632 305.839C116.296 306.032 115.849 306.128 115.391 306.128C114.872 306.128 114.332 306.004 113.919 305.761L105.57 300.884C104.79 300.429 104.738 299.723 105.456 299.309L106.326 298.806V298.806H106.327L114.403 294.142C114.742 293.948 115.188 293.851 115.646 293.851ZM66.519 292.793C67.0387 292.793 67.5778 292.916 67.991 293.159L76.3402 298.036C77.1224 298.492 77.172 299.198 76.4534 299.611L67.5042 304.778C67.1686 304.972 66.7226 305.069 66.2638 305.069C65.7421 305.069 65.2057 304.946 64.7898 304.702L56.4427 299.826C55.6631 299.37 55.6109 298.664 56.3295 298.248L65.2767 293.084C65.6143 292.89 66.0609 292.793 66.519 292.793ZM46.9456 289.382C47.4673 289.382 48.0038 289.504 48.417 289.748L56.7668 294.626C57.5483 295.08 57.5979 295.786 56.8773 296.202L47.9307 301.369C47.5952 301.563 47.1486 301.657 46.6905 301.657C46.1701 301.657 45.6317 301.535 45.2184 301.294L36.8693 296.415C36.087 295.959 36.0375 295.252 36.7555 294.839L45.7027 289.672C46.0402 289.478 46.4868 289.382 46.9456 289.382ZM129.465 285.875C129.985 285.875 130.523 285.998 130.937 286.239L139.284 291.118C140.066 291.574 140.118 292.28 139.399 292.694L130.45 297.861C130.115 298.054 129.668 298.151 129.207 298.151C128.687 298.151 128.151 298.028 127.738 297.785L119.386 292.906C118.606 292.453 118.557 291.746 119.273 291.33L123.1 289.12V289.119H123.103L128.222 286.164C128.558 285.97 129.004 285.875 129.465 285.875ZM60.7643 281.405C61.284 281.405 61.8224 281.528 62.2356 281.769L70.5828 286.648C71.365 287.104 71.4166 287.811 70.696 288.224L61.7494 293.39C61.4112 293.585 60.9672 293.681 60.5064 293.681C59.9867 293.681 59.4503 293.559 59.0345 293.315L50.6853 288.437C49.9057 287.981 49.8561 287.276 50.5721 286.861L59.5213 281.693C59.8568 281.5 60.3035 281.405 60.7643 281.405ZM143.281 277.897C143.803 277.897 144.34 278.02 144.756 278.263L145.545 278.724L153.102 283.139C153.884 283.595 153.936 284.302 153.218 284.718L144.269 289.883C143.931 290.076 143.487 290.173 143.028 290.173C142.506 290.173 141.97 290.05 141.554 289.807L133.205 284.93C132.425 284.474 132.373 283.768 133.091 283.352L142.039 278.188C142.376 277.991 142.823 277.897 143.281 277.897ZM41.2612 275.974C41.7809 275.974 42.3193 276.097 42.7332 276.338L52.6769 282.148C53.4591 282.606 53.5107 283.312 52.7928 283.725L43.8436 288.892C43.5054 289.086 43.0613 289.181 42.6006 289.181C42.0809 289.181 41.5445 289.058 41.1286 288.817L31.1822 283.007C30.4026 282.549 30.3531 281.843 31.069 281.429L40.0182 276.264C40.3564 276.069 40.8024 275.974 41.2612 275.974ZM157.1 269.919C157.619 269.919 158.158 270.041 158.572 270.285L166.921 275.161C167.703 275.617 167.753 276.324 167.034 276.74L158.085 281.904C157.749 282.1 157.303 282.194 156.844 282.194C156.325 282.194 155.786 282.072 155.372 281.831L147.023 276.952C146.244 276.496 146.191 275.789 146.91 275.376L155.857 270.209C156.195 270.016 156.642 269.919 157.1 269.919ZM59.9345 265.191C60.4568 265.191 60.9933 265.314 61.4092 265.555L71.3529 271.365C72.1324 271.823 72.1847 272.529 71.4661 272.942L63.0908 277.779L57.1586 281.205C56.821 281.398 56.3744 281.495 55.9163 281.495C55.3939 281.495 54.8575 281.373 54.4416 281.129L44.664 275.416H44.6632V275.416L44.4978 275.319C43.7156 274.864 43.6661 274.157 44.384 273.743L58.6942 265.482C59.0298 265.286 59.4764 265.191 59.9345 265.191ZM170.918 261.941C171.438 261.941 171.977 262.066 172.39 262.306L180.272 266.911H180.274V266.912L180.737 267.183C181.519 267.641 181.571 268.348 180.851 268.761L171.903 273.928C171.568 274.122 171.122 274.216 170.663 274.218C170.141 274.218 169.605 274.093 169.189 273.853L160.84 268.976C160.06 268.518 160.01 267.814 160.726 267.398L169.673 262.231C170.011 262.037 170.457 261.941 170.918 261.941ZM194.093 264.024C194.615 264.024 195.153 264.147 195.569 264.39L198.328 266.002C199.109 266.458 199.158 267.164 198.44 267.577L189.493 272.744C189.158 272.938 188.711 273.035 188.252 273.035C187.73 273.035 187.194 272.912 186.778 272.669L184.019 271.057C183.239 270.601 183.187 269.895 183.905 269.479L187.126 267.62V267.62H187.127L192.852 264.315C193.188 264.118 193.635 264.024 194.093 264.024ZM184.735 253.964C185.257 253.964 185.793 254.087 186.209 254.328L194.556 259.207C195.338 259.663 195.387 260.369 194.669 260.783L185.722 265.949C185.384 266.143 184.938 266.24 184.48 266.24C183.959 266.24 183.421 266.118 183.008 265.874L174.659 260.998C173.878 260.542 173.827 259.835 174.545 259.419L183.492 254.255C183.829 254.059 184.276 253.964 184.735 253.964ZM177.061 228.97C177.58 228.97 178.12 229.094 178.535 229.337L186.882 234.214C187.664 234.672 187.714 235.376 186.996 235.791L178.049 240.956C177.711 241.152 177.264 241.247 176.806 241.247C176.284 241.247 175.747 241.124 175.332 240.882L166.984 236.006C166.205 235.548 166.153 234.842 166.871 234.429L170.351 232.419V232.417H170.354L175.818 229.261C176.154 229.068 176.6 228.97 177.061 228.97ZM191.085 220.874C191.605 220.874 192.144 220.997 192.557 221.241L200.904 226.117C201.686 226.573 201.738 227.279 201.02 227.695L192.07 232.862C191.735 233.056 191.289 233.15 190.828 233.15C190.308 233.15 189.772 233.028 189.358 232.786L181.009 227.908C180.227 227.452 180.178 226.745 180.896 226.332L189.843 221.165C190.178 220.971 190.624 220.874 191.085 220.874ZM215.455 206.805C215.974 206.805 216.514 206.928 216.927 207.172L225.276 212.048C226.058 212.504 226.108 213.21 225.39 213.624L206.118 224.751C205.783 224.945 205.336 225.042 204.878 225.042C204.356 225.042 203.819 224.917 203.404 224.676L195.056 219.8C194.275 219.341 194.223 218.634 194.943 218.221L214.213 207.096C214.548 206.9 214.994 206.805 215.455 206.805ZM112.537 263.171L115.089 261.697C114.805 261.638 114.536 261.539 114.304 261.404L107.053 257.168L104.786 258.479L112.036 262.715C112.268 262.85 112.436 263.006 112.537 263.171ZM126.356 255.193L128.905 253.721C128.624 253.66 128.355 253.563 128.123 253.428L120.872 249.192L118.604 250.501L125.855 254.737C126.086 254.871 126.252 255.027 126.356 255.193ZM140.172 247.215L142.724 245.742C142.44 245.681 142.171 245.584 141.939 245.45L134.689 241.213L132.42 242.523L139.671 246.758C139.902 246.893 140.07 247.051 140.172 247.215Z" fill="url(#paint2_linear)"/>
<path d="M13.0453 231.779L76.756 194.995C76.7868 194.534 76.884 194.08 77.0514 193.636L12.8631 230.695L12.9709 231.339L13.0453 231.779Z" fill="#09726C"/>
<path fill-rule="evenodd" clip-rule="evenodd" d="M125.699 255.571V255.571H125.7L126.356 255.192C126.252 255.027 126.086 254.871 125.855 254.736L118.605 250.5L107.054 257.167L114.304 261.404C114.536 261.538 114.805 261.638 115.089 261.697L125.699 255.571Z" fill="#054844"/>
<path fill-rule="evenodd" clip-rule="evenodd" d="M94.5132 292.003V291.95H95.2619C95.7314 291.908 96.1948 291.853 96.6509 291.784V204.577C95.5552 204.742 94.4094 204.825 93.2468 204.825C89.2466 204.825 85.0276 203.85 81.7319 201.948C78.5207 200.095 76.8364 197.735 76.7487 195.479V282.369L76.754 282.367C76.7514 282.424 76.7487 282.478 76.7487 282.534C76.7487 282.68 76.7541 282.826 76.7675 282.972H76.7935V283.197C76.8364 283.515 76.9114 283.834 77.0172 284.153H77.03V284.191C77.1331 284.494 77.265 284.797 77.4237 285.098H77.5028V285.244C77.5644 285.353 77.63 285.462 77.6983 285.571H77.7392V285.635C77.8791 285.851 78.0332 286.066 78.2033 286.279H78.2113V286.289L78.3975 286.516H78.4477V286.573L78.6065 286.752H78.6841V286.836C79.1924 287.38 79.7992 287.906 80.5044 288.406H80.574V288.454C80.779 288.598 80.9932 288.74 81.2142 288.878H81.2826V288.921C81.4292 289.012 81.5786 289.101 81.7319 289.19C81.9697 289.327 82.2121 289.46 82.4592 289.587H82.4639V289.59C82.6186 289.669 82.7753 289.748 82.9334 289.823H82.9367V289.825C83.6807 290.182 84.461 290.497 85.2646 290.768H85.2988V290.78C85.5332 290.858 85.7683 290.933 86.0067 291.005H86.008V291.005C86.6127 291.186 87.2288 291.344 87.853 291.477H87.8979V291.486C88.301 291.572 88.7076 291.648 89.1161 291.713H89.3156V291.745C89.8902 291.832 90.4669 291.901 91.0441 291.95H91.4419V291.98C92.0205 292.019 92.5978 292.039 93.1711 292.039C93.6218 292.039 94.0699 292.027 94.5132 292.003ZM76.7487 195.117C76.7514 195.113 76.7514 195.108 76.7514 195.101H76.7487V195.117Z" fill="url(#paint3_linear)"/>
<path fill-rule="evenodd" clip-rule="evenodd" d="M94.0403 174.813V174.772H94.8587C95.4668 174.73 96.0662 174.666 96.6508 174.578L96.8758 174.543V174.536H96.9187C97.3044 174.472 97.6842 174.398 98.0565 174.313V174.299H98.1181C98.4175 174.23 98.7128 174.155 99.0022 174.071V174.063H99.0309C99.5098 173.924 99.9739 173.767 100.419 173.591V173.591H100.421C100.581 173.528 100.738 173.462 100.892 173.394V173.354H100.983C101.112 173.297 101.239 173.238 101.364 173.176V173.118H101.482C101.689 173.014 101.891 172.905 102.087 172.792L122.392 161.069H122.392L145.308 147.839V147.839H145.309L168.225 134.609V134.608H168.226L174.58 130.939C174.752 130.84 174.917 130.738 175.076 130.635V130.592H175.141C175.369 130.44 175.583 130.284 175.785 130.124V130.12H175.79C176.144 129.837 176.457 129.54 176.73 129.233V129.175H176.781C176.845 129.1 176.907 129.025 176.966 128.95V128.938H176.976C177.15 128.715 177.305 128.487 177.439 128.254V128.229H177.454C177.535 128.086 177.609 127.94 177.675 127.794V127.757H177.692C177.779 127.561 177.852 127.361 177.911 127.16V127.048H177.943C178.032 126.715 178.083 126.378 178.098 126.037C178.117 125.59 178.073 125.138 177.965 124.686H177.911V124.477C177.496 122.993 176.404 121.51 174.656 120.197H174.604V120.157C174.406 120.01 174.2 119.866 173.987 119.724H173.895V119.663C173.647 119.501 173.388 119.341 173.118 119.185C172.874 119.045 172.626 118.909 172.373 118.779H172.241V118.712L171.899 118.543H171.769V118.481L171.387 118.307H171.297V118.266C171.143 118.2 170.989 118.134 170.833 118.07H170.824V118.066C170.178 117.802 169.51 117.567 168.829 117.362H168.697V117.322C168.462 117.253 168.226 117.188 167.988 117.125H167.752V117.065C167.261 116.942 166.763 116.833 166.262 116.74V123.303C166.262 126.764 163.457 129.569 159.996 129.569C156.538 129.569 153.731 126.764 153.731 123.303V117.841C153.395 117.995 153.071 118.163 152.76 118.342L108.216 144.059L101.116 148.157V160.915C101.116 164.376 98.3117 167.181 94.8533 167.181C91.3923 167.181 88.5856 164.376 88.5856 160.915V155.391L80.2693 160.195C80.0449 160.324 79.8319 160.457 79.629 160.594V160.596H79.6263C78.5166 161.349 77.733 162.218 77.2663 163.147V163.195H77.2422C77.1712 163.342 77.1075 163.489 77.0513 163.637C76.8839 164.081 76.7867 164.535 76.7559 164.996C76.7539 165.031 76.7513 165.067 76.7513 165.101C76.7513 165.109 76.7513 165.114 76.7486 165.118C76.7466 165.239 76.7439 165.359 76.7486 165.48C76.7526 165.584 76.7593 165.689 76.7707 165.794H76.7935V165.976C76.8852 166.624 77.1069 167.277 77.4565 167.92H77.5027V168.003C77.5757 168.134 77.6547 168.264 77.7384 168.393H77.7391V168.394C77.9976 168.794 78.3063 169.189 78.6653 169.574H78.684V169.595L78.8917 169.81H78.9198V169.838L79.1334 170.047H79.1562V170.068L79.3913 170.283H79.3926V170.284C79.6631 170.525 79.9544 170.761 80.2659 170.992H80.3375V171.044C80.7648 171.357 81.2296 171.659 81.7319 171.949C82.1618 172.197 82.6078 172.429 83.0672 172.646H83.1724V172.695C83.309 172.759 83.4483 172.82 83.5869 172.881H83.6452V172.907C84.0122 173.066 84.3859 173.215 84.7663 173.354H84.8266V173.376C85.0315 173.451 85.2378 173.522 85.446 173.591H85.5351V173.62C85.7568 173.692 85.9798 173.761 86.2055 173.827H86.2443V173.838C86.8544 174.016 87.4759 174.169 88.1048 174.299H88.1342V174.305C88.5628 174.393 88.9948 174.469 89.4281 174.536H89.5513V174.554C90.2331 174.654 90.9188 174.727 91.6019 174.772H92.1504V174.802C92.5174 174.818 92.8831 174.826 93.2467 174.826C93.5119 174.826 93.7771 174.822 94.0403 174.813Z" fill="url(#paint4_linear)"/>
<path fill-rule="evenodd" clip-rule="evenodd" d="M146.017 259.201V259.115H146.039C146.101 258.78 145.895 258.419 145.429 258.149L139.402 254.627L137.081 253.271C136.666 253.027 136.127 252.904 135.607 252.904C135.149 252.904 134.703 253.001 134.364 253.195L125.418 258.362C124.967 258.621 124.821 258.996 124.965 259.352H124.99V259.407C125.085 259.599 125.266 259.782 125.531 259.938L133.878 264.816C134.294 265.057 134.833 265.18 135.352 265.18C135.81 265.18 136.257 265.086 136.595 264.892L145.542 259.725C145.795 259.579 145.952 259.396 146.017 259.201Z" fill="#054844"/>
<path fill-rule="evenodd" clip-rule="evenodd" d="M96.4032 166.988V166.976H96.4488C97.3073 166.75 98.0928 166.347 98.7659 165.808V165.794H98.7826C99.1228 165.52 99.4343 165.21 99.7109 164.871V164.849H99.7283C100.596 163.774 101.117 162.406 101.117 160.915V148.158V122.153C101.117 120.289 101.31 118.352 101.672 116.384L91.4019 122.31L88.5858 123.934V155.392V160.915C88.5858 161.046 88.5898 161.176 88.5978 161.305H88.6065V161.428C88.8235 164.109 90.7281 166.312 93.2569 166.976H93.332V166.994C93.8195 167.116 94.3285 167.181 94.8535 167.181C95.3886 167.181 95.9076 167.114 96.4032 166.988ZM159.996 129.569C160.47 129.569 160.93 129.516 161.374 129.417V129.411H161.402C163.727 128.878 165.558 127.051 166.098 124.729V124.686H166.109C166.208 124.241 166.262 123.779 166.262 123.304V116.74V84.5412C166.262 83.7315 166.236 82.9373 166.188 82.1597H166.098V81.0313C166.043 80.4527 165.974 79.8834 165.891 79.3242L153.731 86.3414V117.841V123.304C153.731 123.612 153.754 123.916 153.797 124.213H153.813V124.319C153.902 124.861 154.06 125.38 154.278 125.867H154.286V125.885C154.357 126.04 154.434 126.191 154.515 126.339H154.522V126.351C154.657 126.594 154.808 126.828 154.973 127.049H154.995V127.077C155.707 128.02 156.68 128.754 157.806 129.175H157.83V129.184C158.505 129.433 159.235 129.569 159.996 129.569Z" fill="url(#paint5_linear)"/>
<path fill-rule="evenodd" clip-rule="evenodd" d="M325.396 334.667C325.848 334.667 326.278 334.575 326.599 334.39L340.772 326.206C341.483 325.795 341.396 325.079 340.571 324.604L330.115 318.566C329.664 318.306 329.089 318.174 328.543 318.174C328.093 318.174 327.66 318.264 327.339 318.45L313.168 326.632C312.454 327.043 312.544 327.761 313.367 328.236L323.825 334.275C324.275 334.535 324.851 334.667 325.396 334.667Z" fill="white"/>
<path d="M57.612 202.645C57.912 202.645 58.1959 202.701 58.4531 202.813C59.0485 203.07 59.4717 203.621 59.6438 204.362C60.053 206.142 58.9588 208.417 57.2015 209.43C56.3509 209.921 55.4649 210.03 54.7704 209.73C54.1751 209.47 53.7518 208.92 53.5817 208.18C53.1705 206.401 54.2668 204.129 56.0248 203.111C56.5585 202.803 57.107 202.645 57.612 202.645ZM55.6109 210.846C56.282 210.846 56.9958 210.645 57.6763 210.252C59.7691 209.043 61.0663 206.307 60.568 204.147C60.3269 203.108 59.7128 202.324 58.8335 201.941C57.8558 201.52 56.6603 201.648 55.55 202.29C53.4545 203.5 52.1573 206.238 52.6582 208.395C52.8993 209.435 53.5134 210.217 54.392 210.6C54.7704 210.765 55.1836 210.846 55.6109 210.846Z" fill="#7CC9CE"/>
<path d="M46.3309 209.159C46.6289 209.159 46.9148 209.213 47.172 209.325C47.7674 209.584 48.1906 210.135 48.3607 210.874C48.7719 212.654 47.6756 214.927 45.9177 215.945C45.0672 216.433 44.1812 216.543 43.4867 216.243C42.8913 215.985 42.4707 215.434 42.2959 214.692C41.8894 212.913 42.9857 210.638 44.7437 209.625C45.2747 209.315 45.8253 209.159 46.3309 209.159ZM44.3278 217.36C45.0008 217.36 45.7121 217.159 46.3925 216.764C48.488 215.555 49.7825 212.816 49.2842 210.659C49.0458 209.62 48.4291 208.838 47.5504 208.455C46.5747 208.033 45.3792 208.163 44.2662 208.803C42.1379 210.031 40.8668 212.713 41.3744 214.907C41.6128 215.949 42.2296 216.731 43.1083 217.114C43.4866 217.277 43.8999 217.36 44.3278 217.36Z" fill="#7CC9CE"/>
<path d="M30.554 221.316C31.0074 223.289 32.9422 223.984 34.8729 222.871C36.8003 221.756 37.9938 219.254 37.5397 217.283C37.0816 215.311 35.1488 214.616 33.2214 215.728C31.2907 216.844 30.0953 219.346 30.554 221.316Z" fill="#7CC9CE"/>
<path d="M246.898 66.8139L252.935 63.3315L252.464 60.5415L246.433 64.026L246.898 66.8139Z" fill="#7CC9CE"/>
<path d="M238.126 71.8794L244.162 68.3949L243.695 65.6069L237.658 69.0894L238.126 71.8794Z" fill="#7CC9CE"/>
<path d="M255.581 61.8032L268.813 54.1605L268.348 51.3726L255.113 59.0132L255.581 61.8032Z" fill="#7CC9CE"/>
<path d="M211.793 166.934C212.66 166.934 213.506 167.097 214.309 167.425C216.421 168.292 217.978 170.197 218.694 172.79C220.178 178.168 217.534 184.767 212.802 187.5L128.799 235.999C126.587 237.277 124.234 237.518 122.191 236.679C120.076 235.812 118.519 233.907 117.803 231.314C116.322 225.934 118.965 219.338 123.698 216.604L207.701 168.106C209.048 167.328 210.444 166.934 211.793 166.934ZM124.709 238.12C126.221 238.12 127.778 237.683 129.273 236.821L213.279 188.319C218.361 185.385 221.198 178.305 219.606 172.538C218.812 169.655 217.059 167.526 214.669 166.549C212.346 165.594 209.702 165.854 207.226 167.283L123.221 215.782C118.141 218.719 115.299 225.797 116.891 231.566C117.685 234.449 119.438 236.575 121.832 237.555C122.748 237.934 123.719 238.12 124.709 238.12Z" fill="#7CC9CE"/>
<path fill-rule="evenodd" clip-rule="evenodd" d="M216.653 328.42C219.965 328.42 223.129 327.749 225.491 326.385L229.066 324.323L231.313 323.026L242.75 316.42L244.997 315.123L256.436 308.519L258.683 307.222L270.12 300.619L272.367 299.322L283.804 292.718L285.983 291.462L297.422 284.856L297.984 284.533C298.535 284.213 299.019 283.871 299.44 283.507C300.802 282.328 301.478 280.934 301.497 279.489L301.502 279.486V192.242L288.711 197.191L235.249 217.873L219.698 223.891H220.057V328.134C218.935 328.304 217.765 328.389 216.577 328.389C213.145 328.389 209.561 327.678 206.536 326.268L206.492 326.247L206.384 326.197L206.377 326.193L206.279 326.146L206.22 326.117L206.173 326.094L206.068 326.042L206.063 326.04L205.963 325.989L205.907 325.961L205.859 325.936L205.756 325.882L205.753 325.881L205.652 325.827L205.6 325.799L205.549 325.772L205.448 325.717L205.549 325.772L205.6 325.799L205.652 325.827L205.753 325.881L205.756 325.882L205.859 325.936L205.907 325.961L205.963 325.989L206.063 326.04L206.068 326.042L206.173 326.094L206.22 326.117L206.279 326.146L206.377 326.193L206.384 326.197L206.492 326.247L206.536 326.268C208.448 327.161 210.585 327.781 212.767 328.12C214.059 328.318 215.368 328.42 216.653 328.42ZM219.698 223.891L213.433 226.314L219.698 223.891ZM213.433 226.314L210.761 227.349L213.433 226.314ZM210.761 227.349L200.158 231.451L210.761 227.349ZM205.362 325.669L205.314 325.642L205.298 325.632L205.314 325.642L205.362 325.669ZM205.208 325.582C205.183 325.568 205.159 325.553 205.135 325.539C205.159 325.553 205.183 325.568 205.208 325.582Z" fill="url(#paint6_linear)"/>
<path fill-rule="evenodd" clip-rule="evenodd" d="M205.447 325.718C205.445 325.716 205.445 325.716 205.443 325.714C205.445 325.716 205.445 325.716 205.447 325.718ZM205.374 325.676C205.369 325.674 205.365 325.671 205.363 325.671C205.365 325.671 205.369 325.674 205.374 325.676ZM205.298 325.633C205.294 325.631 205.287 325.629 205.282 325.626C205.287 325.629 205.294 325.631 205.298 325.633ZM205.218 325.591C205.216 325.589 205.212 325.586 205.209 325.584C205.212 325.586 205.216 325.589 205.218 325.591Z" fill="url(#paint7_linear)"/>
<path fill-rule="evenodd" clip-rule="evenodd" d="M216.577 328.391C217.765 328.391 218.935 328.306 220.057 328.136V223.893H219.698L200.157 231.453V318.718V318.721C200.155 318.775 200.153 318.83 200.153 318.886C200.15 321.199 201.837 323.637 205.135 325.541C205.159 325.555 205.183 325.57 205.208 325.584C205.211 325.586 205.216 325.589 205.218 325.591C205.239 325.603 205.261 325.615 205.282 325.626C205.287 325.629 205.293 325.631 205.298 325.634C205.319 325.648 205.341 325.657 205.362 325.671C205.364 325.671 205.369 325.674 205.374 325.676C205.395 325.691 205.419 325.702 205.443 325.714C205.445 325.716 205.445 325.716 205.447 325.719C208.679 327.496 212.724 328.391 216.577 328.391ZM200.157 318.718V318.721V318.718Z" fill="url(#paint8_linear)"/>
<path fill-rule="evenodd" clip-rule="evenodd" d="M225.494 239.14L297.984 197.288C303.203 194.276 302.548 189.012 296.524 185.534C290.5 182.056 281.384 181.679 276.168 184.691L203.675 226.543C198.456 229.556 199.111 234.82 205.135 238.297C211.162 241.775 220.275 242.153 225.494 239.14Z" fill="url(#paint9_linear)"/>
<path fill-rule="evenodd" clip-rule="evenodd" d="M220.046 362.532C222.08 362.227 223.955 361.635 225.491 360.746L297.984 318.894C299.166 318.211 300.046 317.412 300.632 316.548L292.822 321.058C292.501 321.242 292.068 321.334 291.615 321.334C291.071 321.334 290.495 321.201 290.046 320.942L281.266 315.872C280.444 315.399 280.354 314.681 281.068 314.27L289.928 309.153C290.251 308.968 290.681 308.876 291.133 308.876C291.678 308.876 292.255 309.008 292.704 309.269L301.476 314.334C301.587 313.379 301.402 312.392 300.93 311.423L294.951 307.972C294.128 307.497 294.038 306.781 294.752 306.37L294.875 306.299C294.006 305.906 293.091 305.571 292.151 305.29C292.323 305.656 292.193 306.039 291.742 306.299L282.882 311.414C282.559 311.6 282.129 311.69 281.678 311.69C281.132 311.69 280.555 311.558 280.107 311.298L273.805 307.659L271.216 309.155L277.519 312.791C278.342 313.266 278.432 313.984 277.718 314.395L268.858 319.51C268.535 319.697 268.105 319.789 267.651 319.789C267.106 319.789 266.531 319.654 266.082 319.395L259.781 315.758L257.532 317.055L263.835 320.694C264.658 321.166 264.748 321.885 264.034 322.296L255.172 327.413C254.851 327.597 254.418 327.69 253.967 327.69C253.422 327.69 252.845 327.555 252.396 327.297L246.095 323.659L243.848 324.956L250.151 328.594C250.974 329.069 251.061 329.785 250.35 330.196L241.488 335.313C241.167 335.5 240.735 335.589 240.283 335.589C239.738 335.589 239.161 335.457 238.712 335.198L232.411 331.559L230.164 332.856L236.465 336.495C237.287 336.97 237.378 337.688 236.666 338.096L227.804 343.214C227.483 343.4 227.051 343.49 226.599 343.49C226.054 343.49 225.477 343.358 225.028 343.098L218.727 339.46L216.48 340.757L222.781 344.395C223.604 344.87 223.693 345.588 222.98 345.999L214.12 351.114C213.797 351.301 213.367 351.39 212.915 351.39C212.369 351.39 211.793 351.258 211.344 350.999L205.041 347.36L203.675 348.149C203.377 348.322 203.101 348.499 202.841 348.685L209.097 352.295C209.92 352.77 210.009 353.489 209.296 353.897L202.409 357.873C202.785 358.244 203.207 358.604 203.677 358.951L207.822 356.558C208.143 356.373 208.575 356.281 209.026 356.281C209.572 356.281 210.149 356.413 210.597 356.673L219.377 361.743C219.772 361.97 219.996 362.254 220.046 362.532ZM222.71 348.381C223.256 348.381 223.833 348.513 224.281 348.772L233.063 353.843C233.883 354.316 233.97 355.034 233.262 355.445L224.399 360.56C224.076 360.746 223.644 360.838 223.193 360.838C222.647 360.838 222.073 360.706 221.623 360.446L212.844 355.376C212.022 354.902 211.932 354.183 212.643 353.774L221.506 348.657C221.827 348.47 222.259 348.381 222.71 348.381ZM236.394 340.48C236.94 340.48 237.517 340.613 237.966 340.873L246.747 345.94C247.567 346.415 247.657 347.133 246.946 347.544L238.086 352.661C237.763 352.846 237.33 352.938 236.879 352.938C236.333 352.938 235.759 352.803 235.307 352.546L226.528 347.476C225.706 347.001 225.616 346.283 226.33 345.871L235.19 340.757C235.513 340.57 235.943 340.48 236.394 340.48ZM250.083 332.58C250.626 332.58 251.203 332.712 251.652 332.97L260.431 338.042C261.251 338.515 261.341 339.233 260.632 339.644L251.77 344.759C251.446 344.945 251.014 345.038 250.563 345.038C250.019 345.038 249.443 344.903 248.994 344.643L240.212 339.575C239.39 339.101 239.3 338.385 240.014 337.974L248.876 332.856C249.197 332.669 249.63 332.58 250.083 332.58ZM263.764 324.679C264.31 324.679 264.887 324.812 265.336 325.072L274.115 330.139C274.935 330.614 275.025 331.332 274.314 331.741L265.454 336.858C265.13 337.045 264.7 337.135 264.249 337.135C263.704 337.135 263.127 337.002 262.678 336.743L253.896 331.675C253.074 331.2 252.987 330.482 253.697 330.071L262.56 324.956C262.881 324.769 263.313 324.679 263.764 324.679ZM277.448 316.777C277.994 316.777 278.571 316.911 279.02 317.169L287.801 322.239C288.621 322.714 288.709 323.43 288 323.841L279.138 328.958C278.814 329.145 278.384 329.235 277.931 329.235C277.385 329.235 276.811 329.102 276.362 328.842L267.582 323.772C266.761 323.3 266.67 322.582 267.382 322.171L276.244 317.055C276.565 316.869 276.997 316.777 277.448 316.777Z" fill="#4DB9A6"/>
<path fill-rule="evenodd" clip-rule="evenodd" d="M236.879 352.94C237.33 352.94 237.763 352.847 238.086 352.663L246.946 347.546C247.657 347.135 247.567 346.417 246.747 345.942L237.966 340.874C237.517 340.615 236.94 340.482 236.394 340.482C235.943 340.482 235.513 340.572 235.19 340.759L226.33 345.873C225.616 346.284 225.706 347.003 226.528 347.478L235.307 352.547C235.759 352.805 236.333 352.94 236.879 352.94Z" fill="white"/>
<path fill-rule="evenodd" clip-rule="evenodd" d="M221.563 233.187C224.689 233.187 227.219 230.654 227.219 227.528V192.521C227.219 180.581 235.957 165.451 246.299 159.48L261.322 150.807C265.289 148.516 268.874 147.957 271.152 149.273C273.433 150.59 274.741 153.972 274.741 158.553V193.56C274.741 196.686 277.272 199.219 280.397 199.219C283.521 199.219 286.056 196.686 286.056 193.56V158.553C286.056 149.691 282.774 142.915 276.813 139.473C270.849 136.031 263.339 136.576 255.662 141.007L240.639 149.681C226.769 157.688 215.907 176.506 215.907 192.521V227.528C215.907 230.654 218.44 233.187 221.563 233.187Z" fill="url(#paint10_linear)"/>
<defs>
<linearGradient id="paint0_linear" x1="43.6447" y1="367.775" x2="503.742" y2="367.775" gradientUnits="userSpaceOnUse">
<stop stop-color="#0F928A"/>
<stop offset="1" stop-color="#7CC9CE"/>
</linearGradient>
<linearGradient id="paint1_linear" x1="198.535" y1="355.198" x2="657.711" y2="355.198" gradientUnits="userSpaceOnUse">
<stop stop-color="#93D1C6"/>
<stop offset="1" stop-color="#EEEDF7"/>
</linearGradient>
<linearGradient id="paint2_linear" x1="21.3557" y1="253.968" x2="481.494" y2="253.968" gradientUnits="userSpaceOnUse">
<stop stop-color="#09746E"/>
<stop offset="1" stop-color="#145450"/>
</linearGradient>
<linearGradient id="paint3_linear" x1="163.772" y1="223.949" x2="64.4965" y2="223.949" gradientUnits="userSpaceOnUse">
<stop stop-color="#0F928A"/>
<stop offset="0.870588" stop-color="#0D4946"/>
<stop offset="1" stop-color="#413280"/>
</linearGradient>
<linearGradient id="paint4_linear" x1="271.95" y1="145.522" x2="22.423" y2="145.522" gradientUnits="userSpaceOnUse">
<stop stop-color="#22AF96"/>
<stop offset="1" stop-color="#18827B"/>
</linearGradient>
<linearGradient id="paint5_linear" x1="203.341" y1="103.123" x2="21.9825" y2="127.551" gradientUnits="userSpaceOnUse">
<stop stop-color="#0F928A"/>
<stop offset="0.870588" stop-color="#0C4D49"/>
<stop offset="1" stop-color="#423385"/>
</linearGradient>
<linearGradient id="paint6_linear" x1="288.805" y1="260.33" x2="187.456" y2="260.33" gradientUnits="userSpaceOnUse">
<stop stop-color="#22AF96"/>
<stop offset="0.870588" stop-color="#2DC09D"/>
<stop offset="1" stop-color="#6060A7"/>
</linearGradient>
<linearGradient id="paint7_linear" x1="198.259" y1="355.118" x2="657.454" y2="355.118" gradientUnits="userSpaceOnUse">
<stop stop-color="#9D92C6"/>
<stop offset="1" stop-color="#BBB3D7"/>
</linearGradient>
<linearGradient id="paint8_linear" x1="288.798" y1="260.332" x2="187.459" y2="260.332" gradientUnits="userSpaceOnUse">
<stop stop-color="#083F35"/>
<stop offset="0.870588" stop-color="#0F928A"/>
</linearGradient>
<linearGradient id="paint9_linear" x1="390.931" y1="211.917" x2="148.925" y2="211.917" gradientUnits="userSpaceOnUse">
<stop stop-color="#EEEDF7"/>
<stop offset="1" stop-color="#7CCEB0"/>
</linearGradient>
<linearGradient id="paint10_linear" x1="319.907" y1="179.489" x2="155.163" y2="194.425" gradientUnits="userSpaceOnUse">
<stop stop-color="#7CC9CE"/>
<stop offset="0.870588" stop-color="#22AF96"/>
<stop offset="1" stop-color="#0F928A"/>
</linearGradient>
</defs>
</svg>
