<svg width="1106" height="583" viewBox="0 0 1106 583" fill="none" xmlns="http://www.w3.org/2000/svg">
<g opacity="0.2">
<path d="M766.168 419.903C770.437 419.903 773.897 416.556 773.897 412.428C773.897 408.299 770.437 404.952 766.168 404.952C761.9 404.952 758.44 408.299 758.44 412.428C758.44 416.556 761.9 419.903 766.168 419.903Z" fill="#DBE4FD"/>
<path d="M236.241 128.189C240.51 128.189 243.97 124.842 243.97 120.713C243.97 116.585 240.51 113.238 236.241 113.238C231.973 113.238 228.513 116.585 228.513 120.713C228.513 124.842 231.973 128.189 236.241 128.189Z" fill="#6B92F1"/>
<path d="M236.241 128.189C240.51 128.189 243.97 124.842 243.97 120.713C243.97 116.585 240.51 113.238 236.241 113.238C231.973 113.238 228.513 116.585 228.513 120.713C228.513 124.842 231.973 128.189 236.241 128.189Z" fill="#6B92F1"/>
<g opacity="0.1">
<path opacity="0.1" d="M1106 120.889H1098.58V134.05H1106V120.889Z" fill="#6A8FF2"/>
</g>
<g opacity="0.1">
<path opacity="0.1" d="M817.215 120.889H809.798V134.05H817.215V120.889Z" fill="#6A8FF2"/>
</g>
<g opacity="0.1">
<path opacity="0.1" d="M528.852 120.889H521.435V134.05H528.852V120.889Z" fill="#6A8FF2"/>
</g>
<g opacity="0.1">
<path opacity="0.1" d="M243.658 120.889H236.241V134.05H243.658V120.889Z" fill="#6A8FF2"/>
</g>
<path d="M176.551 517.488C180.819 517.488 184.279 514.141 184.279 510.012C184.279 505.883 180.819 502.536 176.551 502.536C172.283 502.536 168.823 505.883 168.823 510.012C168.823 514.141 172.283 517.488 176.551 517.488Z" fill="#6A8FF2"/>
<path d="M236.241 447.124C240.51 447.124 243.97 443.777 243.97 439.649C243.97 435.52 240.51 432.173 236.241 432.173C231.973 432.173 228.513 435.52 228.513 439.649C228.513 443.777 231.973 447.124 236.241 447.124Z" fill="#8AD3DF"/>
<g opacity="0.1">
<path opacity="0.1" d="M1106 120.889H1098.58V134.05H1106V120.889Z" fill="#6A8FF2"/>
</g>
<g opacity="0.1">
<path opacity="0.1" d="M817.215 120.889H809.798V134.05H817.215V120.889Z" fill="#6A8FF2"/>
</g>
<g opacity="0.1">
<path opacity="0.1" d="M528.852 120.889H521.435V134.05H528.852V120.889Z" fill="#6A8FF2"/>
</g>
<g opacity="0.1">
<path opacity="0.1" d="M243.658 120.889H236.241V134.05H243.658V120.889Z" fill="#6A8FF2"/>
</g>
<path d="M176.551 517.488C180.819 517.488 184.279 514.141 184.279 510.012C184.279 505.883 180.819 502.536 176.551 502.536C172.283 502.536 168.823 505.883 168.823 510.012C168.823 514.141 172.283 517.488 176.551 517.488Z" fill="#6A8FF2"/>
<path d="M184.902 318.123C189.17 318.123 192.631 314.776 192.631 310.648C192.631 306.519 189.17 303.172 184.902 303.172C180.634 303.172 177.174 306.519 177.174 310.648C177.174 314.776 180.634 318.123 184.902 318.123Z" fill="#03E6A7"/>
<line x1="877.309" y1="191.417" x2="-12.4464" y2="191.417" stroke="url(#paint0_linear)" stroke-opacity="0.29" stroke-width="4" stroke-dasharray="7 7"/>
<line x1="877.309" y1="122.086" x2="-12.4464" y2="122.086" stroke="url(#paint1_linear)" stroke-opacity="0.29" stroke-width="4" stroke-dasharray="7 7"/>
<line x1="877.309" y1="62.5156" x2="-12.4464" y2="62.5156" stroke="url(#paint2_linear)" stroke-opacity="0.29" stroke-width="4" stroke-dasharray="7 7"/>
<line x1="877.309" y1="2" x2="-12.4464" y2="2" stroke="url(#paint3_linear)" stroke-opacity="0.29" stroke-width="4" stroke-dasharray="7 7"/>
<g opacity="0.1">
<path opacity="0.1" d="M1054.53 523.577H1047.11V536.738H1054.53V523.577Z" fill="#6A8FF2"/>
</g>
<g opacity="0.1">
<path opacity="0.1" d="M765.745 523.577H758.329V536.738H765.745V523.577Z" fill="#6A8FF2"/>
</g>
<g opacity="0.1">
<path opacity="0.1" d="M477.383 523.577H469.966V536.738H477.383V523.577Z" fill="#6A8FF2"/>
</g>
<g opacity="0.1">
<path opacity="0.1" d="M192.189 523.577H184.772V536.738H192.189V523.577Z" fill="#6A8FF2"/>
</g>
<g opacity="0.1">
<path opacity="0.1" d="M1106 437.871H1098.58V451.032H1106V437.871Z" fill="#6A8FF2"/>
</g>
<g opacity="0.1">
<path opacity="0.1" d="M817.215 437.871H809.798V451.032H817.215V437.871Z" fill="#6A8FF2"/>
</g>
<g opacity="0.1">
<path opacity="0.1" d="M528.852 437.871H521.435V451.032H528.852V437.871Z" fill="#6A8FF2"/>
</g>
<g opacity="0.1">
<path opacity="0.1" d="M243.658 437.871H236.241V451.032H243.658V437.871Z" fill="#6A8FF2"/>
</g>
<g opacity="0.1">
<path opacity="0.1" d="M1106 334.052H1098.58V347.213H1106V334.052Z" fill="#6A8FF2"/>
</g>
<g opacity="0.1">
<path opacity="0.1" d="M817.215 334.052H809.798V347.213H817.215V334.052Z" fill="#6A8FF2"/>
</g>
<g opacity="0.1">
<path opacity="0.1" d="M528.852 334.052H521.435V347.213H528.852V334.052Z" fill="#6A8FF2"/>
</g>
<g opacity="0.1">
<path opacity="0.1" d="M243.658 334.052H236.241V347.213H243.658V334.052Z" fill="#6A8FF2"/>
</g>
<g opacity="0.1">
<path opacity="0.1" d="M1106 224.7H1098.58V237.861H1106V224.7Z" fill="#6A8FF2"/>
</g>
<g opacity="0.1">
<path opacity="0.1" d="M817.215 224.7H809.798V237.861H817.215V224.7Z" fill="#6A8FF2"/>
</g>
<g opacity="0.1">
<path opacity="0.1" d="M528.852 224.7H521.435V237.861H528.852V224.7Z" fill="#6A8FF2"/>
</g>
<g opacity="0.1">
<path opacity="0.1" d="M243.658 224.7H236.241V237.861H243.658V224.7Z" fill="#6A8FF2"/>
</g>
<path d="M-104 523.577L184.772 310.413L469.966 414.231L758.329 201.061L1047.11 97.2497" stroke="url(#paint4_linear)" stroke-width="2" stroke-miterlimit="10"/>
<path d="M-52.5308 334.053L236.241 437.871L521.435 224.701L809.798 334.053L1098.58 11.5374" stroke="url(#paint5_linear)" stroke-width="2" stroke-miterlimit="10"/>
<path d="M-52.5308 437.87L236.241 120.889L521.435 334.052L817.208 11.5367L1098.58 10.8456" stroke="url(#paint6_linear)" stroke-width="4" stroke-miterlimit="10"/>
<path opacity="0.5" d="M-47.0682 581.505L469.966 414.231H765.739L1054.52 201.061" stroke="url(#paint7_linear)" stroke-width="3" stroke-miterlimit="10"/>
<path d="M474.081 422.725C478.349 422.725 481.809 419.378 481.809 415.249C481.809 411.121 478.349 407.774 474.081 407.774C469.813 407.774 466.352 411.121 466.352 415.249C466.352 419.378 469.813 422.725 474.081 422.725Z" fill="#03E6A7"/>
<path d="M521.435 341.528C525.703 341.528 529.163 338.181 529.163 334.052C529.163 329.924 525.703 326.577 521.435 326.577C517.167 326.577 513.706 329.924 513.706 334.052C513.706 338.181 517.167 341.528 521.435 341.528Z" fill="#6B92F1"/>
<path d="M521.435 231.454C525.703 231.454 529.163 228.107 529.163 223.978C529.163 219.85 525.703 216.503 521.435 216.503C517.167 216.503 513.706 219.85 513.706 223.978C513.706 228.107 517.167 231.454 521.435 231.454Z" fill="#8AD3DF"/>
<g opacity="0.1">
<path opacity="0.1" d="M1054.53 523.577H1047.11V536.738H1054.53V523.577Z" fill="#6A8FF2"/>
</g>
<g opacity="0.1">
<path opacity="0.1" d="M765.745 523.577H758.329V536.738H765.745V523.577Z" fill="#6A8FF2"/>
</g>
<g opacity="0.1">
<path opacity="0.1" d="M477.383 523.577H469.966V536.738H477.383V523.577Z" fill="#6A8FF2"/>
</g>
<g opacity="0.1">
<path opacity="0.1" d="M192.189 523.577H184.772V536.738H192.189V523.577Z" fill="#6A8FF2"/>
</g>
<g opacity="0.1">
<path opacity="0.1" d="M1106 437.871H1098.58V451.032H1106V437.871Z" fill="#6A8FF2"/>
</g>
<g opacity="0.1">
<path opacity="0.1" d="M817.215 437.871H809.798V451.032H817.215V437.871Z" fill="#6A8FF2"/>
</g>
<g opacity="0.1">
<path opacity="0.1" d="M528.852 437.871H521.435V451.032H528.852V437.871Z" fill="#6A8FF2"/>
</g>
<g opacity="0.1">
<path opacity="0.1" d="M243.658 437.871H236.241V451.032H243.658V437.871Z" fill="#6A8FF2"/>
</g>
<g opacity="0.1">
<path opacity="0.1" d="M1106 224.7H1098.58V237.861H1106V224.7Z" fill="#6A8FF2"/>
</g>
<g opacity="0.1">
<path opacity="0.1" d="M817.215 224.7H809.798V237.861H817.215V224.7Z" fill="#6A8FF2"/>
</g>
<g opacity="0.1">
<path opacity="0.1" d="M528.852 224.7H521.435V237.861H528.852V224.7Z" fill="#6A8FF2"/>
</g>
<g opacity="0.1">
<path opacity="0.1" d="M243.658 224.7H236.241V237.861H243.658V224.7Z" fill="#6A8FF2"/>
</g>
<path d="M474.081 422.725C478.349 422.725 481.809 419.378 481.809 415.249C481.809 411.121 478.349 407.774 474.081 407.774C469.813 407.774 466.352 411.121 466.352 415.249C466.352 419.378 469.813 422.725 474.081 422.725Z" fill="#ACF4E0"/>
<path d="M521.435 341.528C525.703 341.528 529.163 338.181 529.163 334.052C529.163 329.924 525.703 326.577 521.435 326.577C517.167 326.577 513.706 329.924 513.706 334.052C513.706 338.181 517.167 341.528 521.435 341.528Z" fill="#C0D1FB"/>
<path d="M521.435 231.454C525.703 231.454 529.163 228.107 529.163 223.978C529.163 219.85 525.703 216.503 521.435 216.503C517.167 216.503 513.706 219.85 513.706 223.978C513.706 228.107 517.167 231.454 521.435 231.454Z" fill="#8AD3DF"/>
<path d="M236.241 447.124C240.51 447.124 243.97 443.777 243.97 439.649C243.97 435.52 240.51 432.173 236.241 432.173C231.973 432.173 228.513 435.52 228.513 439.649C228.513 443.777 231.973 447.124 236.241 447.124Z" fill="#8AD3DF"/>
</g>
<defs>
<linearGradient id="paint0_linear" x1="19.3676" y1="189.092" x2="809.419" y2="189.107" gradientUnits="userSpaceOnUse">
<stop stop-color="#C4C4C4" stop-opacity="0.99"/>
<stop offset="1" stop-color="#C4C4C4" stop-opacity="0"/>
</linearGradient>
<linearGradient id="paint1_linear" x1="19.3676" y1="119.761" x2="809.419" y2="119.776" gradientUnits="userSpaceOnUse">
<stop stop-color="#C4C4C4" stop-opacity="0.99"/>
<stop offset="1" stop-color="#C4C4C4" stop-opacity="0"/>
</linearGradient>
<linearGradient id="paint2_linear" x1="19.3676" y1="60.1907" x2="809.419" y2="60.2056" gradientUnits="userSpaceOnUse">
<stop stop-color="#C4C4C4" stop-opacity="0.99"/>
<stop offset="1" stop-color="#C4C4C4" stop-opacity="0"/>
</linearGradient>
<linearGradient id="paint3_linear" x1="19.3676" y1="-0.324935" x2="809.419" y2="-0.310062" gradientUnits="userSpaceOnUse">
<stop stop-color="#C4C4C4" stop-opacity="0.99"/>
<stop offset="1" stop-color="#C4C4C4" stop-opacity="0"/>
</linearGradient>
<linearGradient id="paint4_linear" x1="244.27" y1="362.43" x2="840.724" y2="239.105" gradientUnits="userSpaceOnUse">
<stop stop-color="#27B699"/>
<stop offset="1" stop-color="#03E6A7" stop-opacity="0"/>
</linearGradient>
<linearGradient id="paint5_linear" x1="156.753" y1="290.474" x2="750.38" y2="307.061" gradientUnits="userSpaceOnUse">
<stop stop-color="#8AD3DF"/>
<stop offset="1" stop-color="#8AD3DF" stop-opacity="0"/>
</linearGradient>
<linearGradient id="paint6_linear" x1="143.625" y1="250.969" x2="634.798" y2="196.725" gradientUnits="userSpaceOnUse">
<stop stop-color="#6B92F1"/>
<stop offset="1" stop-color="#6B92F1" stop-opacity="0"/>
</linearGradient>
<linearGradient id="paint7_linear" x1="861.264" y1="253.791" x2="362.076" y2="479.012" gradientUnits="userSpaceOnUse">
<stop stop-color="#6A8FF2" stop-opacity="0"/>
<stop offset="1" stop-color="#6A8FF2"/>
</linearGradient>
</defs>
</svg>
