<svg width="1103" height="744" viewBox="0 0 1103 744" fill="none" xmlns="http://www.w3.org/2000/svg">
<path opacity="0.95" d="M1107 0V744H0C10.784 731.37 18.5294 717.917 25.9769 705.464C46.9492 670.393 116.241 606.596 235.044 638.847C351.166 670.393 405.443 604.423 405.324 549.555C405.324 544.151 404.788 538.923 403.775 533.812C392.097 477.065 327.691 424.841 281.874 382.251C236.057 339.72 225.451 281.387 241.538 231.747C263.821 162.957 385.603 87.0007 533.481 144.923C690.594 206.428 835.374 249.782 983.609 151.737C1055.28 104.33 1090.14 46.7607 1107 0Z" fill="url(#paint0_linear)"/>
<defs>
<linearGradient id="paint0_linear" x1="1132" y1="701.309" x2="262.267" y2="192.027" gradientUnits="userSpaceOnUse">
<stop stop-color="#A38BCE"/>
<stop offset="1" stop-color="#33146B"/>
</linearGradient>
</defs>
</svg>
