<svg width="884" height="812" viewBox="0 0 884 812" fill="none" xmlns="http://www.w3.org/2000/svg">
<path opacity="0.75" d="M438.144 769.416C505.686 728.743 580.832 723.427 660.168 736.399C739.44 749.372 805.758 751.711 857.703 690.41C909.584 629.109 890.249 513.631 749.558 485.187C615.506 458.072 593.142 369.071 569.361 305.909C540.552 229.242 454.062 197.396 364.672 212.761C275.218 228.073 250.728 282.356 216.119 366.093C181.51 449.831 140.714 460.198 80.5837 485.187C6.98353 515.864 -55.5315 608.533 79.1658 660.903C255.046 729.328 241.705 887.659 438.144 769.416Z" fill="url(#paint0_linear)"/>
<path d="M386.373 156.848C384.956 151.38 382.767 146.233 379.998 141.472L386.502 131.693L377.486 122.686L368.471 113.679L358.683 120.177C353.918 117.347 348.766 115.224 343.292 113.808L340.974 102.292H328.224H315.474L313.155 113.808C307.682 115.224 302.53 117.411 297.765 120.177L287.977 113.679L278.961 122.686L269.946 131.693L276.45 141.472C273.616 146.233 271.491 151.38 270.075 156.848L258.548 159.164V171.902V184.641L270.075 186.957C271.491 192.425 273.681 197.572 276.45 202.333L269.946 212.112L278.961 221.119L287.977 230.125L297.765 223.628C302.53 226.458 307.682 228.581 313.155 229.997L315.474 241.513H328.224H340.974L343.292 229.997C348.766 228.581 353.918 226.394 358.683 223.628L368.471 230.125L377.486 221.119L386.502 212.112L379.998 202.333C382.831 197.572 384.956 192.425 386.373 186.957L397.9 184.641V171.902V159.164L386.373 156.848ZM328.224 216.551C303.56 216.551 283.533 196.543 283.533 171.902C283.533 147.262 303.56 127.254 328.224 127.254C352.887 127.254 372.914 147.262 372.914 171.902C372.914 196.543 352.887 216.551 328.224 216.551Z" fill="url(#paint1_linear)"/>
<path d="M286.367 72.0547C285.465 68.5163 284.049 65.2353 282.245 62.1472L286.431 55.8424L280.636 50.0523L274.84 44.2621L268.529 48.4439C265.503 46.6425 262.154 45.2272 258.612 44.3265L257.131 36.928H248.953H240.71L239.229 44.3908C235.688 45.2915 232.403 46.7069 229.312 48.5082L223.002 44.3265L217.206 50.1166L211.41 55.9067L215.596 62.2115C213.793 65.2353 212.376 68.5807 211.475 72.1191L204.069 73.5988V81.7693V89.9398L211.475 91.4195C212.376 94.9579 213.793 98.239 215.596 101.327L211.41 107.632L217.206 113.422L223.002 119.212L229.312 115.03C232.339 116.832 235.688 118.247 239.229 119.148L240.71 126.546H248.889H257.067L258.548 119.148C262.09 118.247 265.374 116.832 268.465 115.03L274.776 119.212L280.571 113.422L286.367 107.632L282.181 101.327C283.984 98.3033 285.401 94.9579 286.302 91.4195L293.708 89.9398V81.7693V73.5988L286.367 72.0547ZM248.953 110.463C233.047 110.463 220.168 97.5956 220.168 81.705C220.168 65.8143 233.047 52.9473 248.953 52.9473C264.859 52.9473 277.738 65.8143 277.738 81.705C277.673 97.5956 264.794 110.463 248.953 110.463Z" fill="url(#paint2_linear)"/>
<path d="M450.06 620.637H515.422C592.31 620.637 654.645 558.361 654.645 481.546V305.268C654.645 228.453 592.31 166.177 515.422 166.177H450.06C373.172 166.177 310.837 228.453 310.837 305.268V481.546C310.773 558.361 373.107 620.637 450.06 620.637Z" fill="url(#paint3_linear)"/>
<path d="M424.559 73.5348L409.748 64.9783V70.6397H387.66V76.4299H409.748V82.0913L424.559 73.5348Z" fill="#F1CC5E"/>
<path d="M387.66 54.7489L402.536 63.3054V57.644H424.559V51.8538H402.536V46.1924L387.66 54.7489Z" fill="#F1CC5E"/>
<path d="M639.64 72.8268C637.837 72.6982 636.163 71.9905 634.875 70.8968C633.394 69.6101 632.621 67.9374 632.621 66.136C632.363 62.5976 631.269 58.9949 630.367 56.4858C626.053 53.0117 623.734 47.7363 624.121 42.2035C624.829 33.068 632.814 26.1841 641.958 26.8918C651.102 27.5995 657.993 35.577 657.284 44.7126C656.898 49.6663 654.322 54.1698 650.265 57.0648C649.042 60.4102 648.269 63.4983 648.076 66.2647C648.011 69.9318 644.534 72.8912 640.284 72.8268C640.091 72.8912 639.898 72.8268 639.64 72.8268ZM641.894 28.3072C633.458 27.6638 626.117 33.9687 625.473 42.3965C625.087 47.4789 627.276 52.4327 631.333 55.5851L631.462 55.7138L631.526 55.9068C632.492 58.4802 633.651 62.4046 633.909 66.136V66.2004C633.909 67.6157 634.553 68.9024 635.712 69.9318C636.935 70.9611 638.545 71.5401 640.22 71.5401C643.761 71.5401 646.595 69.2241 646.659 66.2647C646.917 63.3696 647.69 60.0886 649.042 56.4858L649.106 56.2928L649.299 56.1641C653.163 53.5264 655.546 49.3447 655.932 44.7126C656.576 36.2847 650.265 28.9505 641.894 28.3072Z" fill="#F1CC5E"/>
<path d="M636.549 67.1654L634.424 49.0229L638.159 52.1754L640.541 49.602L642.538 51.9824L646.079 49.0229L643.954 67.1654L642.602 67.0367L644.341 52.304L642.409 53.9124L640.477 51.6607L638.288 54.0411L636.163 52.2397L637.901 67.0367L636.549 67.1654Z" fill="#F1CC5E"/>
<path d="M646.171 71.2601L634.387 71.1802L634.354 75.941L646.139 76.0209L646.171 71.2601Z" fill="#F1CC5E"/>
<path d="M648.113 66.3828L632.529 66.2783L632.478 73.9342L648.062 74.0387L648.113 66.3828Z" fill="#F1CC5E"/>
<path d="M539.376 13.7676C539.247 13.446 539.054 12.9956 538.732 12.5453C538.41 12.0949 538.024 11.5803 537.573 11.0656C537.122 10.5509 536.543 10.0362 535.963 9.58588C535.383 9.0712 534.675 8.68519 533.967 8.29918L530.618 16.0837L531.262 16.534C532.486 17.4347 533.516 18.3354 534.482 19.1718C535.383 20.0724 536.092 20.9088 536.607 21.8095C537.122 22.7102 537.38 23.6752 537.444 24.7045C537.508 25.7339 537.251 26.8276 536.736 28.0499C536.156 29.401 535.448 30.4303 534.546 31.138C533.645 31.8457 532.679 32.3604 531.584 32.6177C530.489 32.8751 529.266 32.9394 528.042 32.7464C526.819 32.5534 525.531 32.2317 524.243 31.717L522.569 35.6414L520.637 34.8051L522.376 30.752C520.637 29.8513 519.027 28.7576 517.675 27.4709C516.322 26.1842 515.163 24.7045 514.262 23.0962L517.739 20.3298C517.868 20.7801 518.125 21.2305 518.512 21.8095C518.898 22.3885 519.349 22.9675 519.929 23.6109C520.508 24.2542 521.152 24.8332 521.86 25.4766C522.569 26.1199 523.406 26.6346 524.243 27.1493L527.592 19.3648C527.463 19.2361 527.334 19.1074 527.205 19.0431C527.076 18.9144 526.948 18.8501 526.819 18.7214C525.66 17.8207 524.629 16.92 523.792 16.0837C522.955 15.2473 522.376 14.4753 521.925 13.639C521.538 12.8026 521.281 11.9663 521.281 11.0656C521.281 10.1649 521.474 9.19987 521.925 8.17051C522.44 6.94815 523.148 5.9188 523.985 5.14678C524.823 4.37476 525.788 3.79575 526.883 3.47408C527.978 3.1524 529.073 2.9594 530.296 3.02373C531.52 3.08807 532.743 3.34541 534.031 3.79575L535.641 0L537.573 0.836352L535.963 4.6321C537.573 5.40412 538.925 6.43347 540.084 7.52716C541.243 8.68519 542.145 9.84322 542.853 11.0656L539.376 13.7676ZM526.561 9.39287C526.11 10.4222 526.11 11.3872 526.626 12.2236C527.141 13.06 528.042 14.025 529.395 15.0543L532.614 7.65583C531.069 7.07682 529.781 6.94815 528.751 7.26983C527.72 7.5915 527.012 8.29918 526.561 9.39287ZM532.035 26.5702C532.486 25.4766 532.421 24.4472 531.777 23.4822C531.133 22.5172 530.103 21.4878 528.751 20.3941L525.531 27.8569C527.141 28.5003 528.493 28.7576 529.652 28.5646C530.747 28.3073 531.584 27.6639 532.035 26.5702Z" fill="#F1CC5E"/>
<path d="M709.702 102.035C634.682 106.86 633.265 192.039 633.265 192.039V597.67H332.151V192.039C332.151 192.039 331.829 107.117 408.975 102.035H709.702Z" fill="url(#paint4_linear)"/>
<path d="M578.529 207.994H371.69V226.201H578.529V207.994Z" fill="#E0E8EE"/>
<path d="M548.263 250.134H371.69V263.065H548.263V250.134Z" fill="#E0E8EE"/>
<path d="M460.492 284.231H371.69V303.402H460.492V284.231Z" fill="#E0E8EE"/>
<path d="M578.529 284.231H486.701V303.402H578.529V284.231Z" fill="#E0E8EE"/>
<path d="M513.103 321.223H371.69V334.927H513.103V321.223Z" fill="#E0E8EE"/>
<path d="M531.005 355.385H371.69V362.977H531.005V355.385Z" fill="#E0E8EE"/>
<path d="M563.332 389.547H371.69V397.138H563.332V389.547Z" fill="#E0E8EE"/>
<path d="M461.072 466.105H371.111V423.129H461.072V466.105ZM372.335 464.947H459.913V424.352H372.335V464.947Z" fill="#E0E8EE"/>
<path d="M563.331 423.773H482.708V433.616H563.331V423.773Z" fill="#E0E8EE"/>
<path d="M539.827 444.617H482.708V454.461H539.827V444.617Z" fill="#E0E8EE"/>
<path d="M529.588 492.097H371.69V499.688H529.588V492.097Z" fill="#E0E8EE"/>
<path d="M462.488 526.323H371.69V533.914H462.488V526.323Z" fill="#E0E8EE"/>
<path d="M602.612 546.395H545.88V489.716H602.612V546.395ZM551.225 541.055H597.332V494.992H551.225V541.055Z" fill="url(#paint5_linear)"/>
<path d="M575.116 529.925L555.218 511.139L561.271 504.642L575.567 518.088L606.734 492.482L612.401 499.366L575.116 529.925Z" fill="url(#paint6_linear)"/>
<path d="M374.716 534.236C374.716 534.236 375.94 535.394 376.391 536.487C376.713 537.388 377.872 538.482 378.387 539.189C378.902 539.833 380.898 542.921 381.22 543.757C381.349 544.079 381.156 546.524 381.478 547.231C381.8 547.939 382.637 549.226 381.993 549.483C381.349 549.74 380.319 548.775 380.319 548.775C380.319 548.775 380.576 549.419 380.126 549.805C379.224 550.512 378.516 550.255 378.516 550.255C378.516 550.255 378.323 551.091 377.872 551.284C376.841 551.735 376.198 551.477 376.198 551.477C376.198 551.477 375.811 551.992 375.103 552.185C374.137 552.378 373.493 551.67 373.493 551.67C373.493 551.67 372.334 552.185 371.819 551.735C371.303 551.284 371.175 550.641 370.917 550.191C370.66 549.74 369.436 545.108 370.016 541.377C370.66 537.71 367.762 534.943 367.762 534.943L374.716 534.236Z" fill="#DBA585"/>
<path d="M384.891 562.543H368.986C367.376 562.543 366.023 561.256 366.023 559.583V549.547C366.023 547.939 367.311 546.588 368.986 546.588H384.891C386.501 546.588 387.854 547.874 387.854 549.547V559.583C387.854 561.256 386.501 562.543 384.891 562.543ZM368.986 548.646C368.47 548.646 368.02 549.097 368.02 549.611V559.648C368.02 560.162 368.47 560.613 368.986 560.613H384.891C385.406 560.613 385.857 560.162 385.857 559.648V549.611C385.857 549.097 385.406 548.646 384.891 548.646H368.986Z" fill="#1A232F"/>
<path d="M406.851 558.232H347.092V601.015H406.851V558.232Z" fill="#5A5C5A"/>
<path d="M351.599 443.781C351.599 443.781 348.508 443.845 347.22 452.981C345.932 462.116 348.379 465.976 348.701 469.772C349.023 473.568 353.467 498.144 353.595 499.237C353.724 500.331 354.304 513.391 356.042 516.865C357.781 520.339 370.596 540.026 370.789 540.991C370.982 541.956 377.035 537.581 377.035 537.581C377.035 537.581 366.99 516.543 366.41 514.163C365.831 511.783 361.774 499.495 362.418 495.763C363.062 492.032 360.615 471.38 360.872 469.064C361.001 466.748 357.459 445.196 351.599 443.781Z" fill="#DBA585"/>
<path d="M351.598 443.781C351.598 443.781 348.507 443.845 347.219 452.981C345.931 462.116 347.09 465.397 347.863 469.386C348.636 473.117 351.147 496.021 351.276 497.114C351.405 498.208 354.431 511.976 356.041 516.865C357.265 520.532 368.663 539.897 368.856 540.862C369.049 541.827 377.743 536.358 377.743 536.358C377.743 536.358 366.602 514.613 366.023 512.169C365.443 509.788 363.576 501.489 363.511 497.693C363.447 493.254 360.613 471.316 360.871 469.064C361 466.748 360.098 446.933 351.598 443.781Z" fill="#414D99"/>
<path d="M325.97 657.051C325.97 657.051 331.315 664.964 333.44 666.894C333.44 666.894 338.398 668.631 338.72 671.976C338.913 674.164 338.72 677.702 333.053 677.831C327.386 677.959 323.78 676.029 322.75 672.619C321.72 669.21 319.788 667.666 319.788 667.666V674.807H318.5C318.5 674.807 318.178 667.923 318.114 666.636C318.049 665.35 317.212 660.46 319.917 658.337C322.557 656.15 325.97 657.051 325.97 657.051Z" fill="#2E3048"/>
<path d="M362.095 650.746C362.095 650.746 362.996 652.933 364.735 655.185C366.023 656.858 370.016 663.677 371.754 664.192C373.493 664.642 378.902 665.607 379.417 668.631C379.868 671.655 380.126 673.777 374.781 674.035C369.436 674.292 365.959 674.614 363.383 670.882C360.807 667.151 356.75 664.449 356.75 664.449V674.164H354.754C354.754 674.164 353.788 663.999 353.273 663.291C352.693 662.583 351.276 654.799 356.235 650.746C361.129 646.693 362.095 650.746 362.095 650.746Z" fill="#2E3048"/>
<path d="M322.363 504.384C322.363 504.384 315.601 513.134 313.798 523.492C311.995 533.85 314.893 568.655 314.829 573.801C314.764 578.948 309.999 591.686 310.901 601.337C311.866 610.987 319.852 658.273 319.852 658.273L325.969 657.051C325.969 657.051 325.39 608.027 325.969 603.974C326.549 599.921 327.772 585.124 328.03 583.452C328.287 581.779 343.163 537.967 343.163 530.504C343.163 523.041 338.591 492.225 322.363 504.384Z" fill="#DBA585"/>
<path d="M356.171 507.858C356.171 507.858 367.247 549.998 368.535 555.852C369.823 561.706 371.755 566.532 371.755 568.976C371.755 574.702 369.63 583.966 369.63 583.966L362.096 650.746H356.171C356.171 650.746 352.436 611.759 351.857 603.91C351.277 596.061 356.171 583.902 354.948 580.557C353.724 577.211 335.758 538.739 335.758 538.739C335.758 538.739 322.106 495.57 356.171 507.858Z" fill="#DBA585"/>
<path d="M334.34 667.28C334.34 667.28 329.704 669.66 325.454 666.508C321.268 663.355 319.787 658.273 319.787 658.273L325.905 657.051L334.34 667.28Z" fill="#DBA585"/>
<path d="M371.755 664.127C371.755 664.127 366.989 665.35 365.122 664.127C363.319 662.905 357.072 652.418 355.012 651.775C355.012 651.775 357.008 647.722 362.031 650.681C362.095 650.746 370.402 662.39 371.755 664.127Z" fill="#DBA585"/>
<path d="M370.338 562.543C370.338 562.543 350.054 574.509 311.931 574.509C311.931 574.509 309.806 530.375 315.28 517.959C320.818 505.542 357.588 513.262 357.588 513.262C357.588 513.262 369.05 553.407 370.338 562.543Z" fill="#363957"/>
<path d="M342.583 440.5C342.583 440.5 348.507 443.266 350.568 443.717C352.629 444.103 360.549 454.46 361.966 458.192C363.383 461.988 361.966 467.585 359.068 474.276C356.17 480.902 358.875 483.154 357.587 489.78C356.299 496.407 355.14 510.496 355.398 514.163C355.655 517.83 322.234 518.538 314.571 511.847C314.571 511.847 322.234 500.395 323.2 498.723C324.166 497.114 323.393 488.172 322.492 485.856C321.59 483.54 315.601 464.046 315.601 464.046C315.601 464.046 310.707 449.056 315.15 445.647C319.014 442.623 329.511 441.594 331.378 440.95C333.246 440.243 338.719 439.921 342.583 440.5Z" fill="#E6D8D1"/>
<path d="M344.451 453.688L348.057 449.507L344.966 438.441C344.966 438.441 343.871 444.553 344.451 453.688Z" fill="#CFC3BC"/>
<path d="M335.114 398.618C338.591 397.395 351.535 394.372 354.561 410.841C357.588 427.311 348.508 439.02 340.136 435.932C331.765 432.844 326.613 421.457 326.098 412.771C325.647 404.022 330.735 400.226 335.114 398.618Z" fill="#DBA585"/>
<path d="M354.561 410.841C354.561 410.841 355.205 396.752 341.167 396.238C327.129 395.723 323.394 407.303 324.488 415.667C325.648 424.094 331.443 428.534 331.443 428.534C331.443 428.534 330.928 421.714 333.633 419.977C336.337 418.24 347.284 414.702 351.985 406.467C352.114 406.531 354.304 409.104 354.561 410.841Z" fill="#2C323D"/>
<path d="M324.873 416.611C329.772 418.221 335.238 414.985 337.083 409.382C338.928 403.779 336.453 397.932 331.554 396.322C326.656 394.712 321.189 397.949 319.344 403.552C317.499 409.154 319.975 415.001 324.873 416.611Z" fill="#2C323D"/>
<path d="M345.416 433.68C345.416 433.68 344.257 444.489 344.515 448.027C344.515 448.027 338.397 454.139 331.378 440.886C331.378 440.886 334.34 435.417 332.086 427.89C329.897 420.428 345.416 433.68 345.416 433.68Z" fill="#DBA585"/>
<path d="M344.451 448.027V453.689L337.432 448.413L344.451 448.027Z" fill="#DBA585"/>
<path d="M344.451 453.688L341.553 450.021L331.636 440.178L328.48 443.266L344.451 453.688Z" fill="#CFC3BC"/>
<path d="M330.284 441.143C330.284 441.143 338.591 453.688 338.977 459.221C339.364 464.754 335.886 506.121 333.117 519.438C330.348 532.756 310.192 517.959 310.192 517.959C310.192 517.959 323.715 496.085 318.499 478.586C313.283 461.087 311.416 454.074 311.416 454.074C311.416 454.074 313.219 444.36 319.53 442.944C325.132 441.786 330.284 441.143 330.284 441.143Z" fill="#414D99"/>
<path d="M362.481 459.864C362.481 459.864 363.962 465.14 358.167 476.849C358.167 476.849 358.231 491.774 358.424 496.471C358.618 501.167 359.712 518.795 359.712 518.795L353.981 522.14C352.822 522.848 351.405 521.883 351.534 520.532C353.144 507.086 358.489 456.133 347.026 442.43L351.598 443.781C351.598 443.781 359.712 450.472 362.481 459.864Z" fill="#414D99"/>
<path d="M335.114 417.018C334.599 415.731 332.925 415.345 331.894 416.117C330.929 416.824 330.349 419.076 331.894 421.907C333.44 424.802 338.978 426.796 335.114 417.018Z" fill="#DBA585"/>
<path d="M348.057 449.442L352.564 450.729L344.966 438.441L348.057 449.442Z" fill="#F3E4DC"/>
<path d="M341.553 450.021L337.432 455.426L328.932 441.336L331.636 440.178L341.553 450.021Z" fill="#F3E4DC"/>
<path d="M345.16 436.061L344.966 438.248C344.966 438.248 340.072 439.149 333.697 431.364C333.697 431.364 338.205 436.897 345.16 436.061Z" fill="#997761"/>
<path d="M370.274 502.326C370.274 502.326 373.172 504.191 374.782 503.162C376.199 502.261 378.646 502.133 379.418 502.133C380.449 502.068 383.475 500.782 383.54 502.068C383.604 503.355 378.646 504.449 377.615 504.899C376.649 505.349 381.028 507.472 381.479 508.502C381.994 509.531 378.002 516.608 375.168 514.742C372.335 512.941 370.467 509.081 369.952 508.888C369.373 508.695 367.827 507.665 367.827 507.665L370.274 502.326Z" fill="#DBA585"/>
<path d="M315.795 444.939C315.795 444.939 319.788 443.974 323.201 447.641C326.614 451.308 328.352 457.42 329.254 459.35C330.155 461.344 341.553 479.487 342.197 479.937C342.841 480.323 354.432 489.716 359.713 494.67C364.993 499.688 375.168 505.221 375.168 505.221L371.304 510.625C371.304 510.625 340.201 494.091 336.273 487.979C332.345 481.931 316.632 465.14 316.632 465.14C316.632 465.14 307.295 451.051 315.795 444.939Z" fill="#DBA585"/>
<path d="M380.899 507.923C380.899 507.923 389.206 514.034 389.464 514.935C389.657 515.836 389.335 516.222 388.498 515.707C387.725 515.192 380.255 509.981 380.255 509.981C380.255 509.981 388.884 518.924 389.206 519.567C389.399 519.953 388.755 520.854 388.305 520.597C387.854 520.339 378.774 511.976 378.774 511.976C378.774 511.976 386.824 520.339 386.952 520.983C387.017 521.562 386.244 522.205 385.6 521.626C384.956 521.047 377.036 513.713 377.036 513.713C377.036 513.713 382.509 520.146 382.252 520.725C382.123 521.111 381.608 521.883 380.255 520.146C378.903 518.409 375.232 514.742 375.232 514.742L380.899 507.923Z" fill="#DBA585"/>
<path d="M359.519 473.954C359.519 473.954 359.777 492.611 358.682 501.618L358.167 476.913L359.519 473.954Z" fill="#2F386C"/>
<path d="M317.856 443.588C317.856 443.588 320.11 443.974 323.587 447.641C327 451.308 328.739 457.42 329.64 459.35C330.542 461.344 341.94 479.486 342.584 479.937C343.228 480.323 352.758 486.885 357.974 491.839C363.19 496.857 372.978 502.776 372.978 502.776L367.956 510.238C367.956 510.238 340.523 495.055 336.209 489.265C331.572 483.089 315.022 465.011 315.022 465.011C315.022 465.011 304.268 448.541 317.856 443.588Z" fill="#414D99"/>
<path d="M380.384 548.26C380.384 548.26 379.29 544.079 378.002 543.5C376.649 542.856 376.971 544.4 376.971 544.4C376.971 544.4 376.714 542.921 375.426 542.985C374.202 543.049 374.653 544.851 374.653 544.851C374.653 544.851 374.138 543.757 372.979 544.272C371.82 544.786 372.528 546.202 372.528 546.202C372.528 546.202 370.918 545.044 370.532 546.588C369.888 549.225 371.82 551.67 371.82 551.67C371.82 551.67 372.464 552.249 373.558 551.606C373.558 551.606 374.846 553.021 376.263 551.477C376.263 551.477 378.388 552.056 378.581 550.255C378.517 550.255 380.964 550.641 380.384 548.26Z" fill="#C99A7D"/>
<path d="M336.53 493.705L327.128 478.586C327.128 478.586 335.113 488.043 335.95 489.008C336.787 490.038 336.852 490.102 336.852 490.102C336.852 490.102 336.658 493.19 336.53 493.705Z" fill="#2F386C"/>
<path d="M608.408 301.859H522.44V366.322V379.961L535.577 366.322H608.408V301.859Z" fill="#F1CC5E"/>
<path d="M215.21 307.327H301.178V371.791V385.365L288.041 371.791H215.21V307.327Z" fill="#F1CC5E"/>
<path d="M564.426 355.385C562.687 355.256 561.013 354.613 559.789 353.519C558.373 352.297 557.6 350.624 557.6 348.887C557.342 345.477 556.312 341.939 555.41 339.494C551.225 336.149 548.971 331.002 549.357 325.662C550.001 316.784 557.793 310.093 566.68 310.801C575.566 311.444 582.263 319.229 581.555 328.107C581.169 332.932 578.721 337.307 574.729 340.073C573.505 343.354 572.797 346.378 572.604 349.016C572.54 352.554 569.191 355.449 565.07 355.385C564.812 355.449 564.619 355.449 564.426 355.385ZM566.551 312.088C558.373 311.444 551.225 317.621 550.645 325.791C550.259 330.745 552.384 335.57 556.312 338.658L556.441 338.787L556.505 338.98C557.407 341.489 558.566 345.285 558.823 348.952V349.016C558.823 350.367 559.467 351.654 560.562 352.619C561.721 353.648 563.331 354.163 565.005 354.163C568.418 354.163 571.187 351.911 571.252 349.08C571.509 346.25 572.282 343.033 573.57 339.559L573.634 339.366L573.827 339.237C577.562 336.664 579.881 332.611 580.267 328.107C580.847 319.872 574.729 312.731 566.551 312.088Z" fill="white"/>
<path d="M561.4 349.917L559.274 332.289L563.009 335.313L565.263 332.804L567.195 335.184L570.672 332.289L568.547 349.917L567.259 349.724L568.934 335.441L567.066 337.05L565.199 334.798L563.138 337.178L561.013 335.441L562.752 349.724L561.4 349.917Z" fill="white"/>
<path d="M570.761 353.887L559.299 353.811L559.268 358.443L570.73 358.52L570.761 353.887Z" fill="white"/>
<path d="M572.639 349.139L557.506 349.037L557.455 356.5L572.588 356.602L572.639 349.139Z" fill="white"/>
<path d="M268.787 330.745C268.465 330.359 268.014 330.037 267.37 329.587C266.726 329.201 266.018 328.751 265.245 328.429C264.408 328.043 263.506 327.721 262.541 327.464C261.575 327.207 260.544 327.014 259.514 326.949L259.45 337.95L260.48 338.143C262.412 338.594 264.15 339.108 265.696 339.688C267.241 340.267 268.529 340.974 269.624 341.811C270.719 342.647 271.491 343.612 272.071 344.834C272.651 346.057 272.973 347.472 272.908 349.209C272.908 351.075 272.586 352.683 271.878 354.034C271.17 355.385 270.268 356.479 269.044 357.38C267.821 358.28 266.469 358.924 264.859 359.374C263.249 359.824 261.575 360.017 259.772 360.082V365.679H257.002V359.953C254.427 359.76 251.98 359.245 249.726 358.409C247.408 357.573 245.283 356.415 243.415 354.87L246.184 349.788C246.57 350.238 247.15 350.689 247.858 351.203C248.631 351.718 249.468 352.168 250.499 352.683C251.464 353.133 252.559 353.584 253.783 353.905C254.942 354.291 256.23 354.549 257.518 354.677V343.548C257.324 343.483 257.067 343.419 256.874 343.355C256.616 343.29 256.423 343.226 256.23 343.162C254.362 342.647 252.688 342.132 251.271 341.553C249.855 340.974 248.695 340.331 247.794 339.559C246.892 338.787 246.184 337.886 245.669 336.792C245.218 335.763 244.961 334.476 244.961 332.997C244.961 331.26 245.283 329.716 245.862 328.365C246.442 327.014 247.343 325.856 248.438 324.891C249.533 323.925 250.821 323.153 252.302 322.639C253.783 322.124 255.393 321.738 257.196 321.609V316.205H259.965V321.609C262.283 321.738 264.408 322.253 266.34 323.025C268.272 323.797 270.01 324.762 271.491 325.856L268.787 330.745ZM251.207 332.032C251.207 333.511 251.722 334.669 252.752 335.377C253.783 336.149 255.393 336.792 257.518 337.371L257.582 326.885C255.393 327.014 253.783 327.464 252.752 328.365C251.722 329.33 251.207 330.552 251.207 332.032ZM266.533 349.788C266.533 348.244 265.889 347.022 264.666 346.25C263.442 345.478 261.703 344.706 259.45 344.062L259.385 354.613C261.639 354.613 263.442 354.163 264.666 353.326C265.953 352.554 266.533 351.332 266.533 349.788Z" fill="white"/>
<path d="M672.547 549.033C672.547 549.033 669.52 549.676 668.039 549.676C666.558 549.74 659.861 546.652 657.736 546.974C655.611 547.231 641.572 553.214 640.928 553.665C640.284 554.115 641.25 555.08 641.25 555.08L673.384 555.466L672.547 549.033Z" fill="#DBA585"/>
<path d="M629.853 559.68L683.365 560.084L683.402 555.195L629.89 554.79L629.853 559.68Z" fill="#363957"/>
<path d="M614.216 508.531L629.863 559.657L634.543 558.227L618.896 507.101L614.216 508.531Z" fill="#363957"/>
<path d="M727.54 658.53L729.601 662.969C729.601 662.969 738.294 659.753 738.358 659.624C738.423 659.495 735.976 653.448 735.976 653.448L727.54 658.53Z" fill="#525368"/>
<path d="M653.099 658.466L650.717 665.479C650.717 665.479 660.247 667.602 661.664 667.473C661.793 667.473 663.467 659.495 663.467 659.495L653.099 658.466Z" fill="#6A6B87"/>
<path d="M662.695 665.414C662.695 665.414 656.062 663.613 655.804 663.291C655.611 663.034 653.164 661.361 651.876 661.554C650.588 661.747 650.524 663.291 649.236 663.549C647.948 663.87 638.224 666.958 636.872 667.73C635.52 668.502 629.08 666.186 627.857 667.859C626.633 669.532 625.41 673.907 635.52 675.451C645.63 676.995 656.448 681.498 658.895 680.855C661.407 680.276 663.081 668.116 662.695 665.414Z" fill="#26283A"/>
<path d="M739.002 658.466C739.002 658.466 732.82 661.104 732.498 660.975C732.176 660.846 729.343 661.104 728.506 662.004C727.669 662.905 728.506 664.128 727.733 665.157C726.96 666.122 722.581 671.976 721.294 673.327C720.263 674.421 714.468 675.45 712.6 677.381C711.183 678.86 712.858 684.65 722.646 681.884C732.241 679.182 744.089 674.485 745.571 672.555C746.987 670.625 740.934 660.332 739.002 658.466Z" fill="#26283A"/>
<path d="M732.691 570.971C732.691 570.971 705.516 583.066 699.785 587.183C694.054 591.3 681.432 598.892 680.982 600.758C680.531 602.623 678.084 600.822 682.527 610.086C686.97 619.35 708.157 641.739 710.088 644.184C712.149 646.693 726.831 661.876 726.831 661.876L737.843 653.577C737.843 653.577 716.657 622.439 713.566 617.871C710.475 613.303 709.122 612.595 710.926 610.601C712.729 608.607 720.005 608.607 757.29 593.166C761.025 591.622 771.393 588.019 772.81 583.066C775.257 574.059 773.132 562.607 763.15 557.525C753.105 552.507 732.691 570.971 732.691 570.971Z" fill="#2E3048"/>
<path d="M719.748 483.669C720.006 483.862 720.264 484.312 720.521 484.955C720.908 485.856 721.294 487.143 721.745 488.494C722.968 492.804 724.063 498.337 724.063 498.337C724.063 498.337 739.582 485.406 737.393 484.569C735.203 483.733 733.593 480.001 733.593 480.001C733.593 480.001 718.139 482.189 719.748 483.669Z" fill="#DBA585"/>
<path d="M733.078 566.082C733.078 566.082 705.001 572.708 698.111 574.895C691.156 577.083 679.243 581.007 676.023 582.809C674.349 583.774 671.709 585.253 668.618 595.354C665.076 606.805 657.027 639.166 655.224 644.184C654.064 647.336 650.78 659.753 650.78 659.753L665.14 662.262C665.14 662.262 682.205 627.907 683.622 618.772C685.94 603.331 691.929 603.267 694.376 601.852C696.823 600.436 708.414 603.074 749.821 599.793C753.942 599.471 765.275 599.278 768.173 594.775C773.454 586.733 778.799 577.597 770.556 569.491C762.249 561.449 733.078 566.082 733.078 566.082Z" fill="#2E3048"/>
<path d="M714.274 451.18C714.274 451.18 709.445 459.543 710.539 461.859C711.634 464.111 705.452 469.644 706.483 470.866C707.513 472.024 709.574 473.439 709.574 473.825C709.509 474.147 711.377 485.084 713.759 485.341C716.142 485.599 732.434 484.762 733.786 479.68C735.139 474.597 739.131 463.467 740.033 461.344C740.934 459.221 731.532 443.202 714.274 451.18Z" fill="#DBA585"/>
<path d="M734.366 449.571C735.719 450.601 736.813 451.63 737.715 452.724C738.81 453.238 745.056 456.326 743.768 459.736C742.029 464.304 734.882 476.463 734.302 477.75C734.238 477.943 734.238 477.621 734.302 476.913C733.851 472.603 728.571 467.778 728.571 467.778L725.737 466.491C727.219 463.725 726.639 461.216 726.639 461.216C723.419 457.806 712.794 454.075 712.794 454.075C714.275 438.956 727.219 444.296 734.366 449.571Z" fill="#EECAA2"/>
<path d="M729.537 464.239C730.31 463.081 734.238 463.274 733.658 466.684C733.079 470.094 728.185 472.796 727.154 471.252C726.124 469.708 728.764 465.462 729.537 464.239Z" fill="#DBA585"/>
<path d="M737.457 484.569C737.457 484.569 757.162 496.021 761.605 516.029C766.049 536.037 774.098 571.164 774.227 575.346C774.227 575.346 747.567 562.543 733.143 566.081C733.143 566.081 724.063 533.464 719.298 525.744C714.532 518.023 721.616 499.945 721.616 499.945C721.616 499.945 728.377 489.073 737.457 484.569Z" fill="#6A98F2"/>
<path d="M809.258 493.512L793.417 540.026C793.288 540.348 793.224 540.734 793.224 541.12L789.424 602.238L723.097 603.717L703.778 674.035C703.199 676.158 703.585 678.474 704.873 680.276C705.71 681.498 706.934 682.527 708.608 682.72C712.794 683.235 797.989 682.72 797.989 682.72V679.182C797.989 677.445 796.508 676.03 794.769 676.03H714.983C713.695 676.03 712.407 675.451 711.57 674.421C711.119 673.842 710.733 673.07 710.862 672.234C711.184 669.982 728.184 612.724 728.184 612.724L792.322 611.566C795.22 611.502 797.602 609.25 797.731 606.419L800.5 540.669C800.5 540.219 800.565 539.833 800.693 539.447L813.637 494.992C813.637 494.992 814.989 491.904 812.478 491.582C810.16 491.26 809.516 492.74 809.258 493.512Z" fill="#5E5E5B"/>
<path d="M722.647 605.004C722.647 605.004 722.582 599.922 729.537 599.6C737.522 599.214 789.553 598.828 789.553 598.828L789.231 604.232L722.647 605.004Z" fill="#C59661"/>
<path d="M690.513 563.637V566.017H577.499V563.637C577.499 561.449 578.98 559.648 580.848 559.648H687.229C689.032 559.648 690.513 561.449 690.513 563.637Z" fill="#C59661"/>
<path d="M618.068 681.498H583.938V676.03H612.659C615.621 676.03 618.068 678.474 618.068 681.498Z" fill="#7B6F66"/>
<path d="M590.571 566.017H586.063V681.498H590.571V566.017Z" fill="#7B6F66"/>
<path d="M599.651 566.017H595.144V681.498H599.651V566.017Z" fill="#7B6F66"/>
<path d="M720.521 484.955C720.907 485.856 721.293 487.143 721.744 488.494C724.062 487.529 728.506 483.411 728.634 483.283C726.767 484.055 720.521 484.955 720.521 484.955Z" fill="#997761"/>
<path d="M642.603 566.017H561.851V563.637C561.851 561.449 563.718 559.648 566.101 559.648H629.981L642.603 566.017Z" fill="#CEAF8A"/>
<path d="M728.764 500.074C728.764 500.074 724.063 506.701 721.165 511.719C717.881 517.444 714.661 523.042 713.953 524.328C712.472 526.902 707.32 528.253 705.066 529.282C702.941 530.183 667.974 548.904 667.524 548.84C667.073 548.775 671.323 555.788 671.323 555.788C671.323 555.788 719.877 541.892 722.067 539.897C724.256 537.903 730.76 528.832 733.4 525.1C735.912 521.562 739.775 515.707 741.836 513.198C744.154 510.368 748.92 500.782 742.802 495.957C735.01 489.781 730.696 497.243 728.764 500.074Z" fill="#6A98F2"/>
<path d="M742.093 512.812C742.093 512.812 736.491 528.06 733.078 533.206C729.729 538.417 725.994 542.728 725.994 542.728L724.191 537.452C724.191 537.517 738.745 517.509 742.093 512.812Z" fill="#46688D"/>
<path d="M214.694 656.858C214.694 656.858 210.573 667.537 208.255 669.403C206.001 671.269 200.785 674.614 202.073 676.223C203.361 677.831 212.505 678.088 214.694 677.123C216.884 676.158 217.206 672.62 220.168 671.462C223.066 670.304 220.876 664.321 220.554 662.133C220.168 659.303 219.395 658.917 219.395 657.437C219.46 655.957 214.694 656.858 214.694 656.858Z" fill="#E6D8D1"/>
<path d="M254.426 654.092C254.426 654.092 255.457 658.402 255.972 659.496C256.487 660.654 259.836 666.444 260.544 667.216C261.188 667.924 270.525 671.977 269.302 673.263C268.078 674.55 266.533 676.094 260.158 674.614C253.782 673.135 251.786 668.181 246.763 667.731C241.741 667.216 243.222 661.747 245.218 659.303C247.15 656.858 249.21 652.612 249.21 652.612L254.426 654.092Z" fill="#E6D8D1"/>
<path d="M278.704 591.301C277.867 597.027 260.802 628.486 255.264 655.764C255.2 655.957 255.135 656.15 255.135 656.343C251.98 655.957 249.082 655.057 247.279 654.413C247.408 650.36 251.143 618.064 253.075 612.017C255.071 605.712 261.253 592.33 260.995 588.02C260.738 583.709 257.969 580.879 256.101 578.756C255.007 577.533 248.309 567.819 242.836 559.455C239.68 554.63 236.911 550.32 235.881 548.325C235.559 547.746 235.43 547.36 235.43 547.232C235.43 545.687 211.218 503.87 254.298 510.689C254.298 510.689 255.393 517.766 255.651 519.053C255.779 519.889 259.45 528.446 262.541 536.616C264.215 541.055 265.761 545.366 266.469 548.261C267.306 551.671 268.852 556.817 270.397 561.9C272.522 568.912 274.712 575.603 275.356 576.954C276.386 579.27 279.541 585.639 278.704 591.301Z" fill="#363957"/>
<path d="M236.331 546.138C236.331 546.138 233.047 560.356 231.179 566.082C229.376 571.807 225.641 584.288 225.513 587.569C225.319 590.85 225.319 597.992 225.126 600.951C224.869 603.846 225.191 615.555 224.418 621.538C223.645 627.521 220.554 656.343 220.297 658.145C220.297 658.209 220.297 658.209 220.297 658.273C217.399 658.724 215.016 658.659 213.213 658.531V658.466C211.539 650.553 209.671 621.088 209.543 616.327C209.414 611.566 210.766 600.758 210.251 597.477C209.736 594.196 205.292 560.549 206.709 546.91C208.19 533.271 212.827 510.818 212.827 510.818C212.827 510.818 261.252 493.383 236.331 546.138Z" fill="#363957"/>
<path d="M258.032 523.556C257.904 522.334 256.616 513.842 255.521 508.373C254.426 502.905 253.525 497.887 252.881 495.699C252.816 495.571 252.752 495.313 252.687 494.992C252.301 493.383 251.464 489.781 250.498 486.371C250.434 486.113 250.369 485.92 250.305 485.663V484.376C249.661 482.06 250.691 480.838 250.884 479.037C250.949 478.522 250.949 477.879 250.756 477.235V477.171C250.047 474.019 249.532 471.316 249.532 469.837C249.532 464.883 247.214 440.822 247.214 440.822C247.214 440.822 254.877 444.424 255.972 449.764C257.066 455.104 257.388 466.942 257.517 469.322C257.646 471.767 261.445 489.974 261.832 494.091C262.218 498.208 262.733 501.747 263.57 504.513C264.407 507.28 263.699 521.498 263.957 523.685C264.279 525.937 258.161 524.779 258.032 523.556Z" fill="#DBA585"/>
<path d="M242.384 419.27C242.384 419.27 248.373 401.642 236.911 396.238C225.448 390.769 215.725 398.683 213.857 402.929C211.99 407.175 212.505 414.959 214.05 420.363C215.596 425.768 215.403 434.002 211.99 436.769C208.577 439.535 205.55 445.518 202.781 450.601C200.012 455.683 227.316 438.635 227.316 438.635L242.384 419.27Z" fill="#2E4254"/>
<path d="M232.146 399.197C232.146 399.197 244.059 402.736 242.385 419.27C240.71 435.804 232.918 434.967 232.146 435.096C231.437 435.225 222.164 435.804 219.267 415.796C216.304 395.659 232.146 399.197 232.146 399.197Z" fill="#DBA585"/>
<path d="M237.813 437.798C237.813 437.798 249.404 440.758 250.499 442.752C251.593 444.682 251.722 453.174 252.43 456.005C253.139 458.771 254.749 464.754 253.654 467.199C252.559 469.644 251.336 471.96 251.722 473.633C252.108 475.305 253.074 480.066 252.237 483.733C251.4 487.4 250.885 494.927 251.98 500.138C253.074 505.35 254.169 509.982 254.298 510.818C254.427 511.654 212.956 510.818 212.956 510.818C212.956 510.818 216.305 499.173 217.528 496.471C218.752 493.769 216.433 483.476 215.339 481.031C214.244 478.586 209.479 468.743 209.479 467.649C209.479 467.649 204.456 450.536 204.907 449.893C205.357 449.314 205.1 446.741 209.865 443.781C213.536 441.53 224.354 438.827 227.445 438.313C230.407 437.862 237.813 437.798 237.813 437.798Z" fill="#E6D8D1"/>
<path d="M237.813 432.008C237.813 432.008 237.297 437.927 238.328 441.272C239.358 444.682 226.414 444.489 225.384 441.916C224.354 439.342 225.899 435.74 224.483 430.271C223.066 424.867 237.813 432.008 237.813 432.008Z" fill="#DBA585"/>
<path d="M249.598 452.338C249.598 452.338 252.882 456.584 254.17 461.216C255.329 465.398 254.299 469.644 251.658 472.86C251.658 472.86 240.647 472.281 236.719 472.41C232.855 472.474 220.555 473.825 213.729 477.557C213.729 477.557 208.578 468.164 208.706 466.877C208.835 465.591 211.991 456.841 217.013 455.876C226.286 454.075 232.468 465.655 235.366 465.333C238.264 465.012 240.26 453.624 249.598 452.338Z" fill="#E6D8D1"/>
<path d="M229.055 406.596C229.055 406.596 235.559 416.889 242.32 419.27C242.32 419.27 246.055 402.028 230.665 398.361C215.274 394.758 217.721 415.796 218.816 421.393C218.88 421.457 222.1 413.158 229.055 406.596Z" fill="#2E4254"/>
<path d="M226.222 432.716C226.222 432.716 230.923 437.605 236.976 433.23C236.976 433.23 236.461 436.383 232.146 436.769C227.832 437.155 226.222 432.716 226.222 432.716Z" fill="#997761"/>
<path d="M242.77 559.519C239.615 554.694 236.846 550.384 235.815 548.39C235.815 548.39 240.066 537.646 240.516 533.464C240.967 529.218 242.77 559.519 242.77 559.519Z" fill="#363957"/>
<path d="M223.259 439.213C223.259 439.213 228.604 448.478 234.528 449.957C240.452 451.437 240.324 442.43 238.585 438.055C238.585 438.055 238.392 437.605 232.596 437.476C226.543 437.348 223.259 439.213 223.259 439.213Z" fill="#DBA585"/>
<path d="M241.612 532.887C259.004 532.887 273.102 518.802 273.102 501.427C273.102 484.052 259.004 469.967 241.612 469.967C224.221 469.967 210.123 484.052 210.123 501.427C210.123 518.802 224.221 532.887 241.612 532.887Z" fill="#E7B96B"/>
<path d="M248.953 532.048L238.07 470.158C254.491 468.228 269.753 479.487 272.651 495.957C275.549 512.491 265.052 528.253 248.953 532.048Z" fill="#E7B96B"/>
<path d="M210.638 506.894C208.062 492.354 215.919 478.458 228.798 472.732L239.359 532.885C225.256 531.856 213.15 521.369 210.638 506.894Z" fill="#E7B96B"/>
<path d="M241.612 525.358C254.842 525.358 265.567 514.643 265.567 501.425C265.567 488.208 254.842 477.493 241.612 477.493C228.382 477.493 217.657 488.208 217.657 501.425C217.657 514.643 228.382 525.358 241.612 525.358Z" fill="#E09637"/>
<path d="M250.498 498.273C250.37 498.015 250.112 497.629 249.854 497.308C249.532 496.922 249.146 496.536 248.695 496.15C248.244 495.764 247.729 495.378 247.214 495.056C246.635 494.734 246.055 494.413 245.411 494.155L243.35 501.104L243.93 501.425C245.025 502.069 246.055 502.712 246.892 503.355C247.729 503.999 248.438 504.706 248.953 505.414C249.468 506.122 249.79 506.894 249.919 507.794C250.048 508.631 249.983 509.596 249.661 510.689C249.275 511.847 248.76 512.812 248.116 513.52C247.472 514.228 246.635 514.742 245.733 515.064C244.832 515.386 243.801 515.579 242.771 515.514C241.676 515.514 240.581 515.321 239.422 515L238.392 518.538L236.653 518.024L237.748 514.421C236.203 513.842 234.721 513.07 233.434 512.105C232.146 511.14 231.051 510.046 230.085 508.695L232.79 505.993C232.983 506.315 233.24 506.765 233.627 507.215C234.013 507.666 234.464 508.116 234.979 508.631C235.494 509.081 236.138 509.596 236.782 510.046C237.49 510.496 238.199 510.882 238.972 511.204L241.032 504.256C240.903 504.192 240.775 504.063 240.646 503.999C240.517 503.934 240.388 503.87 240.259 503.741C239.165 503.098 238.263 502.455 237.49 501.811C236.718 501.232 236.138 500.589 235.687 499.881C235.237 499.238 234.979 498.53 234.915 497.758C234.786 496.986 234.915 496.15 235.172 495.249C235.494 494.155 236.009 493.255 236.589 492.483C237.233 491.775 238.006 491.196 238.843 490.746C239.744 490.36 240.646 490.102 241.676 490.038C242.706 489.974 243.801 490.038 244.96 490.295L245.991 486.885L247.729 487.4L246.699 490.81C248.116 491.325 249.404 492.032 250.434 492.869C251.529 493.705 252.43 494.67 253.139 495.635L250.498 498.273ZM239.165 495.828C238.907 496.793 238.972 497.565 239.487 498.208C240.002 498.852 240.903 499.559 242.127 500.331L244.123 493.769C242.771 493.448 241.612 493.448 240.839 493.834C240.002 494.22 239.487 494.863 239.165 495.828ZM245.54 509.853C245.862 508.888 245.669 507.987 245.025 507.28C244.381 506.572 243.415 505.736 242.127 504.964L240.131 511.59C241.547 511.976 242.771 512.04 243.672 511.783C244.638 511.461 245.218 510.818 245.54 509.853Z" fill="#EAC483"/>
<path d="M253.847 530.44C267.112 524.907 275.226 510.754 272.65 496.021C270.075 481.288 257.582 470.737 243.222 470.03L253.847 530.44Z" fill="#F7F7F7"/>
<path d="M239.359 532.821L228.798 472.668C231.116 471.638 233.563 470.866 236.203 470.416C236.847 470.287 237.427 470.223 238.071 470.159L248.954 532.049C248.374 532.177 247.73 532.306 247.086 532.435C244.446 532.885 241.87 533.014 239.359 532.821Z" fill="#F7F7F7"/>
<path d="M207.933 445.004C207.933 445.004 203.618 448.349 200.334 454.397C197.05 460.444 189.516 471.188 188.035 474.662C186.554 478.2 181.724 484.119 181.016 488.687C180.307 493.19 182.175 494.799 185.073 496.729C187.97 498.659 208.706 505.028 208.706 505.028C208.706 505.028 212.376 499.174 210.509 498.788C207.16 498.08 199.046 493.062 197.694 492.225C196.213 491.325 192.542 488.237 194.345 486.757C196.149 485.277 208.577 467.199 211.088 463.661C213.664 460.122 218.236 451.501 216.562 447.127C214.952 442.816 210.96 443.331 207.933 445.004Z" fill="#DBA585"/>
<path d="M206.323 497.694C206.323 497.694 207.289 498.209 208.19 498.08C209.736 497.823 211.217 495.957 213.085 497.115C214.952 498.273 212.698 504.899 211.603 505.8C210.509 506.701 207.482 505.864 203.876 503.034C200.27 500.139 206.323 497.694 206.323 497.694Z" fill="#DBA585"/>
<path d="M212.441 496.793C212.441 496.793 215.789 497.308 219.395 498.273C222.551 499.109 226.093 500.718 226.157 501.361C226.221 502.133 222.808 500.975 219.589 500.332C216.626 499.753 217.077 500.332 217.077 500.332C217.077 500.332 216.948 500.139 220.039 501.425C223.388 502.776 226.608 504.449 226.608 505.221C226.608 505.607 226.415 505.736 225.127 505.478C225.835 505.8 225.835 506.057 225.706 506.315C225.127 507.794 219.911 506.572 217.85 506.057C219.46 506.443 220.555 506.894 219.524 507.601C218.365 508.373 211.088 506.315 208.384 505.8C205.55 505.221 212.441 496.793 212.441 496.793Z" fill="#DBA585"/>
<path d="M267.563 489.588C267.563 489.588 272.393 488.494 273.939 490.81C275.484 493.126 275.548 496.085 275.162 497.501C274.776 498.852 273.552 502.39 271.878 501.682C266.662 499.302 267.563 489.588 267.563 489.588Z" fill="#DBA585"/>
<path d="M272.329 489.588C272.329 489.588 271.685 486.371 270.332 486.886C269.045 487.465 270.204 489.588 270.204 489.588H272.329Z" fill="#DBA585"/>
<path d="M209.929 506.122C209.028 509.724 208.512 509.724 208.255 509.724C207.869 509.724 207.675 509.145 207.547 508.759C207.289 507.73 207.16 506.443 207.16 505.157C207.16 501.94 207.869 498.595 207.997 498.08C207.997 498.016 207.997 497.951 207.997 497.951L208.19 498.015H208.384C208.384 498.08 207.547 501.876 207.547 505.35C207.547 506.508 207.675 507.666 207.933 508.631C208.126 509.274 208.255 509.338 208.255 509.338C208.255 509.338 208.448 509.274 208.706 508.631C208.899 508.18 209.156 507.344 209.543 505.993C209.672 506.122 209.8 506.122 209.929 506.122Z" fill="#2D374B"/>
<path d="M519.864 664.514C519.864 664.514 522.053 668.567 523.47 670.175C524.887 671.783 530.296 674.679 530.36 679.439C530.36 684.586 521.216 683.171 517.61 682.978C514.004 682.785 513.746 680.018 512.265 677.123C510.784 674.228 509.239 674.679 508.917 672.362C508.659 669.982 510.398 664.578 510.398 664.578H519.864V664.514Z" fill="#26283A"/>
<path d="M465.192 663.999C465.192 663.999 460.749 668.953 456.306 669.982C451.798 671.012 448.707 672.363 448.643 675.193C448.578 678.024 461.586 679.89 466.674 677.059C474.337 672.813 475.109 674.1 475.947 671.977C476.784 669.854 474.916 664.128 474.981 663.484C475.109 662.584 465.192 663.999 465.192 663.999Z" fill="#26283A"/>
<path d="M465.708 661.683C465.708 661.683 465.128 663.999 465.192 664.063C465.257 664.128 475.303 665.286 474.981 663.42C474.723 661.94 474.401 660.268 474.401 660.268L465.708 661.683Z" fill="#807F7D"/>
<path d="M510.462 662.905C510.462 662.905 510.012 665.093 510.14 665.157C510.205 665.221 520.315 667.023 520.25 665.157C520.186 663.677 519.349 662.005 519.349 662.005L510.462 662.905Z" fill="#807F7D"/>
<path d="M474.853 523.299C474.853 523.299 471.182 558.683 469.315 570.842C467.125 584.996 466.352 596.705 465.708 604.039C464.936 613.239 464.807 658.659 464.227 661.297C463.712 663.999 476.334 662.069 476.334 662.069C476.334 662.069 482.516 602.817 484.834 592.974C487.023 583.838 495.008 544.465 496.94 546.974C498.936 549.483 501.319 592.909 502.8 600.115C504.281 607.32 508.725 663.806 508.725 663.806C508.725 663.806 518.77 665.8 521.475 663.549C521.475 663.549 522.698 614.912 521.732 601.337C521.346 596.19 527.786 539.511 519.543 516.737C515.229 504.706 474.853 523.299 474.853 523.299Z" fill="#2E3048"/>
<path d="M507.565 515.45C507.565 515.45 505.118 511.783 502.542 511.333C499.966 510.882 538.024 492.483 537.959 485.92C537.895 480.581 524.629 470.737 524.629 470.737V470.673C524.372 471.702 519.993 487.464 519.864 494.477C519.735 501.747 520.315 526.837 520.315 526.837L510.527 529.475L479.359 529.732L472.211 526.837C472.211 526.837 472.984 518.795 473.306 513.134C473.499 509.531 474.208 503.098 474.015 496.857C474.015 496.857 474.143 490.231 473.499 487.4C473.435 474.855 472.662 462.374 472.662 462.374C472.212 456.648 471.954 451.373 471.761 446.355C473.113 445.647 474.787 444.746 476.14 444.167C480.261 442.237 485.928 439.599 489.598 437.927C491.723 436.962 493.848 436.254 493.848 436.254C493.848 436.254 508.466 434.839 509.69 434.903C510.076 434.903 511.879 435.546 514.262 436.447C519.478 438.441 529.459 442.43 531.069 443.588C533.387 445.261 548.713 485.663 548.907 488.494C549.293 493.383 507.565 515.45 507.565 515.45Z" fill="#D8D6E1"/>
<path d="M473.178 524.135C473.178 524.135 494.622 525.937 513.361 524.135V530.311C513.361 530.311 485.413 532.949 472.212 529.153L473.178 524.135Z" fill="#232536"/>
<path d="M471.439 446.226C471.632 451.308 471.825 456.713 472.276 462.503C472.276 462.503 472.663 476.656 473.5 490.102C473.757 492.032 473.886 494.027 473.757 496.021C473.564 498.659 473.242 501.49 472.92 504.513C472.92 504.578 472.92 504.578 472.92 504.642C472.856 505.35 472.727 506.057 472.663 506.765C470.859 521.755 467.768 538.932 466.159 544.143C465.837 545.237 466.996 546.202 467.833 546.974L473.693 550.641C473.693 550.641 476.14 528.446 476.913 520.919C477.685 513.649 480.132 503.87 481.163 494.348C482.515 482.318 484.383 470.48 485.413 463.468C488.053 445.197 491.53 437.026 491.53 437.026C489.792 437.541 471.439 446.226 471.439 446.226Z" fill="#363957"/>
<path d="M533.58 483.991C536.092 489.523 510.269 499.495 510.849 500.846C512.265 504.127 517.932 510.818 517.932 510.818C517.932 510.818 551.997 494.027 551.611 490.167C551.353 487.4 535.383 445.39 533.065 443.717C531.713 442.752 521.731 439.214 516.837 437.284C515.936 436.962 512.909 435.804 512.072 435.482C511.042 436.64 503.829 444.553 501.318 474.405C500.867 479.423 502.22 490.102 503.121 498.788C504.087 508.052 505.117 515.322 505.955 523.106C507.5 538.418 508.595 550.577 508.595 550.577L523.856 543.822C526.303 542.6 530.618 539.383 529.652 536.809C526.11 526.966 520.83 508.245 520.83 499.624C520.83 499.624 523.341 475.756 524.694 471.124C524.629 471.124 530.747 477.814 533.58 483.991Z" fill="#363957"/>
<path d="M508.273 436.383C508.273 436.383 508.402 431.365 510.334 421.2C510.849 418.498 494.557 428.341 494.557 428.341C494.557 428.341 494.621 429.306 494.621 430.593C494.621 431.3 494.621 432.072 494.621 432.844C494.621 433.102 494.621 433.359 494.621 433.681C494.621 434.388 494.557 435.096 494.493 435.675C494.428 436.254 494.106 437.348 493.978 437.605C493.334 439.085 502.8 440.307 508.273 436.383Z" fill="#DBA686"/>
<path d="M498.099 441.594L495.395 445.196C495.395 445.196 497.004 447.319 499.773 445.775L498.099 441.594Z" fill="#2E3048"/>
<path d="M496.102 445.389C496.102 445.389 485.863 484.827 487.989 515.579L491.466 521.626L494.686 515.257C494.686 515.257 495.587 460.315 498.356 445.261L496.102 445.389Z" fill="#2E3048"/>
<path d="M495.201 438.248L498.099 441.658C498.099 441.658 502.735 440.757 504.088 438.313C505.504 435.868 495.201 438.248 495.201 438.248Z" fill="#DBA686"/>
<path d="M494.557 435.289C494.557 435.289 494.879 437.862 498.099 441.658L494.557 446.355L492.625 436.576L494.557 435.289Z" fill="#C1BFC9"/>
<path d="M508.595 432.394C508.595 432.394 502.8 439.728 498.099 441.594L500.288 446.998L510.269 434.967L508.595 432.394Z" fill="#C1BFC9"/>
<path d="M411.809 486.95C411.809 486.95 401.055 488.237 400.475 488.88C399.896 489.588 400.025 490.167 401.055 490.102C402.085 490.038 411.487 489.202 411.487 489.202C411.487 489.202 399.187 492.804 398.543 493.255C398.157 493.512 398.415 494.67 398.93 494.67C399.509 494.67 411.938 491.775 411.938 491.775C411.938 491.775 400.475 495.185 400.025 495.699C399.703 496.15 400.153 497.179 400.99 496.986C401.892 496.793 412.775 494.22 412.775 494.22C412.775 494.22 404.597 497.244 404.532 497.887C404.468 498.273 404.661 499.302 406.722 498.466C408.782 497.63 413.934 496.15 413.934 496.15L411.809 486.95Z" fill="#DBA585"/>
<path d="M424.495 487.464C424.495 487.464 420.889 487.657 419.794 485.856C418.893 484.312 416.575 482.897 415.866 482.511C414.9 481.932 412.646 479.165 412.002 480.259C411.359 481.353 415.544 485.02 416.317 485.92C417.09 486.821 411.874 486.499 410.972 487.207C410.006 487.915 410.521 496.407 414.063 496.214C417.605 496.021 421.082 493.512 421.726 493.576C422.37 493.641 424.302 493.576 424.302 493.576L424.495 487.464Z" fill="#DBA585"/>
<path d="M423.014 495.892C423.014 495.892 449.351 492.225 455.211 490.746C457.916 490.102 461.458 486.371 464.871 481.996C465.965 480.581 467.06 479.037 468.091 477.557C472.212 471.574 475.496 465.848 475.496 465.848C475.496 465.848 487.796 451.501 477.943 445.068C477.943 445.068 473.693 445.004 471.375 446.226C468.992 447.513 463.905 458.128 463.068 459.994C462.231 461.859 452.893 479.294 452.249 479.68C451.605 480.066 442.332 482.125 438.147 482.961C432.158 484.184 420.824 486.564 420.824 486.564L423.014 495.892Z" fill="#363957"/>
<path d="M499.001 524.457H488.955V532.048H499.001V524.457Z" fill="#3E4265"/>
<path d="M505.697 515.9C505.697 515.9 506.921 515.836 507.5 515.579C507.5 515.579 508.402 515 509.11 514.614C509.303 514.485 509.496 514.421 509.625 514.356C510.205 514.163 511.428 513.842 512.652 512.941C513.811 512.04 517.675 508.502 517.675 508.502L515.228 504.706L514.068 500.975C514.068 500.975 505.182 501.875 503.958 502.583C503.83 502.647 503.701 502.712 503.636 502.776C502.67 503.484 502.284 504.384 501.833 504.835C501.64 504.963 500.095 506.636 500.223 507.344C500.352 508.309 500.803 508.888 501.383 509.145C501.383 509.145 501.705 510.946 502.67 511.783C502.67 511.783 502.928 513.456 504.345 514.163C504.28 514.035 504.731 515.707 505.697 515.9Z" fill="#DCA787"/>
<path d="M517.997 510.882C517.997 510.882 513.039 506.829 510.334 500.91L525.531 492.611L531.198 504.127L517.997 510.882Z" fill="#363957"/>
<path d="M485.929 403.379C485.929 403.379 482.323 410.006 484.126 411.035C485.607 411.871 482.387 418.433 482.001 419.463C481.614 420.557 484.641 421.329 485.285 421.972C485.929 422.68 487.861 431.107 490.437 431.365C492.948 431.622 504.41 427.633 507.501 424.417C510.592 421.2 513.168 406.596 511.108 400.484C508.982 394.308 492.24 391.735 485.929 403.379Z" fill="#DBA585"/>
<path d="M485.22 404.794C485.22 404.794 481.55 397.653 488.182 392.313C494.815 386.974 507.115 396.302 508.467 396.688C509.819 397.074 517.675 397.589 513.747 411.356C510.334 423.13 509.884 423.644 509.884 423.644C509.884 423.644 507.372 416.825 505.891 415.796C503.637 414.187 498.743 414.573 498.743 414.573C498.743 414.573 501.061 408.333 497.455 407.496C493.785 406.531 488.955 403.443 485.22 404.794Z" fill="#1F2531"/>
<path d="M502.671 410.906C502.993 410.07 504.023 406.403 507.178 408.526C510.334 410.649 505.246 417.597 504.667 417.661C504.087 417.79 499.902 418.112 502.671 410.906Z" fill="#DBA585"/>
<path d="M494.621 432.78C494.621 433.037 494.621 433.295 494.621 433.616C503.958 430.464 505.761 425.768 505.761 425.768C502.864 427.826 494.621 430.593 494.621 430.593C494.621 431.236 494.621 432.008 494.621 432.78Z" fill="#997761"/>
<defs>
<linearGradient id="paint0_linear" x1="216" y1="421" x2="917.411" y2="676.19" gradientUnits="userSpaceOnUse">
<stop stop-color="#A38BCE"/>
<stop offset="0.59375" stop-color="#47297D"/>
<stop offset="0.984375" stop-color="#33146B"/>
</linearGradient>
<linearGradient id="paint1_linear" x1="258.533" y1="171.878" x2="397.859" y2="171.878" gradientUnits="userSpaceOnUse">
<stop stop-color="#E79D5A"/>
<stop offset="1" stop-color="#F2D05F"/>
</linearGradient>
<linearGradient id="paint2_linear" x1="204.105" y1="81.7611" x2="293.745" y2="81.7611" gradientUnits="userSpaceOnUse">
<stop stop-color="#E79D5A"/>
<stop offset="1" stop-color="#F2D05F"/>
</linearGradient>
<linearGradient id="paint3_linear" x1="312.203" y1="89.4838" x2="705.581" y2="791.778" gradientUnits="userSpaceOnUse">
<stop stop-color="#E79D5A"/>
<stop offset="1" stop-color="#F2D05F"/>
</linearGradient>
<linearGradient id="paint4_linear" x1="520.944" y1="-6.44641" x2="520.944" y2="156.215" gradientUnits="userSpaceOnUse">
<stop stop-color="#E0E8EE"/>
<stop offset="1" stop-color="#FCF8F4"/>
</linearGradient>
<linearGradient id="paint5_linear" x1="545.883" y1="518.031" x2="602.624" y2="518.031" gradientUnits="userSpaceOnUse">
<stop stop-color="#E79D5A"/>
<stop offset="1" stop-color="#F2D05F"/>
</linearGradient>
<linearGradient id="paint6_linear" x1="605.504" y1="527.149" x2="527.973" y2="446.882" gradientUnits="userSpaceOnUse">
<stop stop-color="#E79D5A"/>
<stop offset="1" stop-color="#F2D05F"/>
</linearGradient>
</defs>
</svg>
