<svg width="748" height="693" viewBox="0 0 748 693" fill="none" xmlns="http://www.w3.org/2000/svg">
<path d="M602.868 338.153C602.868 471.18 495.02 579.027 361.994 579.027C252.147 579.027 159.482 505.49 130.521 404.99C124.415 383.756 121.119 361.387 121.119 338.207C121.119 205.18 228.967 97.3325 361.994 97.3325C366.802 97.3325 371.611 97.4946 376.366 97.7648C502.693 105.167 602.868 209.989 602.868 338.153Z" fill="url(#paint0_radial)"/>
<path d="M599.357 379.163C595.359 402.181 588.227 423.901 578.501 443.893C578.501 443.893 574.557 411.744 570.288 409.907C566.074 408.07 557.482 405.152 559.644 387.376C561.805 369.599 556.402 343.232 540.192 342.908C523.983 342.583 528.683 366.952 528.683 366.952C528.683 366.952 501.992 411.042 500.695 408.016C499.398 404.99 498.101 381 498.101 381C498.101 381 473.625 333.452 474.597 326.32C475.57 319.187 471.95 316.81 477.245 310.975C482.54 305.139 491.023 301.033 491.023 301.033L491.077 284.931L499.884 276.07L514.959 267.695C514.959 267.695 528.737 266.668 537.869 261.103C547 255.538 558.671 256.402 555.645 247.703C555.645 247.703 550.404 241.327 547.865 234.79C545.379 228.252 531.385 222.47 529.17 219.391C526.954 216.311 529.494 209.557 520.795 202.316C512.042 195.022 514.311 197.886 507.989 192.266C501.721 186.647 487.511 174.166 486.647 168.6C485.782 162.981 480.487 141.206 463.899 137.424C447.311 133.642 444.231 111.705 444.231 111.705C551.971 150.662 619.565 262.4 599.357 379.163Z" fill="white"/>
<path d="M573.205 454.105C532.303 528.616 454.011 577.136 367.506 579.027L393.873 558.171C393.873 558.171 396.953 545.528 398.628 541.205C400.303 536.882 417.972 508.083 417.972 508.083C417.972 508.083 416.783 483.499 418.944 470.909C421.106 458.266 432.236 451.674 439.53 435.951C446.771 420.173 482.702 427.738 491.401 424.766L520.416 431.466L542.191 446.487C542.191 446.433 559.211 450.755 573.205 454.105Z" fill="white"/>
<path d="M339.193 209.665C330.926 225.658 309.637 247.974 309.637 247.974C309.637 247.974 307.368 261.049 293.536 266.885C279.65 272.774 328.224 315.351 312.069 321.619C295.859 327.887 288.511 338.531 288.511 338.531C288.511 338.531 270.734 356.254 269.383 358.901C268.033 361.549 241.935 374.462 236.748 377.704C231.615 380.946 235.668 384.08 209.786 390.348C183.959 396.615 180.933 403.423 172.99 412.177C165.048 420.876 155.646 422.443 155.646 422.443C155.646 422.443 141.166 417.58 130.575 404.99C124.47 383.756 121.174 361.387 121.174 338.207C121.174 205.18 229.022 97.3325 362.048 97.3325C366.857 97.3325 371.666 97.4946 376.421 97.7648C367.073 104.411 335.627 127.104 325.685 139.423C314.014 153.904 324.604 177.732 331.088 182.541C337.572 187.296 347.46 193.671 339.193 209.665Z" fill="white"/>
<path d="M346.541 179.677C346.541 179.677 365.02 197.129 357.402 206.855C349.783 216.635 334.816 230.521 338.058 235.06C341.3 239.599 354.7 249.703 366.587 248.676C378.474 247.649 393.279 233.763 404.518 224.578C415.756 215.446 433.101 218.202 435.91 216.149C438.774 214.15 443.907 203.451 431.534 194.374C419.106 185.296 413.433 179.947 407.489 175.625C401.6 171.41 332.763 165.089 346.541 179.677Z" fill="white"/>
<path d="M303.316 571.787C294.509 569.571 285.918 566.924 277.597 563.79C214.703 540.34 165.75 492.036 140.355 432.546C140.355 432.546 161.698 440.003 188.714 435.626C215.73 431.25 237.505 430.655 254.903 446.379C272.356 462.102 246.042 471.179 257.118 491.981C268.141 512.784 273.544 502.788 284.459 528.075C288.835 538.395 297.859 555.415 303.316 571.787Z" fill="white"/>
<path d="M380.041 437.842L228.806 286.606L117.5 397.858L92.0508 372.463L228.806 235.708L380.041 386.944L509.61 257.375L535.059 282.77L380.041 437.842Z" fill="#EFC55E"/>
<path d="M564.723 316.594L597.574 194.104L475.084 226.955L564.723 316.594Z" fill="#EFC55E"/>
<path d="M322.93 190.267L291.645 198.642L299.966 206.963L267.385 239.49L228.752 200.858L193.848 235.816L200.331 242.3L228.752 213.879L267.385 252.512L306.45 213.447L314.555 221.552L322.93 190.267Z" fill="#EFC55E"/>
<path d="M477.461 116.622C476.002 116.622 474.597 116.946 473.3 117.486C470.059 111.651 463.845 107.653 456.659 107.653C450.661 107.653 445.366 110.408 441.854 114.731C440.125 113.92 438.234 113.488 436.235 113.488C428.94 113.488 423.051 119.378 423.051 126.672H437.693H449.418H467.411H475.678H487.511C487.511 121.107 483.026 116.622 477.461 116.622Z" fill="#E4E4E4"/>
<path d="M129.387 317.783C127.928 317.783 126.523 318.107 125.226 318.647C121.984 312.812 115.771 308.813 108.584 308.813C102.587 308.813 97.2918 311.569 93.7797 315.892C92.0507 315.081 90.1596 314.649 88.1604 314.649C80.8661 314.649 74.9766 320.538 74.9766 327.833H89.6192H101.344H119.337H127.604H139.437C139.437 322.267 134.952 317.783 129.387 317.783Z" fill="#E4E4E4"/>
<path d="M298.182 111.002C295.913 111.002 293.806 111.813 292.131 113.11C289.321 107.49 283.54 103.6 276.786 103.6C270.572 103.6 265.169 106.896 262.143 111.813C261.332 111.597 260.522 111.489 259.658 111.489C257.874 111.489 256.199 112.029 254.741 112.894C252.147 108.895 247.662 106.194 242.529 106.194C234.533 106.194 228.049 112.677 228.049 120.674H250.418H257.01H259.603H268.843H288.402H293.86H307.854C307.908 115.379 303.531 111.002 298.182 111.002Z" fill="#E4E4E4"/>
<path d="M691.86 176.597C679.217 170.654 664.628 173.788 655.551 183.459C653.336 185.783 651.499 188.484 650.04 191.564C645.663 200.804 646.203 211.124 650.634 219.553C653.714 225.388 658.577 230.305 665.007 233.331C665.655 233.655 666.303 233.925 666.952 234.141C669.869 235.276 672.895 235.978 675.921 236.249C688.565 237.275 701.1 230.521 706.827 218.364C714.23 202.749 707.53 184.054 691.86 176.597ZM699.695 215.068C695.373 224.145 685.971 229.224 676.515 228.468C674.246 228.306 671.977 227.766 669.815 226.901C669.329 226.685 668.843 226.523 668.357 226.253C663.548 223.983 659.874 220.255 657.55 215.879C654.254 209.557 653.822 201.83 657.118 194.86C658.199 192.591 659.603 190.538 661.278 188.809C668.086 181.568 679.001 179.191 688.511 183.675C700.235 189.295 705.26 203.289 699.695 215.068Z" fill="white"/>
<path d="M657.55 215.933L650.579 219.607C646.149 211.178 645.608 200.858 649.985 191.618C651.444 188.538 653.281 185.837 655.496 183.513L661.224 188.917C659.603 190.646 658.198 192.699 657.063 194.968C653.821 201.884 654.254 209.611 657.55 215.933Z" fill="#405BA8"/>
<path d="M669.815 226.901L666.951 234.195C666.303 233.925 665.655 233.655 665.006 233.385C658.577 230.359 653.66 225.442 650.634 219.607L657.604 215.932C659.873 220.309 663.601 223.983 668.41 226.307C668.843 226.469 669.329 226.685 669.815 226.901Z" fill="#7094FB"/>
<path d="M675.867 236.303C672.841 236.087 669.815 235.384 666.897 234.195L669.761 226.901C671.976 227.766 674.246 228.306 676.461 228.468L675.867 236.303Z" fill="#7094FB"/>
<path d="M668.788 256.997H610.109V255.808H667.599V231.008H668.788V256.997Z" fill="#7094FB"/>
<path d="M640.962 243.705H610.109V250.675H640.962V243.705Z" fill="#DEDEDE"/>
<path d="M632.748 282.932H621.563V356.956H632.748V282.932Z" fill="white"/>
<path d="M660.468 298.007H649.283V356.956H660.468V298.007Z" fill="white"/>
<path d="M688.186 286.93H677.001V356.956H688.186V286.93Z" fill="white"/>
<path d="M632.749 310.542H621.564V356.956H632.749V310.542Z" fill="url(#paint1_radial)"/>
<path d="M660.468 319.944H649.283V356.956H660.468V319.944Z" fill="url(#paint2_radial)"/>
<path d="M688.186 313.028H677.001V356.956H688.186V313.028Z" fill="url(#paint3_radial)"/>
<path d="M87.621 212.583H16.623V219.553H87.621V212.583Z" fill="#5F7DD1"/>
<path d="M87.621 231.331H16.623V238.301H87.621V231.331Z" fill="white"/>
<path d="M87.621 250.081H16.623V257.051H87.621V250.081Z" fill="white"/>
<path d="M113.989 212.583H102.156V219.553H113.989V212.583Z" fill="#5F7DD1"/>
<path d="M113.987 231.331H102.154V238.301H113.987V231.331Z" fill="white"/>
<path d="M113.987 250.081H102.154V257.051H113.987V250.081Z" fill="white"/>
<path d="M376.475 19.0402C376.097 18.6079 375.502 18.1216 374.692 17.5813C373.935 17.095 373.017 16.5547 371.99 16.1224C370.964 15.6361 369.829 15.2579 368.64 14.9337C367.398 14.6095 366.155 14.3934 364.858 14.2854L364.804 28.0635L366.047 28.3337C368.424 28.928 370.585 29.5764 372.531 30.2788C374.476 30.9812 376.097 31.8457 377.393 32.8723C378.744 33.8989 379.771 35.1417 380.473 36.6546C381.176 38.1675 381.554 39.9505 381.554 42.1118C381.554 44.4892 381.122 46.4884 380.257 48.1634C379.393 49.8384 378.258 51.1892 376.745 52.3238C375.232 53.4045 373.503 54.269 371.558 54.8093C369.559 55.3496 367.451 55.6738 365.182 55.6738V62.698H361.724V55.5658C358.536 55.3496 355.51 54.7012 352.593 53.6206C349.729 52.594 347.082 51.0811 344.704 49.244L348.108 42.8682C348.594 43.4086 349.297 44.0029 350.215 44.5973C351.134 45.2457 352.215 45.84 353.457 46.3803C354.7 46.9747 356.051 47.461 357.564 47.9473C359.077 48.3795 360.589 48.7037 362.21 48.9198L362.264 35.1417C361.994 35.0336 361.724 34.9796 361.454 34.9256C361.184 34.8715 360.914 34.7635 360.644 34.7094C358.266 34.061 356.213 33.4127 354.484 32.7102C352.755 32.0078 351.296 31.1974 350.107 30.2248C348.973 29.2522 348.108 28.1175 347.46 26.7667C346.865 25.47 346.595 23.849 346.595 22.0119C346.595 19.8506 346.973 17.9055 347.73 16.2305C348.486 14.5555 349.567 13.0966 350.918 11.8539C352.323 10.6112 353.89 9.69263 355.781 8.99022C357.618 8.2878 359.671 7.85554 361.886 7.69345V0.939453H365.344V7.69345C368.208 7.85554 370.91 8.4499 373.341 9.4765C375.772 10.4491 377.934 11.6378 379.771 13.0426L376.475 19.0402ZM354.484 20.6611C354.484 22.5522 355.132 23.903 356.429 24.8756C357.726 25.7942 359.725 26.6587 362.373 27.3611L362.427 14.2313C359.725 14.3394 357.726 14.9878 356.429 16.1224C355.132 17.2571 354.484 18.77 354.484 20.6611ZM373.665 42.8682C373.665 40.9231 372.909 39.4102 371.342 38.4376C369.775 37.411 367.614 36.5465 364.804 35.736L364.75 48.9198C367.614 48.8658 369.775 48.3795 371.342 47.3529C372.909 46.3263 373.665 44.8134 373.665 42.8682Z" fill="#EEBD5D"/>
<path d="M745.296 293.09H707.636C706.123 293.09 704.935 291.523 704.935 289.524C704.935 287.579 706.177 285.958 707.636 285.958H745.296C746.809 285.958 747.998 287.525 747.998 289.524C748.052 291.523 746.809 293.09 745.296 293.09Z" fill="#EEBD5D"/>
<path d="M730.005 270.721V308.381C730.005 309.894 728.438 311.083 726.439 311.083C724.494 311.083 722.873 309.84 722.873 308.381V270.721C722.873 269.208 724.44 268.019 726.439 268.019C728.438 268.019 730.005 269.208 730.005 270.721Z" fill="#EEBD5D"/>
<path d="M262.198 57.5109H224.538C223.025 57.5109 221.836 55.944 221.836 53.9448C221.836 51.9996 223.079 50.3787 224.538 50.3787H262.198C263.711 50.3787 264.899 51.9456 264.899 53.9448C264.953 55.944 263.711 57.5109 262.198 57.5109Z" fill="#EEBD5D"/>
<path d="M262.198 75.2338H224.538C223.025 75.2338 221.836 73.6668 221.836 71.6677C221.836 69.7225 223.079 68.1016 224.538 68.1016H262.198C263.711 68.1016 264.899 69.6685 264.899 71.6677C264.953 73.6668 263.711 75.2338 262.198 75.2338Z" fill="#EEBD5D"/>
<path d="M40.8287 323.888H3.16839C1.6555 323.888 0.466797 322.321 0.466797 320.322C0.466797 318.377 1.70953 316.756 3.16839 316.756H40.8287C42.3416 316.756 43.5303 318.323 43.5303 320.322C43.5303 322.321 42.2876 323.888 40.8287 323.888Z" fill="#EEBD5D"/>
<path d="M467.627 59.1861C466.168 59.1861 464.871 58.9159 463.628 58.4296C462.386 57.9434 461.305 57.295 460.441 56.4305C459.522 55.566 458.82 54.5934 458.279 53.4587C457.739 52.324 457.469 51.0813 457.469 49.7845C457.469 48.4878 457.739 47.2991 458.279 46.1644C458.82 45.0297 459.522 44.0031 460.441 43.1926C461.359 42.3822 462.44 41.7338 463.628 41.1935C464.871 40.7072 466.222 40.437 467.627 40.437C469.032 40.437 470.328 40.7072 471.625 41.1935C472.868 41.6797 473.948 42.3281 474.867 43.1926C475.786 44.0031 476.488 44.9757 477.028 46.1644C477.569 47.2991 477.839 48.5418 477.839 49.7845C477.839 51.0813 477.569 52.324 477.028 53.4587C476.488 54.5934 475.786 55.566 474.867 56.4305C473.948 57.295 472.868 57.9434 471.625 58.4296C470.382 58.9159 469.032 59.1861 467.627 59.1861ZM460.927 81.9876L478.325 61.7256L494.373 40.6531L498.155 44.0031L481.297 63.9409L464.709 85.3916L460.927 81.9876ZM467.627 55.0256C468.221 55.0256 468.815 54.8635 469.302 54.5934C469.788 54.3232 470.274 53.945 470.707 53.4587C471.139 52.9724 471.463 52.4321 471.679 51.7837C471.895 51.1353 472.003 50.4869 472.003 49.7845C472.003 48.3257 471.571 47.137 470.707 46.1104C469.842 45.0838 468.815 44.5975 467.627 44.5975C467.032 44.5975 466.438 44.7596 465.952 45.0297C465.411 45.2999 464.979 45.6781 464.547 46.1644C464.115 46.6507 463.791 47.191 463.574 47.7854C463.358 48.3797 463.25 49.0821 463.25 49.7845C463.25 51.2434 463.682 52.4321 464.547 53.4587C465.411 54.5394 466.438 55.0256 467.627 55.0256ZM491.455 85.4996C489.996 85.4996 488.699 85.2295 487.456 84.7432C486.214 84.2569 485.133 83.6085 484.269 82.744C483.35 81.9335 482.648 80.961 482.107 79.8263C481.567 78.6916 481.297 77.4489 481.297 76.1521C481.297 74.8554 481.567 73.6126 482.107 72.4779C482.648 71.3433 483.35 70.3707 484.269 69.5062C485.187 68.6417 486.214 67.9933 487.456 67.507C488.699 67.0207 490.05 66.7506 491.455 66.7506C492.914 66.7506 494.21 67.0207 495.453 67.507C496.696 67.9933 497.777 68.6957 498.695 69.5062C499.614 70.3707 500.316 71.3433 500.856 72.4779C501.397 73.6126 501.613 74.8554 501.613 76.1521C501.613 77.4489 501.343 78.6916 500.856 79.8263C500.316 80.961 499.614 81.9335 498.695 82.744C497.777 83.5545 496.696 84.2029 495.453 84.7432C494.21 85.2835 492.86 85.4996 491.455 85.4996ZM491.455 81.3932C492.049 81.3932 492.644 81.2311 493.13 80.961C493.616 80.6908 494.102 80.3126 494.535 79.8263C494.967 79.34 495.291 78.7997 495.507 78.2053C495.723 77.611 495.831 76.9086 495.831 76.2602C495.831 75.5037 495.723 74.8554 495.453 74.207C495.183 73.5586 494.913 73.0183 494.481 72.532C494.102 72.0457 493.616 71.6675 493.076 71.3973C492.535 71.1271 491.995 71.0191 491.401 71.0191C490.806 71.0191 490.212 71.1812 489.726 71.4513C489.185 71.7215 488.753 72.0997 488.321 72.586C487.889 73.0723 487.565 73.6126 487.348 74.261C487.132 74.9094 487.024 75.5578 487.024 76.2602C487.024 77.719 487.457 78.9078 488.321 79.9344C489.24 80.8529 490.266 81.3932 491.455 81.3932Z" fill="#EEBD5D"/>
<path d="M542.516 77.2327H541.867V147.15H542.516V77.2327Z" fill="#F2F2F2"/>
<path d="M589.902 77.2327H589.254V147.15H589.902V77.2327Z" fill="#F2F2F2"/>
<path d="M637.288 77.2327H636.64V147.15H637.288V77.2327Z" fill="#F2F2F2"/>
<path d="M684.674 77.2327H684.025V147.15H684.674V77.2327Z" fill="#F2F2F2"/>
<path d="M732.06 77.2327H731.412V147.15H732.06V77.2327Z" fill="#F2F2F2"/>
<path d="M549.756 151.311H542.191V153.742H549.756V151.311Z" fill="white"/>
<path d="M553.538 68.5876H542.191V70.4247H553.538V68.5876Z" fill="white"/>
<path d="M558.293 71.9917H542.191V73.8288H558.293V71.9917Z" fill="white"/>
<path d="M602.438 68.5876H589.092V70.4247H602.438V68.5876Z" fill="white"/>
<path d="M597.629 71.9917H589.092V73.8288H597.629V71.9917Z" fill="white"/>
<path d="M645.554 68.5876H637.287V70.4247H645.554V68.5876Z" fill="white"/>
<path d="M646.905 71.9917H637.287V73.8288H646.905V71.9917Z" fill="white"/>
<path d="M696.723 68.5876H684.674V70.4247H696.723V68.5876Z" fill="white"/>
<path d="M694.292 71.9917H684.674V73.8288H694.292V71.9917Z" fill="white"/>
<path d="M738.921 68.5876H731.735V70.4247H738.921V68.5876Z" fill="white"/>
<path d="M737.463 71.9917H731.735V73.8288H737.463V71.9917Z" fill="white"/>
<path d="M597.142 151.311H589.577V153.742H597.142V151.311Z" fill="white"/>
<path d="M644.852 151.311H637.287V153.742H644.852V151.311Z" fill="white"/>
<path d="M692.238 151.311H684.674V153.742H692.238V151.311Z" fill="white"/>
<path d="M739.678 151.311H732.113V153.742H739.678V151.311Z" fill="white"/>
<path d="M715.309 126.348C700.505 126.348 687.699 119.972 674.299 113.272C657.765 105.059 640.691 96.5222 617.89 98.8996C603.355 100.413 594.224 106.302 586.173 111.543C578.879 116.298 571.963 120.458 562.669 120.783C547.594 121.377 542.353 114.893 542.245 114.515V110.408C542.245 110.462 545.541 117.703 562.669 117.595C571.098 117.541 577.312 113.542 584.498 108.842C592.873 103.438 602.329 97.2787 617.62 95.7117C641.34 93.2803 658.846 101.979 675.758 110.408C693.481 119.216 710.393 127.483 731.789 120.296V123.7C725.684 125.808 720.767 126.348 715.309 126.348Z" fill="url(#paint4_radial)"/>
<path d="M626.589 125.591C615.674 125.591 607.029 118.243 598.546 111.057C592.116 105.599 585.47 100.034 577.744 97.2785C554.294 88.9035 542.245 104.195 542.137 104.357V99.7099C542.245 99.5478 544.406 96.7922 550.62 94.0906C556.239 91.6591 565.749 89.768 578.77 94.3067C587.037 97.1704 593.899 103.006 600.545 108.625C613.999 120.08 625.67 129.914 645.878 114.461C661.169 102.736 675.65 91.6051 689.806 87.4987C703.692 83.5003 718.173 86.4181 731.735 99.9801L731.627 104.195C702.828 75.2875 678.297 93.6043 647.769 116.946C639.826 123.16 632.856 125.591 626.589 125.591Z" fill="white"/>
<path d="M171.315 83.5543C164.345 61.9956 144.839 47.9473 123.496 46.9207C118.417 46.6505 113.23 47.1368 108.043 48.4336C106.909 48.7037 105.774 49.0279 104.639 49.4062C93.2386 53.0803 83.9451 60.2666 77.5693 69.344C68.3839 82.4737 65.196 99.6018 70.5452 116.082C72.2742 121.485 74.8677 126.456 78.0015 130.832C91.0773 148.933 114.797 157.416 137.221 150.176C165.047 141.26 180.338 111.381 171.315 83.5543ZM133.168 137.64C116.364 143.044 98.5877 136.722 88.7539 123.16C86.3765 119.864 84.4854 116.19 83.1346 112.083C79.1362 99.7639 81.5136 86.9043 88.4297 77.0705C93.2386 70.2625 100.155 64.8593 108.692 62.1037C109.556 61.8335 110.421 61.5634 111.231 61.3472C115.121 60.3747 119.012 59.9964 122.794 60.2126C138.787 61.023 153.43 71.5052 158.617 87.6608C165.479 108.517 154.025 130.886 133.168 137.64Z" fill="white"/>
<path d="M88.4297 77.0162L77.5693 69.3977C68.3839 82.5275 65.196 99.6556 70.5452 116.135C72.2742 121.539 74.8677 126.509 78.0015 130.886L88.7539 123.105C86.3765 119.81 84.4854 116.135 83.1346 112.029C79.1362 99.7096 81.5136 86.85 88.4297 77.0162Z" fill="#405BA8"/>
<path d="M111.284 61.3469L108.042 48.4873C106.908 48.7575 105.773 49.0817 104.638 49.4599C93.2376 53.1341 83.9441 60.3203 77.5684 69.3977L88.4288 77.0162C93.2376 70.2082 100.154 64.805 108.691 62.0493C109.555 61.7792 110.42 61.563 111.284 61.3469Z" fill="#5F7DD1"/>
<path d="M123.497 46.9204C118.418 46.6503 113.231 47.1366 108.044 48.4333L111.286 61.2929C115.176 60.3204 119.066 59.9421 122.849 60.1583L123.497 46.9204Z" fill="#7094FB"/>
<path d="M120.958 190.376H197.197V189.187H122.093V152.931H120.958V190.376Z" fill="#EEBD5D"/>
<path d="M197.197 177.083H144.732V184.054H197.197V177.083Z" fill="#DEDEDE"/>
<path d="M683.323 426.927C683.323 426.927 684.782 452.971 679.973 456.753C677.758 458.536 672.57 459.076 666.951 459.076C665.114 459.076 663.223 459.022 661.332 458.914C653.93 458.536 647.284 457.617 647.284 457.617C647.284 457.617 628.102 458.59 629.075 446.703C629.075 446.703 631.29 443.083 634.154 442.272C636.801 441.516 648.851 443.623 650.958 443.677C653.281 443.785 669.599 447.405 670.301 447.135C671.004 446.865 672.895 440.489 673.003 436.167C673.165 429.953 673.165 424.226 673.165 424.226L683.323 426.927Z" fill="#363957"/>
<path d="M675.164 418.39C675.164 418.39 674.191 422.821 675.11 424.064C676.082 425.306 676.514 423.74 676.514 423.74C676.514 423.74 676.028 425.306 677.271 425.793C678.46 426.333 678.892 424.442 678.892 424.442C678.892 424.442 678.838 425.739 680.243 425.793C681.593 425.847 681.593 424.226 681.593 424.226C681.593 424.226 682.566 426.063 683.647 424.766C685.538 422.605 684.781 419.363 684.781 419.363C684.781 419.363 684.511 418.606 683.214 418.606C683.214 418.606 682.728 416.661 680.621 417.472C680.621 417.472 678.892 415.905 677.865 417.472C677.865 417.472 675.974 415.905 675.164 418.39Z" fill="#DCA787"/>
<path d="M655.443 443.839C686.687 443.839 712.015 418.512 712.015 387.268C712.015 356.024 686.687 330.697 655.443 330.697C624.2 330.697 598.872 356.024 598.872 387.268C598.872 418.512 624.2 443.839 655.443 443.839Z" fill="#E7B96B"/>
<path d="M668.518 442.273L649.013 331.075C678.514 327.671 705.962 347.825 711.149 377.488C716.336 407.152 697.425 435.41 668.518 442.273Z" fill="#E7B96B"/>
<path d="M599.735 397.048C595.142 370.95 609.245 345.933 632.37 335.613L651.336 443.677C626.103 441.84 604.328 423.091 599.735 397.048Z" fill="#E7B96B"/>
<path d="M612.485 386.133C613.08 362.413 632.856 343.664 656.576 344.313C680.296 344.907 699.045 364.683 698.396 388.403C697.802 412.123 678.026 430.872 654.306 430.224C630.586 429.629 611.891 409.853 612.485 386.133Z" fill="#E09637"/>
<path d="M654.74 369.816C654.199 369.816 653.443 369.924 652.632 370.086C651.768 370.302 650.849 370.572 649.877 371.004C648.904 371.383 647.878 371.923 646.905 372.517C645.879 373.166 644.96 373.868 644.041 374.678L653.497 383.594L654.524 382.891C656.469 381.595 658.306 380.568 660.035 379.703C661.764 378.839 663.439 378.299 665.006 378.028C666.573 377.758 668.086 377.866 669.599 378.353C671.111 378.839 672.57 379.703 674.029 381.108C675.65 382.621 676.731 384.242 677.325 385.863C677.919 387.538 678.136 389.213 677.919 390.942C677.703 392.671 677.163 394.4 676.298 396.129C675.38 397.858 674.245 399.479 672.786 401.1L677.595 405.639L675.38 408.016L670.463 403.423C668.248 405.477 665.87 407.152 663.277 408.448C660.683 409.745 657.982 410.61 655.172 411.042L652.957 404.558C653.659 404.558 654.47 404.45 655.55 404.234C656.577 404.018 657.711 403.64 658.9 403.153C660.089 402.667 661.332 402.073 662.574 401.316C663.817 400.56 665.06 399.749 666.194 398.723L656.739 389.807C656.523 389.915 656.253 390.078 656.036 390.24C655.82 390.402 655.55 390.51 655.334 390.672C653.389 391.861 651.606 392.887 649.985 393.644C648.364 394.4 646.851 394.886 645.446 395.049C644.041 395.211 642.691 395.049 641.394 394.616C640.097 394.184 638.8 393.374 637.558 392.185C636.045 390.78 634.964 389.267 634.316 387.646C633.667 386.025 633.343 384.35 633.397 382.621C633.451 380.892 633.829 379.163 634.532 377.434C635.234 375.705 636.261 374.03 637.558 372.409L632.965 368.087L635.18 365.709L639.773 370.032C641.772 368.141 643.879 366.736 646.149 365.655C648.418 364.629 650.579 363.872 652.74 363.494L654.74 369.816ZM641.718 386.025C643.015 387.214 644.366 387.7 645.878 387.376C647.391 387.052 649.228 386.241 651.444 384.891L642.42 376.408C640.745 378.353 639.881 380.136 639.827 381.757C639.827 383.324 640.421 384.782 641.718 386.025ZM669.328 387.052C667.978 385.809 666.465 385.377 664.79 385.809C663.115 386.241 661.061 387.16 658.738 388.565L667.761 397.102C669.544 395.103 670.625 393.266 670.895 391.591C671.219 389.807 670.679 388.349 669.328 387.052Z" fill="#EAC483"/>
<path d="M677.379 439.409C701.153 429.413 715.796 404.018 711.149 377.488C706.502 351.013 684.133 332.047 658.306 330.751L677.379 439.409Z" fill="#F7F7F7"/>
<path d="M651.335 443.678L632.37 335.614C636.531 333.777 640.961 332.372 645.662 331.561C646.797 331.345 647.877 331.183 649.012 331.075L668.518 442.273C667.437 442.543 666.356 442.759 665.222 442.975C660.521 443.786 655.874 444.002 651.335 443.678Z" fill="#F7F7F7"/>
<path d="M581.796 674.178C581.796 674.178 580.175 678.068 578.825 679.581C577.474 681.094 572.287 683.849 572.233 688.442C572.179 693.413 580.986 692.008 584.444 691.846C587.902 691.684 588.118 689.036 589.577 686.227C591.036 683.417 592.495 683.903 592.765 681.634C593.035 679.365 591.684 674.286 591.684 674.286L581.796 674.178Z" fill="#2A2C41"/>
<path d="M650.579 675.042C650.579 675.042 655.387 680.067 660.25 681.148C665.113 682.228 668.517 683.525 668.517 686.443C668.571 689.306 654.523 691.251 648.958 688.334C640.637 684.011 639.826 685.308 638.908 683.147C637.989 680.985 639.988 675.15 639.934 674.502C639.88 673.583 650.579 675.042 650.579 675.042Z" fill="#2A2C41"/>
<path d="M649.985 529.912C649.985 529.912 655.01 566.438 657.063 578.757C659.44 593.184 660.251 605.125 660.953 612.581C661.818 621.983 653.01 672.557 653.551 675.258C654.145 678.014 637.665 674.124 637.665 674.124C637.665 674.124 642.852 613.986 640.313 603.99C637.99 594.643 629.561 553.686 627.399 556.28C625.292 558.819 611.892 603.774 610.325 611.122C608.758 618.471 593.521 676.015 593.521 676.015C593.521 676.015 582.121 678.446 579.257 676.177C579.257 676.177 589.199 623.334 590.171 609.556C590.55 604.314 593.683 546.932 602.545 523.699C607.354 511.379 649.985 529.912 649.985 529.912Z" fill="#2E3048"/>
<path d="M583.849 529.318C583.849 529.318 590.063 531.209 592.71 530.723C595.304 530.237 594.007 498.142 594.115 491.496C594.169 486.092 597.141 471.774 597.141 471.774C597.411 472.855 601.41 487.659 601.572 494.792C601.734 502.194 600.599 530.453 600.599 530.453L611.622 531.533L643.284 532.29L649.876 531.533C649.876 531.533 649.066 519.43 648.796 513.703C648.634 510.029 647.877 503.491 648.093 497.169C648.093 497.169 647.985 490.469 648.634 487.551C648.688 474.8 649.498 462.156 649.498 462.156C649.93 456.375 650.2 450.972 650.417 445.893C649.012 445.136 647.337 444.272 645.986 443.677C641.825 441.678 636.044 439.031 632.316 437.302C630.155 436.329 627.993 435.573 627.993 435.573C627.993 435.573 613.134 434.168 611.946 434.222C611.568 434.222 609.731 434.87 607.299 435.843C602.058 437.842 591.9 441.894 590.279 443.083C587.902 444.758 582.877 485.12 582.66 487.929C582.282 493.117 583.849 529.318 583.849 529.318Z" fill="#6A98F2"/>
<path d="M648.958 526.617C648.958 526.617 627.237 528.454 608.164 526.617V532.884C608.164 532.884 636.747 536.991 649.877 531.696L648.958 526.617Z" fill="#232536"/>
<path d="M630.426 436.599C630.426 436.599 633.938 444.92 636.639 463.453C637.666 470.585 639.557 482.581 640.908 494.846C641.989 504.518 644.474 514.405 645.23 521.808C646.041 529.48 648.472 552.012 648.472 552.012L654.416 548.283C655.28 547.473 656.469 546.5 656.091 545.366C654.47 540.071 651.336 522.618 649.499 507.435C649.499 507.435 649.499 507.435 649.499 507.381C649.391 506.625 649.337 505.922 649.229 505.22C649.229 505.166 649.229 505.166 649.229 505.112C648.905 502.086 648.58 499.168 648.364 496.467C648.202 494.414 648.364 492.414 648.635 490.469C649.445 476.799 649.877 462.427 649.877 462.427C650.31 456.537 651.39 448.919 651.552 443.786C649.499 443.515 647.932 443.245 646.311 442.705C646.365 442.759 634.64 438.328 630.426 436.599Z" fill="#363957"/>
<path d="M629.343 440.922C629.343 440.922 629.722 446.595 624.913 446.757C620.104 446.865 616.268 442.273 616.268 442.273L624.264 444.326L629.127 440.219L629.343 440.922Z" fill="#C7C5CE"/>
<path d="M622.861 397.372C622.861 397.372 633.883 399.209 631.992 416.499C630.101 433.79 620.375 432.223 619.727 432.223C619.079 432.223 609.947 432.439 609.461 411.312C609.461 411.312 609.299 395.697 622.861 397.372Z" fill="#DBA686"/>
<path d="M627.669 427.198C627.669 427.198 627.669 434.33 627.939 435.843C628.263 437.518 619.078 442.273 613.188 436.707C613.188 436.707 614.377 428.927 613.999 426.225C613.621 423.47 627.669 427.198 627.669 427.198Z" fill="#DBA686"/>
<path d="M632.046 412.501C632.046 412.501 633.288 411.204 633.721 412.555C634.153 413.852 632.154 419.417 631.938 419.958C631.938 419.958 631.721 420.444 631.397 420.174C631.073 419.849 632.046 412.501 632.046 412.501Z" fill="#DBA686"/>
<path d="M609.568 411.15C609.568 411.15 608.38 409.799 607.893 411.096C607.407 412.393 609.19 418.174 609.406 418.553C609.406 418.553 609.784 419.147 610.109 418.877C610.433 418.661 609.568 411.15 609.568 411.15Z" fill="#DBA686"/>
<path d="M632.911 410.178C632.533 412.555 632.154 414.284 632.154 414.284L630.534 416.391C630.534 416.391 630.642 411.745 630.371 411.042C630.263 410.772 630.155 410.286 630.047 409.745C629.885 408.881 629.669 407.908 629.561 407.584C629.345 407.044 620.105 404.342 611.892 408.124C611.892 408.124 611.946 408.827 611.946 409.637C611.946 410.556 611.838 411.582 611.406 411.744C610.596 412.015 610.92 417.148 610.92 417.148L609.623 415.689C609.623 415.689 609.245 412.987 608.867 409.907C608.759 409.205 608.705 408.449 608.596 407.692C608.434 404.612 608.705 398.939 612.757 395.643C615.459 394.454 619.835 393.482 627.075 395.697C627.075 395.697 628.75 395.805 629.183 396.237C633.883 401.262 632.911 410.178 632.911 410.178Z" fill="#2E3048"/>
<path d="M614.757 429.899C614.757 429.899 616.54 432.331 620.592 432.277C624.699 432.169 626.482 430.061 626.482 430.061C626.482 430.061 624.537 434.114 620.592 434.06C616.648 434.006 614.757 429.899 614.757 429.899Z" fill="#B68B72"/>
<path d="M628.372 441.246L624.266 444.272C624.266 444.272 627.724 436.924 627.778 434.006L628.372 441.246Z" fill="#9D9CA3"/>
<path d="M627.777 434.06L630.587 436.653L633.559 445.407L628.372 441.246L627.777 434.06Z" fill="#E7E4F0"/>
<path d="M627.292 436.653C627.292 436.653 626.158 440.652 624.321 444.272C624.321 444.272 619.998 440.49 618.647 439.139C617.243 437.842 627.292 436.653 627.292 436.653Z" fill="#DBA686"/>
<path d="M619.781 440.057L624.32 444.272C624.32 444.272 618.971 443.893 617.998 443.029L619.781 440.057Z" fill="#9D9CA3"/>
<path d="M613.783 432.277C613.783 432.277 617.403 438.166 619.781 440.057L615.782 446.703L609.353 435.032L613.783 432.277Z" fill="#E7E4F0"/>
<path d="M594.603 491.82C594.116 498.033 596.764 532.29 594.17 532.776C591.577 533.262 581.959 531.155 581.959 531.155C581.959 531.155 580.77 494.197 581.149 490.307C581.419 487.497 585.903 445.19 588.281 443.515C589.632 442.543 599.79 438.922 604.761 436.977C605.679 436.599 608.543 435.41 609.353 435.086C610.434 436.275 619.619 457.834 620.484 474.692C620.754 479.825 619.565 490.631 618.647 499.492C617.674 508.948 616.594 516.296 615.783 524.185C614.216 539.746 613.136 552.065 613.136 552.065L597.682 545.203C595.197 543.961 591.739 538.827 592.657 536.18C596.223 526.184 600.708 509.056 600.762 500.249C600.762 500.249 599.033 478.744 597.682 473.989C597.628 473.935 595.143 483.931 594.603 491.82Z" fill="#363957"/>
<path d="M581.85 548.716C581.85 548.716 581.31 547.419 581.364 546.77C581.364 546.77 581.526 545.582 581.634 544.663C581.634 544.393 581.688 544.123 581.634 544.015C581.58 543.366 581.31 541.908 581.688 540.341C582.066 538.774 583.904 533.262 583.904 533.262L588.875 534.019L593.197 533.425C593.197 533.425 596.439 542.826 596.223 544.339C596.223 544.501 596.169 544.609 596.169 544.771C595.899 546.068 595.196 546.879 594.98 547.527C594.926 547.743 593.954 550.12 593.197 550.337C592.225 550.661 591.36 550.445 590.82 550.012C590.82 550.012 588.821 550.553 587.578 549.958C587.578 549.958 585.741 550.499 584.39 549.364C584.444 549.31 582.553 549.634 581.85 548.716Z" fill="#DCA787"/>
<path d="M594.98 509.11L594.818 536.342C594.818 536.342 589.361 536.126 581.905 533.316L581.364 494.9L594.98 509.11Z" fill="#363957"/>
<path d="M633.559 526.995H623.293V534.613H633.559V526.995Z" fill="#3E4265"/>
<path d="M550.835 665.154H440.556V678.554H550.835V665.154Z" fill="url(#paint5_linear)"/>
<path d="M547.377 651.808H437.098V665.208H547.377V651.808Z" fill="url(#paint6_linear)"/>
<path d="M544.946 638.408H434.667V651.808H544.946V638.408Z" fill="url(#paint7_linear)"/>
<path d="M549.43 625.008H439.151V638.408H549.43V625.008Z" fill="url(#paint8_linear)"/>
<path d="M543.27 611.662H432.991V625.062H543.27V611.662Z" fill="url(#paint9_linear)"/>
<path d="M541.001 598.262H430.722V611.662H541.001V598.262Z" fill="url(#paint10_linear)"/>
<path d="M543.27 584.863H432.991V598.263H543.27V584.863Z" fill="url(#paint11_linear)"/>
<path d="M545.162 571.517H434.883V584.916H545.162V571.517Z" fill="url(#paint12_linear)"/>
<path d="M541.703 558.117H431.424V571.517H541.703V558.117Z" fill="url(#paint13_linear)"/>
<path d="M539.272 544.717H428.993V558.117H539.272V544.717Z" fill="url(#paint14_linear)"/>
<path d="M543.757 531.317H433.478V544.717H543.757V531.317Z" fill="url(#paint15_linear)"/>
<path d="M553.645 533.208L443.42 530.56L443.744 517.215L553.969 519.808L553.645 533.208Z" fill="url(#paint16_linear)"/>
<path d="M406.41 652.619H293.699V666.289H406.41V652.619Z" fill="url(#paint17_linear)"/>
<path d="M410.516 638.948H297.806V652.619H410.516V638.948Z" fill="url(#paint18_linear)"/>
<path d="M408.193 625.224H295.482V638.894H408.193V625.224Z" fill="url(#paint19_linear)"/>
<path d="M410.516 611.554H297.806V625.225H410.516V611.554Z" fill="url(#paint20_linear)"/>
<path d="M412.462 597.884H299.751V611.554H412.462V597.884Z" fill="url(#paint21_linear)"/>
<path d="M415.325 665.694H302.614V679.364H415.325V665.694Z" fill="url(#paint22_linear)"/>
<path d="M277.758 522.348C277.758 522.348 281.864 523.753 283.593 521.97C285.052 520.457 288.078 519.592 288.997 519.268C290.239 518.89 293.589 516.35 294.076 517.917C294.562 519.484 288.726 522.348 287.646 523.212C286.565 524.077 292.617 525.374 293.535 526.508C294.454 527.643 291.698 537.531 287.646 536.18C283.593 534.775 280.189 530.615 279.379 530.507C278.623 530.399 276.407 529.588 276.407 529.588L277.758 522.348Z" fill="#DCA787"/>
<path d="M292.617 525.968C292.617 525.968 304.774 531.047 305.315 532.073C305.855 533.1 305.531 533.748 304.396 533.316C303.261 532.884 292.509 528.723 292.509 528.723C292.509 528.723 305.855 537.152 306.503 537.909C306.882 538.341 306.341 539.638 305.693 539.422C305.044 539.26 291.32 531.641 291.32 531.641C291.32 531.641 303.802 539.53 304.126 540.286C304.396 540.935 303.64 542.015 302.667 541.475C301.694 540.935 289.699 534.289 289.699 534.289C289.699 534.289 298.399 540.61 298.29 541.421C298.236 541.907 297.804 543.042 295.643 541.367C293.428 539.692 287.862 536.18 287.862 536.18L292.617 525.968Z" fill="#DCA787"/>
<path d="M223.077 463.345C223.077 463.345 239.611 488.146 249.066 497.277C252.038 500.141 281.648 520.241 282.728 521.375C283.863 522.51 279.811 532.398 279.811 532.398C279.811 532.398 241.934 510.515 239.773 509.164C237.558 507.813 210.109 476.313 208.759 471.99C207.408 467.614 207.894 462.481 212.325 460.427C218.592 457.51 223.077 463.345 223.077 463.345Z" fill="#2E3048"/>
<path d="M261.765 526.13C256.254 494.629 277.272 464.642 308.773 459.13C340.274 453.619 370.261 474.638 375.773 506.138C381.284 537.639 360.265 567.627 328.765 573.138C297.264 578.649 267.331 557.577 261.765 526.13Z" fill="#E7B96B"/>
<path d="M332.169 572.435L312.177 458.59C342.381 455.078 370.477 475.772 375.772 506.084C381.122 536.45 361.778 565.411 332.169 572.435Z" fill="#E7B96B"/>
<path d="M261.765 526.13C257.064 499.438 271.49 473.827 295.156 463.291L314.554 573.894C288.727 572.003 266.465 552.821 261.765 526.13Z" fill="#E7B96B"/>
<path d="M274.84 514.945C275.489 490.631 295.697 471.504 319.957 472.098C344.271 472.746 363.399 492.954 362.804 517.215C362.156 541.529 341.948 560.656 317.688 560.062C293.373 559.468 274.192 539.26 274.84 514.945Z" fill="#E09637"/>
<path d="M335.086 510.298C334.816 509.758 334.438 509.164 333.844 508.461C333.249 507.759 332.547 507.057 331.736 506.354C330.926 505.652 330.007 504.949 328.981 504.301C327.954 503.652 326.819 503.112 325.685 502.68L321.849 515.431L322.929 516.026C324.982 517.214 326.819 518.403 328.386 519.592C329.953 520.781 331.25 522.023 332.169 523.374C333.141 524.671 333.736 526.13 334.006 527.697C334.276 529.264 334.114 531.047 333.519 532.992C332.871 535.153 331.899 536.882 330.656 538.233C329.413 539.53 327.954 540.502 326.279 541.097C324.604 541.691 322.767 542.015 320.768 541.961C318.769 541.907 316.77 541.637 314.662 541.043L312.717 547.526L309.529 546.554L311.528 539.962C308.665 538.881 306.017 537.422 303.64 535.693C301.262 533.91 299.209 531.857 297.534 529.48L302.451 524.509C302.775 525.157 303.262 525.86 303.964 526.724C304.666 527.535 305.477 528.399 306.503 529.318C307.476 530.182 308.611 531.047 309.853 531.857C311.096 532.668 312.447 533.424 313.852 534.018L317.688 521.267C317.472 521.105 317.256 520.943 316.986 520.835C316.716 520.673 316.499 520.564 316.283 520.402C314.284 519.16 312.555 518.025 311.15 516.89C309.745 515.756 308.611 514.567 307.8 513.378C306.99 512.136 306.504 510.839 306.341 509.488C306.179 508.137 306.341 506.57 306.828 504.841C307.422 502.842 308.341 501.167 309.475 499.816C310.664 498.465 312.015 497.439 313.636 496.682C315.257 495.926 316.986 495.494 318.877 495.386C320.768 495.278 322.767 495.44 324.874 495.872L326.765 489.658L329.953 490.631L328.062 496.844C330.656 497.817 332.979 499.06 334.978 500.681C336.978 502.248 338.652 503.923 339.949 505.76L335.086 510.298ZM314.284 505.814C313.744 507.543 313.96 509.002 314.932 510.244C315.905 511.487 317.472 512.784 319.741 514.189L323.361 502.086C320.822 501.437 318.823 501.491 317.31 502.194C315.851 502.842 314.824 504.031 314.284 505.814ZM325.901 531.587C326.441 529.804 326.117 528.183 324.982 526.832C323.848 525.481 322.065 524.022 319.687 522.51L316.013 534.667C318.661 535.423 320.822 535.531 322.497 534.991C324.28 534.559 325.361 533.37 325.901 531.587Z" fill="#EAC483"/>
<path d="M341.246 569.463C365.614 559.251 380.581 533.208 375.826 506.084C371.071 478.96 348.162 459.562 321.74 458.266L341.246 569.463Z" fill="#F7F7F7"/>
<path d="M314.607 573.84L295.21 463.237C299.478 461.345 304.017 459.941 308.826 459.076C309.961 458.86 311.095 458.698 312.23 458.59L332.222 572.435C331.087 572.705 330.007 572.921 328.818 573.138C324.009 573.948 319.254 574.164 314.607 573.84Z" fill="#F7F7F7"/>
<path d="M166.074 667.424C166.074 667.424 167.911 668.234 170.667 669.693C173.422 671.152 176.556 672.773 180.446 673.043C184.337 673.313 188.443 674.718 188.173 678.446C187.903 682.174 175.367 683.309 163.642 681.256C151.918 679.203 151.755 678.933 151.647 678.014C151.539 677.095 152.458 667.856 152.944 667.478C153.485 667.1 166.074 667.424 166.074 667.424Z" fill="#212231"/>
<path d="M167.046 663.155C167.046 663.155 166.181 667.369 166.127 667.856C166.073 668.342 152.025 670.719 152.781 667.802C153.592 664.722 157.914 658.724 157.914 658.724L167.046 663.155Z" fill="#252638"/>
<path d="M217.621 566.384C216.486 554.875 178.231 529.966 176.394 540.881C174.557 551.795 190.334 576.758 191.307 584.917C192.28 593.076 191.469 595.237 185.31 602.261C179.15 609.339 153.106 661.372 153.106 661.372C153.863 665.316 167.533 666.559 167.911 665.695C168.289 664.83 205.139 616.147 207.084 614.256C209.084 612.419 216.378 604.098 217.459 600.046C218.161 597.452 219.404 586.16 218.647 578.163C218.647 578.163 217.783 567.302 217.621 566.384Z" fill="#2D2F46"/>
<path d="M240.314 666.883C240.314 666.883 242.799 667.316 245.609 668.828C248.419 670.341 252.255 672.827 256.253 673.097C260.252 673.367 264.736 674.934 264.466 678.716C264.196 682.499 251.066 683.579 239.125 681.472C227.184 679.365 226.968 679.095 226.914 678.176C226.806 677.257 227.238 670.125 227.941 668.288C228.157 667.748 240.314 666.883 240.314 666.883Z" fill="#212231"/>
<path d="M244.259 663.857C244.259 663.857 243.124 667.315 243.448 667.856C243.826 668.342 227.563 669.639 227.941 668.342C228.157 667.586 230.427 662.669 231.669 660.129C232.696 657.806 244.259 663.857 244.259 663.857Z" fill="#252638"/>
<path d="M228.805 536.018C228.805 536.018 273.111 569.572 278.082 576.434C283.053 583.296 277.488 593.508 276.731 596.858C275.975 600.208 244.961 659.805 244.582 665.532C244.582 665.532 231.02 667.423 227.508 662.993C227.508 662.993 247.23 605.557 250.364 594.805C253.498 584.052 239.395 582.377 230.696 578.487C221.997 574.597 183.688 552.119 181.473 543.69C179.42 535.964 181.473 530.182 181.473 530.182C181.473 530.182 192.171 523.212 228.805 536.018Z" fill="#2D2F46"/>
<path d="M232.425 453.673C232.425 453.673 235.775 468.316 234.964 476.367C234.154 484.417 225.833 504.949 225.239 509.434C224.644 513.919 228.805 536.018 228.805 536.018L178.987 543.528C178.987 543.528 179.041 530.615 180.878 515.324C182.716 500.032 188.497 487.875 190.496 479.23C197.412 449.729 222.591 445.622 222.591 445.622L232.425 453.673Z" fill="#C8BCB4"/>
<path d="M256.523 420.876C256.523 420.876 259.765 428.71 257.658 429.683C255.929 430.439 258.739 438.166 259.063 439.409C259.387 440.651 255.875 441.138 255.065 441.84C254.254 442.543 251.066 451.728 248.202 451.728C245.339 451.728 233.019 445.947 229.94 441.948C226.86 437.95 225.725 421.308 228.751 414.662C231.777 408.016 250.796 407.152 256.523 420.876Z" fill="#DBA585"/>
<path d="M239.882 448.81C239.882 448.81 239.449 449.513 238.855 450.647C238.585 451.134 238.315 451.674 237.99 452.268C237.72 452.701 237.504 453.187 237.234 453.673C235.559 456.753 233.722 460.535 233.29 462.426C232.533 466.046 224.32 445.839 224.32 445.839C224.32 445.839 230.264 435.518 234.965 423.091C239.611 410.718 239.882 448.81 239.882 448.81Z" fill="#DBA585"/>
<path d="M257.117 422.605C257.117 422.605 262.034 414.986 255.226 408.286C248.418 401.532 233.613 410.556 231.992 410.826C230.425 411.042 221.726 410.718 224.374 426.603C226.697 440.435 227.4 439.949 227.4 439.949C227.4 439.949 230.912 433.465 232.641 432.439C235.342 430.872 240.8 431.898 240.8 431.898C240.8 431.898 238.908 424.658 243.123 424.118C247.392 423.523 253.173 420.606 257.117 422.605Z" fill="#2D2F46"/>
<path d="M236.91 427.413C236.64 426.441 235.937 422.172 232.155 424.225C228.373 426.279 233.29 434.6 233.884 434.762C234.478 434.924 239.125 435.788 236.91 427.413Z" fill="#DBA585"/>
<path d="M225.185 444.218C225.185 444.218 230.318 456.213 234.749 460.319L232.695 467.451L222.646 445.568L225.185 444.218Z" fill="#E6D8D1"/>
<path d="M228.805 536.018L227.94 531.371L179.095 538.503L178.987 543.528L228.805 536.018Z" fill="#404367"/>
<path d="M231.074 481.824C229.832 484.417 228.589 487.011 227.454 489.658C224.969 495.44 222.7 501.329 220.754 507.111C220.052 509.164 219.404 511.217 218.755 513.216C211.191 537.261 196.116 553.848 196.116 553.848C196.116 553.848 176.556 550.228 172.342 546.446C172.342 546.446 176.61 518.295 185.742 491.766C186.444 489.712 187.201 487.659 187.957 485.66C194.765 459.563 207.463 445.568 222.592 445.568C222.862 446.001 237.72 468.316 231.074 481.824Z" fill="#363957"/>
<path d="M185.147 493.711C185.147 493.711 178.717 521.537 162.508 543.474C160.292 546.446 183.796 551.039 183.796 551.039L185.147 493.711Z" fill="#363957"/>
<path d="M207.301 472.098C200.709 477.88 185.742 491.82 185.742 491.82C186.445 489.767 187.201 487.713 187.957 485.714C193.145 481.5 207.085 472.206 207.301 472.098Z" fill="#242636"/>
<path d="M239.881 448.81C239.881 448.81 239.449 449.513 238.855 450.648C238.585 451.134 238.314 451.674 237.99 452.268C231.723 446.487 230.48 442.651 230.426 442.543C233.344 445.136 239.881 448.81 239.881 448.81Z" fill="#997761"/>
<path d="M234.856 467.343C234.856 467.343 230.372 484.741 215.027 484.363C201.303 483.985 180.771 488.794 173.8 493.332L165.155 499.438L168.019 490.469C168.019 490.469 175.259 476.529 215.027 482.526C215.027 482.526 227.022 486.092 233.29 465.236C233.29 465.236 235.235 466.479 234.856 467.343Z" fill="#6D57B3"/>
<path d="M234.641 460.751C234.641 460.751 235.397 465.668 234.857 467.505C234.641 468.208 232.804 467.127 232.804 467.127L234.641 460.751Z" fill="#6D57B3"/>
<path d="M292.185 513.54C292.185 513.54 293.265 514.405 294.346 514.351C296.291 514.297 298.398 512.136 300.452 514.027C302.505 515.864 298.452 524.023 296.939 524.995C295.427 525.968 291.969 524.347 288.132 519.97C284.35 515.594 292.185 513.54 292.185 513.54Z" fill="#DBA585"/>
<path d="M299.64 513.487C299.64 513.487 303.531 514.729 307.745 516.674C311.419 518.349 315.742 520.997 315.31 521.916C314.661 523.32 311.365 520.781 307.637 519.376C304.179 518.079 304.665 518.89 304.665 518.89C304.665 518.89 304.557 518.62 308.015 520.835C311.744 523.158 315.688 525.86 315.364 526.616C314.985 527.589 314.823 527.643 313.31 527.049C314.121 527.589 314.067 527.913 313.851 528.237C312.824 530.074 306.773 527.481 304.395 526.454C306.232 527.265 307.475 528.021 306.124 528.724C304.611 529.534 296.236 525.536 293.103 524.401C289.699 523.104 299.64 513.487 299.64 513.487Z" fill="#DBA585"/>
<path d="M225.995 454.268C225.995 454.268 245.339 480.473 256.091 489.983C259.495 492.955 293.373 511.433 294.616 512.622C295.913 513.811 291.482 526.779 291.482 526.779C291.482 526.779 249.013 504.842 246.581 503.437C244.096 502.032 210.38 463.993 208.705 459.293C207.03 454.592 209.407 454.052 214.162 451.62C220.808 448.162 225.995 454.268 225.995 454.268Z" fill="#363957"/>
<path d="M82.6504 397.696C82.6504 397.696 92.3761 402.451 89.9987 415.418C87.5673 428.386 86.5407 430.115 89.2423 435.194C91.9439 440.273 95.1318 461.886 92.7003 465.938C90.2689 470.045 62.7126 447.946 58.8764 429.413C55.0401 410.88 61.3078 402.613 63.5231 399.587C65.6303 396.507 74.0053 393.319 82.6504 397.696Z" fill="#C38855"/>
<path d="M85.3506 444.488C85.3506 444.488 90.3215 445.514 93.0771 449.567C95.0223 452.43 95.1844 458.752 95.4545 459.941C95.7247 461.129 99.4529 474.637 99.4529 474.637L89.1328 481.553L85.3506 444.488Z" fill="#363957"/>
<path d="M123.497 675.258C123.497 675.258 130.251 684.335 129.333 685.794C128.414 687.253 121.336 687.415 117.013 685.794C112.691 684.173 112.583 673.529 110.637 668.936C109.827 667.045 111.556 661.372 114.042 660.994C116.527 660.561 119.175 661.804 119.175 661.804C119.175 661.804 116.581 668.18 123.497 675.258Z" fill="#2C3D54"/>
<path d="M119.176 661.696C119.176 661.696 120.58 665.532 121.121 669.261C121.553 672.34 125.93 678.824 125.713 679.635C125.497 680.445 119.986 681.202 117.717 679.094C115.447 676.987 113.988 670.827 113.502 667.153C113.016 663.695 112.476 662.02 112.476 662.02C112.476 662.02 117.014 659.427 119.176 661.696Z" fill="#DBA585"/>
<path d="M64.819 675.42C64.819 675.42 71.3028 684.336 70.3843 685.794C69.4657 687.253 62.3876 687.415 58.065 685.794C53.7425 684.173 53.6344 673.529 51.6892 668.936C50.8788 667.045 52.6078 661.372 55.0933 660.994C57.5247 660.561 60.4424 661.858 60.4424 661.858C60.4424 661.858 57.9029 668.342 64.819 675.42Z" fill="#2C3D54"/>
<path d="M60.4426 661.858C60.4426 661.858 60.9289 666.073 61.7934 669.044C62.6039 672.016 67.0345 678.824 66.8184 679.635C66.6023 680.445 61.091 681.202 58.8216 679.094C56.5523 676.987 54.8233 670.827 54.6072 667.153C54.3911 663.425 55.1475 660.994 55.1475 660.994C55.1475 660.994 58.2813 659.589 60.4426 661.858Z" fill="#DBA585"/>
<path d="M92.9159 514.135C92.9159 514.135 98.6973 541.043 100.048 547.797C101.399 554.551 105.073 587.348 105.505 592.967C105.884 598.533 111.557 619.551 111.287 621.55C111.017 623.549 119.662 663.533 119.662 663.533C119.662 663.533 116.69 665.91 113.61 663.749C111.989 662.615 94.699 626.305 94.699 616.309C94.699 602.531 84.541 584.592 83.1902 581.513C70.979 552.876 73.4104 544.122 71.7894 542.285C70.2225 540.448 70.0604 543.42 69.1419 547.526C68.2233 551.633 66.2241 587.24 65.0354 591.725C63.8467 596.263 64.7653 611.5 64.1169 619.227C63.4685 626.953 60.5508 661.75 60.5508 661.75C60.5508 661.75 58.2814 665.262 55.1476 661.858C54.4452 661.102 49.6904 623.063 49.5283 613.878C49.4202 604.692 49.2581 592.103 48.9879 588.104C46.5025 550.12 40.5049 544.717 50.0146 517.809C67.737 467.613 92.9159 514.135 92.9159 514.135Z" fill="#DBA585"/>
<path d="M54.0664 506.624C54.0664 506.624 37.5866 529.696 44.6648 578.703C44.6648 578.703 83.7299 583.998 104.694 572.543C104.694 572.543 96.0492 521.97 92.9154 514.081C89.7275 506.3 54.0664 506.624 54.0664 506.624Z" fill="#2B2D43"/>
<path d="M110.422 668.126V677.635H111.665V670.287L110.422 668.126Z" fill="#2C3D54"/>
<path d="M51.5264 668.126V677.635H52.7691V670.287L51.5264 668.126Z" fill="#2C3D54"/>
<path d="M76.1656 441.083C76.1656 441.083 82.2172 443.947 84.3244 444.379C86.4317 444.812 94.5905 455.402 96.0493 459.292C97.5082 463.183 96.0493 468.964 93.0776 475.826C90.1058 482.688 92.9155 484.957 91.5647 491.765C90.2139 498.573 89.0252 513.054 89.2953 516.836C89.5655 520.618 55.2012 521.321 47.3666 514.459C47.3666 514.459 55.2552 502.68 56.2818 500.951C57.3084 499.276 56.4439 490.09 55.5254 487.713C54.6068 485.336 48.4472 465.29 48.4472 465.29C48.4472 465.29 43.4222 449.891 47.9609 446.325C51.9052 443.245 62.7116 442.164 64.6568 441.462C66.5479 440.813 72.2213 440.543 76.1656 441.083Z" fill="#E6D8D1"/>
<path d="M78.1111 454.646L81.7852 450.323L78.5974 438.976C78.5974 438.976 77.5167 445.298 78.1111 454.646Z" fill="#CFC3BC"/>
<path d="M79.0837 434.114C79.0837 434.114 78.9217 435.627 78.7055 437.734C78.5975 438.652 78.5434 439.733 78.4354 440.814C78.1652 443.893 78.0031 447.189 78.1112 448.864C78.1112 448.864 71.7894 455.186 64.6572 441.516C64.6572 441.516 67.683 435.843 65.4137 428.17C63.0903 420.444 79.0837 434.114 79.0837 434.114Z" fill="#DBA585"/>
<path d="M78.1104 448.864V454.646L70.8701 449.242L78.1104 448.864Z" fill="#DBA585"/>
<path d="M78.1113 454.646L75.0855 450.917L64.9275 440.813L61.6855 443.947L78.1113 454.646Z" fill="#CFC3BC"/>
<path d="M63.5214 441.786C63.5214 441.786 72.0585 454.7 72.4367 460.427C72.8689 466.101 69.2488 508.678 66.3851 522.348C63.5214 536.018 42.8271 520.781 42.8271 520.781C42.8271 520.781 56.7134 498.304 51.3642 480.311C46.0151 462.318 44.0699 455.132 44.0699 455.132C44.0699 455.132 45.907 445.082 52.3908 443.677C58.2263 442.38 63.5214 441.786 63.5214 441.786Z" fill="#363957"/>
<path d="M96.6976 461.021C96.6976 461.021 98.1565 466.479 92.1589 478.528C92.1589 478.528 92.267 493.927 92.4291 498.736C92.5912 503.545 95.9952 520.835 95.9952 520.835L87.8364 525.211C86.6477 525.914 85.1888 524.941 85.3509 523.59C87.0259 509.758 92.4831 457.293 80.7041 443.191L85.4049 444.596C85.4049 444.488 93.8879 451.35 96.6976 461.021Z" fill="#363957"/>
<path d="M81.7845 450.323L86.4313 451.62L78.5967 438.976L81.7845 450.323Z" fill="#F3E4DC"/>
<path d="M75.0858 450.918L70.8713 456.483L62.1182 441.948L65.1439 440.219L75.0858 450.918Z" fill="#F3E4DC"/>
<path d="M92.5651 487.7L93.752 486.762L82.4942 472.52L81.3074 473.458L92.5651 487.7Z" fill="#CB4949"/>
<path d="M80.5421 486.038C80.5421 486.038 81.6227 486.038 82.3251 485.498C83.5678 484.579 84.0001 482.31 86.1614 482.472C88.3227 482.634 89.2952 489.388 88.7549 490.685C88.2146 491.982 85.2429 492.63 80.8122 491.712C76.3816 490.901 80.5421 486.038 80.5421 486.038Z" fill="#DBA585"/>
<path d="M85.4056 482.526C85.4056 482.526 88.4854 481.446 92.1055 480.689C95.2394 479.987 99.0216 479.771 99.3458 480.311C99.778 480.905 96.266 481.446 93.1862 482.31C90.3765 483.121 91.0249 483.391 91.0249 483.391C91.0249 483.391 90.8628 483.283 94.0507 483.013C97.5087 482.688 101.129 482.688 101.453 483.391C101.615 483.715 101.507 483.985 100.264 484.255C101.021 484.201 101.129 484.417 101.129 484.742C101.291 486.309 96.2119 487.551 94.2127 488.038C95.7797 487.659 96.9143 487.551 96.374 488.578C95.7256 489.767 88.4854 491.225 85.9459 491.982C83.1903 492.9 85.4056 482.526 85.4056 482.526Z" fill="#DBA585"/>
<path d="M53.7425 443.893C51.5813 443.191 45.3676 445.406 44.2869 451.836C43.2063 458.266 42.828 465.398 41.8014 468.856C40.8288 472.314 38.2894 487.659 40.3966 488.902C42.5038 490.199 46.5022 491.333 52.1756 491.333C58.011 491.333 80.4883 492.36 80.4883 492.36L81.8932 484.363C81.8932 484.363 73.3561 483.931 68.9255 483.229C64.9812 482.634 59.5239 480.959 53.0941 480.257C53.0941 480.257 54.4449 470.747 55.4715 468.1C56.3901 465.398 63.3062 446.973 53.7425 443.893Z" fill="#363957"/>
<path d="M82.541 498.358L105.18 493.873L122.038 457.888L97.8321 460.427L82.541 498.358Z" fill="#ECB65C"/>
<path d="M108.044 487.767C108.044 487.767 109.287 486.632 110.421 485.011C111.556 483.391 115.176 477.231 114.798 476.853C114.474 476.474 109.071 476.312 108.098 477.231C107.125 478.095 109.071 478.474 109.071 478.474C109.071 478.474 106.153 478.798 106.315 479.608C106.531 480.419 108.314 480.203 108.314 480.203C108.314 480.203 105.937 480.635 106.315 481.391C106.693 482.148 107.828 482.094 107.828 482.094C107.828 482.094 105.721 482.364 105.991 483.174C106.261 483.985 109.557 484.741 109.125 485.39C108.638 485.984 108.044 487.767 108.044 487.767Z" fill="#DBA585"/>
<path d="M81.1901 399.101C81.1901 399.101 95.3465 403.531 87.6739 427.954C80.0014 452.376 60.658 425.144 62.7112 410.231C64.7104 395.427 81.1901 399.101 81.1901 399.101Z" fill="#DBA686"/>
<path d="M89.1332 413.365C89.1332 413.365 82.109 420.281 70.33 421.146C70.33 421.146 65.7913 426.441 65.4672 428.548C65.4672 428.548 54.985 410.664 67.8986 399.965C80.7582 389.159 93.888 408.935 89.1332 413.365Z" fill="#C38855"/>
<path d="M70.4928 421.632C70.3848 419.849 69.3041 415.797 66.6565 416.931C64.0089 418.066 66.8186 426.279 68.5476 425.793C68.5476 425.793 70.709 425.793 70.4928 421.632Z" fill="#DBA686"/>
<path d="M78.7062 437.734C78.5982 438.652 78.5441 439.733 78.4361 440.814C70.2772 436.761 68.9805 430.98 68.9805 430.764C74.8159 438.274 78.7062 437.734 78.7062 437.734Z" fill="#997761"/>
<defs>
<radialGradient id="paint0_radial" cx="0" cy="0" r="1" gradientUnits="userSpaceOnUse" gradientTransform="translate(221.777 119.093) scale(285.962)">
<stop offset="0.1602" stop-color="#9EC0E5"/>
<stop offset="0.5806" stop-color="#71ACFB"/>
<stop offset="1" stop-color="#6F81F0"/>
</radialGradient>
<radialGradient id="paint1_radial" cx="0" cy="0" r="1" gradientUnits="userSpaceOnUse" gradientTransform="translate(657.788 367.896) scale(85.8753 85.8755)">
<stop offset="0.1602" stop-color="#9EC0E5"/>
<stop offset="0.5806" stop-color="#71ACFB"/>
<stop offset="1" stop-color="#6F81F0"/>
</radialGradient>
<radialGradient id="paint2_radial" cx="0" cy="0" r="1" gradientUnits="userSpaceOnUse" gradientTransform="translate(657.785 367.896) scale(85.8664 85.8666)">
<stop offset="0.1602" stop-color="#9EC0E5"/>
<stop offset="0.5806" stop-color="#71ACFB"/>
<stop offset="1" stop-color="#6F81F0"/>
</radialGradient>
<radialGradient id="paint3_radial" cx="0" cy="0" r="1" gradientUnits="userSpaceOnUse" gradientTransform="translate(657.785 367.896) scale(85.8655 85.8657)">
<stop offset="0.1602" stop-color="#9EC0E5"/>
<stop offset="0.5806" stop-color="#71ACFB"/>
<stop offset="1" stop-color="#6F81F0"/>
</radialGradient>
<radialGradient id="paint4_radial" cx="0" cy="0" r="1" gradientUnits="userSpaceOnUse" gradientTransform="translate(636.978 110.864) scale(67.9082)">
<stop offset="0.1602" stop-color="#9EC0E5"/>
<stop offset="0.5806" stop-color="#71ACFB"/>
<stop offset="1" stop-color="#6F81F0"/>
</radialGradient>
<linearGradient id="paint5_linear" x1="440.575" y1="671.868" x2="550.84" y2="671.868" gradientUnits="userSpaceOnUse">
<stop stop-color="#E59148"/>
<stop offset="1" stop-color="#F1CC52"/>
</linearGradient>
<linearGradient id="paint6_linear" x1="437.12" y1="658.481" x2="547.384" y2="658.481" gradientUnits="userSpaceOnUse">
<stop stop-color="#DB843A"/>
<stop offset="1" stop-color="#E4C04C"/>
</linearGradient>
<linearGradient id="paint7_linear" x1="434.671" y1="645.095" x2="544.935" y2="645.095" gradientUnits="userSpaceOnUse">
<stop stop-color="#E59148"/>
<stop offset="1" stop-color="#F1CC52"/>
</linearGradient>
<linearGradient id="paint8_linear" x1="439.171" y1="631.708" x2="549.436" y2="631.708" gradientUnits="userSpaceOnUse">
<stop stop-color="#DB843A"/>
<stop offset="1" stop-color="#E4C04C"/>
</linearGradient>
<linearGradient id="paint9_linear" x1="432.996" y1="618.343" x2="543.26" y2="618.343" gradientUnits="userSpaceOnUse">
<stop stop-color="#DB843A"/>
<stop offset="1" stop-color="#E4C04C"/>
</linearGradient>
<linearGradient id="paint10_linear" x1="430.746" y1="604.956" x2="541.011" y2="604.956" gradientUnits="userSpaceOnUse">
<stop stop-color="#E59148"/>
<stop offset="1" stop-color="#F1CC52"/>
</linearGradient>
<linearGradient id="paint11_linear" x1="432.996" y1="591.57" x2="543.26" y2="591.57" gradientUnits="userSpaceOnUse">
<stop stop-color="#DB843A"/>
<stop offset="1" stop-color="#E4C04C"/>
</linearGradient>
<linearGradient id="paint12_linear" x1="434.88" y1="578.184" x2="545.145" y2="578.184" gradientUnits="userSpaceOnUse">
<stop stop-color="#E59148"/>
<stop offset="1" stop-color="#F1CC52"/>
</linearGradient>
<linearGradient id="paint13_linear" x1="431.425" y1="564.797" x2="541.687" y2="564.797" gradientUnits="userSpaceOnUse">
<stop stop-color="#DB843A"/>
<stop offset="1" stop-color="#E4C04C"/>
</linearGradient>
<linearGradient id="paint14_linear" x1="428.974" y1="551.41" x2="539.239" y2="551.41" gradientUnits="userSpaceOnUse">
<stop stop-color="#E59148"/>
<stop offset="1" stop-color="#F1CC52"/>
</linearGradient>
<linearGradient id="paint15_linear" x1="433.475" y1="538.024" x2="543.739" y2="538.024" gradientUnits="userSpaceOnUse">
<stop stop-color="#DB843A"/>
<stop offset="1" stop-color="#E4C04C"/>
</linearGradient>
<linearGradient id="paint16_linear" x1="444.693" y1="512.998" x2="552.711" y2="537.405" gradientUnits="userSpaceOnUse">
<stop stop-color="#E59148"/>
<stop offset="1" stop-color="#F1CC52"/>
</linearGradient>
<linearGradient id="paint17_linear" x1="293.693" y1="659.444" x2="406.382" y2="659.444" gradientUnits="userSpaceOnUse">
<stop stop-color="#E59148"/>
<stop offset="1" stop-color="#F1CC52"/>
</linearGradient>
<linearGradient id="paint18_linear" x1="297.803" y1="645.763" x2="410.492" y2="645.763" gradientUnits="userSpaceOnUse">
<stop stop-color="#DB843A"/>
<stop offset="1" stop-color="#E4C04C"/>
</linearGradient>
<linearGradient id="paint19_linear" x1="295.505" y1="632.082" x2="408.196" y2="632.082" gradientUnits="userSpaceOnUse">
<stop stop-color="#E59148"/>
<stop offset="1" stop-color="#F1CC52"/>
</linearGradient>
<linearGradient id="paint20_linear" x1="297.803" y1="618.402" x2="410.492" y2="618.402" gradientUnits="userSpaceOnUse">
<stop stop-color="#DB843A"/>
<stop offset="1" stop-color="#E4C04C"/>
</linearGradient>
<linearGradient id="paint21_linear" x1="299.727" y1="604.72" x2="412.419" y2="604.72" gradientUnits="userSpaceOnUse">
<stop stop-color="#E59148"/>
<stop offset="1" stop-color="#F1CC52"/>
</linearGradient>
<linearGradient id="paint22_linear" x1="302.618" y1="672.559" x2="415.307" y2="672.559" gradientUnits="userSpaceOnUse">
<stop stop-color="#DB843A"/>
<stop offset="1" stop-color="#E4C04C"/>
</linearGradient>
</defs>
</svg>
