<svg width="753" height="718" viewBox="0 0 753 718" fill="none" xmlns="http://www.w3.org/2000/svg">
<g clip-path="url(#clip0)">
<path opacity="0.5" d="M684.928 535.517L735.456 506.74L595.102 426.027L705.28 362.158L586.68 294.078L520.714 331.978L310.884 209.855L0 389.53L148.775 476.561C120.003 505.337 115.792 530.604 108.774 536.92C84.2125 558.678 54.0363 574.821 49.1239 589.56C43.5098 608.51 43.5098 621.845 72.2824 615.528C96.1426 609.913 204.917 546.044 234.391 527.094L270.182 548.15L230.181 571.311L484.924 718.701L743.877 569.908L684.928 535.517Z" fill="#FFB0CA"/>
<path d="M484.225 698.348C484.225 698.348 441.417 680.1 426.68 671.677C383.872 647.112 256.852 573.417 256.852 573.417L508.086 428.133C508.086 428.133 640.018 504.635 684.23 529.902C696.862 536.921 735.459 552.362 735.459 552.362L484.225 698.348Z" fill="#B89AF2"/>
<path d="M477.907 629.565C477.907 629.565 394.396 592.367 366.325 576.224C337.553 559.38 250.533 509.548 250.533 509.548L501.767 364.263C501.767 364.263 604.927 423.921 639.314 443.573C662.473 456.908 729.843 484.281 729.843 484.281L477.907 629.565Z" fill="#FC5988"/>
<path d="M512.293 428.834C514.398 430.237 516.503 430.939 517.907 431.641C519.311 432.343 520.714 433.045 521.416 433.747C522.118 434.449 522.819 434.449 523.521 435.15L524.223 435.852C524.223 435.852 524.223 435.852 523.521 436.554C523.521 436.554 522.819 437.256 522.819 437.958C522.819 438.66 522.118 438.66 522.118 439.362L521.416 440.063C521.416 440.063 520.714 440.063 520.012 440.765C519.311 440.765 517.907 440.765 517.205 440.765C515.802 440.765 514.398 440.765 512.995 440.765C511.591 440.765 510.187 440.765 508.784 440.765C507.38 440.765 506.679 440.765 505.275 440.765C504.573 440.765 503.872 440.765 503.17 440.765C502.468 440.765 502.468 440.765 502.468 440.765C502.468 440.765 502.468 440.765 502.468 441.467C503.17 441.467 503.872 442.169 504.573 442.169C505.275 442.169 505.977 442.871 506.679 443.573C507.38 444.275 508.082 444.275 508.082 444.976C508.082 445.678 508.784 446.38 508.784 447.082C508.784 447.784 508.082 448.486 507.38 449.188C506.679 449.889 505.275 450.591 503.872 451.995C503.17 452.697 501.766 453.399 499.661 454.101C498.257 454.802 496.152 455.504 494.047 456.206C491.941 456.908 491.24 456.206 489.134 456.908C487.029 457.61 484.924 457.61 482.818 458.312C480.713 458.312 479.31 459.014 477.204 458.312C475.801 458.312 473.695 457.61 472.994 456.908C472.292 456.206 471.59 455.504 470.888 454.803C470.187 454.803 470.187 454.101 470.187 453.399C470.187 452.697 470.187 451.995 470.187 451.293C470.187 450.591 470.888 450.591 471.59 449.889C472.292 449.889 472.994 449.188 473.695 449.188C474.397 449.188 475.099 449.188 475.099 449.188C475.099 450.591 475.099 451.293 476.502 451.995C477.204 452.697 478.608 452.697 480.011 453.399C481.415 453.399 482.818 453.399 484.924 452.697C487.029 452.697 488.433 451.995 490.538 451.293C492.643 450.591 494.047 449.889 495.45 449.188C496.854 448.486 498.257 447.784 498.959 447.082C499.661 446.38 500.363 445.678 500.363 445.678C500.363 444.976 500.363 444.976 499.661 444.275C498.959 443.573 498.257 443.573 496.854 443.573C495.45 443.573 494.749 442.871 494.047 442.871C493.345 442.871 491.941 442.169 491.24 442.169C490.538 442.169 489.836 442.169 489.836 441.467V440.765C489.836 440.765 489.836 440.063 490.538 440.063L491.24 439.362C491.24 439.362 491.24 438.66 491.941 438.66C491.941 438.66 492.643 437.958 494.047 437.958C495.45 437.958 496.854 437.256 498.257 437.256C499.661 437.256 501.766 437.256 503.17 436.554C505.275 436.554 506.679 436.554 508.082 435.852C509.486 435.852 511.591 435.852 512.293 435.852C513.696 435.852 514.398 435.852 515.1 435.852H515.802C515.1 435.852 515.1 435.15 513.696 435.15C512.995 434.449 511.591 434.449 510.889 433.747C510.188 433.045 509.486 432.343 508.784 432.343C508.082 431.641 508.082 430.939 508.082 430.939C508.082 430.939 508.082 430.939 508.784 430.237C509.486 430.237 510.187 429.536 510.187 429.536C510.889 429.536 510.889 428.834 512.293 428.834Z" fill="#2C1D1B"/>
<path d="M541.064 442.87C542.468 443.572 543.17 444.976 543.17 446.38C543.17 447.783 542.468 449.187 541.064 451.293C539.661 452.696 537.556 454.802 535.45 456.206C533.345 458.311 530.538 459.715 527.029 461.119C524.222 462.522 520.713 464.628 517.906 465.33C514.397 466.733 511.59 467.435 508.783 468.839C505.976 469.541 503.169 470.243 500.362 470.243C497.555 470.243 496.151 470.243 494.046 468.839C492.642 468.137 491.239 466.733 491.941 465.33C491.941 463.926 492.642 462.522 494.046 460.417C495.449 459.013 497.555 456.907 499.66 455.504C502.467 453.398 504.572 451.994 508.081 450.591C510.888 449.187 514.397 447.783 517.204 446.38C520.713 444.976 523.52 444.274 526.327 443.572C529.134 442.87 531.941 442.168 534.749 442.168C537.556 442.168 539.661 442.168 541.064 442.87ZM498.958 466.032C500.362 466.733 502.467 466.733 504.572 466.032C507.38 465.33 510.187 464.628 512.994 463.224C515.801 461.82 519.31 460.417 522.117 458.311C524.924 456.206 527.731 454.802 530.538 452.696C533.345 450.591 534.749 449.187 536.152 447.783C537.556 446.38 537.556 445.678 536.152 444.976C535.45 444.274 533.345 444.274 531.24 444.976C529.134 445.678 526.327 446.38 522.818 447.783C520.011 449.187 516.503 450.591 513.695 452.696C510.187 454.1 507.38 456.206 505.274 457.609C502.467 459.013 501.064 461.119 499.66 461.82C498.256 462.522 497.555 465.33 498.958 466.032Z" fill="#2C1D1B"/>
<path d="M541.066 476.561C538.96 477.262 536.855 478.666 534.75 479.368C531.943 480.07 529.837 480.772 527.03 481.474C524.223 482.175 522.118 482.175 520.012 482.175C517.907 482.175 516.504 482.175 515.802 481.474C514.398 480.772 513.696 480.07 512.995 479.368C512.293 477.964 512.293 477.262 512.293 475.859C512.293 475.157 512.995 474.455 513.696 473.051C514.398 472.349 515.1 471.648 516.504 470.244H517.205C517.205 470.244 517.907 470.244 517.907 470.946C517.907 471.648 518.609 471.647 518.609 471.647C518.609 471.647 518.609 472.349 519.311 472.349C517.907 473.753 517.205 475.157 517.907 475.859C517.907 476.561 518.609 477.262 519.311 477.964C520.012 477.964 521.416 478.666 522.82 477.964C524.223 477.964 526.328 477.262 527.732 477.262C529.135 476.561 531.241 475.859 532.644 475.157C534.048 474.455 536.153 473.753 536.855 473.051C538.258 472.349 538.96 471.648 538.96 470.244C538.96 469.542 538.96 468.84 537.557 468.138C536.855 467.436 535.451 466.735 534.048 466.735C532.644 466.033 531.241 466.033 529.837 466.033C529.837 466.033 529.837 466.033 529.135 465.331V464.629V463.927C529.135 463.927 529.837 463.225 531.241 462.523C532.644 461.822 533.346 461.12 534.75 460.418C536.153 459.716 537.557 459.014 539.662 458.312C541.066 457.61 543.171 456.909 544.574 456.207C545.978 455.505 547.381 454.803 548.785 454.803C550.189 454.101 550.89 454.101 550.89 454.101C551.592 454.101 552.294 454.101 552.996 454.101C553.697 454.101 554.399 454.803 555.803 454.803C556.504 455.505 557.908 456.207 559.312 456.909C560.715 457.61 562.119 459.014 564.224 460.418C564.224 460.418 564.224 460.418 564.224 461.12L563.522 461.822C563.522 461.822 562.82 462.523 562.119 462.523C561.417 462.523 561.417 463.225 560.715 463.225C560.715 463.225 560.013 463.225 559.312 462.523C558.61 462.523 557.908 461.822 557.206 461.822C556.505 461.12 555.803 461.12 554.399 460.418C553.697 459.716 552.996 459.716 552.294 459.014C551.592 458.312 550.89 458.312 550.189 458.312C549.487 458.312 549.487 457.61 549.487 457.61H548.785C548.083 457.61 548.083 457.61 547.381 457.61C545.978 458.312 544.574 459.014 543.873 459.716C542.469 460.418 541.767 461.12 540.364 461.822C540.364 461.822 539.662 461.822 539.662 462.523V463.225C542.469 463.927 543.873 464.629 545.276 466.033C546.68 466.735 547.381 468.138 547.381 469.542C547.381 470.946 546.68 471.648 545.978 473.051C543.873 474.455 542.469 475.157 541.066 476.561Z" fill="#2C1D1B"/>
<path d="M571.942 484.982V485.684L571.24 486.386C570.538 486.386 570.538 487.088 569.837 487.088C569.135 487.088 569.135 487.789 568.433 487.789C567.731 487.789 567.731 487.789 567.03 487.789C566.328 487.789 565.626 487.088 564.924 487.088C564.223 487.088 563.521 486.386 562.819 486.386C562.117 486.386 561.415 485.684 561.415 485.684H560.714C560.012 485.684 560.012 485.684 560.012 485.684C559.31 485.684 558.608 486.386 558.608 487.088C557.907 487.789 557.205 487.789 557.205 488.491C556.503 489.193 555.801 489.193 555.099 489.895C554.398 489.895 553.696 490.597 552.994 490.597H552.292C551.591 490.597 551.591 490.597 550.889 490.597C550.187 490.597 550.187 490.597 550.187 489.895C550.187 489.895 549.485 489.895 549.485 489.193L550.187 488.491C550.889 487.789 551.591 487.789 552.292 487.088C552.994 486.386 553.696 486.386 554.398 485.684C555.099 484.982 555.801 484.982 555.801 484.982C555.801 484.982 555.801 484.982 555.801 484.28V483.578C555.099 482.876 554.398 482.876 552.994 482.175C552.292 481.473 551.591 481.473 550.889 480.771C550.187 480.771 550.187 480.771 550.187 480.069C550.187 480.069 550.187 479.367 550.889 479.367C551.591 479.367 551.591 478.665 552.292 478.665C552.994 478.665 552.994 477.963 553.696 477.963C553.696 477.963 554.398 477.963 555.099 478.665C555.801 478.665 556.503 479.367 557.205 479.367C557.907 479.367 558.608 480.069 559.31 480.069C560.012 480.069 560.012 480.771 560.714 480.771C560.714 480.771 561.415 480.771 562.117 480.771C562.819 480.771 562.819 480.771 563.521 480.771C564.223 480.771 564.924 480.069 565.626 479.367C566.328 478.665 567.03 478.665 567.731 477.963C568.433 477.262 569.135 477.262 569.837 476.56C570.538 475.858 571.24 475.858 571.942 475.858H572.644C573.346 475.858 573.345 475.858 573.345 476.56L574.047 477.262V477.963C573.346 478.665 572.644 479.367 571.24 480.069C569.837 480.771 569.135 481.473 567.731 482.175C567.731 482.175 567.731 482.175 567.731 482.876C567.731 482.876 567.731 482.876 567.731 483.578C568.433 484.28 569.837 484.28 570.538 484.982C571.24 483.578 571.942 484.28 571.942 484.982Z" fill="#2C1D1B"/>
<path d="M586.681 503.231C584.575 503.933 582.47 505.336 580.365 506.038C577.558 506.74 575.452 507.442 572.645 508.144C569.838 508.846 567.733 508.846 565.628 508.846C563.522 508.846 562.119 508.846 561.417 508.144C560.014 507.442 559.312 506.74 558.61 506.038C557.908 505.336 557.908 504.634 557.908 503.231C557.908 502.529 558.61 501.827 559.312 500.423C560.013 499.722 560.715 499.02 562.119 497.616H562.821C562.821 497.616 563.522 497.616 563.522 498.318L564.224 499.02V499.721C562.821 501.125 562.119 502.529 562.821 503.231C562.821 503.933 563.522 504.634 564.224 505.336C564.926 505.336 566.329 506.038 567.733 505.336C569.137 505.336 571.242 504.635 572.645 504.635C574.049 503.933 576.154 503.231 577.558 502.529C578.961 501.827 581.067 501.125 581.768 500.423C583.172 499.722 583.874 499.02 583.874 497.616C583.874 496.914 583.874 496.212 582.47 495.51C581.768 494.808 580.365 494.107 578.961 494.107C577.558 493.405 576.154 493.405 574.751 493.405C574.751 493.405 574.751 493.405 574.049 492.703V492.001V491.299C574.049 491.299 574.751 490.597 576.154 489.895C577.558 489.194 578.26 488.492 579.663 487.79C581.067 487.088 582.47 486.386 584.575 485.684C585.979 484.982 588.084 484.281 589.488 483.579C590.891 482.877 592.295 482.175 593.698 482.175C595.102 481.473 595.804 481.473 595.804 481.473C596.506 481.473 597.207 481.473 597.909 481.473C598.611 481.473 599.313 482.175 600.716 482.175C601.418 482.877 602.821 483.579 604.225 484.281C605.629 484.982 607.032 486.386 609.137 487.79C609.137 487.79 609.137 487.79 609.137 488.492L608.436 489.194C608.436 489.194 607.734 489.895 607.032 489.895C606.33 489.895 606.33 490.597 605.629 490.597C605.629 490.597 604.927 490.597 604.225 489.895C603.523 489.895 602.822 489.194 602.12 489.194C601.418 488.492 600.716 488.492 599.313 487.79C598.611 487.088 597.909 487.088 597.207 486.386C596.506 485.684 595.804 485.684 595.102 485.684C594.4 485.684 594.4 484.982 594.4 484.982H593.698C592.997 484.982 592.997 484.982 592.295 484.982C590.891 485.684 589.488 486.386 588.786 487.088C587.383 487.79 586.681 488.492 585.277 489.194C585.277 489.194 584.575 489.194 584.575 489.895V490.597C587.383 491.299 588.786 492.001 590.19 493.405C591.593 494.107 592.295 495.51 592.295 496.914C592.295 498.318 591.593 499.02 590.891 500.423C590.19 501.125 588.786 501.827 586.681 503.231Z" fill="#2C1D1B"/>
<path d="M618.963 490.597C621.068 492.001 623.173 492.703 624.577 493.405C625.98 494.107 627.384 494.809 628.086 495.51C628.788 496.212 629.489 496.212 630.191 496.914L630.893 497.616C630.893 497.616 630.893 497.616 630.191 498.318C630.191 498.318 629.489 499.02 629.489 499.722C629.489 500.423 628.787 500.423 628.787 501.125L628.086 501.827C628.086 501.827 627.384 501.827 626.682 502.529C625.98 502.529 624.577 502.529 623.875 502.529C622.472 502.529 621.068 502.529 619.665 502.529C618.261 502.529 616.857 502.529 615.454 502.529C614.05 502.529 613.349 502.529 611.945 502.529C611.243 502.529 610.541 502.529 609.84 502.529C609.138 502.529 609.138 502.529 609.138 502.529C609.138 502.529 609.138 502.529 609.138 503.231C609.84 503.231 610.541 503.933 611.243 503.933C611.945 503.933 612.647 504.635 613.349 505.336C614.05 506.038 614.752 506.038 614.752 506.74C615.454 507.442 615.454 508.144 615.454 508.846C615.454 509.548 614.752 510.249 614.05 510.951C613.349 511.653 611.945 512.355 610.541 513.759C609.84 514.461 608.436 515.162 606.331 515.864C604.927 516.566 602.822 517.268 600.717 517.97C598.611 518.672 596.506 519.374 594.401 520.075C593.699 519.374 591.594 519.374 589.488 520.075C587.383 520.075 585.979 520.777 583.874 520.075C582.471 520.075 580.365 519.374 579.664 518.672C578.962 517.97 578.26 517.268 577.558 516.566C576.856 515.864 576.856 515.162 576.856 514.461C576.856 513.759 576.856 513.057 576.856 512.355C576.856 511.653 577.558 511.653 578.26 510.951C578.962 510.951 579.664 510.249 580.365 510.249C581.067 510.249 581.769 510.249 582.471 510.249C582.471 511.653 582.471 512.355 583.874 513.057C584.576 513.759 585.979 513.759 587.383 514.461C588.787 514.461 590.19 514.461 592.295 513.759C594.401 513.759 595.804 513.057 597.91 512.355C599.313 511.653 601.418 510.951 602.822 510.249C604.226 509.548 605.629 508.846 606.331 508.144C607.033 507.442 607.734 506.74 607.734 506.74C607.734 506.038 607.734 506.038 607.033 505.336C606.331 504.635 605.629 504.635 604.226 504.635C602.822 504.635 602.12 503.933 601.418 503.933C600.717 503.933 599.313 503.231 598.611 503.231C597.91 503.231 597.208 503.231 597.208 502.529V501.827C597.208 501.827 597.208 501.125 597.91 501.125L598.611 500.423C598.611 500.423 598.611 499.722 599.313 499.722C599.313 499.722 600.717 499.02 601.418 499.02C602.822 499.02 604.226 498.318 605.629 498.318C607.033 498.318 609.138 498.318 610.541 497.616C612.647 497.616 614.05 497.616 615.454 496.914C616.857 496.914 618.963 496.914 619.665 496.914C621.068 496.914 621.77 496.914 622.472 496.914H623.173C622.472 496.914 622.472 496.212 621.068 496.212C620.366 495.51 618.963 495.51 618.261 494.809C617.559 494.107 616.857 493.405 616.156 493.405C615.454 492.703 615.454 492.001 615.454 492.001C615.454 492.001 615.454 492.001 616.156 491.299C616.857 491.299 617.559 490.597 617.559 490.597C616.857 490.597 617.559 490.597 618.963 490.597Z" fill="#2C1D1B"/>
<path d="M604.928 517.268C606.331 516.566 607.735 515.864 609.84 515.163C611.946 514.461 614.051 514.461 616.156 513.759C618.262 513.759 620.367 513.057 621.77 513.759C623.174 513.759 624.578 513.759 625.279 514.461C625.279 514.461 625.279 513.759 625.279 513.057C625.279 512.355 625.981 511.653 625.981 510.951C626.683 510.25 626.683 509.548 627.385 508.846C628.086 508.144 628.788 507.442 629.49 507.442C630.893 506.74 631.595 506.038 633.701 506.038C635.104 505.337 637.209 505.337 638.613 504.635C640.016 504.635 642.122 503.933 643.525 504.635C644.929 504.635 646.332 505.337 647.034 505.337C647.736 506.038 648.438 506.74 649.139 507.442C649.841 508.144 649.841 508.846 649.841 509.548C649.841 510.25 649.841 510.951 649.139 512.355C648.438 513.057 647.736 513.759 646.332 514.461C644.929 515.163 644.227 515.864 642.824 516.566C641.42 517.268 640.016 517.97 638.613 517.97C637.209 518.672 635.806 518.672 634.402 519.374C632.999 519.374 631.595 519.374 630.192 519.374C630.192 520.777 629.49 522.181 628.788 523.585C628.086 524.989 625.981 526.392 623.876 527.796C622.472 528.498 620.367 529.902 617.56 530.603C614.753 531.305 612.647 532.007 609.84 532.709C607.033 533.411 604.928 533.411 602.121 533.411C600.016 533.411 597.91 532.709 596.507 532.007C595.103 531.305 594.401 530.603 594.401 529.2C594.401 528.498 594.401 527.094 595.103 525.69C595.805 524.287 596.507 523.585 597.91 522.181C601.419 519.374 602.823 517.97 604.928 517.268ZM604.928 528.498C605.63 529.2 607.033 529.2 609.139 529.2C610.542 529.2 612.647 528.498 614.051 528.498C615.455 527.796 617.56 527.796 618.963 527.094C620.367 526.392 621.77 525.69 622.472 525.69C623.174 524.989 623.876 524.989 624.578 524.287C625.279 523.585 625.981 522.883 625.981 522.181C626.683 521.479 626.683 520.777 626.683 520.076C626.683 519.374 626.683 518.672 625.981 518.672C625.981 517.97 625.279 517.97 623.876 517.97C622.472 517.97 621.069 517.97 619.665 517.97C618.262 517.97 616.858 517.97 614.753 518.672C613.349 518.672 611.244 519.374 610.542 520.076C609.139 520.777 607.735 521.479 607.033 522.181C605.63 522.883 604.928 523.585 604.226 524.989C603.524 525.69 603.524 526.392 603.524 527.796C602.823 527.094 603.524 527.796 604.928 528.498ZM644.227 512.355C644.929 512.355 644.929 511.653 644.929 510.951C644.929 510.25 644.929 510.25 644.929 509.548C644.929 508.846 644.929 508.846 644.227 508.144C644.227 507.442 643.525 507.442 643.525 507.442C642.824 507.442 642.122 506.74 641.42 506.74C640.718 506.74 639.315 506.74 638.613 506.74C637.911 506.74 636.508 506.74 635.806 507.442C634.402 507.442 633.701 508.144 632.999 508.846C632.297 508.846 632.297 509.548 631.595 510.25C630.893 510.951 630.893 511.653 630.893 512.355C630.893 513.057 630.192 513.759 630.192 514.461C630.192 515.163 630.192 515.163 630.893 515.864C631.595 516.566 632.999 516.566 634.402 516.566C635.806 516.566 637.209 515.864 638.613 515.864C640.016 515.163 641.42 515.163 642.824 514.461C643.525 513.057 644.227 512.355 644.227 512.355Z" fill="#2C1D1B"/>
<path d="M424.572 542.535C425.976 541.833 428.081 541.132 430.186 540.43C432.292 539.728 434.397 539.026 437.204 539.026C439.309 539.026 441.415 538.324 443.52 538.324C445.625 538.324 447.029 538.324 447.731 539.026C447.731 539.026 447.731 538.324 447.731 537.622C447.731 536.92 448.432 536.219 449.134 535.517C449.836 534.815 450.538 534.113 451.24 533.411C451.941 532.709 452.643 532.007 453.345 531.306C454.748 530.604 456.152 529.902 458.257 529.2C460.363 528.498 461.766 528.498 463.871 527.796C465.977 527.796 467.38 527.094 469.486 527.796C470.889 527.796 472.293 528.498 473.696 528.498C474.398 529.2 475.1 529.902 475.801 530.604C476.503 531.306 476.503 532.007 477.205 533.411C477.205 534.113 477.205 535.517 476.503 536.219C475.801 536.92 475.1 538.324 473.696 539.026C472.293 539.728 470.889 540.43 469.486 541.132C468.082 541.833 466.678 542.535 464.573 543.237C463.17 543.939 461.064 543.939 459.661 544.641C457.555 544.641 456.152 545.343 454.748 544.641C454.748 546.045 454.047 547.448 453.345 548.852C451.941 550.256 450.538 551.66 447.731 553.063C445.625 553.765 443.52 555.169 440.713 555.871C437.906 556.572 435.099 557.274 432.292 557.976C429.485 558.678 426.678 558.678 423.87 558.678C421.063 558.678 418.958 557.976 417.555 557.274C416.151 556.572 415.449 555.169 415.449 554.467C415.449 553.063 415.449 552.361 416.151 550.958C416.853 549.554 417.555 548.15 419.66 546.746C420.362 545.343 422.467 543.939 424.572 542.535ZM423.87 555.169C425.274 555.871 426.678 555.871 428.081 555.871C430.186 555.871 431.59 555.169 433.695 555.169C435.801 554.467 437.204 553.765 439.309 553.063C440.713 552.361 442.116 551.659 442.818 551.659C443.52 550.958 444.222 550.256 445.625 549.554C446.327 548.852 447.029 548.15 447.731 547.448C448.432 546.746 448.432 546.045 448.432 545.343C448.432 544.641 448.432 543.939 447.731 543.237C447.731 542.535 446.327 542.535 444.924 541.833C443.52 541.833 442.116 541.132 440.713 541.132C439.309 541.132 437.204 541.132 435.099 541.833C432.993 542.535 431.59 542.535 430.186 543.939C428.783 544.641 427.379 546.045 425.976 546.746C424.572 547.448 423.87 548.852 423.169 549.554C422.467 550.256 422.467 551.659 422.467 552.361C422.467 553.765 423.169 554.467 423.87 555.169ZM468.784 536.92C469.486 536.92 469.486 536.219 469.486 535.517C469.486 534.815 469.486 534.815 469.486 534.113C469.486 533.411 469.486 533.411 468.784 532.709C468.784 532.007 468.082 532.007 468.082 532.007C467.38 531.306 466.678 531.306 465.275 531.306C464.573 531.306 463.17 531.306 461.766 531.306C460.363 531.306 459.661 532.007 458.257 532.007C456.854 532.709 456.152 532.709 454.748 533.411C454.047 533.411 454.047 534.113 453.345 534.815C452.643 535.517 452.643 536.219 451.941 536.92C451.941 537.622 451.24 538.324 451.24 539.026C451.24 539.728 451.24 540.43 451.941 540.43C452.643 541.132 454.047 541.132 455.45 541.132C456.854 541.132 458.257 540.43 460.363 539.728C461.766 539.026 463.17 538.324 464.573 538.324C467.38 537.622 468.784 536.92 468.784 536.92Z" fill="#2C1D1B"/>
<path d="M451.241 568.504C451.241 569.206 451.241 569.907 450.539 569.907C449.837 570.609 449.135 570.609 448.434 571.311C447.732 572.013 446.328 572.013 445.627 572.013C444.925 572.013 444.223 572.013 443.521 572.013C442.82 572.013 442.82 572.013 442.118 571.311L441.416 570.609C441.416 569.907 441.416 569.907 442.118 569.206C442.118 568.504 442.82 568.504 443.521 568.504C444.223 568.504 444.925 567.802 445.627 567.802C446.328 567.802 447.03 567.1 447.732 567.1C448.434 567.1 449.135 567.1 449.837 567.1C450.539 567.802 451.241 568.504 451.241 568.504ZM501.768 552.361C499.663 553.765 496.856 554.467 494.049 555.168C491.242 555.87 487.733 556.572 484.926 557.274C482.119 557.976 478.61 557.976 475.803 558.678C472.996 559.38 470.89 559.38 468.785 559.38C467.382 559.38 465.276 560.081 463.873 560.783C462.469 561.485 460.364 562.889 458.96 564.293C458.259 564.293 458.258 564.293 457.557 564.293C456.855 564.293 456.855 564.293 456.153 563.591C455.451 563.591 455.451 562.889 455.451 562.889L454.75 562.187C454.75 561.485 454.75 561.485 455.451 560.783C456.153 560.081 456.855 559.38 458.259 558.678C459.662 557.976 460.364 557.274 462.469 556.572C463.873 555.87 465.978 555.168 467.381 554.467C468.083 554.467 468.785 553.765 470.89 553.765C472.294 553.765 474.399 553.063 475.803 553.063C477.908 553.063 480.013 552.361 482.119 552.361C484.224 552.361 486.329 551.659 488.435 550.957C490.54 550.255 491.943 550.255 494.049 549.554C495.452 548.852 496.856 548.852 497.558 548.15C498.259 548.15 498.961 547.448 499.663 546.746C500.365 546.044 501.066 545.342 501.768 545.342C502.47 544.641 502.47 543.939 502.47 543.939C502.47 543.237 502.47 543.237 501.768 542.535C500.365 541.833 498.961 541.131 497.558 541.131C496.154 541.131 494.049 540.429 492.645 540.429C491.242 540.429 489.838 540.429 488.435 540.429C487.031 540.429 486.329 540.429 485.628 540.429C484.926 540.429 484.224 541.131 483.522 541.131C482.82 541.131 482.119 541.833 481.417 541.833C480.715 541.833 480.013 541.833 480.715 541.833C480.715 541.833 481.417 541.131 481.417 540.429C482.119 539.728 482.82 539.728 483.522 539.026C484.224 538.324 484.926 538.324 485.628 537.622C486.329 537.622 487.733 536.92 489.838 536.92C491.943 536.92 494.049 536.218 496.154 536.218C498.259 536.218 501.066 536.218 503.172 536.218C505.277 536.218 507.382 536.92 508.786 537.622C510.19 538.324 510.891 539.728 510.891 540.429C510.891 541.833 510.189 542.535 509.488 543.939C508.786 545.342 507.382 546.044 506.681 547.448C503.874 550.957 502.47 551.659 501.768 552.361Z" fill="#2C1D1B"/>
<path d="M519.31 513.759C517.907 512.356 515.1 514.461 516.503 516.567C544.574 540.43 517.205 574.119 491.24 583.945C470.186 592.367 443.519 595.877 422.466 586.753C401.413 577.628 390.886 553.765 411.238 536.219C420.361 527.797 433.694 524.287 445.624 521.48C471.59 516.567 494.047 523.585 517.907 532.71C518.609 532.71 518.609 532.008 517.907 532.008C490.538 512.356 447.028 510.952 417.554 527.095C391.588 541.132 388.079 572.014 415.448 586.753C442.817 602.193 487.029 595.175 510.889 576.225C531.942 561.486 539.662 532.008 519.31 513.759Z" fill="#2C1D1B"/>
<path d="M621.069 348.823L322.816 520.778L11.9316 338.295L306.675 168.446L621.069 348.823Z" fill="#493231"/>
<path d="M621.069 348.823L687.737 231.613L374.046 50.5334L306.676 168.445L621.069 348.823Z" fill="#472F2E"/>
<path d="M616.859 336.892L675.808 233.719L377.555 61.7637L318.606 164.937L616.859 336.892Z" fill="#2C1D1B"/>
<path d="M610.541 320.047L647.735 258.985L370.536 98.26L333.342 159.322L610.541 320.047Z" fill="#4688E8"/>
<path d="M11.9316 338.295V383.916L325.623 564.995V519.374L11.9316 338.295Z" fill="#382624"/>
<path d="M621.07 348.823L325.624 519.374V564.995L644.228 379.003L708.791 266.706L687.738 231.613L621.07 348.823Z" fill="#352322"/>
<path d="M343.168 209.855H336.852L315.097 196.52C310.185 193.713 302.465 194.415 296.851 197.222L280.711 206.346H276.5V212.663C276.5 214.067 277.202 216.172 279.307 217.576L304.571 232.315C309.483 235.122 317.203 234.42 322.817 231.613L338.958 222.489C341.765 221.085 343.168 218.278 343.168 216.172V209.855Z" fill="#EA397D"/>
<path d="M304.569 225.998L279.306 211.259C274.393 208.451 275.095 204.24 280.709 200.731L296.85 191.607C302.464 188.799 310.184 188.097 315.096 190.905L340.36 205.644C345.272 208.451 344.57 212.662 338.956 216.172L322.815 225.296C317.903 228.103 309.482 228.805 304.569 225.998Z" fill="#FC5988"/>
<path d="M396.503 242.842H390.187L367.73 230.208C362.818 227.401 355.098 228.103 349.484 230.91L333.343 240.034H329.133V245.649C329.133 247.053 329.835 249.158 331.94 250.562L357.204 265.301C362.116 268.108 369.836 267.407 375.45 264.599L391.59 255.475C394.397 254.071 395.801 251.264 395.801 249.158V242.842H396.503Z" fill="#4688E8"/>
<path d="M358.607 258.985L333.344 244.246C328.431 241.438 329.133 237.227 334.747 233.718L350.888 224.594C356.502 221.786 364.222 221.085 369.134 223.892L394.398 238.631C399.31 241.438 398.608 245.65 392.994 249.159L376.853 258.283C371.239 261.09 362.818 261.09 358.607 258.985Z" fill="#73ACFF"/>
<path d="M452.644 275.83H446.328L423.872 263.196C418.959 260.389 411.24 261.091 405.626 263.898L389.485 273.022H385.274V279.339C385.274 280.743 385.976 282.848 388.081 284.252L413.345 298.991C418.258 301.799 425.977 301.097 431.591 298.289L447.732 289.165C450.539 287.761 451.943 284.954 451.943 282.848V275.83H452.644Z" fill="#4688E8"/>
<path d="M414.049 291.271L388.785 276.532C383.873 273.724 384.574 269.513 390.189 266.004L406.329 256.88C411.944 254.072 419.663 253.37 424.575 256.178L449.839 270.917C454.752 273.724 454.05 277.935 448.436 281.445L432.295 290.569C426.681 294.078 418.259 294.078 414.049 291.271Z" fill="#73ACFF"/>
<path d="M508.786 308.115H502.47L480.013 295.481C475.101 292.674 467.382 293.375 461.767 296.183L445.627 305.307H441.416V311.624C441.416 313.028 442.118 315.133 444.223 316.537L470.189 329.872C475.101 332.68 482.82 331.978 488.435 329.17L504.575 320.046C507.382 318.642 508.786 315.835 508.786 313.729V308.115Z" fill="#4688E8"/>
<path d="M470.19 324.258L444.927 309.519C440.014 306.711 440.716 302.5 446.33 298.991L462.471 289.867C468.085 287.059 475.805 286.357 480.717 289.165L505.981 303.904C510.893 306.711 510.191 310.922 504.577 314.432L488.436 323.556C482.822 326.363 475.103 327.065 470.19 324.258Z" fill="#73ACFF"/>
<path d="M565.627 341.102H559.311L536.854 328.468C531.942 325.661 524.222 326.363 518.608 329.17L502.467 338.294H498.257V343.909C498.257 345.313 498.959 347.418 501.064 348.822L526.328 363.561C531.24 366.368 538.96 365.667 544.574 362.859L560.714 353.735C563.522 352.331 564.925 349.524 564.925 347.418V341.102H565.627Z" fill="#EA397D"/>
<path d="M527.031 357.245L501.768 342.506C496.855 339.698 497.557 335.487 503.171 331.978L519.312 322.854C524.926 320.046 532.645 319.345 537.558 322.152L562.822 336.891C567.734 339.698 567.032 343.91 561.418 347.419L545.277 356.543C539.663 359.35 531.242 360.052 527.031 357.245Z" fill="#FC5988"/>
<path d="M291.937 240.035H285.621L263.165 227.401C258.252 224.594 250.533 225.296 244.919 228.103L228.778 237.227H224.567V243.544C224.567 244.948 225.269 247.053 227.374 248.457L252.638 263.196C257.551 266.003 265.27 265.302 270.884 262.494L287.025 253.37C289.832 251.966 291.236 249.159 291.236 247.053V240.035H291.937Z" fill="#4688E8"/>
<path d="M253.342 256.178L228.078 241.439C223.166 238.632 223.867 234.42 229.482 230.911L245.622 221.787C251.236 218.979 258.956 218.278 263.868 221.085L289.132 235.824C294.044 238.631 293.343 242.843 287.729 246.352L271.588 255.476C265.974 258.284 257.552 258.284 253.342 256.178Z" fill="#73ACFF"/>
<path d="M345.274 272.321H338.958L317.203 259.687C312.29 256.88 304.571 257.582 298.957 260.389L282.816 269.513H278.605V275.83C278.605 277.234 279.307 279.339 281.413 280.743L306.676 295.482C311.589 298.29 319.308 297.588 324.922 294.78L341.063 285.656C343.87 284.252 345.274 281.445 345.274 279.339V272.321Z" fill="#4688E8"/>
<path d="M306.675 288.464L281.411 273.725C276.499 270.918 277.2 266.706 282.815 263.197L298.955 254.073C304.569 251.266 312.289 250.564 317.201 253.371L342.465 268.11C347.377 270.918 346.676 275.129 341.062 278.638L324.921 287.762C319.307 291.271 310.885 291.271 306.675 288.464Z" fill="#73ACFF"/>
<path d="M400.712 305.308H394.396L371.939 292.674C367.027 289.867 359.307 290.569 353.693 293.376L337.552 302.5H333.342V308.817C333.342 310.221 334.044 312.326 336.149 313.73L361.413 328.469C366.325 331.276 374.044 330.575 379.659 327.767L395.799 318.643C398.606 317.239 400.01 314.432 400.01 312.326V305.308H400.712Z" fill="#4688E8"/>
<path d="M362.116 321.451L336.852 306.712C331.94 303.904 332.642 299.693 338.256 296.184L354.397 287.06C360.011 284.252 367.73 283.551 372.643 286.358L397.907 301.097C402.819 303.904 402.117 308.116 396.503 311.625L380.362 320.749C374.748 323.556 367.029 324.258 362.116 321.451Z" fill="#73ACFF"/>
<path d="M457.553 338.295H451.237L428.78 325.661C423.868 322.854 416.148 323.556 410.534 326.363L394.393 335.487H390.183V341.804C390.183 343.208 390.884 345.313 392.99 346.717L418.253 361.456C423.166 364.263 430.885 363.562 436.499 360.754L452.64 351.63C455.447 350.226 456.851 347.419 456.851 345.313V338.295H457.553Z" fill="#EA397D"/>
<path d="M418.957 354.438L393.693 339.699C388.781 336.892 389.483 332.68 395.097 329.171L411.238 320.047C416.852 317.239 424.571 316.538 429.484 319.345L454.747 334.084C459.66 336.892 458.958 341.103 453.344 344.612L437.203 353.736C431.589 356.544 423.168 357.245 418.957 354.438Z" fill="#FC5988"/>
<path d="M513.699 371.283H507.383L485.628 357.947C480.715 355.14 472.996 355.842 467.382 358.649L451.241 367.773H447.03V374.09C447.03 375.494 447.732 377.599 449.837 379.003L475.101 393.742C480.013 396.55 487.733 395.848 493.347 393.04L509.488 383.916C512.295 382.512 513.699 379.705 513.699 377.599V371.283Z" fill="#EA397D"/>
<path d="M475.1 387.425L449.836 372.686C444.923 369.879 445.625 365.667 451.239 362.158L467.38 353.034C472.994 350.227 480.714 349.525 485.626 352.332L510.89 367.071C515.802 369.879 515.101 374.09 509.486 377.599L493.346 386.021C487.731 389.531 480.012 389.531 475.1 387.425Z" fill="#FC5988"/>
<path d="M240.007 269.512H233.691L211.234 256.879C206.322 254.072 198.603 254.773 192.988 257.581L177.549 266.705H173.339V273.022C173.339 274.425 174.041 276.531 176.146 277.935L201.41 292.674C206.322 295.481 214.042 294.779 219.656 291.972L235.796 282.848C238.604 281.444 240.007 278.637 240.007 276.531V269.512Z" fill="#4688E8"/>
<path d="M201.408 285.656L176.144 270.917C171.232 268.109 171.934 263.898 177.548 260.389L193.689 251.265C199.303 248.457 207.022 247.755 211.935 250.563L237.198 265.302C242.111 268.109 241.409 272.32 235.795 275.83L219.654 284.954C214.04 288.463 206.321 288.463 201.408 285.656Z" fill="#73ACFF"/>
<path d="M293.342 302.499H287.026L264.569 289.866C259.657 287.059 251.937 287.761 246.323 290.568L230.182 299.692H225.972V306.009C225.972 307.412 226.673 309.518 228.779 310.922L254.043 325.661C258.955 328.468 266.674 327.766 272.289 324.959L288.429 315.835C291.236 314.431 292.64 311.624 292.64 309.518V302.499H293.342Z" fill="#4688E8"/>
<path d="M254.746 318.643L229.482 303.904C224.57 301.096 225.272 296.885 230.886 293.376L247.027 284.252C252.641 281.444 260.36 280.742 265.273 283.55L290.536 298.289C295.449 301.096 294.747 305.307 289.133 308.817L272.992 317.941C267.378 320.748 259.658 321.45 254.746 318.643Z" fill="#73ACFF"/>
<path d="M348.778 335.487H342.462L320.006 322.853C315.093 320.046 307.374 320.748 301.76 323.555L285.619 332.679H281.408V338.996C281.408 340.4 282.11 342.505 284.215 343.909L309.479 358.648C314.391 361.455 322.111 360.753 327.725 357.946L343.866 348.822C346.673 347.418 348.076 344.611 348.076 342.505V335.487H348.778Z" fill="#4688E8"/>
<path d="M310.181 351.63L285.619 336.891C280.707 334.083 281.408 329.872 287.023 326.363L303.163 317.239C308.777 314.431 316.497 313.73 321.409 316.537L346.673 331.276C351.586 334.083 350.884 338.295 345.27 341.804L328.427 350.928C323.515 353.735 315.093 354.437 310.181 351.63Z" fill="#73ACFF"/>
<path d="M405.622 368.475H399.306L376.85 355.841C371.937 353.034 364.218 353.736 358.604 356.543L343.165 364.966H338.954V371.282C338.954 372.686 339.656 374.792 341.761 376.195L367.025 390.934C371.937 393.742 379.657 393.04 385.271 390.232L401.412 381.108C404.219 379.705 405.622 376.897 405.622 374.792V368.475Z" fill="#EA397D"/>
<path d="M367.023 384.618L341.76 369.879C336.847 367.072 337.549 362.861 343.163 359.351L359.304 350.227C364.918 347.42 372.638 346.718 377.55 349.525L402.814 364.264C407.726 367.072 407.024 371.283 401.41 374.792L385.269 383.916C379.655 386.724 371.234 386.724 367.023 384.618Z" fill="#FC5988"/>
<path d="M461.761 400.759H455.445L432.989 388.126C428.076 385.319 420.357 386.021 414.743 388.828L400.006 397.952H395.795V404.269C395.795 405.672 396.497 407.778 398.602 409.182L423.866 423.921C428.778 426.728 436.498 426.026 442.112 423.219L458.253 414.095C461.06 412.691 462.463 409.884 462.463 407.778V400.759H461.761Z" fill="#EA397D"/>
<path d="M423.165 416.903L397.901 402.164C392.989 399.356 393.691 395.145 399.305 391.636L415.446 382.512C421.06 379.704 428.779 379.002 433.692 381.81L458.955 396.549C463.868 399.356 463.166 403.568 457.552 407.077L441.411 416.201C435.797 419.71 428.077 419.71 423.165 416.903Z" fill="#FC5988"/>
<path d="M188.077 299.693H181.761L159.304 287.059C154.392 284.252 146.672 284.954 141.058 287.761L126.321 296.885H122.11V303.202C122.11 304.606 122.812 306.711 124.917 308.115L150.181 322.854C155.094 325.661 162.813 324.959 168.427 322.152L184.568 313.028C187.375 311.624 188.779 308.817 188.779 306.711V299.693H188.077Z" fill="#4688E8"/>
<path d="M149.48 315.836L124.217 301.097C119.304 298.289 120.006 294.078 125.62 290.569L141.761 281.445C147.375 278.637 155.095 277.936 160.007 280.743L185.271 295.482C190.183 298.289 189.481 302.501 183.867 306.01L167.726 315.134C162.112 317.941 154.393 318.643 149.48 315.836Z" fill="#73ACFF"/>
<path d="M241.414 332.68H235.098L212.641 320.046C207.729 317.239 200.009 317.941 194.395 320.748L178.255 329.872H174.044V336.189C174.044 337.593 174.746 339.698 176.851 341.102L202.115 355.841C207.027 358.648 214.747 357.947 220.361 355.139L236.502 346.015C239.309 344.611 240.712 341.804 240.712 339.698V332.68H241.414Z" fill="#4688E8"/>
<path d="M202.818 348.823L177.555 334.084C172.642 331.277 173.344 327.065 178.958 323.556L195.099 314.432C200.713 311.625 208.433 310.923 213.345 313.73L238.609 328.469C243.521 331.277 242.819 335.488 237.205 338.997L221.064 348.121C216.152 350.929 207.731 350.929 202.818 348.823Z" fill="#73ACFF"/>
<path d="M297.556 365.668H291.24L268.783 353.035C263.871 350.227 256.151 350.929 250.537 353.736L234.396 362.861H230.186V369.177C230.186 370.581 230.887 372.687 232.993 374.09L258.256 388.829C263.169 391.637 270.888 390.935 276.502 388.127L292.643 379.003C295.45 377.6 296.854 374.792 296.854 372.687V365.668H297.556Z" fill="#4688E8"/>
<path d="M258.96 381.109L233.696 366.37C228.784 363.562 229.486 359.351 235.1 355.842L251.24 346.718C256.855 343.91 264.574 343.209 269.487 346.016L294.75 360.755C299.663 363.562 298.961 367.774 293.347 371.283L277.206 380.407C271.592 383.916 263.171 383.916 258.96 381.109Z" fill="#73ACFF"/>
<path d="M410.542 430.94H404.226L381.77 418.306C376.857 415.499 369.138 416.201 363.524 419.008L348.085 428.132H343.874V434.449C343.874 435.853 344.576 437.958 346.681 439.362L371.945 454.101C376.857 456.908 384.577 456.207 390.191 453.399L406.332 444.275C409.139 442.871 410.542 440.064 410.542 437.958V430.94Z" fill="#EA397D"/>
<path d="M371.943 447.083L346.68 432.344C341.767 429.536 342.469 425.325 348.083 421.816L364.224 412.692C369.838 409.885 377.558 409.183 382.47 411.99L407.734 426.729C412.646 429.536 411.944 433.748 406.33 437.257L390.189 446.381C384.575 449.188 376.154 449.89 371.943 447.083Z" fill="#FC5988"/>
<path d="M136.849 329.873H130.533L108.076 317.239C103.164 314.432 95.444 315.134 89.8299 317.941L73.6891 327.065H69.4785V333.382C69.4785 334.786 70.1803 336.891 72.2856 338.295L97.5493 353.034C102.462 355.842 110.181 355.14 115.795 352.332L131.936 343.208C134.743 341.804 136.147 338.997 136.147 336.891V329.873H136.849Z" fill="#4688E8"/>
<path d="M98.2529 346.016L72.9892 331.277C68.0768 328.47 68.7786 324.258 74.3927 320.749L90.5334 311.625C96.1476 308.818 103.867 308.116 108.779 310.923L134.043 325.662C138.956 328.47 138.254 332.681 132.64 336.19L116.499 345.314C110.885 348.122 103.165 348.122 98.2529 346.016Z" fill="#73ACFF"/>
<path d="M190.181 362.159H183.865L161.408 349.525C156.496 346.718 148.776 347.42 143.162 350.227L127.021 359.351H122.811V364.966C122.811 366.37 123.512 368.475 125.618 369.879L150.881 384.618C155.794 387.425 163.513 386.724 169.127 383.916L185.268 374.792C188.075 373.388 189.479 370.581 189.479 368.475V362.159H190.181Z" fill="#4688E8"/>
<path d="M151.585 378.302L126.321 363.563C121.409 360.756 122.111 356.544 127.725 353.035L143.865 343.911C149.48 341.104 157.199 340.402 162.112 343.209L187.375 357.948C192.288 360.756 191.586 364.967 185.972 368.476L169.831 377.6C164.919 381.109 156.497 381.109 151.585 378.302Z" fill="#73ACFF"/>
<path d="M246.322 395.147H240.006L217.55 381.811C212.637 379.004 204.918 379.706 199.304 382.513L183.163 391.637H178.952V397.954C178.952 399.358 179.654 401.463 181.759 402.867L207.023 417.606C211.935 420.414 219.655 419.712 225.269 416.904L241.41 407.78C244.217 406.376 245.62 403.569 245.62 401.463V395.147H246.322Z" fill="#4688E8"/>
<path d="M207.727 411.289L182.463 396.55C177.55 393.743 178.252 389.531 183.866 386.022L200.007 376.898C205.621 374.091 213.341 373.389 218.253 376.196L243.517 390.935C248.429 393.743 247.727 397.954 242.113 401.463L225.973 410.587C220.358 413.395 211.937 414.096 207.727 411.289Z" fill="#73ACFF"/>
<path d="M359.311 461.12H352.995L330.539 448.486C325.626 445.679 317.907 446.381 312.293 449.188L296.152 458.312H291.941V463.225C291.941 464.629 292.643 466.735 294.749 468.138L320.012 482.877C324.925 485.685 332.644 484.983 338.258 482.176L354.399 473.051C357.206 471.648 358.61 468.84 358.61 466.735V461.12H359.311Z" fill="#EA397D"/>
<path d="M320.716 477.263L295.452 462.524C290.54 459.717 291.241 455.506 296.856 451.996L312.996 442.872C318.611 440.065 326.33 439.363 331.242 442.17L356.506 456.909C361.419 459.717 360.717 463.928 355.103 467.437L338.962 476.561C333.348 479.369 324.926 479.369 320.716 477.263Z" fill="#FC5988"/>
<path d="M348.076 397.953L325.62 385.319C320.707 382.512 312.988 383.214 307.374 386.021C307.374 386.021 261.758 412.692 256.144 416.201L240.004 425.325H235.793V431.642C235.793 433.045 236.495 435.151 238.6 436.555L263.864 451.294C268.776 454.101 276.496 453.399 282.11 450.592L293.338 444.275L298.251 441.468L343.164 415.499L349.48 411.99C352.287 410.586 353.69 407.779 353.69 405.673V400.058L348.076 397.953Z" fill="#4688E8"/>
<path d="M350.885 393.742L325.622 379.003C320.709 376.196 312.99 376.897 307.376 379.705L298.954 384.618L240.006 419.009C234.391 421.816 234.391 426.729 238.602 429.537L263.866 444.276C268.778 447.083 276.498 446.381 282.112 443.574L349.482 404.27C355.096 400.761 355.096 396.549 350.885 393.742Z" fill="#73ACFF"/>
<path d="M143.164 298.29L146.673 300.395L158.603 293.377L155.094 291.271L157.901 289.867C160.007 290.569 162.112 291.271 164.217 291.271L167.024 292.675L150.884 302.501L154.392 304.606L150.884 306.712L139.655 300.395L143.164 298.29Z" fill="#232221"/>
<path d="M197.899 332.68C207.022 332.68 214.04 331.978 216.847 330.574C218.952 329.17 218.952 328.468 217.548 327.065C216.145 326.363 214.04 326.363 212.636 326.363V323.555C216.847 323.555 218.952 323.555 221.759 324.959C225.268 327.065 225.268 329.872 221.057 331.978C217.548 334.083 211.233 334.785 204.917 334.785C205.618 335.487 207.022 336.189 208.425 336.189L211.934 338.294L207.724 340.4L195.092 333.381L197.899 332.68Z" fill="#232221"/>
<path d="M251.937 364.965L256.849 364.264C256.849 365.667 256.849 367.071 258.955 367.773C260.358 368.475 262.463 369.177 263.867 367.773C265.972 367.071 265.972 365.667 261.762 363.562L265.271 361.456C268.078 363.562 270.183 363.562 272.288 362.158C273.692 361.456 273.692 360.754 272.288 359.351C270.885 358.649 269.481 358.649 267.376 358.649L268.078 355.841C271.587 355.841 273.692 356.543 276.499 357.245C280.008 359.351 280.71 362.158 277.201 364.264C275.095 365.667 272.288 365.667 269.481 364.965C270.885 366.369 270.885 368.475 268.078 369.878C264.569 371.984 258.955 371.282 255.446 369.177C251.937 368.475 251.235 366.369 251.937 364.965Z" fill="#232221"/>
<path d="M297.555 408.48L292.642 405.673L296.151 403.567L301.063 406.375L306.678 402.865L309.485 404.269L303.871 407.778L308.783 410.586L305.274 412.691L300.362 409.884L294.748 414.095L291.94 412.691L297.555 408.48Z" fill="#232221"/>
<path d="M364.222 362.159L367.731 360.053L380.362 367.072L376.854 369.177L364.222 362.159Z" fill="#232221"/>
<path d="M152.286 356.543C159.304 352.332 164.918 351.63 169.129 354.438C172.637 356.543 171.936 360.053 164.918 364.264C157.9 368.475 151.584 369.177 148.076 367.071C143.865 364.264 145.268 360.755 152.286 356.543ZM160.707 361.456C166.322 357.947 166.322 357.245 164.918 355.842C163.514 355.14 161.409 355.14 155.795 358.649C150.181 362.158 150.181 363.562 151.584 364.264C152.988 364.966 155.093 364.966 160.707 361.456Z" fill="#232221"/>
<path d="M96.1446 324.96L108.776 331.978L105.268 334.084L92.6357 327.065L96.1446 324.96ZM103.162 320.749L115.794 327.767L112.987 329.873L100.355 322.854L103.162 320.749Z" fill="#232221"/>
<path d="M211.237 391.637C212.641 390.935 215.448 390.233 216.851 391.637C218.255 392.338 218.255 393.742 216.15 394.444C214.746 395.146 211.939 395.848 210.536 394.444C209.132 393.742 209.834 392.338 211.237 391.637Z" fill="#232221"/>
<path d="M201.412 270.214L193.692 266.003L197.201 263.897L215.447 260.388L220.36 263.196L208.43 270.214L210.535 271.618L207.026 273.723L204.921 272.32L200.008 275.127L196.499 273.022L201.412 270.214ZM205.622 268.109L209.131 266.003C210.535 265.301 212.64 263.897 214.044 263.196C212.64 263.897 210.535 263.897 209.131 264.599L202.114 266.003L205.622 268.109Z" fill="#232221"/>
<path d="M248.429 301.798L253.341 301.097C253.341 302.5 253.341 303.904 255.447 304.606C257.552 305.308 259.657 306.01 261.763 304.606C263.868 303.202 263.868 302.5 262.464 301.097C261.763 300.395 260.359 300.395 258.955 300.395L258.254 298.289L268.78 292.674L278.605 298.289L273.693 300.395L267.377 296.885L263.166 298.991C263.868 298.991 264.57 299.693 265.271 299.693C268.078 301.097 268.78 303.904 264.57 306.711C260.359 309.519 254.745 308.817 251.236 307.413C248.429 305.308 247.727 303.202 248.429 301.798Z" fill="#232221"/>
<path d="M310.883 329.873C318.602 325.662 324.918 325.662 329.129 327.767C331.234 329.171 331.936 330.575 331.936 331.978L327.024 332.68C327.024 331.978 327.024 330.575 325.62 330.575C323.515 329.171 320.708 329.171 315.795 331.978C317.901 331.978 320.006 331.978 321.409 332.68C324.216 334.084 324.918 336.891 320.708 338.997C316.497 341.103 311.585 341.103 308.076 339.699C303.865 337.593 303.865 334.084 310.883 329.873ZM316.497 336.892C318.602 335.488 318.602 334.786 317.199 334.084C316.497 333.382 314.392 333.382 312.286 333.382C309.479 335.488 309.479 336.891 310.883 337.593C312.286 338.295 313.69 338.295 316.497 336.892Z" fill="#232221"/>
<path d="M265.269 233.718L257.549 229.507L261.76 227.401L273.69 234.42L270.883 235.823C261.058 236.525 256.848 238.631 248.426 242.842L244.216 240.736C251.234 237.227 256.146 235.122 265.269 233.718Z" fill="#232221"/>
<path d="M302.465 270.214C304.57 268.811 308.079 268.811 310.184 268.811C310.184 267.407 310.184 266.003 312.289 264.599C315.798 262.494 320.009 262.494 323.518 264.599C327.027 266.705 326.325 268.811 323.518 270.916C321.412 272.32 318.605 272.32 316.5 272.32C317.202 273.724 317.202 275.829 314.395 277.233C310.886 279.338 305.973 279.338 302.465 277.233C299.658 275.127 298.956 272.32 302.465 270.214ZM310.886 275.127C312.991 274.425 311.588 273.022 310.886 270.916C309.482 270.916 307.377 271.618 305.973 272.32C303.868 273.022 304.57 274.425 305.973 275.829C307.377 275.829 309.482 275.829 310.886 275.127ZM320.009 269.512C321.412 268.811 322.114 267.407 320.711 266.705C319.307 266.003 317.904 266.003 316.5 266.705C315.096 267.407 315.096 268.811 316.5 270.214C317.904 270.214 319.307 270.214 320.009 269.512Z" fill="#232221"/>
<path d="M354.397 303.904L359.309 303.202C359.309 303.904 359.309 305.308 360.713 305.308C362.818 306.711 365.625 306.711 370.538 303.904C368.432 303.904 366.327 303.904 364.924 303.202C362.116 301.798 361.415 298.991 365.625 296.885C369.836 294.78 374.748 294.78 378.257 296.183C381.766 298.289 381.766 301.798 374.748 306.009C367.029 310.221 360.713 310.221 356.502 308.115C354.397 307.413 353.695 305.308 354.397 303.904ZM373.345 302.5C376.152 300.395 376.152 298.991 374.748 298.289C373.345 297.587 371.239 297.587 369.134 298.991C367.029 300.395 367.029 301.096 368.432 301.798C369.836 303.202 371.239 303.202 373.345 302.5Z" fill="#232221"/>
<path d="M416.149 336.19L421.062 335.488L419.658 332.681L422.465 331.979L424.571 334.084L428.781 331.979L430.887 333.382L428.08 335.488L432.29 336.892L430.887 338.296L426.676 337.594L425.272 340.401H422.465L423.167 337.594H418.255L416.149 336.19Z" fill="#232221"/>
<path d="M473.699 371.283C475.103 370.581 477.208 370.581 478.612 371.283C480.015 371.985 480.015 373.388 478.612 374.09C477.208 374.792 475.103 374.792 473.699 374.09C472.296 373.388 472.296 371.985 473.699 371.283ZM477.208 364.966L489.84 371.985L486.331 374.09L473.699 367.072L477.208 364.966ZM484.927 364.966C486.331 364.264 488.436 364.264 489.84 364.966C491.243 365.668 491.243 367.072 489.84 367.774C488.436 368.475 486.331 368.475 484.927 367.774C483.524 367.072 483.524 365.668 484.927 364.966Z" fill="#232221"/>
<path d="M303.87 202.836C310.888 198.625 318.608 198.625 323.52 201.433C325.625 202.836 326.327 204.24 326.327 206.346L321.415 207.048C321.415 205.644 321.415 204.942 320.011 204.24C317.906 202.836 312.993 202.836 308.783 205.644C304.572 208.451 303.87 210.557 306.677 211.961C308.081 212.662 310.186 212.662 312.292 212.662L311.59 215.47C308.081 215.47 305.274 215.47 302.467 214.066C296.853 211.259 296.853 207.048 303.87 202.836Z" fill="#232221"/>
<path d="M516.503 329.873C522.117 326.363 528.433 326.363 532.643 328.469C536.854 330.575 536.152 334.786 530.538 337.593C524.924 341.102 518.608 341.102 514.397 338.997C510.187 336.891 510.888 333.382 516.503 329.873ZM527.029 336.189C530.538 334.084 531.24 331.978 529.134 330.575C527.029 329.171 523.52 329.873 520.011 331.978C516.503 334.084 515.801 336.189 517.906 337.593C520.011 338.997 523.52 338.295 527.029 336.189Z" fill="#232221"/>
<path d="M542.471 334.786L545.98 336.891L541.067 344.612L538.962 348.121C540.365 346.717 543.172 345.314 545.278 343.91L551.594 340.401L555.102 342.506L536.856 353.034L533.348 350.227L538.26 342.506L540.365 339.699C538.26 341.102 536.155 342.506 534.049 343.91L527.733 347.419L524.225 345.314L542.471 334.786Z" fill="#232221"/>
<path d="M416.151 390.233C421.765 386.724 428.783 386.724 432.994 388.829C435.099 390.233 435.801 391.637 435.099 393.04L430.888 393.742C430.888 393.04 430.888 391.637 429.485 391.637C427.38 390.233 423.169 390.935 419.66 393.04C416.151 395.146 415.449 397.252 417.555 398.655C418.958 399.357 420.362 399.357 422.467 399.357L421.765 402.165C418.958 402.165 416.151 402.165 414.046 400.761C409.835 397.953 409.835 393.742 416.151 390.233Z" fill="#232221"/>
<path d="M439.309 393.743L449.133 399.358L445.624 401.463L439.309 397.954L435.8 400.059L441.414 402.867L437.905 404.972L432.291 402.165L428.08 404.27L434.396 407.78L430.887 409.885L421.062 404.27L439.309 393.743Z" fill="#232221"/>
<path d="M374.045 415.499L377.554 417.605L371.94 423.922C371.238 424.623 370.536 425.325 369.834 426.027C371.238 425.325 372.641 425.325 374.045 424.623L384.571 421.114L388.08 423.22L370.536 433.747L367.027 431.642L373.343 428.133C375.448 427.431 378.255 426.027 379.659 424.623L374.045 426.027L364.922 428.835L362.817 427.431L367.729 422.518L370.536 419.009C369.132 420.412 366.325 421.816 364.922 422.518L358.606 426.027L355.799 423.922L374.045 415.499Z" fill="#232221"/>
<path d="M385.275 433.747L381.065 431.642L383.872 430.238L388.082 432.344L392.995 429.536L395.802 430.94L390.889 433.747L395.1 435.853L392.293 437.257L387.381 435.151L382.468 437.959L379.661 436.555L385.275 433.747Z" fill="#232221"/>
<path d="M322.814 447.083L326.323 449.188L320.709 455.505C320.007 456.207 319.305 456.909 318.603 457.611C320.007 456.909 321.41 456.909 322.814 456.207L333.341 452.698L336.849 454.803L318.603 465.331L315.095 463.225L321.41 459.716C323.516 459.014 326.323 457.611 327.726 456.207L322.112 457.611L312.989 460.418L310.884 459.014L315.796 454.101L318.603 450.592C317.2 451.996 314.393 453.399 312.989 454.101L306.673 457.611L303.866 455.505L322.814 447.083Z" fill="#232221"/>
<path d="M330.536 462.523L336.15 466.032L333.343 467.436L327.729 463.927L330.536 462.523Z" fill="#232221"/>
<path d="M378.255 236.526L380.36 237.929L349.482 244.948L347.377 243.544L378.255 236.526ZM357.202 232.314C361.412 230.209 365.623 229.507 368.43 230.911C371.237 232.314 370.535 235.122 366.325 237.227C362.114 239.333 357.903 240.035 355.096 238.631C352.289 237.227 352.991 234.42 357.202 232.314ZM362.816 235.824C365.623 234.42 366.325 233.016 364.921 232.314C364.219 231.613 362.114 231.613 359.307 233.718C356.5 235.122 355.798 236.526 357.202 237.227C358.605 237.227 360.009 237.227 362.816 235.824ZM362.114 244.246C366.325 242.14 370.535 241.439 373.342 242.842C376.15 244.246 375.448 247.053 371.237 249.159C367.027 251.265 362.816 251.966 360.009 250.563C357.202 249.159 357.903 247.053 362.114 244.246ZM367.728 247.755C370.535 246.352 371.237 244.948 369.834 244.246C369.132 243.544 367.027 243.544 364.219 245.65C361.412 247.053 360.711 248.457 362.114 249.159C363.518 249.861 364.921 249.861 367.728 247.755Z" fill="#232221"/>
<path d="M406.328 274.426L411.241 273.724C411.241 274.426 411.241 275.83 412.644 275.83C414.749 277.233 417.556 277.233 422.469 274.426C420.364 274.426 418.258 274.426 416.855 273.724C414.048 272.32 413.346 269.513 417.556 267.407C421.767 265.302 426.679 265.302 430.188 266.706C433.697 268.811 433.697 272.32 426.679 276.532C418.96 280.743 412.644 280.743 408.433 278.637C407.03 277.233 406.328 275.83 406.328 274.426ZM425.978 273.022C428.785 270.917 428.785 269.513 427.381 268.811C425.978 268.109 423.872 268.109 421.767 269.513C419.662 270.917 419.662 271.619 421.065 272.32C422.469 273.022 423.872 273.022 425.978 273.022Z" fill="#232221"/>
<path d="M462.47 310.922L471.593 298.99L474.4 301.096L470.189 306.009L494.049 301.096L494.751 304.605L462.47 310.922Z" fill="#232221"/>
<path d="M145.268 497.617C145.268 497.617 128.426 502.53 124.215 508.145C120.005 513.759 117.899 517.971 117.198 524.989C116.496 532.008 119.303 536.219 127.022 536.219C133.338 536.219 136.847 532.71 138.251 528.498C138.251 528.498 156.497 526.393 166.322 520.076C174.743 513.759 160.707 496.213 145.268 497.617Z" fill="#212231"/>
<path d="M194.389 410.587C179.651 407.078 161.405 412.693 145.966 419.711C145.265 419.711 145.265 419.711 144.563 419.711C126.317 428.835 82.1052 449.189 82.807 449.891C75.7893 464.63 86.3158 487.089 105.965 484.984C115.79 491.301 127.019 492.002 136.843 487.791C136.142 488.493 129.124 498.319 124.211 507.443C129.826 510.251 131.229 512.356 139.65 519.375C148.773 515.866 162.107 503.934 169.827 498.319C177.546 492.704 203.512 463.928 203.512 440.065C213.336 432.345 211.231 414.798 194.389 410.587Z" fill="#2D2F46"/>
<path d="M197.198 514.461C196.496 503.934 190.18 489.195 185.268 482.878C173.338 465.331 169.127 454.102 156.495 446.381C141.056 436.555 131.933 454.102 115.792 456.207C115.792 456.207 98.9499 449.891 98.2481 449.189C98.2481 449.891 98.9499 473.754 105.266 486.387C108.775 493.406 118.599 499.722 133.337 500.424C138.951 510.952 148.776 517.971 150.881 519.374C145.969 522.884 141.056 525.691 133.337 532.71C122.108 543.238 108.775 555.169 94.7393 564.293C98.2481 566.399 101.757 569.206 102.459 571.312C104.564 574.119 105.968 576.225 106.669 581.138C131.933 575.523 151.583 562.188 172.636 547.449C180.355 542.536 183.864 536.921 189.478 530.604C200.707 527.797 200.707 517.269 197.198 514.461Z" fill="#2D2F46"/>
<path d="M142.46 324.96C142.46 324.96 124.214 304.607 105.968 327.768C100.354 334.787 99.6519 340.401 98.2484 344.612C91.2307 356.544 80.7041 372.687 76.4935 383.916C74.3882 388.829 75.7917 395.848 77.1953 397.252C80.0024 400.761 110.179 412.693 120.003 402.165C138.951 380.407 142.46 324.96 142.46 324.96Z" fill="#363957"/>
<path d="M172.636 334.084L157.899 346.016C150.179 343.208 143.863 334.084 140.354 324.96C143.162 322.854 153.688 316.538 154.39 313.73C151.583 305.308 155.793 297.588 164.215 289.867C172.636 281.445 187.373 282.147 196.496 289.165C197.9 289.867 204.917 294.78 203.514 302.501C202.812 311.625 197.198 333.382 189.478 337.593C183.864 340.401 177.548 336.19 172.636 334.084Z" fill="#FFC9B6"/>
<path d="M151.583 289.867C152.285 282.848 156.495 276.532 163.513 273.022C171.934 268.811 187.373 268.811 193.689 276.532V275.83C195.794 273.022 199.303 273.724 201.408 275.128C203.514 276.532 204.917 278.637 205.619 281.445C207.023 280.743 208.426 280.743 209.83 281.445C214.742 283.55 214.742 290.569 212.637 294.78C209.128 303.202 195.794 312.327 185.97 310.221C186.671 315.134 183.864 317.941 180.355 320.749C174.039 325.662 165.618 326.364 158.6 322.854C150.881 318.643 143.863 310.221 143.863 301.097C145.267 296.184 148.074 291.973 151.583 289.867Z" fill="#C38855"/>
<path d="M190.881 311.624C190.881 311.624 188.776 306.009 183.863 309.519C178.249 313.028 185.267 323.556 185.267 323.556L190.881 311.624Z" fill="#FFC9B6"/>
<path d="M136.843 321.45C145.966 325.661 145.264 327.065 164.212 341.804C183.16 356.543 183.862 364.965 182.458 374.09C181.055 383.214 179.651 387.425 171.932 404.971C162.809 427.431 150.879 439.362 150.879 439.362C150.879 439.362 157.195 441.468 160.002 442.872C162.809 444.977 163.51 454.803 160.703 457.611C151.58 466.033 112.983 488.492 81.4033 456.909C82.8069 431.642 91.9299 381.81 98.2458 361.456C104.562 338.997 128.422 317.941 136.843 321.45Z" fill="#363957"/>
<path d="M148.074 444.276C148.074 444.276 136.144 450.593 125.617 453.4C114.389 456.207 112.985 456.207 105.266 457.611C108.073 457.611 124.915 459.015 131.933 454.804C138.951 451.294 148.074 444.276 148.074 444.276Z" fill="#363957"/>
<path d="M111.584 439.363C111.584 439.363 117.9 444.276 127.023 443.574C136.146 442.872 142.462 441.468 142.462 441.468C142.462 441.468 132.637 438.661 127.023 439.363C121.409 440.064 111.584 439.363 111.584 439.363Z" fill="#363957"/>
<path d="M108.775 553.765C108.775 553.765 95.4412 553.063 89.827 553.765C84.2129 554.466 83.5111 564.994 78.5987 569.907C73.6863 574.82 59.6509 576.926 55.4403 586.752C51.9314 596.578 58.2474 612.019 67.3704 607.808C82.1076 601.491 111.582 576.926 111.582 576.926C111.582 576.926 117.898 567.1 108.775 553.765Z" fill="#212231"/>
<path d="M273.689 399.357C270.18 400.761 268.776 401.462 265.267 402.866C265.267 400.059 268.776 397.953 267.373 394.444C266.671 392.338 264.566 394.444 261.758 397.953C258.951 401.462 256.846 404.972 253.337 407.779C253.337 407.779 249.127 419.009 253.337 421.114C257.548 423.22 272.285 419.711 275.794 418.307C280.004 416.903 287.022 414.096 291.233 406.375C296.145 396.549 282.11 395.848 273.689 399.357Z" fill="#FFC9B6"/>
<path d="M254.74 407.078C241.407 407.078 221.055 405.674 209.827 406.376C209.827 406.376 207.02 394.444 195.792 381.109C191.581 361.457 180.353 350.929 171.931 348.824C160.703 346.718 151.58 354.439 151.58 366.37C151.58 389.531 162.107 402.165 167.721 402.867C167.019 415.5 183.862 429.537 191.581 430.239C194.388 435.854 198.599 441.469 207.02 440.767C221.757 439.363 248.424 426.73 258.249 422.519C260.355 418.308 259.653 411.991 254.74 407.078Z" fill="#363957"/>
<path d="M643.527 453.399C644.931 451.995 645.632 440.766 646.334 429.536C644.229 413.393 649.141 385.319 649.141 368.474C649.141 358.648 647.738 335.487 645.632 320.046C644.229 306.711 641.422 295.481 640.018 282.146C635.808 264.6 635.106 246.351 637.211 227.401C651.948 232.314 668.089 234.42 684.23 234.42C685.633 247.755 685.633 261.09 683.528 275.127C682.124 282.848 679.317 290.568 676.51 298.289C674.405 303.904 672.3 309.518 672.3 315.133C672.3 322.152 678.616 332.68 679.317 338.996C682.826 358.648 675.107 370.58 669.493 395.847C666.686 406.375 666.686 414.095 665.984 417.604C668.089 420.412 668.791 421.114 670.194 423.219C673.703 429.536 668.089 435.151 665.282 440.766C662.475 445.679 663.878 461.12 660.37 463.927C656.861 466.033 645.632 473.753 637.913 470.244C633.001 467.436 639.316 457.61 643.527 453.399Z" fill="#FFB9A4"/>
<path d="M562.821 108.086C567.733 114.403 573.348 117.211 576.155 117.211C578.26 117.211 575.453 112.999 574.049 108.086C572.646 103.173 576.856 104.577 580.365 110.192C584.576 115.807 582.471 121.422 585.278 123.527C588.085 125.633 603.524 130.546 611.243 131.95C614.752 132.651 621.77 134.055 625.279 135.459C630.191 127.036 643.525 105.279 651.244 89.8381C659.665 72.2917 680.017 82.8195 680.017 82.8195L665.28 123.527C665.28 123.527 642.121 145.987 633.7 156.515C628.787 162.129 623.173 160.024 612.647 157.918C602.12 155.813 585.278 140.372 575.453 133.353C569.839 129.142 552.294 123.527 551.593 112.298C550.189 99.6641 557.909 101.068 562.821 108.086Z" fill="#FFC9B6"/>
<path d="M671.596 433.046C668.087 442.872 663.876 459.716 663.876 464.629C663.175 469.542 655.455 475.859 642.122 475.157C628.788 474.455 633.7 468.139 636.507 463.226C637.911 461.12 639.314 459.015 640.718 456.909C640.718 456.909 642.823 461.12 648.437 461.822C654.052 462.524 656.157 461.822 658.964 456.207C661.771 450.592 665.982 435.151 668.087 430.238C669.491 426.027 666.684 417.605 666.684 417.605C670.192 421.816 673.701 424.624 671.596 433.046Z" fill="#2C1D1B"/>
<path d="M671.593 430.94V454.803C671.593 455.505 670.891 455.505 670.19 455.505C669.488 455.505 668.786 454.803 668.786 454.803V436.555L671.593 430.94Z" fill="#2C1D1B"/>
<path d="M687.733 470.946C689.137 469.542 689.137 458.312 687.733 447.083C684.225 430.94 686.33 402.866 684.225 386.021C682.821 376.195 679.312 353.736 675.101 338.295C672.294 325.661 668.084 314.432 665.979 301.096C660.364 284.252 656.855 266.004 656.855 247.053C671.593 250.563 688.435 250.563 703.874 249.159C706.681 262.494 708.085 275.83 707.383 289.165C706.681 297.587 704.576 305.308 703.172 313.028C701.769 318.643 700.365 324.258 700.365 330.574C701.067 337.593 706.681 349.525 708.786 355.841C715.102 378.301 709.488 386.021 706.681 411.99C705.278 422.518 705.979 429.536 705.979 433.747C708.085 435.853 709.488 437.257 710.19 438.66C714.401 444.977 709.488 451.294 707.383 456.207C705.278 461.822 708.085 476.561 705.278 479.368C702.471 482.176 691.944 490.598 683.523 487.79C678.61 485.685 683.523 475.157 687.733 470.946Z" fill="#FFC9B6"/>
<path d="M712.999 447.084C710.894 457.612 708.087 474.456 708.087 479.369C708.087 484.282 701.069 491.301 687.735 492.003C674.402 492.704 678.612 485.686 681.419 480.773C682.823 478.667 683.525 476.562 684.928 474.456C684.928 474.456 687.735 477.965 693.349 477.965C698.964 477.965 701.069 477.264 703.876 471.649C705.981 466.034 708.788 449.891 710.192 444.978C711.595 440.065 707.385 432.345 707.385 432.345C710.894 436.556 715.104 439.363 712.999 447.084Z" fill="#2C1D1B"/>
<path d="M713.701 444.979L716.508 468.14C716.508 468.842 715.806 468.842 715.104 468.842C714.402 468.842 712.999 468.842 712.999 468.14L710.894 449.891L713.701 444.979Z" fill="#2C1D1B"/>
<path d="M640.014 195.818C644.926 185.992 651.944 178.973 651.944 171.954C651.944 161.427 651.242 148.091 654.049 138.265C651.242 134.054 641.417 129.141 646.33 116.508C649.137 109.489 654.751 102.471 656.856 99.6631C660.365 95.452 665.979 87.7315 671.593 84.2222C677.207 80.0111 679.313 82.8185 684.927 84.9241C685.629 84.9241 705.278 91.9427 719.314 101.067C722.121 103.172 727.033 105.98 728.437 108.085C732.647 112.998 731.946 117.911 731.946 122.824C731.946 123.526 716.507 151.601 708.787 169.147C705.98 175.464 702.471 178.973 706.682 186.693C712.296 196.519 717.208 200.731 722.121 221.084C733.349 268.109 707.384 332.68 707.384 332.68C707.384 332.68 696.155 342.506 677.909 341.804C653.347 340.4 643.522 329.17 643.522 329.17C643.522 329.17 634.4 285.655 633.698 252.668C632.996 230.91 633.698 208.451 640.014 195.818Z" fill="#2B2D43"/>
<path d="M665.981 80.7129C665.28 76.5018 665.981 72.2906 668.789 69.4832C672.297 65.2721 679.315 61.7628 684.228 64.5702C688.438 65.2721 691.245 69.4832 691.245 73.6943C694.754 83.5203 684.228 91.9426 675.806 90.5389C676.508 93.3463 676.508 96.1538 675.104 98.9612C672.999 103.172 668.087 104.576 664.578 101.769C660.367 98.2593 658.262 91.9426 659.665 87.0296C660.367 83.5203 663.174 81.4148 665.981 80.7129Z" fill="#382624"/>
<path d="M698.961 102.471C694.049 103.173 689.838 102.471 685.628 98.9616C682.119 96.1542 682.119 93.3467 681.417 90.5393C683.522 89.1356 685.628 86.3282 685.628 81.4152C685.628 78.6077 684.926 75.0984 684.926 72.291C689.136 70.1854 693.347 67.378 698.26 66.6761C701.067 65.9743 705.277 58.9557 708.084 57.552C705.979 63.8687 707.383 73.6947 708.084 77.204C708.786 81.4152 709.488 91.2412 712.295 95.4523C710.891 98.2597 703.172 101.769 698.961 102.471Z" fill="#FFB9A4"/>
<path d="M668.089 45.6205C668.79 38.6019 670.896 30.1796 676.51 25.2666C682.826 21.0555 688.44 20.3536 694.756 21.7573C705.282 23.1611 713.704 39.3038 710.195 52.6391C707.388 65.2725 699.668 80.0115 685.633 82.1171C670.194 83.5208 666.685 56.1483 668.089 45.6205Z" fill="#FFC9B6"/>
<path d="M696.157 50.5334C696.157 50.5334 701.771 44.2167 704.578 49.1297C706.684 54.0427 702.473 62.465 698.263 61.7631C694.052 61.0612 696.157 50.5334 696.157 50.5334Z" fill="#FFC9B6"/>
<path d="M661.774 15.4407C669.493 8.42217 684.23 7.01846 692.652 12.6333C696.862 7.72031 703.88 8.42217 709.494 11.2296C715.81 14.037 718.617 20.3537 717.915 26.6705C729.144 27.3723 734.758 44.2169 727.038 51.9373C730.547 54.7448 732.653 58.9559 731.951 63.8689C731.249 70.8875 725.635 75.8005 719.319 77.906C723.529 81.4153 727.038 86.3283 724.933 92.645C722.126 100.365 713.003 102.471 705.283 103.173C707.389 108.788 703.88 113.701 701.073 116.508C696.862 120.719 691.248 120.719 686.336 117.21C682.125 114.403 680.02 108.788 683.529 103.875C684.23 102.471 687.739 99.6636 691.248 99.6636C688.441 91.9432 693.353 84.9246 701.073 85.6265C699.669 81.4153 698.967 77.906 701.775 74.3968C696.862 70.1856 693.353 63.8689 693.353 56.8503C693.353 54.0429 694.055 51.9373 695.459 49.8317C687.037 46.3225 681.423 40.0057 678.616 30.8816C675.107 32.2853 671.598 35.0927 670.195 37.9002C668.09 41.4095 667.388 48.428 667.388 51.2355C652.651 45.6206 651.949 25.2667 661.774 15.4407Z" fill="#493231"/>
<path d="M707.384 171.956L706.682 186.695C706.682 186.695 687.032 195.819 670.892 193.713C651.944 190.906 647.733 183.185 647.733 183.185L651.242 165.639C651.242 165.639 652.646 171.956 669.488 174.061C686.331 174.763 707.384 171.956 707.384 171.956Z" fill="#363957"/>
<path d="M694.054 244.948C694.054 244.948 690.545 263.196 675.807 266.705C660.369 270.916 651.947 266.705 651.947 266.705C651.947 266.705 668.79 263.898 675.807 259.687C682.825 255.476 694.054 244.948 694.054 244.948Z" fill="#363957"/>
<path d="M675.103 244.948C675.103 244.948 665.278 243.544 657.559 235.824C650.541 228.104 647.734 221.085 647.734 221.085C647.734 221.085 646.331 236.526 656.857 242.843C668.085 249.159 675.103 244.948 675.103 244.948Z" fill="#363957"/>
<path d="M689.137 276.531C689.137 276.531 680.014 294.78 668.084 302.5C660.364 307.413 653.347 306.711 653.347 306.711C653.347 306.711 659.663 300.394 668.084 294.78C676.505 289.165 689.137 276.531 689.137 276.531Z" fill="#363957"/>
<path d="M696.861 146.688C696.861 146.688 683.528 149.495 677.914 146.688C671.598 143.88 662.475 138.266 662.475 138.266C662.475 138.266 664.58 149.495 677.914 151.601C689.844 154.408 696.861 146.688 696.861 146.688Z" fill="#363957"/>
<path d="M662.469 152.303L658.96 154.408L683.522 211.961L687.031 209.855L662.469 152.303Z" fill="#F2C9E3"/>
<path d="M616.854 129.843L619.661 127.738L662.469 152.303L658.96 154.408L616.854 129.843Z" fill="#FAFAFA"/>
<path d="M640.715 198.626L691.242 228.104L662.47 159.322L611.24 129.844L640.715 198.626Z" fill="#2C1D1B"/>
<path d="M665.978 157.216L662.469 159.321L691.241 228.103L695.452 225.998L665.978 157.216Z" fill="#3F2A28"/>
<path d="M611.24 129.843L615.451 127.738L665.978 157.216L662.47 159.321L611.24 129.843Z" fill="#3F3E3D"/>
<path d="M657.563 192.309C661.072 191.608 665.985 195.117 668.792 196.521C672.301 197.924 677.915 196.521 678.616 195.117C680.02 193.011 677.213 188.098 677.915 185.291C678.616 183.185 680.02 184.589 682.827 189.502C685.634 193.713 685.634 196.521 687.739 198.626C687.739 198.626 704.582 195.117 710.898 189.502C723.53 178.974 731.951 178.272 731.951 178.272C731.951 178.272 721.424 158.62 720.021 148.794C714.407 146.689 703.88 148.092 706.687 129.142C709.494 110.192 722.828 102.472 722.828 102.472C722.828 102.472 739.671 105.981 738.969 123.527C744.583 142.478 747.39 150.9 749.495 160.024C751.601 169.148 750.899 174.061 752.302 178.974C753.706 183.887 752.302 185.993 745.986 193.011C742.478 197.222 731.951 204.241 717.916 207.75C712.301 209.154 691.248 211.26 684.932 209.856C678.616 207.75 666.686 208.452 660.37 201.434C656.16 198.626 652.651 193.713 657.563 192.309Z" fill="#FFC9B6"/>
<path d="M124.215 167.745V223.192C127.022 223.192 129.829 222.49 132.636 222.49V167.745H124.215Z" fill="#FFB83B"/>
<path d="M112.983 167.745V223.192C114.387 223.192 115.79 223.192 117.896 223.192C118.598 223.192 119.299 223.192 120.001 223.192V167.745H112.983Z" fill="#FFB83B"/>
<path d="M51.2285 167.744V183.185C51.2285 188.8 53.3338 193.713 56.1409 197.924V167.042H51.2285V167.744Z" fill="#FFB83B"/>
<path d="M136.846 167.745V221.788C139.653 221.086 142.46 220.384 145.267 219.682V167.745H136.846Z" fill="#FFB83B"/>
<path d="M148.777 167.745V218.98C150.883 218.279 152.988 217.577 155.093 216.875V167.745H148.777Z" fill="#FFB83B"/>
<path d="M70.877 167.745V211.26C72.9823 212.664 75.0876 213.366 77.1929 214.769V167.745H70.877Z" fill="#FFB83B"/>
<path d="M101.757 167.745V222.49C103.862 222.49 106.669 223.192 108.775 223.192V167.745H101.757Z" fill="#FFB83B"/>
<path d="M80.7041 167.745V216.875C82.8094 217.577 84.9147 218.279 87.02 218.98V167.745H80.7041Z" fill="#FFB83B"/>
<path d="M91.2305 167.744V219.682C93.3358 220.384 95.4411 221.085 98.2482 221.085V167.042H91.2305V167.744Z" fill="#FFB83B"/>
<path d="M60.3506 167.745V203.54C62.4559 205.645 63.8594 207.049 66.6665 208.453V167.745H60.3506Z" fill="#FFB83B"/>
<path d="M184.564 167.745H179.651V198.627C182.458 193.714 184.564 188.801 184.564 183.888V167.745Z" fill="#FFB83B"/>
<path d="M169.125 167.745V208.453C171.23 207.049 173.336 204.943 175.441 203.54V167.745H169.125Z" fill="#FFB83B"/>
<path d="M159.304 167.745V214.769C161.409 214.067 163.514 212.664 165.62 211.26V167.745H159.304Z" fill="#FFB83B"/>
<path d="M56.1426 167.745V198.627C57.5461 200.03 58.9497 202.136 60.3532 203.54V167.745H56.1426Z" fill="#FF9D27"/>
<path d="M66.6689 167.745V208.453C68.0725 209.154 69.476 210.558 70.8796 211.26V167.745H66.6689Z" fill="#FF9D27"/>
<path d="M76.4902 167.745V214.769C77.8938 215.471 79.2973 216.173 80.7009 216.875V167.745H76.4902Z" fill="#FF9D27"/>
<path d="M87.0166 167.745V218.98C88.4201 219.682 89.8237 219.682 91.2272 220.384V168.447H87.0166V167.745Z" fill="#FF9D27"/>
<path d="M97.543 167.745V221.788C98.9465 221.788 100.35 222.49 101.754 222.49V167.745H97.543Z" fill="#FF9D27"/>
<path d="M108.775 167.745V223.192C110.179 223.192 111.582 223.192 112.986 223.192V167.745H108.775Z" fill="#FF9D27"/>
<path d="M120.001 167.745V223.192C121.405 223.192 122.808 223.192 124.212 223.192V167.745H120.001Z" fill="#FF9D27"/>
<path d="M132.632 167.745V222.49C134.035 222.49 135.439 221.788 136.842 221.788V167.745H132.632Z" fill="#FF9D27"/>
<path d="M175.443 167.745V203.54C176.847 202.136 178.25 200.03 179.654 198.627V167.745H175.443Z" fill="#FF9D27"/>
<path d="M164.916 167.745V211.26C166.32 210.558 167.723 209.154 169.127 208.453V167.745H164.916Z" fill="#FF9D27"/>
<path d="M155.09 167.745V216.875C156.493 216.173 157.897 215.471 159.3 214.769V167.745H155.09Z" fill="#FF9D27"/>
<path d="M144.562 167.744V219.682C145.966 218.98 147.37 218.98 148.773 218.278V167.042H144.562V167.744Z" fill="#FF9D27"/>
<path d="M117.897 207.75C154.717 207.75 184.565 189.838 184.565 167.744C184.565 145.649 154.717 127.738 117.897 127.738C81.0769 127.738 51.2285 145.649 51.2285 167.744C51.2285 189.838 81.0769 207.75 117.897 207.75Z" fill="#FFE375"/>
<path d="M117.894 135.458C148.772 135.458 174.036 150.197 175.439 168.445C175.439 167.744 175.439 167.042 175.439 166.34C175.439 147.39 149.474 131.247 117.192 131.247C84.9108 131.247 58.9453 146.688 58.9453 166.34C58.9453 167.042 58.9453 167.744 58.9453 168.445C61.7524 150.197 87.0161 135.458 117.894 135.458Z" fill="#FF9D27"/>
<path opacity="0.5" d="M117.895 200.731C148.773 200.731 174.036 185.992 175.44 167.744C174.036 149.495 148.773 134.756 117.895 134.756C87.0169 134.756 61.7532 149.495 60.3496 167.744C61.7532 186.694 87.0169 200.731 117.895 200.731Z" fill="#FF9D27"/>
<path d="M155.09 187.396C152.985 185.29 150.879 183.184 148.774 181.079C150.879 177.57 151.581 173.358 150.177 169.147C147.37 161.427 137.546 160.725 130.528 161.427C127.019 162.129 123.51 162.831 120.703 163.532C113.685 160.023 107.369 155.11 100.352 151.601C105.264 149.495 110.878 149.495 114.387 149.495C115.791 149.495 115.791 148.092 114.387 147.39C108.773 145.986 101.054 145.986 95.4394 149.495C92.6323 148.092 89.1235 147.39 86.3164 146.688C85.6146 146.688 85.6146 147.39 86.3164 147.39C88.4217 148.793 90.527 150.197 92.6323 150.899C87.0181 155.812 84.2111 163.532 92.6323 169.147C101.054 174.762 110.878 171.253 119.3 168.445C120.001 168.445 120.703 167.744 121.405 167.744C128.423 171.955 134.739 176.868 141.756 181.781C138.247 183.886 134.037 185.992 129.826 186.694C124.212 187.396 119.3 187.396 114.387 186.694C112.984 186.694 112.282 188.097 112.984 188.799C119.3 195.116 134.739 193.01 143.862 187.396C144.563 186.694 145.265 185.992 145.967 185.992C148.774 187.396 151.581 189.501 154.388 190.905C155.09 189.501 155.792 188.097 155.09 187.396ZM98.9482 166.34C91.2288 164.936 89.1234 158.619 94.0358 153.706C94.0358 153.706 94.7376 153.005 95.4394 153.005C101.755 156.514 108.773 160.725 115.089 164.234C114.387 164.234 112.984 164.936 112.282 164.936C110.878 165.638 101.755 167.042 98.9482 166.34ZM131.23 164.936C136.844 164.936 148.072 164.936 143.862 176.868C138.247 172.657 131.931 169.147 125.616 165.638C127.721 165.638 129.826 164.936 131.23 164.936Z" fill="#FF9D27"/>
<path d="M70.8798 176.868C70.178 175.464 68.7745 173.359 68.0727 171.253C67.371 169.148 68.0727 167.042 67.371 165.638C67.371 164.937 66.6692 164.937 65.9674 164.937C64.5639 166.34 64.5639 169.85 65.2656 171.955C65.9674 174.763 67.371 176.868 69.4763 178.272C70.8798 178.974 71.5816 178.272 70.8798 176.868Z" fill="#FF9D27"/>
<path d="M166.316 156.514H165.614C165.614 158.62 166.316 160.726 165.614 163.533C165.614 165.639 164.211 167.042 164.211 169.148C164.211 169.85 164.913 170.552 165.614 169.85C169.825 168.446 169.825 159.322 166.316 156.514Z" fill="#FF9D27"/>
<path d="M154.389 153.707C153.687 153.707 153.687 154.408 154.389 154.408C155.792 155.812 157.196 157.216 158.599 158.62C160.003 160.023 160.705 160.725 162.108 161.427C162.81 161.427 162.81 161.427 162.81 160.725C163.512 157.216 157.897 153.005 154.389 153.707Z" fill="#FF9D27"/>
<path d="M143.163 134.757V189.502C145.97 189.502 148.777 188.8 151.584 188.8V134.055H143.163V134.757Z" fill="#FFB83B"/>
<path d="M131.932 134.758V190.205C133.335 190.205 134.739 190.205 136.844 190.205C137.546 190.205 138.248 190.205 138.949 190.205V134.758H131.932Z" fill="#FFB83B"/>
<path d="M70.1768 134.757V150.198C70.1768 155.813 72.2821 160.726 75.0891 164.937V134.055H70.1768V134.757Z" fill="#FFB83B"/>
<path d="M155.089 134.758V188.801C157.896 188.099 160.703 187.397 163.51 186.695V134.758H155.089Z" fill="#FFB83B"/>
<path d="M167.726 134.758V185.993C169.831 185.292 171.936 184.59 174.042 183.888V134.758H167.726Z" fill="#FFB83B"/>
<path d="M89.126 134.758V178.273C91.2313 179.677 93.3366 180.379 95.4419 181.782V134.758H89.126Z" fill="#FFB83B"/>
<path d="M120.705 134.758V189.503C122.81 189.503 125.617 190.205 127.723 190.205V134.758H120.705Z" fill="#FFB83B"/>
<path d="M99.6523 134.758V183.888C101.758 184.59 103.863 185.292 105.968 185.993V134.758H99.6523Z" fill="#FFB83B"/>
<path d="M109.474 134.757V186.695C111.579 187.397 113.684 188.098 116.491 188.098V134.055H109.474V134.757Z" fill="#FFB83B"/>
<path d="M79.2988 134.758V170.553C81.4041 172.658 82.8077 174.062 85.6148 175.466V134.758H79.2988Z" fill="#FFB83B"/>
<path d="M202.813 134.758H197.9V165.64C200.707 160.727 202.813 155.814 202.813 150.901V134.758Z" fill="#FFB83B"/>
<path d="M188.073 134.758V175.466C190.179 174.062 192.284 171.956 194.389 170.553V134.758H188.073Z" fill="#FFB83B"/>
<path d="M177.547 134.758V181.782C179.652 181.08 181.758 179.677 183.863 178.273V134.758H177.547Z" fill="#FFB83B"/>
<path d="M75.0908 134.758V165.64C76.4944 167.043 77.8979 169.149 79.3014 170.553V134.758H75.0908Z" fill="#FF9D27"/>
<path d="M84.9111 134.758V175.466C86.3147 176.167 87.7182 177.571 89.1217 178.273V134.758H84.9111Z" fill="#FF9D27"/>
<path d="M95.4385 134.758V181.782C96.842 182.484 98.2456 183.186 99.6491 183.888V134.758H95.4385Z" fill="#FF9D27"/>
<path d="M105.266 134.758V185.993C106.669 186.695 108.073 186.695 109.476 187.397V135.46H105.266V134.758Z" fill="#FF9D27"/>
<path d="M116.491 134.758V188.801C117.895 188.801 119.298 189.503 120.702 189.503V134.758H116.491Z" fill="#FF9D27"/>
<path d="M127.724 134.757V189.502C129.127 189.502 130.531 189.502 131.934 189.502V134.055H127.724V134.757Z" fill="#FF9D27"/>
<path d="M138.949 134.758V190.205C140.353 190.205 141.756 190.205 143.16 190.205V134.758H138.949Z" fill="#FF9D27"/>
<path d="M150.881 134.758V189.503C152.284 189.503 153.688 188.801 155.091 188.801V134.758H150.881Z" fill="#FF9D27"/>
<path d="M193.687 134.758V170.553C195.09 169.149 196.494 167.043 197.897 165.64V134.758H193.687Z" fill="#FF9D27"/>
<path d="M183.865 134.758V178.273C185.269 177.571 186.672 176.167 188.076 175.466V134.758H183.865Z" fill="#FF9D27"/>
<path d="M173.338 134.758V183.888C174.741 183.186 176.145 182.484 177.549 181.782V134.758H173.338Z" fill="#FF9D27"/>
<path d="M163.511 134.757V186.695C164.914 185.993 166.318 185.993 167.721 185.291V134.055H163.511V134.757Z" fill="#FF9D27"/>
<path d="M136.845 174.762C173.665 174.762 203.513 156.851 203.513 134.757C203.513 112.662 173.665 94.7507 136.845 94.7507C100.025 94.7507 70.1768 112.662 70.1768 134.757C70.1768 156.851 100.025 174.762 136.845 174.762Z" fill="#FFE375"/>
<path d="M136.842 102.471C167.72 102.471 192.984 117.21 194.387 135.458C194.387 134.757 194.387 134.055 194.387 133.353C194.387 114.403 168.422 98.26 136.141 98.26C103.859 98.26 77.8936 113.701 77.8936 133.353C77.8936 134.055 77.8936 134.757 77.8936 135.458C80.7006 117.21 105.964 102.471 136.842 102.471Z" fill="#FF9D27"/>
<path opacity="0.5" d="M136.843 167.744C167.721 167.744 192.985 153.005 194.388 134.757C192.985 116.508 167.721 101.769 136.843 101.769C105.965 101.769 80.7014 116.508 79.2979 134.757C80.7014 153.707 105.965 167.744 136.843 167.744Z" fill="#FF9D27"/>
<path d="M174.038 154.409C171.933 152.303 169.828 150.198 167.722 148.092C169.828 144.583 170.529 140.372 169.126 136.16C166.319 128.44 156.494 127.738 149.476 128.44C145.967 129.142 142.458 129.844 139.651 130.546C132.634 127.036 126.318 122.123 119.3 118.614C124.212 116.508 129.827 116.508 133.335 116.508C134.739 116.508 134.739 115.105 133.335 114.403C127.721 112.999 120.002 112.999 114.388 116.508C111.581 115.105 108.072 114.403 105.265 113.701C104.563 113.701 104.563 114.403 105.265 114.403C107.37 115.807 109.475 117.21 111.581 117.912C105.966 122.825 103.159 130.546 111.581 136.16C120.002 141.775 129.827 138.266 138.248 135.459C138.95 135.459 139.651 134.757 140.353 134.757C147.371 138.968 153.687 143.881 160.704 148.794C157.196 150.899 152.985 153.005 148.774 153.707C143.16 154.409 138.248 154.409 133.335 153.707C131.932 153.707 131.23 155.111 131.932 155.812C138.248 162.129 153.687 160.024 162.81 154.409C163.512 153.707 164.213 153.005 164.915 153.005C167.722 154.409 170.529 156.514 173.336 157.918C174.038 156.514 174.74 155.111 174.038 154.409ZM117.896 133.353C110.177 131.949 108.072 125.633 112.984 120.72C112.984 120.72 113.686 120.018 114.388 120.018C120.704 123.527 127.721 127.738 134.037 131.247C133.335 131.247 131.932 131.949 131.23 131.949C129.125 132.651 120.704 134.055 117.896 133.353ZM150.178 131.949C155.792 131.949 167.02 131.949 162.81 143.881C157.196 139.67 150.88 136.16 144.564 132.651C146.669 132.651 148.073 131.949 150.178 131.949Z" fill="#FF9D27"/>
<path d="M89.828 143.881C89.1263 141.775 87.7227 140.372 87.021 138.266C86.3192 136.161 87.021 134.055 86.3192 132.651C86.3192 131.949 85.6174 131.949 84.9157 131.949C83.5121 133.353 83.5121 136.862 84.2139 138.968C84.9157 141.775 86.3192 143.881 88.4245 145.285C89.1263 145.987 90.5298 144.583 89.828 143.881Z" fill="#FF9D27"/>
<path d="M185.264 123.527H184.563C184.563 125.633 185.264 127.738 184.563 130.546C184.563 132.651 183.159 134.055 183.159 136.161C183.159 136.863 183.861 137.564 184.563 136.863C188.072 135.459 188.773 126.335 185.264 123.527Z" fill="#FF9D27"/>
<path d="M173.337 120.72C172.635 120.72 172.635 121.422 173.337 121.422C174.74 122.825 176.144 124.229 177.547 125.633C178.951 127.036 179.653 127.738 181.056 128.44C181.758 128.44 181.758 128.44 181.758 127.738C181.758 123.527 176.846 120.018 173.337 120.72Z" fill="#FF9D27"/>
<path d="M263.164 40.0056V95.4523C265.971 95.4523 268.778 94.7505 271.585 94.7505V40.0056H263.164Z" fill="#FFB83B"/>
<path d="M251.933 40.0056V95.4523C253.336 95.4523 254.74 95.4523 256.845 95.4523C257.547 95.4523 258.249 95.4523 258.95 95.4523V40.0056H251.933Z" fill="#FFB83B"/>
<path d="M190.178 40.0056V55.4465C190.178 61.0613 192.283 65.9743 195.09 70.1855V40.0056H190.178Z" fill="#FFB83B"/>
<path d="M275.09 40.0056V94.0486C277.897 93.3468 280.704 92.6449 283.511 91.9431V40.0056H275.09Z" fill="#FFB83B"/>
<path d="M287.727 40.0056V91.2412C289.832 90.5393 291.937 89.8375 294.043 89.1356V40.0056H287.727Z" fill="#FFB83B"/>
<path d="M209.127 40.0056V83.5208C211.232 84.9245 213.338 85.6263 215.443 87.03V40.0056H209.127Z" fill="#FFB83B"/>
<path d="M240.706 40.0056V94.7505C242.811 94.7505 245.618 95.4523 247.724 95.4523V40.0056H240.706Z" fill="#FFB83B"/>
<path d="M219.653 40.0056V89.1356C221.759 89.8375 223.864 90.5393 225.969 91.2412V40.0056H219.653Z" fill="#FFB83B"/>
<path d="M229.475 40.0056V91.9431C231.58 92.6449 233.685 93.3468 236.492 93.3468V40.0056H229.475Z" fill="#FFB83B"/>
<path d="M199.3 40.0056V75.8003C201.405 77.9059 202.809 79.3096 205.616 80.7133V40.0056H199.3Z" fill="#FFB83B"/>
<path d="M322.814 40.0056H317.901V70.8874C321.41 65.9743 322.814 61.0613 322.814 55.4465V40.0056Z" fill="#FFB83B"/>
<path d="M308.074 40.0056V80.7133C310.18 79.3096 312.285 77.2041 314.39 75.8003V40.0056H308.074Z" fill="#FFB83B"/>
<path d="M297.548 40.0056V87.03C299.653 86.3282 301.758 84.9245 303.864 83.5208V40.0056H297.548Z" fill="#FFB83B"/>
<path d="M195.091 40.0056V70.8873C196.494 72.2911 197.898 74.3966 199.301 75.8003V40.0056H195.091Z" fill="#FF9D27"/>
<path d="M204.912 40.0056V80.7133C206.316 81.4152 207.719 82.8189 209.123 83.5208V40.0056H204.912Z" fill="#FF9D27"/>
<path d="M215.439 40.0056V87.03C216.843 87.7319 218.247 88.4338 219.65 89.1356V40.0056H215.439Z" fill="#FF9D27"/>
<path d="M225.267 40.0056V91.2412C226.67 91.9431 228.074 91.9431 229.477 92.6449V40.0056H225.267Z" fill="#FF9D27"/>
<path d="M236.492 40.0056V94.0486C237.896 94.0486 239.299 94.7505 240.703 94.7505V40.0056H236.492Z" fill="#FF9D27"/>
<path d="M247.725 40.0056V95.4523C249.128 95.4523 250.532 95.4523 251.935 95.4523V40.0056H247.725Z" fill="#FF9D27"/>
<path d="M258.95 40.0056V95.4523C260.354 95.4523 261.757 95.4523 263.161 95.4523V40.0056H258.95Z" fill="#FF9D27"/>
<path d="M270.882 40.0056V94.7505C272.285 94.7505 273.689 94.0486 275.092 94.0486V40.0056H270.882Z" fill="#FF9D27"/>
<path d="M313.688 40.0056V75.8003C315.091 74.3966 316.495 72.2911 317.898 70.8873V40.0056H313.688Z" fill="#FF9D27"/>
<path d="M303.865 40.0056V83.5208C305.269 82.8189 306.672 81.4152 308.076 80.7133V40.0056H303.865Z" fill="#FF9D27"/>
<path d="M293.339 40.0056V89.1356C294.742 88.4338 296.146 87.7319 297.55 87.03V40.0056H293.339Z" fill="#FF9D27"/>
<path d="M283.512 40.0056V91.943C284.915 91.2412 286.319 91.2412 287.722 90.5393V40.0056H283.512Z" fill="#FF9D27"/>
<path d="M256.846 80.0117C293.666 80.0117 323.514 62.1005 323.514 40.0059C323.514 17.9112 293.666 0 256.846 0C220.026 0 190.178 17.9112 190.178 40.0059C190.178 62.1005 220.026 80.0117 256.846 80.0117Z" fill="#FFE375"/>
<path d="M256.843 7.72042C287.721 7.72042 312.985 22.4594 314.388 40.7077C314.388 40.0059 314.388 39.304 314.388 38.6021C314.388 19.652 288.423 3.50928 256.142 3.50928C223.86 3.50928 197.895 18.9501 197.895 38.6021C197.895 39.304 197.895 40.0059 197.895 40.7077C200.702 22.4594 225.965 7.72042 256.843 7.72042Z" fill="#FF9D27"/>
<path opacity="0.5" d="M256.844 73.6955C287.722 73.6955 312.986 58.9565 314.389 40.7082C312.986 22.46 287.722 7.72095 256.844 7.72095C225.966 7.72095 200.702 22.46 199.299 40.7082C200.702 58.9565 225.966 73.6955 256.844 73.6955Z" fill="#FF9D27"/>
<path d="M294.039 59.658C291.934 57.5524 289.829 55.4468 287.723 53.3413C289.829 49.832 290.53 45.6208 289.127 41.4097C286.32 33.6893 276.495 32.9874 269.477 33.6893C265.968 34.3911 262.459 35.093 259.652 35.7948C252.635 32.2856 246.319 27.3726 239.301 23.8633C244.213 21.7577 249.828 21.7577 253.336 21.7577C254.74 21.7577 254.74 20.354 253.336 19.6521C247.722 18.2484 240.003 18.2484 234.389 21.7577C231.582 20.354 228.073 19.6521 225.266 18.9503C224.564 18.9503 224.564 19.6521 225.266 19.6521C227.371 21.0558 229.476 22.4596 231.582 23.1614C225.967 28.0744 223.16 35.7948 231.582 41.4097C240.003 47.0246 249.828 43.5153 258.249 40.7078C258.951 40.7078 259.652 40.006 260.354 40.006C267.372 44.2171 273.688 49.1301 280.705 54.0431C277.197 56.1487 272.986 58.2543 268.775 58.9561C263.161 59.658 258.249 59.658 253.336 58.9561C251.933 58.9561 251.231 60.3598 251.933 61.0617C258.249 67.3784 273.688 65.2729 282.811 59.658C283.513 58.9561 284.214 58.2543 284.916 58.2543C287.723 59.658 290.53 61.7636 293.337 63.1673C293.337 61.7636 294.741 60.3598 294.039 59.658ZM237.897 39.3041C230.178 37.9004 228.073 31.5837 232.985 26.6707C232.985 26.6707 233.687 25.9688 234.389 25.9688C240.705 29.4781 247.722 33.6893 254.038 37.1986C253.336 37.1986 251.933 37.9004 251.231 37.9004C249.126 37.9004 240.003 39.3041 237.897 39.3041ZM270.179 37.1986C275.793 37.1986 287.021 37.1986 282.811 49.1301C277.197 44.919 270.881 41.4097 264.565 37.9004C266.67 37.9004 268.074 37.9004 270.179 37.1986Z" fill="#FF9D27"/>
<path d="M209.829 49.8312C209.127 47.7257 207.724 46.3219 207.022 44.2164C206.32 42.1108 207.022 40.0052 206.32 38.6015C206.32 37.8997 205.618 37.8997 204.917 37.8997C203.513 39.3034 203.513 42.8127 204.215 44.9182C204.917 47.7257 206.32 49.8312 208.425 51.235C209.127 51.235 210.531 50.5331 209.829 49.8312Z" fill="#FF9D27"/>
<path d="M305.265 28.7766H304.564C304.564 30.8822 305.265 32.9878 304.564 35.7952C304.564 37.9008 303.16 39.3045 303.16 41.41C303.16 42.1119 303.862 42.8138 304.564 42.1119C308.073 40.7082 308.774 31.584 305.265 28.7766Z" fill="#FF9D27"/>
<path d="M293.338 25.9685C292.636 25.9685 292.636 26.6704 293.338 26.6704C294.741 28.0741 296.145 29.4778 297.549 30.8815C298.952 32.2852 299.654 32.9871 301.057 33.6889C301.759 33.6889 301.759 33.6889 301.759 32.9871C301.759 29.4778 296.847 25.9685 293.338 25.9685Z" fill="#FF9D27"/>
</g>
<defs>
<clipPath id="clip0">
<rect width="753" height="718" fill="white"/>
</clipPath>
</defs>
</svg>
