<?xml version="1.0" encoding="utf-8"?><svg xmlns="http://www.w3.org/2000/svg" xmlns:xlink="http://www.w3.org/1999/xlink"><symbol viewBox="0 0 14 9" id="angle-down" xmlns="http://www.w3.org/2000/svg"><path fill-rule="evenodd" clip-rule="evenodd" d="M12 0l1.414 1.414-6.707 6.707L0 1.414 1.414 0l5.293 5.293L12 0z"/></symbol><symbol viewBox="0 0 12 21" id="arrow-left" xmlns="http://www.w3.org/2000/svg"><path fill-rule="evenodd" clip-rule="evenodd" d="M3.353 10.5L12 1.705 10.323 0 0 10.5 10.323 21 12 19.295 3.353 10.5z"/></symbol><symbol viewBox="0 0 12 21" id="arrow-right" xmlns="http://www.w3.org/2000/svg"><path fill-rule="evenodd" clip-rule="evenodd" d="M8.647 10.5L0 19.295 1.677 21 12 10.5 1.677 0 0 1.705 8.647 10.5z"/></symbol><symbol viewBox="0 0 40 40" id="b-banks" xmlns="http://www.w3.org/2000/svg"><path d="M10.156 29.375a.782.782 0 100 1.563.782.782 0 000-1.563z"/><path d="M39.219 4.375H.78a.781.781 0 00-.78.781v29.688c0 .431.35.781.781.781H39.22c.431 0 .781-.35.781-.781V5.156a.781.781 0 00-.781-.781zM7.756 24.688a5.475 5.475 0 00-6.194-6.194v-6.363A5.475 5.475 0 007.756 5.93h24.488a5.493 5.493 0 00-.056.78c0 3.016 2.453 5.478 5.468 5.478.263 0 .524-.02.782-.057v6.363a5.475 5.475 0 00-6.194 6.194H7.756zm-6.194 0v-4.61a3.91 3.91 0 014.61 4.61h-4.61zm32.266 0a3.91 3.91 0 014.61-4.61v4.61h-4.61zm-9.922 1.562h14.532v3.125H23.905V26.25zm14.532-15.703a3.91 3.91 0 01-4.61-4.61h4.61v4.61zM6.172 5.937a3.91 3.91 0 01-4.61 4.61v-4.61h4.61zm-4.61 25h5.47a.781.781 0 100-1.562h-5.47V26.25h14.532v3.125H13.28a.781.781 0 100 1.563h2.813v3.125H1.562v-3.126zm16.094-4.687h4.688v7.813h-4.688V26.25zm20.782 7.813H23.905v-3.126h14.532v3.125z"/><path d="M27.813 15.313c0-4.308-3.505-7.813-7.813-7.813s-7.813 3.505-7.813 7.813c0 4.348 3.532 7.812 7.813 7.812 4.28 0 7.813-3.463 7.813-7.813zm-14.063 0A6.257 6.257 0 0120 9.063a6.257 6.257 0 016.25 6.25c0 1.41-.476 2.765-1.333 3.857a5.497 5.497 0 00-2.592-2.554 3.11 3.11 0 00.8-2.085A3.129 3.129 0 0020 11.406a3.129 3.129 0 00-3.125 3.125c0 .8.303 1.532.8 2.085a5.499 5.499 0 00-2.592 2.554 6.246 6.246 0 01-1.333-3.858zm4.688-.782a1.563 1.563 0 013.125 0c0 .862-.701 1.563-1.563 1.563a1.564 1.564 0 01-1.563-1.563zm-2.149 5.81A3.917 3.917 0 0120 17.656a3.917 3.917 0 013.71 2.685 6.245 6.245 0 01-7.42 0zm15.117-4.247h3.125a.781.781 0 100-1.563h-3.125a.781.781 0 000 1.563zM8.594 14.531H5.469a.781.781 0 100 1.563h3.125a.781.781 0 100-1.563z"/></symbol><symbol viewBox="0 0 40 40" id="b-dollar" xmlns="http://www.w3.org/2000/svg"><path d="M10.826 37.88a.784.784 0 00-1.105 0 .785.785 0 00-.229.551.787.787 0 00.781.781.786.786 0 00.553-.228.788.788 0 00.229-.553.786.786 0 00-.23-.552zm-6.946-9.2a.781.781 0 00-1.104-.042l-.006.006a.781.781 0 101.061 1.147l.007-.007a.781.781 0 00.042-1.104zm33.416-1.265A3.317 3.317 0 0033 26.229l-7.912 3.965a.781.781 0 10.7 1.396l7.913-3.965a1.758 1.758 0 012.276.63c.265.416.343.908.22 1.386-.123.478-.43.871-.862 1.107l-10.637 5.806a8.99 8.99 0 01-4.295 1.096h-6.93a.781.781 0 000 1.562h6.93c1.757 0 3.501-.445 5.043-1.286l10.637-5.806a3.337 3.337 0 001.627-2.09 3.338 3.338 0 00-.415-2.615z"/><path d="M22.059 30.29l-3.265-2.587a9.653 9.653 0 00-5.97-2.078H7.227a.781.781 0 00-.782-.781H.781a.781.781 0 100 1.562h4.883v12.032H.781a.781.781 0 000 1.562h5.664c.432 0 .782-.35.782-.781V27.187h5.597c1.807 0 3.583.619 5 1.741l3.264 2.587c.385.304.573.776.504 1.261a1.364 1.364 0 01-2.106.944l-4.171-2.77a.781.781 0 00-.864 1.302l4.17 2.77a2.924 2.924 0 002.726.272 2.9 2.9 0 001.792-2.297 2.9 2.9 0 00-1.08-2.707zm17.16-16.696h-4.883V1.563h4.883a.781.781 0 000-1.563h-5.664a.781.781 0 00-.782.781v12.031h-5.597a8.084 8.084 0 01-5-1.74l-3.264-2.587a1.351 1.351 0 01-.504-1.261 1.364 1.364 0 012.106-.944l4.171 2.77a.781.781 0 10.864-1.302l-4.17-2.77a2.924 2.924 0 00-2.726-.272 2.899 2.899 0 00-1.792 2.298 2.9 2.9 0 001.08 2.706l3.265 2.587a9.653 9.653 0 005.97 2.078h5.597c0 .431.35.781.782.781h5.664a.781.781 0 100-1.562z"/><path d="M30.552 1.016A.787.787 0 0030 .787a.787.787 0 00-.552.23.787.787 0 00-.23.552.786.786 0 001.333.553.79.79 0 00.23-.553.787.787 0 00-.229-.553zM26.64.788h-7.044c-1.757 0-3.501.445-5.043 1.287L3.916 7.88a3.337 3.337 0 00-1.627 2.09 3.337 3.337 0 00.415 2.615A3.317 3.317 0 007 13.772l7.912-3.965a.781.781 0 10-.7-1.397L6.3 12.375a1.759 1.759 0 01-2.277-.629 1.745 1.745 0 01-.22-1.386c.123-.478.43-.872.862-1.108l10.637-5.806a8.99 8.99 0 014.295-1.095h7.045a.781.781 0 000-1.563zm10.975 9.126a.781.781 0 00-1.104-.049l-.007.006a.781.781 0 001.056 1.153l.007-.006a.781.781 0 00.048-1.104z"/><g clip-path="url(#aea)"><path d="M20.737 19.117c-.481-.266-.992-.469-1.499-.679a3.366 3.366 0 01-.822-.46c-.49-.39-.396-1.023.177-1.274.162-.07.331-.094.503-.104a3.823 3.823 0 011.894.375c.299.144.398.099.499-.213.106-.329.195-.663.294-.995.066-.223-.016-.37-.226-.463a4.813 4.813 0 00-1.195-.357c-.541-.084-.541-.086-.544-.63-.003-.768-.003-.768-.772-.768-.111 0-.223-.002-.334 0-.36.01-.42.074-.43.436-.006.162 0 .324-.003.489-.003.48-.005.473-.466.64-1.114.405-1.803 1.165-1.876 2.38-.066 1.076.496 1.802 1.38 2.332.544.326 1.147.518 1.724.774.225.099.44.213.628.37.554.458.453 1.22-.205 1.509a2.065 2.065 0 01-1.107.144 4.94 4.94 0 01-1.686-.504c-.311-.162-.402-.119-.509.218-.09.291-.172.585-.253.878-.109.395-.068.49.309.674.481.233.995.352 1.519.435.41.066.423.084.428.51.002.192.002.387.005.579.002.243.119.385.37.39.283.005.57.005.853-.003.233-.005.352-.131.352-.367 0-.263.012-.529.002-.792-.012-.268.104-.405.362-.476a2.862 2.862 0 001.491-.957c1.084-1.317.671-3.243-.863-4.091z"/></g><defs><clipPath id="aea"><path d="M12.903 13.548h12.258v12.258H12.903z"/></clipPath></defs></symbol><symbol viewBox="0 0 41 41" id="b-hand" xmlns="http://www.w3.org/2000/svg"><path d="M11.297 37.176a.807.807 0 00-.566-.235.807.807 0 00-.566.235.807.807 0 00-.235.566.802.802 0 001.367.566.807.807 0 00.235-.566.806.806 0 00-.235-.566zm29.146-11.38a3.556 3.556 0 00-4.605-1.272l-8.6 4.31a.8.8 0 10.718 1.43l8.6-4.308a1.959 1.959 0 012.536.7c.295.464.382 1.013.245 1.545-.137.533-.478.97-.96 1.234l-11.56 6.31a9.817 9.817 0 01-4.69 1.196h-8.353a.8.8 0 000 1.602h8.352c1.902 0 3.789-.482 5.458-1.393l11.56-6.309a3.577 3.577 0 001.744-2.24 3.578 3.578 0 00-.445-2.805z"/><path d="M23.894 28.933l-3.548-2.811a10.442 10.442 0 00-6.458-2.249h-6.13v-.048a.8.8 0 00-.802-.8H.801a.8.8 0 000 1.601h5.354v13.171H.801a.8.8 0 000 1.602h6.155a.8.8 0 00.801-.8V25.474h6.13a8.83 8.83 0 015.464 1.902l3.549 2.811c.431.342.642.87.565 1.416a1.53 1.53 0 01-2.363 1.06l-4.533-3.01a.8.8 0 10-.886 1.333l4.533 3.01a3.13 3.13 0 002.916.292 3.103 3.103 0 001.918-2.46 3.102 3.102 0 00-1.156-2.896z"/><path d="M4.094 27.185a.8.8 0 00-1.132-.047l-.007.007a.8.8 0 001.084 1.178l.008-.006a.8.8 0 00.047-1.132zM35.921 7.673a3.317 3.317 0 00.57-1.861v-.874A3.34 3.34 0 0033.152 1.6a3.34 3.34 0 00-3.336 3.337v.874c0 .688.21 1.33.568 1.861a4.731 4.731 0 00-2.837 1.965 4.732 4.732 0 00-2.838-1.965 3.317 3.317 0 00.569-1.861v-.874A3.34 3.34 0 0021.942 1.6a3.34 3.34 0 00-3.337 3.337v.874c0 .688.21 1.33.57 1.861a4.731 4.731 0 00-2.838 1.965 4.732 4.732 0 00-2.838-1.965 3.317 3.317 0 00.569-1.861v-.874A3.34 3.34 0 0010.73 1.6a3.34 3.34 0 00-3.337 3.337v.874c0 .688.21 1.33.569 1.861a4.725 4.725 0 00-3.639 4.592v6.633a.8.8 0 00.801.801H38.76a.8.8 0 00.8-.8v-6.634a4.725 4.725 0 00-3.638-4.592zM8.996 4.938c0-.957.778-1.735 1.735-1.735.957 0 1.735.778 1.735 1.735v.874c0 .957-.778 1.735-1.735 1.735a1.737 1.737 0 01-1.735-1.735v-.874zm6.54 13.16h-9.61v-5.833A3.12 3.12 0 019.042 9.15h.888v2.957a.8.8 0 001.601 0V9.15h.888a3.12 3.12 0 013.117 3.116v5.833zm4.671-13.16c0-.957.778-1.735 1.735-1.735.957 0 1.735.778 1.735 1.735v.874c0 .957-.778 1.735-1.735 1.735a1.737 1.737 0 01-1.735-1.735v-.874zm6.54 13.16h-9.61v-5.833a3.12 3.12 0 013.117-3.116h.887v2.957a.8.8 0 001.602 0V9.15h.887a3.12 3.12 0 013.117 3.116v5.833zm4.671-13.16c0-.957.779-1.735 1.735-1.735.957 0 1.736.778 1.736 1.735v.874c0 .957-.779 1.735-1.736 1.735a1.737 1.737 0 01-1.735-1.735v-.874zm6.54 13.16h-9.61v-5.833a3.12 3.12 0 013.117-3.116h.887v2.957a.8.8 0 001.602 0V9.15h.888a3.12 3.12 0 013.116 3.116v5.833z"/></symbol><symbol viewBox="0 0 41 41" id="b-monitor" xmlns="http://www.w3.org/2000/svg"><path d="M36.996 1.604H4.004A4.008 4.008 0 000 5.608v20.82a4.008 4.008 0 004.004 4.004h2.042a.8.8 0 000-1.601H4.004a2.405 2.405 0 01-2.402-2.403V5.608a2.405 2.405 0 012.402-2.402h32.992a2.405 2.405 0 012.402 2.402v20.82a2.405 2.405 0 01-2.402 2.403H12.568a.8.8 0 000 1.601h3.488v4.222a2.703 2.703 0 00-2.122 2.636v1.305a.8.8 0 00.8.8h11.532a.8.8 0 00.8-.8V37.29c0-1.29-.91-2.371-2.122-2.636v-4.222h12.052A4.008 4.008 0 0041 26.428V5.608a4.008 4.008 0 00-4.004-4.004zM17.657 30.432h5.686v4.16h-5.686v-4.16zm7.808 6.858v.504h-9.93v-.504c0-.605.492-1.097 1.097-1.097h7.736c.605 0 1.097.492 1.097 1.097z"/><path d="M9.935 29.065a.806.806 0 00-.566-.234.807.807 0 00-.566.234.807.807 0 00-.235.566c0 .211.086.418.235.566a.807.807 0 00.566.235c.21 0 .417-.086.566-.235a.806.806 0 00.235-.566.807.807 0 00-.235-.566zm2.955-13.561a3.1 3.1 0 00.48-1.657v-.799c0-1.72-1.4-3.12-3.12-3.12-1.72 0-3.12 1.4-3.12 3.12v.8a3.1 3.1 0 00.48 1.656 4.39 4.39 0 00-3.286 4.243v2.367a.8.8 0 00.801.801h10.25a.8.8 0 00.8-.8v-2.368a4.39 4.39 0 00-3.284-4.243zm-2.64-3.974a1.52 1.52 0 011.518 1.518v.799a1.52 1.52 0 01-1.518 1.518 1.52 1.52 0 01-1.518-1.518v-.8a1.52 1.52 0 011.518-1.517zm4.324 9.783H5.926v-1.566a2.784 2.784 0 012.78-2.78h3.088a2.784 2.784 0 012.78 2.78v1.566zm18.816-5.809a3.1 3.1 0 00.48-1.657v-.799c0-1.72-1.4-3.12-3.12-3.12-1.72 0-3.12 1.4-3.12 3.12v.8a3.1 3.1 0 00.48 1.656 4.39 4.39 0 00-3.286 4.243v2.367a.8.8 0 00.801.801h10.25a.8.8 0 00.8-.8v-2.368a4.39 4.39 0 00-3.284-4.243zm-4.158-2.456c0-.837.681-1.518 1.518-1.518s1.518.681 1.518 1.518v.799a1.52 1.52 0 01-1.518 1.518 1.52 1.52 0 01-1.518-1.518v-.8zm5.842 8.265h-8.648v-1.566a2.784 2.784 0 012.78-2.78h3.088a2.784 2.784 0 012.78 2.78v1.566zM24.823 8.565l-1.19-1.189a.801.801 0 00-1.265.955h-2.856a.8.8 0 000 1.601h2.856a.8.8 0 001.266.954l1.189-1.188a.801.801 0 000-1.133zm-8.188 0a.808.808 0 00-.566-.234.804.804 0 00-.566 1.367.806.806 0 00.566.234c.21 0 .418-.086.566-.235a.807.807 0 00.235-.566.807.807 0 00-.235-.566zm7.621 4.851h-6.298a.8.8 0 00-1.266-.955l-1.19 1.19a.8.8 0 000 1.132l1.19 1.189a.798.798 0 001.132 0 .8.8 0 00.134-.955h6.298a.8.8 0 000-1.601z"/></symbol><symbol viewBox="0 0 45 38" id="b-shake" xmlns="http://www.w3.org/2000/svg"><path d="M43.24 6.86a.879.879 0 00-1.527.869c2.61 4.591 1.822 10.41-1.917 14.15l-.667.666a3.29 3.29 0 00-.75-1.159l-9.031-9.031a6.074 6.074 0 001.615-1.158l1.732-1.732a.88.88 0 00-1.243-1.243L29.72 9.954a4.28 4.28 0 01-3.046 1.262H23.21a.88.88 0 00-.622.258l-2.65 2.65a2.021 2.021 0 01-2.855 0 2.021 2.021 0 010-2.855l6.051-6.051c3.699-3.699 9.473-4.512 14.04-1.978a.88.88 0 00.853-1.538 13.636 13.636 0 00-8.36-1.574 13.395 13.395 0 00-7.162 3.268A13.44 13.44 0 0013.54 0a13.45 13.45 0 00-9.574 3.965A13.45 13.45 0 000 13.54a13.45 13.45 0 003.965 9.573l.332.331a.883.883 0 00.189.143 3.302 3.302 0 003.432 3.05 3.29 3.29 0 00.967 2.476 3.301 3.301 0 002.474.965 3.29 3.29 0 00.967 2.476 3.302 3.302 0 002.476.966 3.304 3.304 0 00.965 2.476 3.29 3.29 0 002.342.97 3.29 3.29 0 002.342-.97l1.229-1.229 1.66 1.66a3.29 3.29 0 002.341.97 3.29 3.29 0 002.342-.97 3.305 3.305 0 00.965-2.509 3.302 3.302 0 002.508-.964c.68-.68 1-1.583.965-2.475a3.29 3.29 0 002.476-.967c.68-.679 1-1.582.966-2.474a3.29 3.29 0 002.476-.967c.317-.317.556-.684.718-1.076a.88.88 0 00.237-.168l1.704-1.705c4.298-4.297 5.204-10.984 2.203-16.26zM7.787 24.883a1.55 1.55 0 01-1.1-.455 1.544 1.544 0 01-.455-1.1c0-.414.162-.805.456-1.098L8.2 20.715a1.544 1.544 0 011.1-.455 1.556 1.556 0 011.1 2.653l-1.516 1.515a1.544 1.544 0 01-1.1.455zm2.342 2.986a1.544 1.544 0 01-.455-1.099c0-.415.161-.805.455-1.099l1.515-1.515a1.544 1.544 0 011.099-.455 1.556 1.556 0 011.099 2.653l-1.515 1.515a1.556 1.556 0 01-2.198 0zm3.441 3.441a1.544 1.544 0 01-.455-1.099c0-.415.162-.805.455-1.099l1.515-1.515a1.544 1.544 0 011.1-.455 1.556 1.556 0 011.1 2.654l-1.517 1.514a1.556 1.556 0 01-2.198 0zm7.155 1.927l-1.515 1.515a1.544 1.544 0 01-1.1.455 1.556 1.556 0 01-1.099-2.654l1.515-1.514a1.544 1.544 0 011.1-.456c.415 0 .805.162 1.099.456.293.293.455.684.455 1.099 0 .415-.162.805-.455 1.099zm16.412-8.41a1.544 1.544 0 01-1.1.455 1.54 1.54 0 01-1.098-.455l-3.659-3.658-3.441-3.442a.88.88 0 00-1.243 1.243l7.1 7.1a1.556 1.556 0 01-1.1 2.654c-.415 0-.805-.162-1.099-.456l-7.1-7.1a.88.88 0 00-1.243 1.244l3.44 3.44h.002l3.658 3.66a1.556 1.556 0 010 2.198 1.556 1.556 0 01-2.198 0l-3.659-3.659a.88.88 0 00-.224-.162l-1.044-1.044a.88.88 0 00-1.243 1.243l4.896 4.896a1.556 1.556 0 01-1.1 2.653 1.54 1.54 0 01-1.098-.455L22.72 33.32c.142-.372.217-.77.217-1.181a3.29 3.29 0 00-.97-2.342 3.29 3.29 0 00-2.476-.967 3.304 3.304 0 00-.965-2.475 3.29 3.29 0 00-2.476-.967 3.303 3.303 0 00-.966-2.474 3.29 3.29 0 00-2.476-.967 3.303 3.303 0 00-.965-2.474 3.316 3.316 0 00-4.684 0l-1.515 1.514c-.191.191-.353.4-.488.622a11.699 11.699 0 01-3.198-8.07c0-3.146 1.226-6.105 3.45-8.33a11.704 11.704 0 018.331-3.45c2.86 0 5.564 1.012 7.703 2.867l-5.401 5.401a3.753 3.753 0 00-1.106 2.67c0 1.01.393 1.958 1.106 2.671a3.766 3.766 0 002.67 1.105c.968 0 1.935-.368 2.671-1.105l2.394-2.393h3.098c.256 0 .509-.017.759-.048l9.703 9.703a1.557 1.557 0 010 2.198z"/></symbol><symbol viewBox="0 0 41 41" id="b-users" xmlns="http://www.w3.org/2000/svg"><g clip-path="url(#aia)"><path d="M29.197 20.99l-4.263-7.384a7.522 7.522 0 003.093-6.079C28.027 3.377 24.651 0 20.5 0c-4.15 0-7.527 3.377-7.527 7.527 0 4.151 3.376 7.528 7.527 7.528a7.483 7.483 0 003.049-.646l4.261 7.382a.8.8 0 101.387-.801zM15.291 10.35a5.89 5.89 0 01-.717-2.823A5.932 5.932 0 0120.5 1.602a5.932 5.932 0 015.926 5.925 5.89 5.89 0 01-.717 2.824 2.891 2.891 0 00-1.98-1.408l-.249-.046c.066-.251.102-.514.102-.785v-.714c0-1.7-1.383-3.082-3.082-3.082a3.085 3.085 0 00-3.082 3.082v.714c0 .27.035.534.102.785l-.25.046c-.858.16-1.568.69-1.98 1.407zm6.69-2.952v.713a1.48 1.48 0 11-2.961 0v-.713a1.481 1.481 0 012.96 0zm2.508 4.507a5.902 5.902 0 01-3.989 1.548 5.903 5.903 0 01-3.99-1.548v-.118c0-.622.444-1.156 1.054-1.27l.834-.155a3.07 3.07 0 004.204 0l.833.155c.61.114 1.054.648 1.054 1.27v.118zm8.984 14.04c-3.88 0-7.084 2.951-7.485 6.727h-5.034a.8.8 0 000 1.601h5.034C26.389 38.05 29.593 41 33.473 41 37.623 41 41 37.623 41 33.473c0-4.151-3.377-7.528-7.527-7.528zm3.989 11.905a5.902 5.902 0 01-3.99 1.548 5.903 5.903 0 01-3.99-1.548v-.118c0-.622.444-1.155 1.055-1.27l.833-.155a3.07 3.07 0 004.205 0l.833.156c.61.114 1.054.647 1.054 1.269v.118zm-5.47-3.793v-.714a1.481 1.481 0 012.96 0v.714a1.481 1.481 0 01-2.96 0zm6.69 2.239a2.891 2.891 0 00-1.98-1.408l-.25-.046c.067-.25.102-.514.102-.785v-.714c0-1.7-1.382-3.082-3.082-3.082a3.085 3.085 0 00-3.081 3.082v.714c0 .271.035.534.101.785l-.248.046c-.859.16-1.57.69-1.98 1.407a5.889 5.889 0 01-.717-2.822 5.932 5.932 0 015.926-5.926 5.932 5.932 0 015.925 5.926 5.89 5.89 0 01-.716 2.823zm-28.232-9.76l4.017-6.958a.8.8 0 10-1.387-.8l-4.208 7.288a7.546 7.546 0 00-1.345-.12C3.377 25.945 0 29.321 0 33.472S3.377 41 7.527 41c4.151 0 7.528-3.377 7.528-7.527a7.539 7.539 0 00-4.605-6.937zm1.067 11.314a5.903 5.903 0 01-3.99 1.548 5.903 5.903 0 01-3.99-1.548v-.118c0-.622.444-1.155 1.055-1.27l.833-.155a3.07 3.07 0 004.204 0l.833.156a1.291 1.291 0 011.055 1.269v.118zm-5.47-3.793v-.714c0-.816.664-1.48 1.48-1.48s1.48.664 1.48 1.48v.714c0 .816-.664 1.48-1.48 1.48s-1.48-.664-1.48-1.48zm6.69 2.239a2.891 2.891 0 00-1.98-1.408l-.25-.046c.066-.251.102-.514.102-.785v-.714c0-1.7-1.382-3.082-3.082-3.082a3.085 3.085 0 00-3.082 3.082v.714c0 .271.036.534.102.785l-.249.046a2.89 2.89 0 00-1.98 1.407 5.889 5.889 0 01-.716-2.822 5.932 5.932 0 015.925-5.926 5.932 5.932 0 015.926 5.926 5.89 5.89 0 01-.717 2.823zm5.74-3.389a.807.807 0 00-.566-.235.804.804 0 00-.566 1.367.807.807 0 00.566.234c.21 0 .417-.085.566-.234a.807.807 0 00.235-.566.807.807 0 00-.235-.566zm11.932-9.544a.806.806 0 00-.566-.234.807.807 0 00-.566.234.805.805 0 00-.235.567c0 .21.086.417.235.566a.806.806 0 00.566.235.805.805 0 00.8-.8.804.804 0 00-.234-.567zM15.88 15.944a.807.807 0 00-.567-.234.806.806 0 00-.566.234.809.809 0 00-.235.567.805.805 0 00.801.801.805.805 0 00.801-.8.809.809 0 00-.235-.568z"/></g><defs><clipPath id="aia"><path d="M0 0h41v41H0z"/></clipPath></defs></symbol><symbol viewBox="0 0 15 20" id="document" xmlns="http://www.w3.org/2000/svg"><path d="M12.42 3.18h-1.86v-.166c0-.73-.586-1.325-1.314-1.33h-.34A1.769 1.769 0 007.142 0c-.94 0-1.715.74-1.763 1.683h-.34c-.728.006-1.315.6-1.315 1.331v.166h-1.86C.827 3.18 0 4.038 0 5.083v13.023A1.876 1.876 0 001.856 20H12.42a1.875 1.875 0 001.866-1.885V5.083c0-1.045-.826-1.903-1.866-1.903zM7.143.88a.899.899 0 01.884.803H6.259A.899.899 0 017.143.88zM4.6 3.014a.45.45 0 01.44-.45h4.205a.45.45 0 01.438.45v1.751H4.601v-1.75zm8.808 15.092a.996.996 0 01-.977 1.013H1.866a.996.996 0 01-.99-1.002V5.083c0-.56.433-1.022.99-1.022h1.859v1.161a.426.426 0 00.428.424h5.97a.424.424 0 00.438-.413V4.06h1.86c.556 0 .988.463.988 1.022v13.023z"/><path d="M2.9 14.694h4.2c.25 0 .451-.229.451-.51 0-.282-.202-.51-.45-.51H2.899c-.248 0-.45.228-.45.51 0 .282.202.51.45.51zm8.491 1.224H2.894c-.246 0-.445.183-.445.409 0 .225.2.408.445.408h8.497c.246 0 .446-.183.446-.409 0-.225-.2-.408-.446-.408zM5.95 11.291c.161.17.428.184.607.031l3.493-2.998a.438.438 0 00.048-.62.442.442 0 00-.621-.048l-.002.003L6.3 10.384 4.842 8.85a.442.442 0 00-.623-.016.438.438 0 00-.017.62l1.747 1.836z"/></symbol><symbol viewBox="0 0 15 20" id="document-plus" xmlns="http://www.w3.org/2000/svg"><path d="M12.42 3.18h-1.86v-.166c0-.73-.586-1.325-1.314-1.33h-.34A1.769 1.769 0 007.142 0c-.94 0-1.715.74-1.763 1.683h-.34c-.728.006-1.315.6-1.315 1.331v.166h-1.86C.827 3.18 0 4.038 0 5.083v13.023A1.876 1.876 0 001.856 20H12.42a1.875 1.875 0 001.866-1.885V5.083c0-1.045-.826-1.903-1.866-1.903zM7.143.88a.899.899 0 01.884.803H6.259A.899.899 0 017.143.88zM4.6 3.014a.45.45 0 01.44-.45h4.205a.45.45 0 01.438.45v1.751H4.601v-1.75zm8.808 15.092a.996.996 0 01-.977 1.013H1.866a.996.996 0 01-.99-1.002V5.083c0-.56.433-1.022.99-1.022h1.859v1.161a.426.426 0 00.428.424h5.97a.424.424 0 00.438-.413V4.06h1.86c.556 0 .988.463.988 1.022v13.023z"/><path d="M2.9 14.694h4.2c.25 0 .451-.229.451-.51 0-.282-.201-.51-.45-.51H2.9c-.25 0-.45.228-.45.51 0 .281.2.51.45.51zm8.492 1.224H2.895c-.246 0-.446.183-.446.409 0 .225.2.408.446.408h8.497c.246 0 .445-.183.445-.408 0-.226-.2-.409-.445-.409zm.374-5.684H9.234v2.532a.234.234 0 11-.468 0v-2.532H6.234a.234.234 0 010-.468h2.532V7.234a.234.234 0 11.468 0v2.532h2.532a.234.234 0 110 .468z"/><path d="M11.766 10.234H9.234v2.532a.234.234 0 11-.468 0v-2.532H6.234a.234.234 0 010-.468h2.532V7.234a.234.234 0 11.468 0v2.532h2.532a.234.234 0 110 .468z"/></symbol><symbol viewBox="0 0 22 16" id="envelope" xmlns="http://www.w3.org/2000/svg"><path d="M14.583 7.675L22 12.365V2.788l-7.417 4.886zM0 2.789v9.575l7.417-4.689L0 2.79zM20.625 0H1.375C.689 0 .144.511.04 1.17L11 8.39l10.958-7.22C21.855.512 21.311 0 20.625 0zm-7.301 8.505l-1.946 1.282a.687.687 0 01-.756 0L8.676 8.504l-8.632 5.46c.106.653.648 1.16 1.331 1.16h19.25c.683 0 1.225-.507 1.331-1.16l-8.632-5.459z"/></symbol><symbol viewBox="0 0 14 14" id="exit" xmlns="http://www.w3.org/2000/svg"><path d="M6.977 12.79H1.744a.582.582 0 01-.581-.58V1.743c0-.32.26-.581.581-.581h5.233a.58.58 0 100-1.163H1.744A1.748 1.748 0 000 1.744V12.21c0 .962.783 1.745 1.744 1.745h5.233a.58.58 0 100-1.163z"/><path d="M13.827 6.563l-3.535-3.489a.581.581 0 10-.816.828l2.526 2.493h-6.77a.58.58 0 100 1.163h6.77l-2.526 2.493a.581.581 0 10.816.828l3.535-3.488a.582.582 0 000-.828z"/></symbol><symbol viewBox="0 0 29 20" id="eye" xmlns="http://www.w3.org/2000/svg"><path d="M14.133 5.782a3.858 3.858 0 00-3.854 3.854 3.858 3.858 0 003.854 3.855 3.858 3.858 0 003.855-3.855 3.858 3.858 0 00-3.855-3.854z"/><path d="M14.133 0C7.71 0 2.223 3.996 0 9.636c2.223 5.64 7.71 9.637 14.133 9.637 6.431 0 11.91-3.996 14.134-9.637C26.044 3.996 20.564 0 14.133 0zm0 16.06A6.427 6.427 0 017.71 9.637a6.427 6.427 0 016.424-6.424 6.427 6.427 0 016.425 6.424 6.427 6.427 0 01-6.425 6.425z"/></symbol><symbol viewBox="0 0 29 25" id="eye-hide" xmlns="http://www.w3.org/2000/svg"><path d="M13.876 7.703l4.034 4.035.02-.212a3.845 3.845 0 00-3.842-3.842l-.212.02z" fill-opacity=".99"/><path d="M14.088 5.123a6.406 6.406 0 016.403 6.403c0 .826-.166 1.614-.455 2.337l3.746 3.746a15.209 15.209 0 004.4-6.083c-2.222-5.622-7.685-9.605-14.094-9.605-1.793 0-3.51.32-5.104.897l2.766 2.76a6.435 6.435 0 012.338-.455zM1.28 1.633l2.92 2.92.583.583A15.169 15.169 0 000 11.526c2.216 5.622 7.684 9.605 14.088 9.605 1.985 0 3.88-.384 5.615-1.082l.545.544 3.733 3.74 1.633-1.627L2.914 0 1.28 1.633zm7.083 7.076l1.979 1.978a4.06 4.06 0 00-.097.84 3.845 3.845 0 003.843 3.841c.288 0 .563-.038.832-.096l1.979 1.979a6.3 6.3 0 01-2.812.679 6.406 6.406 0 01-6.403-6.404c0-1.012.256-1.96.679-2.817z" fill-opacity=".99"/></symbol><symbol viewBox="0 0 430.1 430.1" id="facebook" xmlns="http://www.w3.org/2000/svg"><path d="M158.1 83.3v59.2h-43.4v72.4h43.4v215.2h89.1V214.9H307s5.6-34.7 8.3-72.7h-67.8V92.7c0-7.4 9.7-17.4 19.3-17.4h48.6V-.1h-66c-93.5.1-91.3 72.6-91.3 83.4z"/></symbol><symbol viewBox="0 0 26 16" id="g-plus" xmlns="http://www.w3.org/2000/svg"><path d="M22.4 6.4V3.2h-1.6v3.2h-3.2V8h3.2v3.2h1.6V8h3.2V6.4h-3.2zM8 6.4v3.2h4.526A4.81 4.81 0 018 12.8 4.806 4.806 0 013.2 8c0-2.646 2.154-4.8 4.8-4.8 1.147 0 2.251.411 3.109 1.158l2.102-2.412A7.928 7.928 0 008 0C3.589 0 0 3.589 0 8s3.589 8 8 8 8-3.589 8-8V6.4H8z"/></symbol><symbol viewBox="0 0 69 66" id="growth" xmlns="http://www.w3.org/2000/svg"><g clip-path="url(#ara)" stroke="#fff" stroke-width=".5" stroke-miterlimit="10"><path d="M67.3 40.5H.9c-.4 0-.7-.3-.7-.7V.9C.2.5.5.2.9.2h66.4c.4 0 .7.3.7.7v38.9c0 .4-.3.7-.7.7zM1.6 39.2h65.1V1.6H1.6v37.6z"/><path d="M51.7 34.5H47c-.4 0-.7-.3-.7-.7V10.1c0-.4.3-.7.7-.7h4.7c.4 0 .7.3.7.7v23.7c0 .4-.3.7-.7.7zm-4-1.3h3.4V10.8h-3.4v22.4zm-3.6 1.3h-4.7c-.4 0-.7-.3-.7-.7V13.1c0-.4.3-.7.7-.7h4.7c.4 0 .7.3.7.7v20.8c-.1.3-.4.6-.7.6zm-4-1.3h3.4V13.7h-3.4v19.5zm-3.6 1.3h-4.7c-.4 0-.7-.3-.7-.7V15.9c0-.4.3-.7.7-.7h4.7c.4 0 .7.3.7.7v17.9c-.1.4-.4.7-.7.7zm-4.1-1.3h3.4V16.6h-3.4v16.6zm-3.6 1.3h-4.7c-.4 0-.7-.3-.7-.7V19.9c0-.4.3-.7.7-.7h4.7c.4 0 .7.3.7.7v13.9c0 .4-.3.7-.7.7zm-4-1.3h3.4V20.6h-3.4v12.6zm-3.6 1.3h-4.7c-.4 0-.7-.3-.7-.7V24c0-.4.3-.7.7-.7h4.7c.4 0 .7.3.7.7v9.8c-.1.4-.4.7-.7.7zm-4-1.3h3.4v-8.5h-3.4v8.5zm-.7-12.6c-.3 0-.5-.2-.6-.4-.1-.3.1-.7.4-.8.2-.1 17.6-6.4 25.2-15.3.2-.3.6-.3.9-.1.3.2.3.6.1.9-7.8 9.1-25 15.4-25.7 15.6-.1.1-.2.1-.3.1z"/><path d="M41.9 9.1c-.4 0-.7-.3-.7-.7V5.2h-3c-.4 0-.6-.3-.7-.6 0-.4.3-.7.6-.7h3.7c.2 0 .3.1.5.2.1.1.2.3.2.5v3.9c0 .3-.3.6-.6.6zm22.9 56c-.4 0-.7-.3-.7-.7v-3c0-2.3-1.9-4.2-4.2-4.2h-7c-2.3 0-4.2 1.9-4.2 4.2v3c0 .4-.3.7-.7.7-.4 0-.7-.3-.7-.7v-3c0-3.1 2.5-5.5 5.5-5.5h7c3.1 0 5.5 2.5 5.5 5.5v3c.1.4-.2.7-.5.7zm-23.1 0c-.4 0-.7-.3-.7-.7v-3c0-2.3-1.9-4.2-4.2-4.2h-7c-2.3 0-4.2 1.9-4.2 4.2v3c0 .4-.3.7-.7.7-.4 0-.7-.3-.7-.7v-3c0-3.1 2.5-5.5 5.5-5.5h7c3.1 0 5.5 2.5 5.5 5.5v3c.1.4-.2.7-.5.7zm-21.4 0c-.4 0-.7-.3-.7-.7v-3c0-2.3-1.9-4.2-4.2-4.2H8.3c-2.3 0-4.2 1.9-4.2 4.2v3c0 .4-.3.7-.7.7-.4 0-.7-.3-.7-.7v-3c0-3.1 2.5-5.5 5.5-5.5h7.1c3.1 0 5.5 2.5 5.5 5.5v3c.1.4-.2.7-.5.7zm36-10.1c-2.9 0-5.2-2.3-5.2-5.2 0-2.9 2.3-5.2 5.2-5.2 2.9 0 5.2 2.3 5.2 5.2 0 2.9-2.4 5.2-5.2 5.2zm-4-4.8c.2 2 1.9 3.6 3.9 3.6 2.2 0 3.9-1.8 3.9-3.9v-.4c-1.2.1-2.3-.2-3.2-.8-1.1 1.1-2.8 1.7-4.6 1.5zm.1-1.3c1.5.3 3-.3 3.9-1.5.1-.1.3-.2.4-.3.2 0 .4 0 .5.1.7.6 1.7.9 2.5.9-.6-1.3-2-2.2-3.5-2.2-1.8 0-3.3 1.3-3.8 3zM33.1 55c-2.9 0-5.2-2.3-5.2-5.2 0-2.9 2.3-5.2 5.2-5.2 2.4 0 4.4 1.6 5 3.8v.1c.1.4.2.8.2 1.3.1 2.9-2.3 5.2-5.2 5.2zm-3.9-4.8c.2 2 1.9 3.6 3.9 3.6 2.2 0 3.9-1.8 3.9-3.9v-.4c-1.1.1-2.3-.2-3.2-.8-1.1 1.1-2.9 1.7-4.6 1.5zm.1-1.3c1.5.3 3-.3 3.9-1.5.1-.1.3-.2.4-.3.2 0 .4 0 .5.1.7.6 1.6.9 2.5.9-.6-1.3-2-2.2-3.5-2.2-1.8 0-3.3 1.3-3.8 3zM11.7 55c-2.9 0-5.2-2.3-5.2-5.2 0-2.9 2.3-5.2 5.2-5.2 2.9 0 5.2 2.3 5.2 5.2.1 2.9-2.3 5.2-5.2 5.2zm-3.9-4.8c.2 2 1.9 3.6 3.9 3.6 2.2 0 3.9-1.8 3.9-3.9v-.4c-1.2.1-2.3-.2-3.2-.8-1.1 1.1-2.8 1.7-4.6 1.5zm.1-1.3c1.5.3 3-.3 3.9-1.5.1-.1.3-.2.4-.3.2 0 .4 0 .5.1.7.6 1.7.9 2.5.9-.6-1.3-2-2.2-3.5-2.2-1.8 0-3.3 1.3-3.8 3z"/></g><defs><clipPath id="ara"><path d="M0 0h68.2v65.3H0z"/></clipPath></defs></symbol><symbol viewBox="0 0 65 63" id="i-call" xmlns="http://www.w3.org/2000/svg"><path d="M57.812 41.4c-3.855 0-7.63-.602-11.209-1.783-1.746-.602-3.73-.138-4.877 1.033l-7.095 5.358c-8.14-4.345-13.35-9.551-17.636-17.633l5.213-6.926a4.978 4.978 0 001.22-5.033 35.712 35.712 0 01-1.795-11.228A4.94 4.94 0 0016.699.254H5.188A4.94 4.94 0 00.254 5.188c0 31.736 25.822 57.558 57.558 57.558a4.94 4.94 0 004.934-4.934V46.334a4.94 4.94 0 00-4.934-4.934zM37.917 2.247c-1.544.126-1.352 2.46.193 2.353 11.987-.893 22.516 6.397 23.843 21.244.128 1.568 2.493 1.354 2.344-.212h-.004C62.853 9.637 51.32 1.239 37.917 2.248z"/><path d="M55.207 24.16c.09 1.524 2.376 1.41 2.269-.133-.522-8.695-6.523-15.4-16.76-15.32-1.498.015-1.463 2.342.032 2.327 8.878-.062 14.014 5.51 14.46 13.125z"/><path d="M43.493 17.333c3.657-.098 5.57 1.547 6.06 5.208.186 1.43 2.395 1.15 2.209-.282-.637-4.78-3.515-7.236-8.325-7.093-1.465.038-1.424 2.206.056 2.167z"/></symbol><symbol viewBox="0 0 67 67" id="i-chart" xmlns="http://www.w3.org/2000/svg"><path d="M63.61 6.617h-9.098a3.694 3.694 0 001.43-2.918A3.702 3.702 0 0052.244 0a3.703 3.703 0 00-3.698 3.699c0 .623.155 1.21.428 1.725l-1.303 1.193H29.787a3.704 3.704 0 00-3.404-2.252c-1.526 0-2.839.93-3.403 2.252H2.926A2.928 2.928 0 000 9.542v7.2a.975.975 0 001.95 0v-7.2c0-.538.437-.975.975-.975H22.72c.05.373.157.73.311 1.06l-8.222 7.448a3.676 3.676 0 00-2.02-.602 3.703 3.703 0 00-3.698 3.698 3.703 3.703 0 003.698 3.699c2.04 0 3.699-1.66 3.699-3.699 0-.588-.139-1.144-.384-1.638l8.19-7.42a3.687 3.687 0 004.755-.49l6.64 3.944a3.703 3.703 0 003.625 4.435 3.704 3.704 0 003.698-3.7c0-.53-.113-1.034-.316-1.49l5.731-5.245H63.61c.538 0 .976.437.976.975v24.09a.975.975 0 101.95 0V9.543a2.928 2.928 0 00-2.925-2.925zM12.79 21.92a1.75 1.75 0 01-1.749-1.748 1.75 1.75 0 011.749-1.749 1.75 1.75 0 011.749 1.749 1.75 1.75 0 01-1.749 1.748zM26.383 9.813a1.75 1.75 0 01-1.748-1.75 1.75 1.75 0 011.748-1.748 1.75 1.75 0 011.75 1.749 1.75 1.75 0 01-1.75 1.749zm12.93 7.238a1.75 1.75 0 01-1.748-1.748 1.75 1.75 0 011.749-1.749 1.75 1.75 0 011.749 1.749 1.75 1.75 0 01-1.75 1.748zm2.151-4.754a3.69 3.69 0 00-4.892.527L29.983 8.91c.027-.112.048-.227.064-.343H45.54l-4.076 3.73zm10.78-6.85A1.75 1.75 0 0150.495 3.7a1.75 1.75 0 011.75-1.75 1.75 1.75 0 011.748 1.75 1.75 1.75 0 01-1.749 1.748z"/><path d="M66.534 37.533a.975.975 0 10-1.95 0v7.334h-7.179V13.76a.975.975 0 00-.975-.975h-7.334a.975.975 0 00-.975.975v31.107h-3.646V31.89a.975.975 0 00-.975-.974h-7.335a.975.975 0 00-.975.974v12.977h-3.646V19.306a.975.975 0 00-.975-.975h-7.334a.975.975 0 00-.975.975v13.469a.975.975 0 101.95 0v-4.481h5.384v16.573H24.21v-8.193a.975.975 0 10-1.95 0v8.193h-3.646V31.89a.975.975 0 00-.975-.974h-7.334a.975.975 0 00-.975.974v12.977H1.95V20.642a.975.975 0 10-1.95 0v32.269a2.928 2.928 0 002.925 2.924h21.353l-.556 4.845h-4.629a.975.975 0 00-.975.975v3.42c0 .54.437.976.975.976h28.348a.975.975 0 00.975-.975v-3.421a.975.975 0 00-.975-.975h-4.63l-.555-4.845h21.353a2.928 2.928 0 002.925-2.925l-.001-7.05v-8.327zm-16.463-22.8h5.385v2.085H50.07v-2.084zm0 4.035h5.385v2.029H50.07v-2.03zm0 3.979h5.385v22.12H50.07v-22.12zm-12.93 10.118h5.384v2.085h-5.384v-2.085zm0 4.035h5.384v2.029h-5.384v-2.03zm0 3.979h5.384v3.988h-5.384V40.88zM24.21 22.365V20.28h5.384v2.084H24.21zm0 3.979v-2.03h5.384v2.03H24.21zm-12.93 6.521h5.383v2.085H11.28v-2.085zm0 4.035h5.383v2.029H11.28v-2.03zm0 3.979h5.383v3.988H11.28V40.88zm35.184 21.75v1.472H20.069v-1.472h26.397zm-20.78-1.95l.556-4.844h14.052l.556 4.844H25.685zm37.924-6.794H2.925a.976.976 0 01-.975-.974v-6.056h62.633v6.056a.976.976 0 01-.974.974z"/></symbol><symbol viewBox="0 0 22 24" id="i-copy" xmlns="http://www.w3.org/2000/svg"><path d="M19.25 19H7.75A2.752 2.752 0 015 16.25V2.75A2.752 2.752 0 017.75 0h8.508c.988 0 1.954.4 2.651 1.099l1.992 1.992a3.726 3.726 0 011.1 2.652V16.25A2.752 2.752 0 0119.25 19zM7.75 1.5c-.689 0-1.25.561-1.25 1.25v13.5c0 .69.561 1.25 1.25 1.25h11.5c.69 0 1.25-.56 1.25-1.25V5.743c0-.601-.234-1.166-.659-1.591L17.85 2.16a2.261 2.261 0 00-1.59-.66H7.75z"/><path d="M14.75 24h-12A2.752 2.752 0 010 21.25v-16A2.752 2.752 0 012.75 2.5h.5a.75.75 0 010 1.5h-.5c-.689 0-1.25.56-1.25 1.25v16c0 .689.561 1.25 1.25 1.25h12c.69 0 1.25-.561 1.25-1.25v-.5a.75.75 0 011.5 0v.5A2.752 2.752 0 0114.75 24zm2.5-15.5h-7.5a.75.75 0 010-1.5h7.5a.75.75 0 010 1.5z"/><path d="M17.25 11.5h-7.5a.75.75 0 010-1.5h7.5a.75.75 0 010 1.5zm0 3h-7.5a.75.75 0 010-1.5h7.5a.75.75 0 010 1.5z"/></symbol><symbol viewBox="0 0 52 65" id="i-document" xmlns="http://www.w3.org/2000/svg"><path d="M16.095 18.952a1.239 1.239 0 100-2.477 1.239 1.239 0 000 2.477zm0 7.429a1.239 1.239 0 100-2.477 1.239 1.239 0 000 2.477z"/><path d="M13.619 64.267h29.714c4.78 0 8.667-3.888 8.667-8.667 0-.684-.554-1.238-1.238-1.238h-3.714V7.067a6.197 6.197 0 00-6.19-6.19H4.951A4.958 4.958 0 000 5.828v6.19c0 .684.554 1.238 1.238 1.238h6.19V57.81c0 3.365 2.562 6.456 6.191 6.456zm29.714-2.476H18.57a6.197 6.197 0 001.24-3.727v-1.238H49.4c-.575 2.822-3.076 4.965-6.066 4.965zm1.238-54.724v47.295h-26c-.683 0-1.238.554-1.238 1.238v2.476a3.718 3.718 0 01-3.714 3.715c-2.22 0-3.714-1.921-3.714-3.98V5.83c0-.893-.238-1.741-.662-2.477h31.614a3.718 3.718 0 013.714 3.715zM2.476 10.78V5.829a2.48 2.48 0 012.476-2.477A2.474 2.474 0 017.43 5.83v4.952H2.476z"/><path d="M27.238 36.286c0 2.143.897 4.125 2.476 5.532v8.087a1.238 1.238 0 001.925 1.03l3.028-2.018 3.027 2.018a1.237 1.237 0 001.925-1.03v-8.087a7.356 7.356 0 002.476-5.532c0-4.096-3.332-7.429-7.428-7.429-4.097 0-7.429 3.332-7.429 7.429zm8.115 10.112a1.239 1.239 0 00-1.373 0l-1.79 1.194v-4.3c.787.278 1.62.422 2.477.422.856 0 1.689-.144 2.476-.422v4.3l-1.79-1.194zm4.266-10.112c0 2.795-2.276 4.952-4.952 4.952-2.678 0-4.953-2.156-4.953-4.952a4.958 4.958 0 014.953-4.953 4.958 4.958 0 014.952 4.953zM16.095 11.524h22.286a1.238 1.238 0 100-2.476H16.095a1.238 1.238 0 100 2.476zm4.953 7.428H38.38a1.238 1.238 0 100-2.476H21.048a1.238 1.238 0 100 2.476zm0 7.429H38.38a1.238 1.238 0 100-2.476H21.048a1.238 1.238 0 100 2.476zm-4.953 14.857h7.429a1.238 1.238 0 100-2.476h-7.429a1.238 1.238 0 100 2.476zm0-7.428h7.429a1.238 1.238 0 100-2.477h-7.429a1.238 1.238 0 100 2.477zm0 14.857h7.429a1.238 1.238 0 100-2.477h-7.429a1.238 1.238 0 100 2.477z"/></symbol><symbol viewBox="0 0 31 31" id="i-edit" xmlns="http://www.w3.org/2000/svg"><path d="M28.612 19.357a.772.772 0 00-.772.772v6.855a2.319 2.319 0 01-2.316 2.316H3.86a2.318 2.318 0 01-2.316-2.316V6.864A2.319 2.319 0 013.86 4.548h6.855a.772.772 0 100-1.544H3.86A3.865 3.865 0 000 6.864v20.12a3.865 3.865 0 003.86 3.86h21.664a3.865 3.865 0 003.86-3.86v-6.855a.772.772 0 00-.772-.773z"/><path d="M29.078 1.018a3.474 3.474 0 00-4.913 0L10.39 14.792a.772.772 0 00-.198.34L8.38 21.67a.772.772 0 00.95.95l6.54-1.811a.772.772 0 00.34-.199L29.983 6.837a3.478 3.478 0 000-4.913l-.906-.906zM12.073 15.293L23.346 4.02l3.636 3.636-11.274 11.273-3.635-3.635zm-.726 1.458l2.904 2.905-4.018 1.113 1.114-4.018zM28.892 5.745l-.818.82-3.636-3.637.819-.819a1.93 1.93 0 012.73 0l.905.906a1.933 1.933 0 010 2.73z"/></symbol><symbol viewBox="0 0 62 62" id="i-hand" xmlns="http://www.w3.org/2000/svg"><path d="M28.501 41.983a1.209 1.209 0 000-1.71 1.21 1.21 0 100 1.71zm-5.734-28.688c0 7.33 5.975 13.295 13.32 13.295 7.345 0 13.32-5.965 13.32-13.295C49.408 5.964 43.433 0 36.088 0c-7.345 0-13.32 5.964-13.32 13.295zm24.22 0c0 5.998-4.89 10.877-10.9 10.877-6.01 0-10.899-4.88-10.899-10.877 0-5.998 4.89-10.878 10.9-10.878 6.009 0 10.898 4.88 10.898 10.878z"/><path d="M13.948 61.54c.47.473 1.234.478 1.71.01l5.87-5.772a3.648 3.648 0 00.863-3.75l1.263-1.216a3.615 3.615 0 012.521-1.017h16.099c2.856 0 5.555-1.095 7.602-3.082.084-.082-.64.768 10.983-13.095a4.834 4.834 0 00-.576-6.814 4.863 4.863 0 00-6.796.54l-7.145 7.33a4.87 4.87 0 00-3.765-1.8H29.073a15.65 15.65 0 00-6.064-1.208c-5.832 0-10.923 2.688-13.656 7.728a3.622 3.622 0 00-3.239 1.002l-5.76 5.766a1.207 1.207 0 00-.003 1.705L13.95 61.54zm9.06-27.457c1.855 0 3.648.373 5.332 1.107.153.067.318.102.485.102h13.752a2.427 2.427 0 012.422 2.417 2.422 2.422 0 01-2.422 2.417h-9.88a1.21 1.21 0 000 2.417h9.88a4.844 4.844 0 004.843-4.834 4.92 4.92 0 00-.042-.632c6.913-7.092 7.887-8.088 7.929-8.138a2.434 2.434 0 013.414-.288 2.42 2.42 0 01.284 3.412l-10.861 12.96a8.441 8.441 0 01-5.87 2.355H26.175c-1.577 0-3.07.602-4.204 1.694l-1.029.992-9.487-9.468c2.218-4.152 6.378-6.513 11.553-6.513zm-15.18 8.02a1.21 1.21 0 011.5-.17c.21.128-.393-.419 10.488 10.426a1.21 1.21 0 01.007 1.703l-5.005 4.922-11.9-11.967 4.91-4.913zm26.806-36.06V7.46a3.632 3.632 0 00-2.422 3.418 3.634 3.634 0 003.633 3.626c.668 0 1.21.542 1.21 1.208a1.21 1.21 0 01-1.21 1.209c-.517 0-1.076-.325-1.572-.915a1.213 1.213 0 00-1.707-.147 1.207 1.207 0 00-.147 1.703c.647.768 1.408 1.304 2.215 1.574v1.41a1.21 1.21 0 001.21 1.209c.67 0 1.212-.54 1.212-1.208V19.13a3.633 3.633 0 002.422-3.418c0-2-1.63-3.626-3.633-3.626a1.21 1.21 0 01-1.211-1.208c0-.667.543-1.21 1.21-1.21.43 0 .883.22 1.31.633a1.214 1.214 0 001.713-.028 1.207 1.207 0 00-.028-1.71c-.615-.593-1.23-.929-1.783-1.112V6.043a1.21 1.21 0 00-2.422 0z"/></symbol><symbol viewBox="0 0 60 61" id="i-insurance" xmlns="http://www.w3.org/2000/svg"><path d="M45.393 6.651L30.39.084a1 1 0 00-.8 0L14.585 6.65a1 1 0 00-.6.916V23.27a11.017 11.017 0 004.56 8.91l10.37 7.479a1.83 1.83 0 002.147 0l10.369-7.478a11.016 11.016 0 004.561-8.91V7.567a1 1 0 00-.6-.916zm-1.4 16.62a9.01 9.01 0 01-3.731 7.288l-10.273 7.41-10.272-7.41a9.011 9.011 0 01-3.73-7.287V8.222l14.002-6.13 14.004 6.13v15.05z"/><path d="M29.59 4.45L18.586 9.269a1 1 0 00-.6.916v13.088a7.001 7.001 0 002.9 5.665l8.517 6.143a1 1 0 001.17 0l8.518-6.143a7.002 7.002 0 002.9-5.665V10.184a1 1 0 00-.6-.916L30.389 4.45a1 1 0 00-.8 0zm10.402 6.387v12.435a5 5 0 01-2.07 4.043l-7.933 5.721-7.931-5.721a5.001 5.001 0 01-2.07-4.043V10.837l10.001-4.378 10.003 4.378zM8.27 33.207l-2.164-5.055a3.189 3.189 0 00-5.834 2.575l3.92 8.623a10.624 10.624 0 002.171 3.135l6.164 6.166a1.989 1.989 0 00-.542 1.36v8.002a2 2 0 002 2h11.003a2 2 0 002-2V50.01a2 2 0 00-2-2v-1.862a10.48 10.48 0 00-2.192-6.551 7.202 7.202 0 00-3.334-2.432 19.787 19.787 0 01-5.726-3.675 4.601 4.601 0 00-5.467-.284zm16.718 24.806H13.986V50.01h11.002v8.002zm-3.754-17.166a8.487 8.487 0 011.754 5.302v1.861h-8.271l-6.94-6.94a8.65 8.65 0 01-1.765-2.547L2.092 29.9a1.19 1.19 0 112.175-.96l2.237 5.218a11.803 11.803 0 002.523 3.726l4.569 4.57a1 1 0 101.414-1.414l-4.57-4.57a9.864 9.864 0 01-1.232-1.5 2.6 2.6 0 013.24.053 21.324 21.324 0 006.38 4.041 5.255 5.255 0 012.406 1.783z"/><path d="M21.988 53.012h-1a1 1 0 100 2h1a1 1 0 000-2zM55.787 39.35l3.92-8.623a3.189 3.189 0 10-5.833-2.575l-2.159 5.036a4.613 4.613 0 00-5.472.3 19.785 19.785 0 01-5.726 3.675 7.202 7.202 0 00-3.334 2.431 10.48 10.48 0 00-2.192 6.555v1.861a2 2 0 00-2 2v8.003a2 2 0 002 2h11.002a2 2 0 002-2V50.01a1.988 1.988 0 00-.542-1.36l6.165-6.166a10.623 10.623 0 002.171-3.135zm-9.794 18.663H34.991V50.01h11.002v8.002zm-.731-10.003H36.99v-1.86a8.487 8.487 0 011.753-5.301 5.257 5.257 0 012.401-1.784 21.316 21.316 0 006.382-4.04 2.6 2.6 0 013.246-.063 9.81 9.81 0 01-1.24 1.51l-4.568 4.57a1 1 0 001.414 1.414l4.57-4.57a11.804 11.804 0 002.522-3.726l2.237-5.219a1.187 1.187 0 012.092-.175c.219.34.25.768.083 1.136l-3.92 8.623a8.652 8.652 0 01-1.766 2.548l-6.935 6.938z"/><path d="M38.992 53.012h-1a1 1 0 100 2h1a1 1 0 000-2zM24.588 21.204a1 1 0 00-1.2 1.6l4 3.001a1 1 0 001.433-.245l8.002-12.002a1 1 0 00-1.664-1.11L27.743 23.57l-3.155-2.367z"/></symbol><symbol viewBox="0 0 70 57" id="i-shake" xmlns="http://www.w3.org/2000/svg"><mask id="aza"><path d="M69.218 31.083a1.02 1.02 0 00-1.432-.165l-2 1.585-16.158-21.215 9.237-5.929a1.019 1.019 0 10-1.1-1.715l-10.167 6.525a1.03 1.03 0 00-.26 1.476l1.85 2.429-1.316 1.007-5.223-1.726a1.039 1.039 0 00-.32-.051H30.37a1.02 1.02 0 00-.989.772l-.673 2.691-1.698-.715a1.02 1.02 0 00-.514-.073l-4.725.554-1.605-.932 1.527-2.645a1.03 1.03 0 00-.373-1.392L1.529.137a1.019 1.019 0 10-1.02 1.765l15.512 8.955L2.634 34.044l-1.105-.638a1.019 1.019 0 10-1.02 1.765l5.386 3.11a1.03 1.03 0 001.393-.374l.779-1.35 2.198 1.173a4.284 4.284 0 00.332 4.478 4.278 4.278 0 004.792 1.56 4.18 4.18 0 00.842 2.516 4.286 4.286 0 003.43 1.697c.436 0 .874-.066 1.296-.2.012.851.274 1.706.81 2.446a4.252 4.252 0 002.79 1.717 4.236 4.236 0 001.983-.148c.012.873.29 1.72.812 2.441a4.253 4.253 0 002.79 1.718 4.248 4.248 0 003.187-.759l2.378-1.72c.514-.373.93-.843 1.229-1.38l4.183 2.28a4.258 4.258 0 003.257.348 4.252 4.252 0 002.55-2.058 4.249 4.249 0 00.495-2.525 4.285 4.285 0 004.536-2.16 4.255 4.255 0 00.492-2.527 4.285 4.285 0 004.538-2.16 4.248 4.248 0 00.496-2.525 4.221 4.221 0 001.985-.105 4.253 4.253 0 002.55-2.057c.547-1.004.67-2.16.347-3.258a4.326 4.326 0 00-.302-.755l1.788-1.269.944 1.24a1.03 1.03 0 001.444.181l2.814-2.23c.44-.35.515-.992.165-1.433zM6.032 36.006L4.4 35.063l13.387-23.187 1.633.943L6.032 36.006zm9.347 5.509a2.244 2.244 0 01-3.13-.502 2.245 2.245 0 01.501-3.131l7.21-5.217a2.233 2.233 0 013.093.45c.76.99.545 2.452-.464 3.183l-7.21 5.217zm5.585 4.01a2.253 2.253 0 01-3.105-.467c-.755-1.004-.464-2.486.535-3.21l5.39-3.898c.195-.131.377-.269.597-.362a2.225 2.225 0 012.646.703c.76.99.546 2.451-.464 3.182l-5.6 4.052zm5.585 4.01a2.225 2.225 0 01-1.67.397 2.245 2.245 0 01-.96-4.03l3.84-2.778.15-.108a2.231 2.231 0 013.092.45c.76.99.546 2.452-.464 3.183l-3.988 2.886zm8.867.796a2.224 2.224 0 01-.904 1.493l-2.378 1.72a2.263 2.263 0 01-3.13-.502c-.72-.993-.486-2.41.501-3.13l2.227-1.612.151-.109a2.255 2.255 0 013.092.45 2.22 2.22 0 01.441 1.69zm24.812-12.7a2.263 2.263 0 01-3.042.896l-11.783-6.423a1.02 1.02 0 00-.976 1.79l9.874 5.382a2.245 2.245 0 01.896 3.042 2.245 2.245 0 01-3.042.895l-10.018-5.46a1.02 1.02 0 00-.976 1.79l8.111 4.42a2.245 2.245 0 01.895 3.041 2.263 2.263 0 01-3.042.896l-8.492-4.629a1.02 1.02 0 00-.976 1.79l6.583 3.588a2.263 2.263 0 01.896 3.042 2.263 2.263 0 01-3.042.895l-4.617-2.516a4.241 4.241 0 00-.885-2.67 4.264 4.264 0 00-3.183-1.676 4.247 4.247 0 00-.79-3.499 4.264 4.264 0 00-3.185-1.676 4.247 4.247 0 00-.79-3.499 4.264 4.264 0 00-3.184-1.676 4.247 4.247 0 00-.79-3.499 4.26 4.26 0 00-5.905-.86l-7.112 5.145-2.567-1.369 10.061-17.425 1.895 1.1c.19.11.412.156.63.13l4.795-.561 1.742.733-1.001 4.005c-.02.08-.03.163-.03.247v8.696a5.374 5.374 0 005.367 5.368 5.374 5.374 0 005.367-5.368v-8.404l.186-.296 21.234 11.573a2.263 2.263 0 01.896 3.042zm.486-4.579a4.364 4.364 0 00-.406-.252L39.18 21.284l.784-1.254a1.02 1.02 0 00-1.729-1.08l-2.206 3.53a1.02 1.02 0 00-.155.54v8.696a3.333 3.333 0 01-3.329 3.33 3.333 3.333 0 01-3.33-3.33v-8.57l1.951-7.804h10.999l5.58 1.843c.316.105.673.045.938-.158l1.74-1.332 12.192 16.008-1.9 1.349z"/></mask><path d="M69.218 31.083a1.02 1.02 0 00-1.432-.165l-2 1.585-16.158-21.215 9.237-5.929a1.019 1.019 0 10-1.1-1.715l-10.167 6.525a1.03 1.03 0 00-.26 1.476l1.85 2.429-1.316 1.007-5.223-1.726a1.039 1.039 0 00-.32-.051H30.37a1.02 1.02 0 00-.989.772l-.673 2.691-1.698-.715a1.02 1.02 0 00-.514-.073l-4.725.554-1.605-.932 1.527-2.645a1.03 1.03 0 00-.373-1.392L1.529.137a1.019 1.019 0 10-1.02 1.765l15.512 8.955L2.634 34.044l-1.105-.638a1.019 1.019 0 10-1.02 1.765l5.386 3.11a1.03 1.03 0 001.393-.374l.779-1.35 2.198 1.173a4.284 4.284 0 00.332 4.478 4.278 4.278 0 004.792 1.56 4.18 4.18 0 00.842 2.516 4.286 4.286 0 003.43 1.697c.436 0 .874-.066 1.296-.2.012.851.274 1.706.81 2.446a4.252 4.252 0 002.79 1.717 4.236 4.236 0 001.983-.148c.012.873.29 1.72.812 2.441a4.253 4.253 0 002.79 1.718 4.248 4.248 0 003.187-.759l2.378-1.72c.514-.373.93-.843 1.229-1.38l4.183 2.28a4.258 4.258 0 003.257.348 4.252 4.252 0 002.55-2.058 4.249 4.249 0 00.495-2.525 4.285 4.285 0 004.536-2.16 4.255 4.255 0 00.492-2.527 4.285 4.285 0 004.538-2.16 4.248 4.248 0 00.496-2.525 4.221 4.221 0 001.985-.105 4.253 4.253 0 002.55-2.057c.547-1.004.67-2.16.347-3.258a4.326 4.326 0 00-.302-.755l1.788-1.269.944 1.24a1.03 1.03 0 001.444.181l2.814-2.23c.44-.35.515-.992.165-1.433zM6.032 36.006L4.4 35.063l13.387-23.187 1.633.943L6.032 36.006zm9.347 5.509a2.244 2.244 0 01-3.13-.502 2.245 2.245 0 01.501-3.131l7.21-5.217a2.233 2.233 0 013.093.45c.76.99.545 2.452-.464 3.183l-7.21 5.217zm5.585 4.01a2.253 2.253 0 01-3.105-.467c-.755-1.004-.464-2.486.535-3.21l5.39-3.898c.195-.131.377-.269.597-.362a2.225 2.225 0 012.646.703c.76.99.546 2.451-.464 3.182l-5.6 4.052zm5.585 4.01a2.225 2.225 0 01-1.67.397 2.245 2.245 0 01-.96-4.03l3.84-2.778.15-.108a2.231 2.231 0 013.092.45c.76.99.546 2.452-.464 3.183l-3.988 2.886zm8.867.796a2.224 2.224 0 01-.904 1.493l-2.378 1.72a2.263 2.263 0 01-3.13-.502c-.72-.993-.486-2.41.501-3.13l2.227-1.612.151-.109a2.255 2.255 0 013.092.45 2.22 2.22 0 01.441 1.69zm24.812-12.7a2.263 2.263 0 01-3.042.896l-11.783-6.423a1.02 1.02 0 00-.976 1.79l9.874 5.382a2.245 2.245 0 01.896 3.042 2.245 2.245 0 01-3.042.895l-10.018-5.46a1.02 1.02 0 00-.976 1.79l8.111 4.42a2.245 2.245 0 01.895 3.041 2.263 2.263 0 01-3.042.896l-8.492-4.629a1.02 1.02 0 00-.976 1.79l6.583 3.588a2.263 2.263 0 01.896 3.042 2.263 2.263 0 01-3.042.895l-4.617-2.516a4.241 4.241 0 00-.885-2.67 4.264 4.264 0 00-3.183-1.676 4.247 4.247 0 00-.79-3.499 4.264 4.264 0 00-3.185-1.676 4.247 4.247 0 00-.79-3.499 4.264 4.264 0 00-3.184-1.676 4.247 4.247 0 00-.79-3.499 4.26 4.26 0 00-5.905-.86l-7.112 5.145-2.567-1.369 10.061-17.425 1.895 1.1c.19.11.412.156.63.13l4.795-.561 1.742.733-1.001 4.005c-.02.08-.03.163-.03.247v8.696a5.374 5.374 0 005.367 5.368 5.374 5.374 0 005.367-5.368v-8.404l.186-.296 21.234 11.573a2.263 2.263 0 01.896 3.042zm.486-4.579a4.364 4.364 0 00-.406-.252L39.18 21.284l.784-1.254a1.02 1.02 0 00-1.729-1.08l-2.206 3.53a1.02 1.02 0 00-.155.54v8.696a3.333 3.333 0 01-3.329 3.33 3.333 3.333 0 01-3.33-3.33v-8.57l1.951-7.804h10.999l5.58 1.843c.316.105.673.045.938-.158l1.74-1.332 12.192 16.008-1.9 1.349z" stroke="#fff" stroke-width="2" mask="url(#aza)"/></symbol><symbol viewBox="0 0 97.4 97.4" id="instagram" xmlns="http://www.w3.org/2000/svg"><path d="M12.5 0h72.4c6.9 0 12.5 5.1 12.5 12.5v72.4c0 7.4-5.6 12.5-12.5 12.5H12.5C5.6 97.4 0 92.3 0 84.9V12.5C0 5.1 5.6 0 12.5 0zm58.4 10.8c-2.4 0-4.4 2-4.4 4.4v10.5c0 2.4 2 4.4 4.4 4.4h11c2.4 0 4.4-2 4.4-4.4V15.2c0-2.4-2-4.4-4.4-4.4h-11zm15.5 30.4h-8.6c.8 2.6 1.3 5.5 1.3 8.4 0 16.2-13.6 29.3-30.3 29.3-16.7 0-30.3-13.1-30.3-29.3 0-2.9.4-5.7 1.3-8.4h-8.9v41.1c0 2.1 1.7 3.9 3.9 3.9h67.8c2.1 0 3.9-1.7 3.9-3.9l-.1-41.1zM48.8 29.5c-10.8 0-19.6 8.5-19.6 19s8.8 19 19.6 19 19.6-8.5 19.6-19-8.8-19-19.6-19z"/></symbol><symbol viewBox="0 0 177 33" id="logo" xmlns="http://www.w3.org/2000/svg"><path d="M52.423 8.092a16.396 16.396 0 00-5.876-5.885c-.55-.368-1.193-.644-1.744-.92A15.797 15.797 0 0038.56 0c-2.295 0-4.499.46-6.61 1.471-.46.184-.918.46-1.378.736-2.478 1.471-4.406 3.402-5.784 5.885-1.377 2.483-2.111 5.15-2.111 8 0 3.034.734 5.701 2.111 8.184 1.47 2.483 3.397 4.322 5.784 5.701 2.48 1.38 5.142 2.115 7.988 2.115s5.508-.736 7.987-2.115c2.48-1.38 4.407-3.402 5.876-5.793 1.47-2.483 2.112-5.15 2.112-8 .092-3.035-.643-5.701-2.112-8.092zM39.937 29.885v.184h-.918V15.908c.459-.276.826-.736.826-1.38 0-.827-.642-1.563-1.56-1.563-.827 0-1.561.736-1.561 1.564 0 .643.367 1.103.918 1.379v14.161h-.827v-.184c0-4.873-2.57-9.103-6.334-11.586l1.193-14.437c2.02-1.195 4.315-1.839 6.794-1.839 2.295 0 4.499.552 6.427 1.655l1.193 14.713c-3.58 2.483-6.06 6.713-6.15 11.494zM17.536.368v2.115h-5.509C6.52 2.39 2.203 6.805 2.203 12.322v3.126h13.588v2.023H2.203v14.345H0V11.954C0 5.517 5.233.368 11.568.368h5.968z"/><path d="M36.907 29.885v.184h.827v-.092c-.276 0-.551-.092-.827-.092zm2.204.092l.918.092v-.184c-.368 0-.643.092-.918.092zM167.92 14.253a16.991 16.991 0 01-4.039 1.655c1.377.368 2.754.92 4.039 1.655 2.479 1.471 4.407 3.402 5.876 5.885 1.469 2.483 2.204 5.15 2.204 8h-2.204c0-2.575-.642-4.873-1.836-6.988a13.346 13.346 0 00-5.049-5.058 12.987 12.987 0 00-6.886-1.93c-2.571 0-4.866.643-6.978 1.93a14.034 14.034 0 00-4.958 5.15c-1.193 2.115-1.836 4.413-1.836 6.896h-2.203c0-2.85.734-5.517 2.203-8a16.897 16.897 0 015.784-5.885c1.286-.735 2.571-1.287 3.948-1.655-1.377-.368-2.754-.828-3.948-1.563-2.387-1.38-4.407-3.31-5.784-5.701-1.377-2.483-2.111-5.15-2.111-8.184h2.203v.092c0 2.482.643 4.781 1.836 6.896 1.194 2.115 2.846 3.77 4.958 5.058 2.112 1.287 4.407 1.839 6.886 1.839 2.57 0 4.866-.644 6.977-1.84a13.348 13.348 0 005.05-5.057A14.186 14.186 0 00173.888.46h2.204c0 2.85-.735 5.517-2.204 8-1.469 2.482-3.489 4.413-5.968 5.793zM110.631 29.61v2.114h-19.28V.46h2.203v29.15h17.077zM134.502.368v2.115h-17.169v12.414h15.424v2.115h-15.424v2.942c0 5.334 4.315 9.655 9.64 9.655h8.08v2.115h-8.171a11.725 11.725 0 01-11.752-11.77V.368h19.372zM83.73 31.816h-2.478l-9.09-14.804h.276c1.56 0 3.03-.552 4.131-1.472 1.561-1.287 2.571-3.218 2.571-5.333v-.184c0-3.034-1.928-5.701-4.59-6.805-.092 0-.184-.091-.184-.091-.918-.46-2.02-.644-3.213-.644h-6.244v29.15h-2.387V.367h9.273c5.325 0 9.549 4.322 9.549 9.563v.184c0 3.862-2.387 7.08-5.693 8.46l8.08 13.241z"/></symbol><symbol viewBox="0 0 23 23" id="msgr-1" xmlns="http://www.w3.org/2000/svg"><path d="M11.5 0C5.15 0 0 4.767 0 10.648c0 3.35 1.672 6.339 4.285 8.291V23l3.916-2.15c1.045.29 2.152.447 3.299.447 6.35 0 11.5-4.767 11.5-10.648C23 4.769 17.85 0 11.5 0zm1.143 14.34l-2.928-3.125L4 14.34l6.286-6.673 3 3.124 5.642-3.124-6.286 6.673z"/></symbol><symbol viewBox="0 0 22 22" id="msgr-2" xmlns="http://www.w3.org/2000/svg"><path d="M11.003 0h-.006C4.932 0 0 4.934 0 11c0 2.406.775 4.636 2.094 6.447l-1.37 4.087 4.227-1.352A10.905 10.905 0 0011.003 22C17.068 22 22 17.065 22 11S17.068 0 11.003 0zm6.4 15.533c-.265.75-1.318 1.371-2.158 1.553-.575.122-1.326.22-3.853-.828-3.233-1.34-5.314-4.624-5.477-4.837-.155-.213-1.306-1.74-1.306-3.318 0-1.579.802-2.347 1.125-2.677.265-.271.704-.395 1.125-.395.136 0 .258.007.368.013.323.013.485.033.699.543.265.639.911 2.218.988 2.38.079.162.157.382.047.595-.103.22-.194.318-.356.505-.162.187-.316.33-.479.53-.148.175-.316.362-.129.685.187.316.833 1.371 1.785 2.218 1.228 1.093 2.223 1.443 2.58 1.591.265.11.58.084.775-.122.246-.266.55-.706.86-1.139.22-.31.497-.35.788-.24.297.104 1.869.88 2.192 1.042.323.162.536.239.615.375.077.136.077.776-.189 1.526z"/></symbol><symbol viewBox="0 0 23 19" id="msgr-3" xmlns="http://www.w3.org/2000/svg"><path d="M9.025 12.522l-.38 5.305c.544 0 .78-.232 1.062-.51l2.552-2.418 5.289 3.84c.97.535 1.653.253 1.915-.885l3.47-16.124h.002C23.242.307 22.416-.249 21.47.1L1.068 7.844C-.325 8.38-.304 9.15.83 9.498l5.216 1.609L18.164 3.59c.57-.374 1.089-.167.662.207l-9.801 8.724z"/></symbol><symbol viewBox="0 0 22 22" id="msgr-4" xmlns="http://www.w3.org/2000/svg"><path d="M11.003 0h-.006C4.932 0 0 4.934 0 11c0 2.406.775 4.636 2.094 6.447l-1.37 4.087 4.227-1.352A10.905 10.905 0 0011.003 22C17.068 22 22 17.065 22 11S17.068 0 11.003 0zm6.4 15.533c-.265.75-1.318 1.371-2.158 1.553-.575.122-1.326.22-3.853-.828-3.233-1.34-5.314-4.624-5.477-4.837-.155-.213-1.306-1.74-1.306-3.318 0-1.579.802-2.347 1.125-2.677.265-.271.704-.395 1.125-.395.136 0 .258.007.368.013.323.013.485.033.699.543.265.639.911 2.218.988 2.38.079.162.157.382.047.595-.103.22-.194.318-.356.505-.162.187-.316.33-.479.53-.148.175-.316.362-.129.685.187.316.833 1.371 1.785 2.218 1.228 1.093 2.223 1.443 2.58 1.591.265.11.58.084.775-.122.246-.266.55-.706.86-1.139.22-.31.497-.35.788-.24.297.104 1.869.88 2.192 1.042.323.162.536.239.615.375.077.136.077.776-.189 1.526z"/></symbol><symbol viewBox="0 0 51 63" id="p-link" xmlns="http://www.w3.org/2000/svg"><path d="M38.218 29.346H12.761c-.31 0-.464-.232-.464-.464v-9.44c0-.232.155-.387.31-.464l8.743-3.405c.155-.077.387 0 .542.077l3.482 3.328 3.791-3.405c.155-.155.31-.155.542-.077L38.45 18.9c.154.078.31.233.31.465v9.362c-.078.387-.31.62-.543.62zM13.303 28.34h24.451v-8.51l-8.124-3.173-3.87 3.483a.58.58 0 01-.696 0l-3.637-3.483-8.124 3.173v8.511z" stroke="#fff" stroke-width=".5" stroke-miterlimit="10"/><path d="M33.885 29.346h-16.79c-.31 0-.542-.232-.542-.464v-5.88c0-.31.232-.465.541-.465.31 0 .542.232.542.465v5.339h15.863V23c0-.309.232-.464.541-.464.31 0 .542.232.542.465v5.88c-.155.232-.387.464-.697.464zm-4.178-8.279h-8.434c-.31 0-.542-.232-.542-.464v-4.566c0-.31.233-.464.542-.464.31 0 .542.232.542.464v3.947h7.428v-3.947c0-.31.232-.464.542-.464.31 0 .541.232.541.464v4.488c-.154.31-.387.542-.619.542z" stroke="#fff" stroke-width=".5" stroke-miterlimit="10"/><path d="M26.767 23.93h-2.553c-.31 0-.542-.232-.542-.464v-2.94c0-.31.232-.465.541-.465h2.554c.31 0 .542.232.542.464v2.94c-.078.31-.31.465-.542.465zm-2.012-1.006h1.548V20.99h-1.548v1.934z" stroke="#fff" stroke-width=".5" stroke-miterlimit="10"/><path d="M27.773 29.347h-4.875a.59.59 0 01-.387-.155c-.078-.155-.155-.31-.078-.464l1.316-5.34c.077-.232.232-.386.464-.386h2.554c.232 0 .464.154.464.387l1.006 5.339c0 .154 0 .31-.078.386a.426.426 0 01-.386.233zm-4.179-1.006h3.637l-.851-4.334h-1.703l-1.083 4.334zm2.012-14.006c-3.714 0-6.81-3.018-6.81-6.81 0-3.713 3.019-6.808 6.81-6.808 3.714.077 6.81 3.095 6.81 6.809 0 3.791-3.096 6.81-6.81 6.81zm0-12.613c-3.172 0-5.803 2.631-5.803 5.804 0 3.172 2.63 5.803 5.803 5.803s5.803-2.63 5.803-5.803-2.63-5.804-5.803-5.804z" stroke="#fff" stroke-width=".5" stroke-miterlimit="10"/><path d="M30.403 6.597c-1.702 0-3.25-.464-4.41-1.392-.232-.155-.232-.465-.077-.697.154-.232.464-.232.696-.077 1.238 1.006 3.25 1.393 5.107 1.083.31-.077.541.155.619.387.077.31-.155.542-.387.619-.62.077-1.083.077-1.548.077z" stroke="#fff" stroke-width=".5" stroke-miterlimit="10"/><path d="M22.28 6.52c-1.006 0-1.935-.155-2.863-.542-.233-.077-.387-.386-.31-.619.077-.232.387-.386.62-.31a6.4 6.4 0 002.475.465c2.863 0 5.107-1.547 5.107-3.482 0-.31.232-.464.542-.464.31 0 .541.232.541.464 0 2.399-2.708 4.488-6.113 4.488zM49.593 62c-.31 0-.541-.232-.541-.464v-2.322a3.303 3.303 0 00-3.328-3.327h-5.57a3.303 3.303 0 00-3.328 3.327v2.322c0 .31-.232.464-.542.464-.31 0-.541-.232-.541-.464v-2.322a4.326 4.326 0 014.333-4.333h5.571a4.326 4.326 0 014.333 4.333v2.322c.078.232-.077.464-.387.464zM31.41 62c-.31 0-.542-.232-.542-.464v-2.322a3.303 3.303 0 00-3.327-3.327h-5.572a3.303 3.303 0 00-3.327 3.327v2.322c0 .31-.232.464-.541.464-.31 0-.542-.232-.542-.464v-2.322a4.326 4.326 0 014.333-4.333h5.571a4.326 4.326 0 014.333 4.333v2.322c.155.232-.077.464-.386.464zm-16.791 0c-.31 0-.465-.232-.465-.464v-2.322a3.303 3.303 0 00-3.327-3.327H5.256a3.303 3.303 0 00-3.327 3.327v2.322c0 .31-.233.464-.465.464-.31 0-.464-.232-.464-.464v-2.322a4.326 4.326 0 014.333-4.333h5.417a4.326 4.326 0 014.333 4.333v2.322a.5.5 0 01-.465.464zm28.242-7.892c-2.243 0-4.1-1.858-4.1-4.102 0-2.243 1.856-4.1 4.1-4.1 2.245 0 4.102 1.857 4.102 4.1 0 2.244-1.858 4.102-4.102 4.102zm-3.095-3.87c.155 1.626 1.47 2.864 3.096 2.864a3.104 3.104 0 003.095-3.096v-.31c-.852.078-1.78-.154-2.554-.618-.928.928-2.321 1.393-3.637 1.16zm.078-1.005c.154 0 .387.077.619.077 1.006 0 1.857-.464 2.476-1.238.077-.077.232-.155.31-.232.154 0 .309 0 .386.077.542.465 1.316.697 2.012.697-.464-1.006-1.547-1.78-2.785-1.78-1.47.077-2.631 1.083-3.018 2.399zm-15.166 4.875c-2.244 0-4.101-1.858-4.101-4.102 0-2.243 1.857-4.1 4.1-4.1 2.245 0 4.102 1.857 4.102 4.1.077 2.244-1.78 4.102-4.101 4.102zm-3.018-3.87c.155 1.626 1.47 2.864 3.095 2.864a3.104 3.104 0 003.095-3.096v-.31c-.851.078-1.78-.154-2.553-.618-.929.928-2.399 1.393-3.637 1.16zm.077-1.005c.155 0 .387.077.62.077 1.005 0 1.934-.464 2.475-1.238.078-.077.233-.155.31-.232.155 0 .31 0 .387.077.541.465 1.315.697 2.012.697-.465-1.006-1.548-1.78-2.786-1.78-1.47.077-2.708 1.083-3.018 2.399zm-13.85 4.875c-2.244 0-4.101-1.858-4.101-4.102 0-2.243 1.857-4.1 4.1-4.1 2.245 0 4.102 1.857 4.102 4.1 0 2.244-1.857 4.102-4.101 4.102zm-3.095-3.87c.154 1.626 1.47 2.864 3.095 2.864a3.104 3.104 0 003.095-3.096v-.31c-.851.078-1.78-.154-2.554-.618-.773.774-1.857 1.238-2.94 1.238-.232 0-.464 0-.696-.077zm.077-1.005c.232.077.387.077.619.077 1.006 0 1.857-.464 2.476-1.238.077-.077.232-.155.31-.232.154 0 .31 0 .386.077.542.465 1.316.697 2.012.697-.464-1.006-1.547-1.78-2.785-1.78-1.47.077-2.631 1.083-3.018 2.399zM43.094 44.9c-.31 0-.541-.233-.541-.465V37.55L8.35 37.162v7.119c0 .309-.232.464-.464.464-.31 0-.464-.232-.464-.464V36.62c0-.155.077-.232.155-.387 0-.077.154-.077.31-.077l35.206.387c.31 0 .464.232.464.464v7.428c.078.232-.154.465-.464.465z" stroke="#fff" stroke-width=".5" stroke-miterlimit="10"/><path d="M25.374 41.03c-.31 0-.542-.232-.542-.464V28.805c0-.31.232-.464.542-.464.31 0 .541.232.541.464v11.684c-.077.31-.31.542-.541.542z" stroke="#fff" stroke-width=".5" stroke-miterlimit="10"/></symbol><symbol viewBox="0 0 17 17" id="phone" xmlns="http://www.w3.org/2000/svg"><path d="M15.658 11.193a9.72 9.72 0 01-3.05-.485c-.475-.164-1.014-.037-1.326.281l-1.93 1.458C7.137 11.265 5.72 9.848 4.554 7.65l1.418-1.884c.357-.357.485-.88.332-1.37a9.715 9.715 0 01-.488-3.054C5.816.602 5.214 0 4.474 0H1.342C.602 0 0 .602 0 1.342 0 9.975 7.025 17 15.658 17c.74 0 1.342-.602 1.342-1.342v-3.123c0-.74-.602-1.342-1.342-1.342z"/></symbol><symbol viewBox="0 0 69 59" id="quote" xmlns="http://www.w3.org/2000/svg"><path d="M23.728.077H7.909c-2.197 0-4.064.77-5.602 2.307C.769 3.922 0 5.789 0 7.986v15.819c0 2.197.769 4.064 2.307 5.601 1.538 1.538 3.405 2.307 5.602 2.307h9.228c1.098 0 2.032.385 2.8 1.154.77.768 1.154 1.702 1.154 2.801v1.318c0 2.91-1.03 5.395-3.09 7.455-2.059 2.06-4.544 3.09-7.456 3.09H7.91c-.714 0-1.332.26-1.854.782-.521.522-.782 1.14-.782 1.854v5.273c0 .713.26 1.333.782 1.854.523.521 1.14.783 1.854.783h2.637c2.856 0 5.582-.557 8.177-1.669 2.595-1.112 4.84-2.616 6.735-4.51 1.895-1.896 3.398-4.14 4.51-6.736a20.547 20.547 0 001.669-8.176v-29c0-2.198-.77-4.065-2.307-5.602C27.792.846 25.925.077 23.728.077zm42.511 2.307C64.7.846 62.834.077 60.636.077H44.819c-2.197 0-4.064.77-5.602 2.307-1.537 1.538-2.306 3.405-2.306 5.602v15.819c0 2.197.769 4.064 2.306 5.601 1.538 1.538 3.405 2.307 5.602 2.307h9.228c1.098 0 2.033.385 2.801 1.154.769.768 1.154 1.702 1.154 2.801v1.318c0 2.91-1.03 5.395-3.09 7.455-2.06 2.06-4.544 3.09-7.456 3.09H44.82c-.714 0-1.333.26-1.854.782-.522.522-.783 1.14-.783 1.854v5.273c0 .713.261 1.333.783 1.854.521.521 1.14.783 1.853.783h2.637c2.856 0 5.581-.557 8.177-1.669 2.595-1.112 4.84-2.616 6.735-4.51 1.895-1.896 3.4-4.14 4.51-6.736a20.547 20.547 0 001.67-8.176v-29c-.001-2.198-.77-4.065-2.308-5.602z" fill-opacity=".13"/></symbol><symbol viewBox="0 0 410.155 410.155" id="twitter" xmlns="http://www.w3.org/2000/svg"><path d="M403.632 74.18a162.414 162.414 0 01-28.28 9.537 88.177 88.177 0 0023.275-37.067c1.295-4.051-3.105-7.554-6.763-5.385a163.188 163.188 0 01-43.235 17.862 11.02 11.02 0 01-2.702.336c-2.766 0-5.455-1.027-7.57-2.891-16.156-14.239-36.935-22.081-58.508-22.081-9.335 0-18.76 1.455-28.014 4.325-28.672 8.893-50.795 32.544-57.736 61.724-2.604 10.945-3.309 21.9-2.097 32.56a3.166 3.166 0 01-.797 2.481 3.278 3.278 0 01-2.753 1.091c-62.762-5.831-119.358-36.068-159.363-85.14-2.04-2.503-5.952-2.196-7.578.593-7.834 13.44-11.974 28.812-11.974 44.454 0 23.972 9.631 46.563 26.36 63.032a79.24 79.24 0 01-20.169-7.808c-3.06-1.7-6.825.485-6.868 3.985-.438 35.612 20.412 67.3 51.646 81.569a79.567 79.567 0 01-16.786-1.399c-3.446-.658-6.341 2.611-5.271 5.952 10.138 31.651 37.39 54.981 70.002 60.278-27.066 18.169-58.585 27.753-91.39 27.753l-10.227-.006c-3.151 0-5.816 2.054-6.619 5.106-.791 3.006.666 6.177 3.353 7.74 36.966 21.513 79.131 32.883 121.955 32.883 37.485 0 72.549-7.439 104.219-22.109 29.033-13.449 54.689-32.674 76.255-57.141 20.09-22.792 35.8-49.103 46.692-78.201 10.383-27.737 15.871-57.333 15.871-85.589v-1.346c-.001-4.537 2.051-8.806 5.631-11.712a174.776 174.776 0 0035.16-38.591c2.573-3.849-1.485-8.673-5.719-6.795z"/></symbol><symbol viewBox="0 0 512 512" id="upload" xmlns="http://www.w3.org/2000/svg"><path d="M380.032 133.472l-112-128C264.992 2.016 260.608 0 256 0s-8.992 2.016-12.032 5.472l-112 128c-4.128 4.736-5.152 11.424-2.528 17.152A16.013 16.013 0 00144 160h64v208c0 8.832 7.168 16 16 16h64c8.832 0 16-7.168 16-16V160h64a15.96 15.96 0 0014.56-9.376c2.592-5.728 1.632-12.448-2.528-17.152z"/><path d="M432 352v96H80v-96H16v128c0 17.696 14.336 32 32 32h416c17.696 0 32-14.304 32-32V352h-64z"/></symbol><symbol viewBox="0 0 31 37" id="user" xmlns="http://www.w3.org/2000/svg"><path d="M15.368 19.638h.241c2.211-.038 4-.816 5.32-2.302 2.907-3.276 2.424-8.89 2.37-9.427-.188-4.022-2.09-5.947-3.66-6.845C18.47.393 17.104.03 15.58 0h-.128c-.838 0-2.483.136-4.06 1.034-1.585.898-3.518 2.823-3.706 6.875-.053.536-.536 6.151 2.37 9.427 1.313 1.487 3.101 2.264 5.313 2.302zM9.7 8.098c0-.023.007-.045.007-.06.25-5.412 4.09-5.993 5.736-5.993h.09c2.039.046 5.503.876 5.737 5.993 0 .022 0 .045.007.06.008.053.536 5.185-1.864 7.887-.951 1.071-2.219 1.6-3.887 1.615h-.075c-1.66-.015-2.936-.544-3.88-1.615C9.18 13.298 9.693 8.143 9.7 8.098z"/><path d="M30.998 28.95v-.022c0-.06-.008-.12-.008-.189-.045-1.494-.143-4.988-3.418-6.105l-.076-.023c-3.404-.868-6.234-2.83-6.264-2.853a1.018 1.018 0 10-1.17 1.668c.128.09 3.132 2.181 6.89 3.147 1.76.627 1.955 2.506 2.008 4.227 0 .068 0 .128.008.188.007.68-.038 1.729-.159 2.332-1.222.695-6.015 3.095-13.305 3.095-7.26 0-12.083-2.408-13.313-3.102-.121-.604-.174-1.653-.159-2.332 0-.06.008-.121.008-.189.053-1.72.249-3.6 2.007-4.226 3.759-.966 6.763-3.064 6.89-3.147a1.018 1.018 0 10-1.169-1.668c-.03.022-2.845 1.985-6.264 2.852a.948.948 0 00-.076.023C.153 23.751.055 27.245.01 28.732c0 .068 0 .128-.008.188v.023c-.007.392-.015 2.408.385 3.419a.968.968 0 00.392.475c.227.151 5.653 3.608 14.732 3.608 9.08 0 14.506-3.464 14.732-3.608a1.01 1.01 0 00.393-.475c.377-1.004.37-3.019.362-3.411z"/></symbol><symbol viewBox="0 0 26 15" id="vk" xmlns="http://www.w3.org/2000/svg"><path d="M25.768 13.232c-.07-.117-.502-1.056-2.582-2.987-2.178-2.022-1.885-1.693.738-5.19 1.597-2.128 2.236-3.428 2.036-3.984-.19-.53-1.365-.39-1.365-.39l-3.907.023s-.29-.04-.505.09c-.21.126-.345.418-.345.418s-.619 1.648-1.445 3.05c-1.74 2.955-2.437 3.111-2.722 2.928-.661-.428-.495-1.72-.495-2.636 0-2.865.434-4.06-.847-4.369-.426-.102-.738-.17-1.825-.182C11.11-.01 9.928.008 9.26.335c-.445.218-.788.704-.578.731.258.034.843.158 1.154.58.401.545.386 1.77.386 1.77s.231 3.372-.538 3.792c-.528.287-1.25-.3-2.803-2.983-.795-1.373-1.396-2.892-1.396-2.892S5.37 1.05 5.163.899c-.25-.184-.6-.242-.6-.242L.846.679S.29.696.085.938c-.182.216-.015.661-.015.661s2.91 6.805 6.202 10.235c3.02 3.145 6.45 2.939 6.45 2.939h1.553s.47-.053.709-.31c.221-.238.213-.683.213-.683s-.031-2.085.938-2.393c.953-.302 2.179 2.015 3.477 2.908.982.674 1.728.526 1.728.526l3.473-.048s1.817-.113.955-1.541z"/></symbol><symbol viewBox="0 0 461.001 461.001" id="youtube" xmlns="http://www.w3.org/2000/svg"><path d="M365.257 67.393H95.744C42.866 67.393 0 110.259 0 163.137v134.728c0 52.878 42.866 95.744 95.744 95.744h269.513c52.878 0 95.744-42.866 95.744-95.744V163.137c0-52.878-42.866-95.744-95.744-95.744zm-64.751 169.663l-126.06 60.123c-3.359 1.602-7.239-.847-7.239-4.568V168.607c0-3.774 3.982-6.22 7.348-4.514l126.06 63.881c3.748 1.899 3.683 7.274-.109 9.082z"/></symbol></svg>